%
T1C.008F000S000
X010250Y010250
X010250Y011250
X010250Y012250
X010250Y013250
X010250Y014250
X010250Y015250
X010250Y016250
X010250Y017250
X010250Y018250
X010250Y019250
X010250Y020250
X010250Y021250
X010250Y022250
X010250Y023250
X010250Y024250
X010250Y025250
X010250Y026250
X010250Y027250
X010250Y028250
X010250Y029250
X010250Y030250
X010250Y031250
X010250Y032250
X010250Y033250
X010250Y034250
X010250Y035250
X010250Y036250
X010250Y037250
X010250Y038250
X010250Y039250
X010250Y040250
X010250Y041250
X010250Y042250
X010250Y043250
X010250Y044250
X010250Y045250
X010250Y046250
X010250Y047250
X010250Y048250
X010250Y049250
X010250Y050250
X010250Y051250
X010250Y052250
X010250Y053250
X010250Y054250
X010250Y055250
X010250Y056250
X010250Y057250
X010250Y058250
X010250Y059250
X010250Y060250
X010250Y061250
X010250Y062250
X010250Y063250
X010250Y064250
X010250Y065250
X010250Y066250
X010250Y067250
X010250Y068250
X010250Y069250
X010250Y070250
X010250Y071250
X010250Y072250
X010250Y073250
X010250Y074250
X010250Y075250
X010250Y076250
X010250Y077250
X010250Y078250
X010250Y079250
X010250Y080250
X010250Y081250
X010250Y082250
X010250Y083250
X010250Y084250
X010250Y085250
X010250Y086250
X010250Y087250
X010250Y088250
X010250Y089250
X010250Y090250
X010250Y091250
X010250Y092250
X010250Y093250
X010250Y094250
X010250Y095250
X010250Y096250
X010250Y097250
X010250Y098250
X010250Y099250
X010250Y100250
X010250Y101250
X010250Y102250
X010250Y103250
X010250Y104250
X010250Y105250
X010250Y106250
X010250Y107250
X010250Y108250
X010250Y109250
X010250Y110250
X010250Y111250
X010250Y112250
X010250Y113250
X010250Y114250
X010250Y115250
X010250Y116250
X010250Y117250
X010250Y118250
X010250Y119250
X010250Y120250
X010250Y121250
X010250Y122250
X010250Y123250
X010250Y124250
X010250Y125250
X010250Y126250
X010250Y127250
X010250Y128250
X010250Y129250
X010250Y130250
X010250Y131250
X010250Y132250
X016800Y113700
X018850Y113700
X016800Y113200
X018850Y113200
X018900Y112700
X016800Y112200
X018900Y112200
X016800Y111700
X018850Y111700
X016270Y111560
X016300Y111290
X014370Y102830
X014050Y073850
X018850Y073700
X017890Y073700
X018850Y073200
X018900Y072200
X017890Y072200
X018850Y071700
X016300Y071300
X016250Y070700
X015750Y063300
X014370Y063120
X015240Y062400
X014930Y061950
X013160Y061120
X015200Y061000
X013210Y060520
X018850Y033700
X018850Y033200
X018900Y032200
X018850Y031700
X016250Y030700
X013060Y030660
X014370Y023120
X014890Y012960
X015900Y012900
X024850Y013300
X021950Y014150
X024850Y023300
X021950Y024150
X024850Y033300
X021950Y034150
X024850Y043300
X021950Y044150
X024850Y053300
X021950Y054150
X024850Y063300
X021950Y064150
X024850Y073300
X021950Y074150
X024850Y083300
X021950Y084150
X020550Y088500
X024850Y093300
X021950Y094150
X024850Y103300
X021950Y104150
X024850Y113300
X021950Y114150
X024850Y123300
X021950Y124150
X029420Y126760
X027760Y126140
X029430Y116760
X027760Y116150
X029420Y106760
X027760Y106140
X029430Y096760
X030100Y096500
X027760Y096140
X027760Y086140
X029430Y076760
X027760Y076140
X029680Y067120
X027760Y066140
X030100Y056500
X027760Y056150
X030100Y046400
X027760Y046150
X029680Y037120
X030100Y036400
X027760Y036140
X029680Y027120
X029980Y027030
X027760Y026150
X030100Y016500
X027760Y016150
X032470Y012190
X031170Y012190
X031180Y013000
X032480Y013010
X032650Y015750
X032350Y015950
X032080Y015950
X032550Y016150
X032280Y016230
X030860Y016480
X032050Y016550
X031400Y016600
X031200Y022170
X032490Y022200
X032500Y022970
X031190Y023000
X032080Y025950
X030854Y026480
X032050Y026550
X031180Y032000
X032490Y032200
X032500Y032980
X031200Y033000
X032363Y035950
X032073Y035960
X032550Y036150
X032280Y036230
X032107Y036579
X031400Y036600
X032490Y042210
X031160Y042250
X032500Y042980
X031210Y042990
X032080Y045950
X032050Y046550
X030250Y050450
X032520Y052190
X031190Y052190
X031200Y052930
X032510Y052960
X032080Y055950
X032050Y056550
X032080Y065950
X032050Y066550
X031400Y066600
X032080Y075950
X032050Y076550
X032080Y085950
X032050Y086550
X032350Y095950
X032050Y096550
X032080Y105950
X032050Y106550
X032080Y115950
X032050Y116550
X032200Y121900
X032080Y125950
X032050Y126550
X033350Y129500
X034050Y129150
X034500Y128600
X034764Y128350
X035143Y126700
X034492Y126092
X035110Y125450
X033350Y119500
X034050Y119150
X034500Y118600
X034754Y118340
X035126Y116699
X034491Y116092
X034050Y109150
X034500Y108600
X034754Y108340
X035126Y106699
X034491Y106092
X035110Y105445
X033350Y099500
X034000Y099200
X034500Y098600
X034754Y098340
X034891Y096850
X035126Y096699
X034492Y096092
X033350Y089500
X034050Y089150
X034500Y088600
X034764Y088350
X035126Y086699
X034491Y086092
X033350Y079500
X034050Y079150
X034500Y078600
X034754Y078340
X035126Y076699
X034491Y076092
X034050Y069150
X034314Y068800
X034500Y068600
X034754Y068340
X035126Y066699
X034491Y066092
X035110Y065445
X033710Y063980
X035100Y063480
X033114Y059650
X033764Y059350
X034314Y058800
X034754Y058340
X034891Y056850
X034194Y056280
X034491Y056092
X035110Y055445
X033350Y049500
X034050Y049150
X034500Y048600
X034764Y048350
X034900Y046850
X034184Y046280
X034491Y046092
X033600Y045570
X035110Y045445
X035100Y043480
X033114Y039650
X034050Y039150
X034500Y038600
X034754Y038340
X034491Y036092
X035110Y035445
X034924Y034200
X033714Y033980
X035100Y033480
X034050Y029150
X034314Y028800
X035050Y028800
X034500Y028600
X034754Y028340
X034491Y026092
X035110Y025445
X034520Y023480
X033350Y019500
X033764Y019350
X034500Y018600
X034754Y018340
X034891Y016850
X035126Y016699
X034194Y016280
X034491Y016092
X033800Y015850
X035110Y015445
X034920Y014200
X033710Y013980
X035370Y013900
X038790Y014040
X038520Y014110
X038240Y014190
X037960Y014250
X037950Y014540
X035980Y014640
X036300Y015410
X035660Y019450
X035560Y023160
X037520Y023250
X037353Y023470
X038520Y024110
X035950Y024650
X036300Y025410
X035654Y029450
X038220Y033120
X036300Y035410
X038520Y044110
X036300Y045410
X038520Y054110
X036300Y055410
X038790Y064040
X036300Y065430
X038790Y074040
X036300Y075410
X038790Y084040
X036300Y085410
X038790Y094040
X036300Y095410
X038790Y104040
X036300Y105410
X038790Y114040
X036300Y115410
X038790Y124040
X036300Y125420
X046750Y125700
X049900Y086050
X049490Y085650
X048910Y085250
X050200Y084940
X048570Y084930
X049740Y084510
X049240Y084230
X048750Y083810
X047925Y083613
X047309Y083045
X047480Y082616
X049409Y082591
X050197Y082591
X049803Y082591
X049409Y082197
X050197Y082197
X049803Y082197
X049409Y081803
X050197Y081803
X049803Y081803
X047502Y081776
X049409Y081409
X050197Y081409
X049803Y081409
X046978Y081314
X047413Y080860
X046980Y079980
X047340Y079520
X048110Y079430
X049492Y079092
X048430Y079090
X048470Y078890
X049972Y078731
X048880Y078430
X049298Y078025
X049660Y077668
X051890Y066580
X051990Y066840
X053900Y066850
X053740Y068560
X054980Y070080
X054710Y070740
X054700Y074150
X054980Y074175
X054980Y075120
X054210Y075920
X051890Y080840
X050591Y081409
X051460Y081760
X050591Y081803
X050591Y082197
X050591Y082591
X053550Y085080
X052970Y085090
X051150Y116500
X052000Y118250
X052500Y118250
X051500Y118250
X050500Y118250
X051000Y118250
X053000Y118250
X053500Y118250
X054000Y118250
X054500Y118250
X055000Y118250
X051500Y118750
X052500Y118750
X052000Y118750
X053000Y118750
X053500Y118750
X054000Y118750
X054500Y118750
X055000Y118750
X051250Y119500
X051750Y119750
X051250Y120000
X051750Y120250
X051250Y120500
X051750Y120750
X051250Y121000
X051750Y121250
X051500Y122250
X052500Y122250
X052000Y122250
X053500Y122250
X053000Y122250
X054500Y122250
X054000Y122250
X055000Y122250
X052000Y122750
X050500Y122750
X053000Y122750
X053500Y122750
X051000Y122750
X051500Y122750
X052500Y122750
X054000Y122750
X054500Y122750
X055000Y122750
X056500Y122750
X055500Y122750
X056000Y122750
X057000Y122750
X057500Y122750
X055500Y122250
X056000Y122250
X056920Y121600
X056910Y119290
X056000Y119250
X056500Y119250
X056500Y118750
X055500Y118750
X056680Y118750
X055500Y118250
X056500Y118250
X056000Y118250
X055820Y095330
X055770Y094970
X057438Y080038
X057596Y079815
X055330Y074810
X057500Y074805
X055620Y074520
X057500Y074490
X056555Y074490
X056555Y074175
X056240Y074175
X055925Y074175
X057500Y074175
X057185Y074175
X055295Y074175
X056890Y073860
X055925Y073860
X055610Y073860
X056555Y073860
X056240Y073860
X056555Y073545
X056870Y073545
X056240Y073545
X055925Y073545
X057190Y073540
X057190Y073230
X056870Y073230
X056240Y073230
X055925Y073230
X056555Y073230
X056555Y072915
X057185Y072915
X056870Y072915
X057170Y072600
X055925Y072600
X056240Y072600
X056870Y072600
X056555Y072600
X055610Y072285
X057185Y072285
X056870Y072285
X055925Y072285
X056555Y072285
X056240Y072285
X056240Y071970
X056870Y071970
X057185Y071970
X056555Y071970
X057190Y071670
X056240Y071655
X056870Y071620
X056555Y071340
X056240Y071340
X057185Y071340
X055610Y071340
X056870Y071340
X057185Y071025
X055925Y071025
X056555Y071025
X056240Y071025
X057500Y071025
X055610Y071025
X055610Y070710
X057185Y070710
X056870Y070710
X055295Y070395
X056870Y070395
X056080Y066170
X055940Y065900
X059950Y068910
X058290Y070070
X060020Y070080
X058130Y070395
X058445Y070395
X059705Y070395
X058130Y070710
X058445Y070710
X057815Y071025
X058130Y071025
X058445Y071025
X058760Y071025
X059075Y071025
X060060Y071180
X058760Y071340
X059075Y071340
X058130Y071340
X057815Y071340
X058445Y071340
X059075Y071655
X058445Y071655
X058130Y071655
X057820Y071670
X058760Y071940
X059050Y071950
X058445Y071970
X057815Y071970
X058130Y071970
X057815Y072285
X059075Y072285
X058130Y072285
X058760Y072285
X058440Y072290
X059390Y072290
X059350Y072910
X058130Y072915
X057815Y072915
X059075Y072915
X058760Y072915
X057815Y073230
X058130Y073230
X057810Y073540
X058445Y073545
X059075Y073545
X059075Y073860
X058760Y073860
X058760Y074175
X059075Y074175
X059705Y074490
X058450Y074500
X060020Y075120
X059960Y087320
X060090Y087520
X059870Y087580
X059880Y087790
X060100Y088000
X059900Y088000
X059750Y118250
X059250Y118250
X058750Y118250
X058250Y118250
X057750Y118250
X059750Y118750
X057750Y118750
X058250Y118750
X058750Y118750
X059250Y118750
X057750Y119250
X059250Y119250
X059750Y119250
X058250Y119250
X060000Y119500
X059100Y119500
X057750Y119500
X060000Y120000
X059100Y120680
X060030Y121260
X057750Y121500
X058250Y121500
X060000Y121750
X058500Y122000
X058000Y122000
X060000Y122250
X057750Y122500
X058250Y122500
X059000Y122750
X058500Y122750
X059500Y122750
X058000Y122750
X060000Y122750
X063900Y131200
X061200Y113500
X060470Y091250
X060430Y091040
X060410Y089090
X060260Y088940
X065050Y088150
X064650Y087900
X064650Y087600
X065050Y087350
X064882Y087118
X064050Y086150
X063400Y086000
X063000Y086000
X064050Y085800
X063400Y085500
X063000Y085500
X064882Y085150
X062390Y084900
X064882Y084362
X063220Y084180
X062800Y084150
X062463Y084094
X064655Y083895
X062800Y083690
X064882Y083575
X062800Y083300
X063220Y082910
X062450Y082900
X064882Y082787
X063240Y082630
X062930Y082540
X063440Y082510
X064855Y082025
X063440Y081740
X064200Y081650
X062330Y081460
X062560Y081270
X062890Y081230
X063970Y080270
X063550Y080180
X063780Y080180
X063150Y078980
X064882Y078850
X062750Y078730
X064350Y078350
X063800Y077900
X064250Y077850
X064550Y077750
X064930Y077675
X063750Y077600
X063730Y077090
X063750Y076820
X064470Y076330
X064620Y076180
X060500Y075100
X062800Y072810
X062300Y072800
X061790Y072790
X062070Y072790
X062530Y072770
X060490Y071850
X060320Y070080
X063490Y069870
X060690Y063110
X060740Y061780
X060920Y061640
X064900Y024300
X065780Y058930
X067504Y074753
X067704Y074753
X066820Y074970
X066470Y075030
X066320Y075180
X066870Y075200
X066580Y075600
X067037Y075600
X067450Y076130
X066390Y076140
X065830Y076190
X065510Y076350
X065870Y076590
X067480Y076770
X067050Y076860
X066063Y077276
X065276Y077669
X066790Y077670
X066396Y077670
X067250Y077670
X067638Y078063
X066457Y078063
X067244Y078063
X066063Y078063
X066790Y078070
X067244Y078457
X067638Y078457
X067638Y078850
X067244Y078850
X067638Y079244
X066063Y079638
X067244Y079638
X067638Y079638
X066530Y079645
X067638Y080425
X066060Y081220
X066460Y081220
X067240Y081220
X065275Y081220
X066850Y082000
X067244Y082000
X066457Y082000
X067244Y082394
X065669Y082394
X067638Y082394
X067640Y082740
X066457Y082787
X067244Y082787
X066090Y082790
X067240Y083160
X067650Y083160
X065669Y083181
X066450Y083200
X065300Y083200
X067250Y083550
X067610Y083570
X066457Y083575
X067638Y083969
X067244Y083969
X065669Y083969
X066457Y083969
X066850Y083969
X066100Y084000
X066063Y084362
X066457Y084362
X067630Y084370
X066860Y084380
X067250Y084400
X065650Y084400
X066850Y084750
X066457Y084756
X067640Y084820
X065669Y085150
X066850Y085150
X065276Y085150
X066450Y085150
X066450Y085920
X065276Y085937
X066457Y086331
X066900Y086700
X067600Y086700
X066800Y087220
X067630Y087220
X065700Y087350
X066770Y087520
X066150Y087600
X067560Y087710
X066150Y087950
X066770Y088010
X067620Y088100
X065700Y088150
X066770Y088500
X067620Y088550
X066050Y088550
X065500Y088600
X066050Y088900
X065500Y088950
X066770Y100310
X067190Y100310
X067030Y101250
X070000Y130250
X069800Y102400
X070000Y102400
X067790Y101260
X068430Y101060
X069010Y101060
X068450Y099790
X067860Y099790
X069370Y088400
X068950Y088400
X067780Y088400
X069760Y087920
X068200Y087900
X068630Y087900
X070200Y087900
X070000Y087400
X068200Y087250
X068860Y087200
X070010Y086360
X068050Y086350
X068819Y086331
X068040Y085950
X068819Y085937
X069606Y085900
X070000Y085900
X068425Y085543
X068031Y085543
X070000Y085543
X068820Y085540
X069720Y085540
X069240Y085520
X068810Y085200
X068425Y085150
X069213Y085150
X070000Y085150
X069213Y084756
X070000Y084756
X068830Y084754
X069664Y084749
X068400Y084400
X069606Y084362
X069213Y084362
X070000Y084362
X068830Y084360
X068425Y083969
X069610Y083940
X068820Y083940
X069220Y083940
X068025Y083585
X068820Y083580
X069213Y083575
X068425Y083575
X069606Y083575
X069606Y083181
X070000Y083181
X069213Y083181
X068425Y083181
X068819Y083181
X068031Y083181
X068425Y082787
X069213Y082787
X069606Y082787
X070000Y082787
X068819Y082787
X068030Y082740
X070020Y082410
X068031Y082394
X069606Y082394
X068819Y082394
X069213Y082394
X068425Y082394
X068810Y082034
X068394Y082030
X068000Y082030
X069600Y082020
X069200Y082010
X070010Y082010
X069213Y081606
X070000Y081590
X070005Y081275
X068040Y081230
X068400Y081225
X068770Y081220
X069110Y081180
X069230Y080820
X069606Y080819
X070000Y080819
X068030Y080800
X068424Y080800
X068760Y080780
X068000Y080425
X068425Y080425
X070000Y080425
X069560Y080405
X068816Y080390
X069210Y080390
X068425Y079638
X069606Y079638
X068031Y079638
X069213Y079638
X070000Y079638
X068819Y079638
X070000Y079244
X068425Y079244
X068819Y079244
X068031Y079244
X069213Y079244
X069606Y079244
X068870Y078900
X068425Y078850
X068031Y078850
X069606Y078850
X069213Y078850
X070030Y078820
X068031Y078457
X068425Y078457
X068819Y078457
X069213Y078457
X069950Y078450
X068360Y078070
X068031Y078063
X068819Y078063
X069630Y078060
X069964Y078057
X069940Y077670
X069630Y077670
X068031Y077669
X068819Y077669
X068010Y077280
X069213Y076882
X069600Y076875
X069230Y076670
X068042Y076600
X067820Y076130
X069050Y076120
X069450Y076120
X068730Y075600
X068250Y075600
X069830Y075600
X068994Y075122
X068852Y074980
X070230Y067610
X069665Y067265
X068280Y066320
X068250Y066110
X068330Y060350
X068140Y060200
X070020Y055620
X069150Y030700
X069700Y030600
X071590Y021690
X072000Y021690
X071390Y021700
X070910Y022390
X072500Y022400
X070900Y022840
X071820Y023300
X072040Y023330
X071600Y026600
X071400Y026600
X071800Y026600
X072000Y026600
X072250Y026900
X072560Y027460
X070900Y027500
X072200Y028000
X071400Y028200
X071850Y028200
X070370Y028500
X071280Y029120
X071410Y029310
X072000Y031700
X072200Y031700
X071800Y031700
X071200Y031700
X071350Y031880
X072550Y032300
X070400Y055280
X072330Y065780
X072550Y065790
X072590Y073370
X072230Y073760
X072520Y073840
X072580Y074040
X072180Y074630
X072030Y074780
X072590Y075050
X071920Y075150
X072590Y075340
X071080Y075590
X071850Y075600
X070250Y075600
X072650Y076100
X071450Y076100
X072210Y076100
X070650Y076100
X072450Y076580
X070810Y076690
X071640Y076710
X071010Y076890
X072400Y076900
X070390Y077270
X072390Y077280
X070825Y077660
X072395Y077670
X070390Y077670
X071955Y077680
X070390Y078050
X070880Y078060
X071940Y078060
X071181Y078063
X070790Y078440
X071940Y078454
X071181Y078457
X070394Y078457
X072362Y078457
X071940Y078820
X072362Y078850
X070787Y078850
X070394Y078850
X071181Y078850
X071130Y079200
X070424Y079214
X072362Y079244
X070787Y079244
X071575Y079244
X071969Y079244
X072362Y079638
X071969Y079638
X071575Y079638
X071181Y079638
X070780Y079640
X070394Y079650
X072362Y080031
X071969Y080031
X071600Y080060
X070390Y080080
X071175Y080090
X072362Y080425
X071969Y080425
X071181Y080425
X071575Y080425
X070390Y080530
X070787Y080819
X071181Y080819
X070394Y080819
X072362Y080819
X072362Y081213
X070787Y081213
X071181Y081213
X070390Y081260
X070385Y081590
X070787Y081606
X071575Y081606
X072362Y081606
X071181Y081606
X070787Y082000
X071590Y082000
X071181Y082000
X070410Y082020
X071969Y082394
X070394Y082394
X071181Y082394
X070787Y082394
X071575Y082394
X071969Y082787
X071181Y082787
X070787Y082787
X071575Y082787
X072362Y082787
X070410Y082810
X071560Y083180
X070787Y083181
X072362Y083181
X071969Y083181
X071181Y083181
X070394Y083181
X070394Y083575
X071181Y083575
X070787Y083575
X072362Y083575
X071560Y083580
X072040Y083580
X070787Y083969
X071181Y083969
X071575Y083969
X072362Y083969
X070394Y083969
X070360Y084360
X071575Y084362
X072362Y084362
X070787Y084362
X071181Y084362
X071969Y084362
X071890Y084750
X072362Y084756
X070394Y084756
X070787Y084756
X071575Y084756
X071240Y084760
X072360Y085100
X070394Y085150
X071181Y085150
X071575Y085150
X071969Y085150
X070440Y085540
X071969Y085543
X071181Y085543
X071575Y085543
X072362Y085543
X070440Y085920
X070787Y085937
X071969Y085937
X071181Y085937
X072362Y085937
X071650Y085940
X072380Y086310
X072680Y086330
X071610Y086330
X071140Y086330
X070390Y086380
X071140Y086724
X071620Y086730
X070390Y086774
X071000Y087120
X071400Y087280
X072000Y087480
X071400Y087900
X072200Y087900
X071790Y088400
X070600Y088400
X071050Y088400
X072620Y088400
X072410Y090830
X072400Y091160
X071560Y093720
X071490Y094230
X071330Y107290
X071080Y107290
X071000Y108050
X071500Y108050
X071250Y108300
X071000Y108550
X072300Y108550
X071500Y108550
X071100Y109400
X071800Y112900
X071300Y116100
X071300Y116400
X070910Y130080
X073750Y114780
X073480Y114760
X073210Y091010
X073410Y090880
X075140Y089230
X074870Y088480
X074200Y088450
X073400Y088400
X074860Y088150
X073000Y087900
X074600Y087900
X073800Y087900
X074795Y087525
X073600Y087420
X075200Y087380
X072990Y087220
X074350Y087120
X073937Y086724
X074720Y086700
X073543Y086331
X073150Y086331
X073937Y086331
X074331Y086331
X074720Y086330
X073150Y085937
X072756Y085937
X073510Y085930
X073150Y085543
X072756Y085543
X073543Y085543
X073937Y085543
X072756Y085150
X073543Y085150
X073150Y085150
X074331Y085150
X074724Y085150
X073940Y085080
X072756Y084756
X073150Y084756
X073543Y084756
X073937Y084756
X074331Y084756
X072756Y084362
X073150Y084362
X073543Y084362
X074331Y084362
X074724Y084362
X075080Y084320
X072760Y083970
X073150Y083969
X073543Y083969
X074331Y083969
X072756Y083575
X073543Y083575
X073937Y083575
X074710Y083190
X074331Y083181
X073150Y083181
X075118Y083181
X073937Y083181
X072756Y083181
X074724Y082787
X074331Y082787
X075118Y082787
X073543Y082787
X073150Y082787
X072756Y082787
X074724Y082394
X073150Y082394
X073543Y082394
X073937Y082394
X072756Y082394
X073940Y082000
X074724Y081606
X075118Y081606
X073543Y081606
X074331Y081606
X073150Y081606
X072756Y081606
X075150Y081400
X073937Y081213
X073150Y081213
X072756Y081213
X073543Y081213
X074720Y081200
X074724Y080819
X075118Y080819
X073150Y080819
X073937Y080819
X074331Y080819
X073543Y080819
X072756Y080819
X072756Y080425
X073543Y080425
X074331Y080425
X073150Y080425
X073937Y080425
X074720Y080420
X072756Y080031
X073937Y080031
X073543Y080031
X074331Y080031
X073150Y080031
X073543Y079638
X073937Y079638
X072756Y079638
X074331Y079638
X073150Y079638
X072756Y079244
X074331Y079244
X073150Y079244
X074724Y079244
X073543Y079244
X073937Y079244
X075120Y079050
X074331Y078850
X072756Y078850
X073937Y078850
X073543Y078850
X073210Y078490
X073610Y078490
X074724Y078457
X073937Y078457
X072756Y078457
X074331Y078457
X072756Y078063
X073937Y078063
X074331Y078063
X073543Y078063
X073560Y077680
X072830Y077670
X073937Y077669
X073150Y077370
X073980Y077340
X075120Y077320
X073910Y076940
X075118Y076882
X073150Y076850
X073620Y076780
X074050Y076570
X074930Y076110
X073850Y076100
X074250Y076100
X075230Y075830
X073450Y075600
X074700Y075600
X073010Y075600
X073495Y075225
X073590Y074200
X073590Y074000
X073590Y073800
X073590Y073590
X074000Y073070
X074000Y072800
X072900Y030800
X072900Y030600
X072900Y030000
X077430Y069370
X076630Y075170
X076480Y075320
X076510Y075820
X076360Y075970
X075380Y076120
X076420Y077500
X075290Y077850
X075900Y077900
X075320Y078460
X076570Y079000
X075800Y079080
X077590Y080210
X075400Y080800
X075730Y081030
X076480Y081040
X076210Y081060
X077570Y081180
X076780Y081360
X076850Y081750
X075600Y081830
X075430Y081950
X075430Y082150
X076880Y082150
X076880Y082350
X077090Y082560
X077090Y082760
X076130Y082990
X076130Y083190
X077620Y083310
X076450Y084550
X077440Y085000
X076550Y085370
X075900Y085370
X076400Y085790
X076500Y086210
X075900Y086210
X076380Y086600
X075280Y086970
X075890Y087000
X076410Y087400
X075500Y087800
X076250Y087800
X076020Y087880
X075930Y088110
X075450Y088450
X075945Y088460
X075700Y089050
X075340Y089410
X076330Y112830
X076210Y113720
X076450Y115340
X076450Y115610
X076400Y116350
X076500Y116600
X075500Y122250
X075750Y122250
X076250Y122250
X076000Y122500
X076250Y122750
X076250Y123000
X076250Y123250
X076250Y123500
X076250Y123750
X076000Y124000
X076250Y124000
X078550Y130300
X078550Y129300
X078550Y128300
X078550Y127300
X078550Y126300
X079250Y125100
X079250Y124400
X078550Y121300
X078550Y120300
X078550Y119300
X079250Y117000
X078930Y114090
X078940Y113880
X078740Y089620
X077950Y088450
X078950Y087290
X077870Y085200
X077885Y084265
X078535Y084260
X078280Y083910
X078280Y083660
X078270Y083300
X078800Y082700
X078150Y082700
X078270Y082310
X078270Y082110
X078160Y081920
X079350Y081580
X079270Y081380
X079070Y081250
X078010Y081190
X079240Y081090
X079150Y080830
X079190Y080610
X078090Y080250
X078980Y080040
X078800Y079690
X079050Y079680
X079980Y078840
X079350Y078830
X078810Y078510
X079760Y075910
X080020Y073290
X079630Y072420
X079980Y072420
X079960Y071320
X079980Y069900
X079930Y069280
X079360Y069060
X079500Y067400
X079980Y067380
X078910Y063070
X082562Y062463
X082404Y062685
X082500Y067695
X081550Y068000
X080295Y068010
X082500Y068010
X081240Y068325
X080925Y068325
X082500Y068325
X081240Y068640
X080925Y068640
X080925Y068955
X081555Y068955
X082190Y068960
X082185Y069270
X081870Y069270
X080925Y069270
X081870Y069585
X082185Y069585
X080925Y069585
X081240Y069585
X080295Y069585
X080650Y069590
X080295Y069900
X081580Y070190
X081870Y070215
X080610Y070215
X081240Y070215
X082185Y070215
X080925Y070215
X081870Y070530
X081240Y070530
X082185Y070530
X081555Y070530
X080950Y070550
X082180Y070830
X080940Y070830
X081555Y070845
X081870Y070845
X080925Y071160
X081240Y071160
X081555Y071160
X081870Y071160
X082185Y071160
X082185Y071475
X082500Y071475
X081870Y071475
X080925Y071475
X081555Y071475
X081240Y071475
X081870Y071790
X081555Y071790
X081880Y072100
X081555Y072105
X080295Y072105
X081710Y072440
X080600Y073030
X080600Y073900
X081980Y098010
X080250Y117000
X082250Y117000
X081250Y117000
X081250Y124400
X081250Y125100
X083250Y125100
X083250Y124400
X084250Y117000
X083250Y117000
X084220Y101780
X085020Y072420
X084705Y072105
X083130Y072105
X083130Y071790
X082815Y071790
X084390Y071790
X084075Y071475
X082815Y071475
X083445Y071475
X084390Y071475
X083760Y071475
X083760Y071160
X084390Y071160
X083445Y071160
X083130Y071160
X082815Y071160
X083130Y070890
X083760Y070845
X082810Y070830
X083445Y070530
X083760Y070530
X083130Y070530
X082815Y070530
X083130Y070215
X082815Y070215
X083760Y070215
X084075Y070215
X084390Y070215
X083445Y070215
X084075Y069900
X083760Y069900
X083130Y069900
X083445Y069900
X082825Y069897
X083445Y069585
X083130Y069585
X082815Y069585
X083760Y069270
X083445Y069270
X084075Y069270
X083130Y069270
X082810Y069270
X082810Y068960
X084075Y068955
X083130Y068955
X083445Y068955
X083760Y068955
X083760Y068640
X083445Y068640
X084075Y068640
X084390Y068640
X083110Y068640
X084705Y068325
X082815Y068325
X084075Y068325
X083445Y068325
X083760Y068325
X085020Y068325
X083445Y068010
X084380Y067980
X084670Y067690
X085020Y067380
X085790Y066580
X085300Y068350
X085290Y071760
X089110Y072130
X088010Y075660
X088110Y075920
X090020Y078240
X087500Y078550
X089800Y079060
X086720Y081230
X089803Y081409
X089409Y081409
X090197Y081409
X086710Y081430
X086690Y081680
X089409Y081803
X090197Y081803
X089803Y081803
X086690Y081980
X089409Y082197
X090197Y082197
X089803Y082197
X088320Y082400
X089803Y082591
X090197Y082591
X089409Y082591
X088900Y083400
X088110Y084310
X090028Y085269
X089250Y117000
X087250Y124400
X085250Y124400
X089250Y124400
X087250Y125100
X089250Y125100
X085250Y125100
X090250Y117000
X090340Y086332
X090702Y085975
X091209Y085601
X091574Y085247
X091560Y084930
X090508Y084908
X091910Y084580
X093530Y083810
X090950Y083500
X093530Y083220
X093690Y082650
X090591Y082591
X092920Y082210
X090591Y082197
X093440Y082100
X090591Y081803
X090591Y081409
X092920Y081380
X092691Y080955
X092075Y080387
X091250Y080190
X090760Y079770
X090260Y079490
X105236Y014150
X104874Y015801
X104890Y017055
X103700Y017090
X101210Y018460
X105246Y024160
X104890Y027055
X103700Y027090
X101210Y028460
X102654Y029010
X102420Y029190
X105246Y034160
X104890Y037055
X103700Y037068
X101210Y038460
X105246Y044160
X105109Y045650
X104874Y045801
X104890Y047055
X103700Y047090
X104014Y047860
X101210Y048460
X105236Y054150
X104874Y055801
X104890Y057055
X103700Y057090
X101210Y058460
X105246Y064160
X104874Y065801
X104890Y067055
X103700Y067090
X101210Y068460
X104874Y075801
X104890Y077055
X103700Y077090
X101210Y078460
X104900Y079020
X105246Y084160
X105109Y085650
X104874Y085801
X104890Y087055
X103700Y087090
X101210Y088460
X105236Y094150
X104874Y095801
X104890Y097055
X103700Y097090
X101210Y098460
X105246Y104160
X104874Y105801
X104890Y107055
X103700Y107090
X101210Y108460
X105246Y114160
X104874Y115801
X104890Y117055
X103701Y117068
X101210Y118460
X102654Y119000
X105246Y124160
X105109Y125650
X104890Y127055
X103700Y127090
X103090Y127750
X104014Y127860
X101210Y128460
X105509Y126408
X105806Y126220
X105500Y123900
X106000Y123300
X106650Y123000
X107500Y119500
X107650Y116550
X105509Y116408
X105500Y113900
X105950Y113350
X107550Y110310
X107540Y109510
X107650Y106550
X105490Y106400
X105500Y103900
X105950Y103350
X106650Y103000
X107650Y096550
X105509Y096408
X105500Y093900
X105950Y093350
X106650Y093000
X107650Y086550
X105509Y086408
X105806Y086220
X105500Y083900
X106660Y083100
X106540Y082800
X107650Y076550
X105509Y076408
X105500Y073900
X105950Y073350
X107650Y066550
X105509Y066408
X105500Y063900
X105950Y063350
X106650Y063000
X107650Y056550
X105509Y056408
X105500Y053900
X105950Y053350
X106650Y053000
X105509Y046408
X105806Y046220
X105500Y043900
X106000Y043300
X106650Y043000
X105509Y036408
X105820Y036214
X105250Y035650
X105500Y033900
X105950Y033350
X107650Y026550
X105509Y026408
X105816Y026210
X105500Y023900
X105950Y023350
X106650Y023000
X107150Y022200
X105509Y016408
X105500Y013900
X105950Y013350
X106650Y013000
X110320Y015380
X110610Y015740
X107950Y015950
X109146Y016020
X112240Y016360
X107920Y016550
X110620Y025760
X107950Y025950
X112240Y026350
X110610Y035740
X107950Y035950
X112240Y036350
X107920Y036550
X107950Y045950
X109900Y046000
X112240Y046350
X107920Y046530
X107950Y055950
X112240Y056360
X107950Y065950
X112240Y066360
X107950Y075950
X112240Y076350
X107950Y085950
X109900Y086000
X112240Y086350
X107920Y086550
X108810Y089520
X108800Y090310
X107950Y095950
X112240Y096350
X107950Y105950
X112240Y106350
X107950Y115950
X112240Y116360
X107950Y125950
X109900Y126000
X112240Y126350
X107920Y126550
X115150Y129200
X118050Y128350
X115150Y119200
X118050Y118350
X115150Y109200
X118050Y108350
X115150Y099200
X118050Y098350
X115150Y089200
X118050Y088350
X119700Y084020
X120050Y081200
X115150Y079200
X118050Y078350
X115150Y069200
X118050Y068350
X115150Y059200
X118050Y058350
X115150Y049200
X118050Y048350
X119550Y047950
X115150Y039200
X118050Y038350
X115150Y029200
X118050Y028350
X115150Y019200
X118050Y018350
X121200Y019300
X122150Y019500
X122150Y019900
X121150Y028800
X121150Y029300
X122110Y029300
X124810Y030220
X121100Y030300
X122110Y030800
X121150Y030800
X125010Y037950
X124750Y040090
X123210Y047770
X121840Y050960
X121150Y068800
X122110Y069300
X121150Y069300
X125050Y070200
X121100Y070300
X123700Y070400
X121150Y070800
X122110Y070800
X123750Y071800
X124200Y072020
X124250Y078900
X121810Y079160
X122460Y079620
X124760Y080040
X124610Y080790
X123790Y081510
X124870Y081520
X124440Y087780
X124120Y088130
X124120Y088370
X124180Y088560
X124400Y088620
X122210Y088650
X123370Y088790
X122890Y088800
X123120Y088800
X122660Y088810
X125110Y088990
X121220Y090150
X121000Y090500
X124670Y097800
X121150Y108800
X121150Y109300
X125050Y110200
X121100Y110300
X123760Y110640
X121150Y110800
X123700Y111200
X123750Y111800
X124930Y112020
X124250Y118900
X124250Y119200
X129750Y132250
X129750Y131250
X129750Y130250
X129750Y129250
X129750Y128250
X129750Y127250
X129750Y126250
X129750Y125250
X129750Y124250
X129750Y123250
X129750Y122250
X127400Y122100
X129750Y121250
X126100Y120800
X129750Y120250
X125620Y120100
X125630Y119740
X125630Y119380
X129750Y119250
X129750Y118250
X129750Y117250
X129750Y116250
X129750Y115250
X129750Y114250
X129750Y113250
X129750Y112250
X129750Y111250
X125550Y110250
X129750Y110250
X129750Y109250
X129750Y108250
X129750Y107250
X129750Y106250
X129750Y105250
X129750Y104250
X129750Y103250
X129750Y102250
X129750Y101250
X127030Y100810
X126910Y100580
X129750Y100250
X129750Y099250
X129750Y098250
X129750Y097250
X129750Y096250
X129750Y095250
X129750Y094250
X129750Y093250
X129750Y092250
X129750Y091250
X126580Y090770
X129750Y090250
X129750Y089250
X125780Y089020
X125760Y088720
X125830Y088440
X129750Y088250
X125820Y087920
X127090Y087320
X129750Y087250
X129750Y086250
X129750Y085250
X129750Y084250
X129750Y083250
X129750Y082250
X125680Y082000
X126750Y081900
X129750Y081250
X127180Y081140
X126500Y080920
X127140Y080900
X126060Y080800
X126350Y080720
X129750Y080250
X129750Y079250
X127790Y078750
X129750Y078250
X125860Y078000
X126960Y077990
X129750Y077250
X129750Y076250
X129750Y075250
X129750Y074250
X129750Y073250
X129750Y072250
X126810Y072090
X129750Y071250
X129750Y070250
X125550Y070250
X129750Y069250
X129750Y068250
X129750Y067250
X129750Y066250
X129750Y065250
X129750Y064250
X129750Y063250
X129750Y062250
X127300Y061900
X129750Y061250
X129750Y060250
X129750Y059250
X129750Y058250
X129750Y057250
X129750Y056250
X129750Y055250
X129750Y054250
X129750Y053250
X129750Y052250
X129750Y051250
X126430Y050700
X126560Y050450
X129750Y050250
X129750Y049250
X129750Y048250
X126620Y048090
X126720Y047880
X129750Y047250
X129750Y046250
X129750Y045250
X129750Y044250
X129750Y043250
X129750Y042250
X126650Y042050
X129750Y041250
X129750Y040250
X125620Y040100
X125630Y039740
X125630Y039380
X129750Y039250
X129750Y038250
X129750Y037250
X129750Y036250
X129750Y035250
X129750Y034250
X129750Y033250
X129750Y032250
X129750Y031250
X126900Y031100
X125580Y030650
X125780Y030550
X126900Y030400
X129750Y030250
X129750Y029250
X129750Y028250
X129750Y027250
X129750Y026250
X129750Y025250
X129750Y024250
X129750Y023250
X129750Y022250
X129750Y021250
X129750Y020250
X129750Y019250
X129750Y018250
X129750Y017250
X129750Y016250
X129750Y015250
X129750Y014250
X129750Y013250
X129750Y012250
X129750Y011250
X129750Y010250
T2C.012F095S300
X014370Y013690
X014700Y014150
X014800Y014700
X015100Y014750
X013354Y015480
X014354Y015480
X013854Y015480
X014854Y015480
X013354Y015980
X014854Y015980
X014354Y015980
X013854Y015980
X013354Y016480
X014854Y016480
X013354Y016980
X013354Y017480
X013854Y017480
X013354Y017980
X013854Y017980
X013354Y018480
X013354Y018980
X014854Y018980
X013354Y019480
X014854Y019480
X014354Y019480
X013854Y019480
X014850Y019950
X013354Y019980
X014354Y019980
X013854Y019980
X014800Y020400
X013900Y020500
X013900Y021700
X012650Y021900
X014940Y021960
X015200Y022220
X012650Y022300
X014380Y022480
X012650Y022700
X014370Y022760
X012650Y023100
X012650Y023500
X012650Y023900
X013354Y025480
X014854Y025480
X014354Y025480
X013854Y025480
X013354Y025980
X014354Y025980
X014854Y025980
X013854Y025980
X013354Y026480
X014854Y026480
X013354Y026980
X013354Y027480
X013854Y027480
X013354Y027980
X013854Y027980
X013354Y028480
X013354Y028980
X014854Y028980
X013354Y029480
X013854Y029480
X014354Y029480
X014854Y029480
X012420Y029600
X013354Y029980
X013854Y029980
X014354Y029980
X014854Y029980
X014420Y030730
X012700Y031300
X013550Y031300
X013600Y031700
X013680Y032100
X012500Y033200
X013100Y033250
X013800Y033250
X012900Y033500
X014040Y033550
X014050Y033850
X012900Y034200
X014000Y034200
X015200Y034400
X013100Y034450
X013800Y034450
X013450Y034600
X013354Y035480
X014854Y035480
X014354Y035480
X013854Y035480
X013354Y035980
X014854Y035980
X013854Y035980
X014354Y035980
X013354Y036480
X014854Y036480
X013354Y036980
X013354Y037480
X013854Y037480
X013354Y037980
X013854Y037980
X013354Y038480
X013354Y038980
X014854Y038980
X013354Y039480
X014854Y039480
X014354Y039480
X013854Y039480
X013354Y039980
X014854Y039980
X013854Y039980
X014354Y039980
X012700Y040600
X014450Y043500
X014850Y043600
X013354Y045480
X014354Y045480
X013854Y045480
X014854Y045480
X013354Y045980
X014854Y045980
X014354Y045980
X013854Y045980
X013354Y046480
X014854Y046480
X013354Y046980
X013354Y047480
X013854Y047480
X013354Y047980
X013854Y047980
X013354Y048480
X013354Y048980
X014854Y048980
X013354Y049480
X014854Y049480
X014354Y049480
X013854Y049480
X013354Y049980
X014354Y049980
X014854Y049980
X013854Y049980
X013500Y051500
X014670Y053140
X014370Y053690
X014700Y054150
X014590Y054460
X013620Y054630
X015070Y054720
X013354Y055480
X013854Y055480
X014854Y055480
X014354Y055480
X013354Y055980
X013854Y055980
X014854Y055980
X014354Y055980
X013354Y056480
X014854Y056480
X013354Y056980
X013354Y057480
X013854Y057480
X013354Y057980
X013854Y057980
X013354Y058480
X013354Y058980
X014854Y058980
X013354Y059480
X014354Y059480
X014854Y059480
X013854Y059480
X013354Y059980
X014354Y059980
X014854Y059980
X013854Y059980
X014800Y060400
X013470Y061430
X013900Y061700
X013570Y061720
X012650Y061900
X012650Y062300
X014370Y062470
X012650Y062700
X014370Y062840
X012650Y063100
X012650Y063500
X012650Y063900
X014150Y064650
X014850Y064700
X013360Y065480
X014854Y065480
X014354Y065480
X013854Y065480
X013360Y065980
X014854Y065980
X014354Y065980
X013854Y065980
X013360Y066480
X014854Y066480
X013360Y066980
X013360Y067480
X013854Y067480
X013360Y067980
X013854Y067980
X013360Y068480
X013360Y068980
X014854Y068980
X013360Y069480
X014854Y069480
X013854Y069480
X014354Y069480
X012590Y069500
X013354Y069980
X014854Y069980
X014354Y069980
X013854Y069980
X013600Y070250
X014420Y070730
X012700Y071300
X013550Y071300
X013600Y071700
X013680Y072100
X012550Y073250
X013100Y073250
X013800Y073250
X012900Y073500
X014040Y073550
X012900Y074200
X015200Y074400
X013100Y074450
X013800Y074450
X013450Y074550
X013354Y075480
X014354Y075480
X014854Y075480
X013854Y075480
X013354Y075980
X014854Y075980
X014354Y075980
X013854Y075980
X013354Y076480
X014854Y076480
X013354Y076980
X013354Y077480
X013854Y077480
X013854Y077980
X013354Y077980
X013354Y078480
X014854Y078980
X013354Y078980
X013354Y079480
X014854Y079480
X013854Y079480
X014354Y079480
X013354Y079980
X014854Y079980
X014354Y079980
X013854Y079980
X012700Y080600
X014450Y083500
X014850Y083600
X013354Y085480
X013854Y085480
X014354Y085480
X014854Y085480
X013354Y085980
X014854Y085980
X014354Y085980
X013854Y085980
X013354Y086480
X014854Y086480
X013354Y086980
X013354Y087480
X013854Y087480
X013354Y087980
X013854Y087980
X013354Y088480
X013354Y088980
X014854Y088980
X013354Y089480
X014854Y089480
X014354Y089480
X013854Y089480
X013354Y089980
X014354Y089980
X014854Y089980
X013854Y089980
X013650Y093100
X014670Y093140
X014370Y093690
X014711Y094150
X014590Y094460
X015070Y094720
X014570Y094830
X013354Y095480
X014854Y095480
X013854Y095480
X014354Y095480
X013354Y095980
X014854Y095980
X014354Y095980
X013854Y095980
X013354Y096480
X014854Y096480
X013354Y096980
X013354Y097480
X013854Y097480
X013354Y097980
X013854Y097980
X013354Y098480
X014854Y098980
X013354Y098980
X013354Y099480
X013854Y099480
X014354Y099480
X014854Y099480
X013354Y099980
X013854Y099980
X014354Y099980
X014854Y099980
X014800Y100400
X013050Y100480
X013190Y101100
X013470Y101430
X013900Y101700
X013570Y101720
X012650Y101900
X012650Y102300
X015240Y102410
X014370Y102470
X012650Y102700
X012650Y103100
X014370Y103100
X012650Y103500
X012650Y103900
X014070Y104620
X013354Y105480
X013854Y105480
X014854Y105480
X014354Y105480
X013354Y105980
X013854Y105980
X014854Y105980
X014354Y105980
X013354Y106480
X014854Y106480
X013354Y106980
X013354Y107480
X013854Y107480
X013354Y107980
X013854Y107980
X013354Y108480
X013354Y108980
X014854Y108980
X013354Y109480
X014354Y109480
X014854Y109480
X013854Y109480
X013354Y109980
X014854Y109980
X013854Y109980
X014354Y109980
X013500Y110350
X014400Y110750
X012710Y111300
X013560Y111300
X013580Y111700
X013670Y112110
X012550Y113150
X013250Y113250
X013950Y113250
X013050Y113500
X014220Y113660
X013050Y114200
X014240Y114240
X015200Y114400
X013950Y114450
X013250Y114450
X013600Y114500
X013354Y115480
X014854Y115480
X014354Y115480
X013854Y115480
X013354Y115980
X014854Y115980
X014354Y115980
X013854Y115980
X013354Y116480
X014854Y116480
X013354Y116980
X013354Y117480
X013854Y117480
X013854Y117980
X013354Y117980
X013354Y118480
X013354Y118980
X014854Y118980
X013354Y119480
X014354Y119480
X014854Y119480
X013854Y119480
X013354Y119980
X013854Y119980
X014854Y119980
X014354Y119980
X012700Y120600
X014450Y123500
X014850Y123600
X012900Y124800
X012800Y125100
X013354Y125480
X013854Y125480
X014354Y125480
X014854Y125480
X013354Y125980
X014354Y125980
X014854Y125980
X013854Y125980
X014854Y126480
X013354Y126480
X013354Y126980
X013354Y127480
X013854Y127480
X013354Y127980
X013854Y127980
X013354Y128480
X014854Y128980
X013354Y128980
X014354Y129480
X013354Y129480
X013854Y129480
X014854Y129480
X013354Y129980
X013854Y129980
X014854Y129980
X014354Y129980
X014400Y130950
X014000Y131500
X014400Y132050
X016854Y129980
X017354Y129980
X016354Y129980
X015854Y129980
X015354Y129980
X016854Y129480
X017354Y129480
X016354Y129480
X015854Y129480
X015354Y129480
X015354Y128980
X017354Y128980
X016854Y128980
X017600Y128500
X017650Y127100
X015354Y126480
X017354Y126480
X016854Y126480
X017354Y125980
X016854Y125980
X016354Y125980
X015854Y125980
X015354Y125980
X017354Y125480
X016854Y125480
X016354Y125480
X015854Y125480
X015354Y125480
X015290Y124710
X016050Y123500
X016550Y123250
X016550Y122900
X016550Y122550
X016050Y122250
X016100Y121400
X016354Y119980
X017354Y119980
X015854Y119980
X016854Y119980
X015354Y119980
X016854Y119480
X016354Y119480
X015854Y119480
X015354Y119480
X017354Y119480
X016854Y118980
X017354Y118980
X015354Y118980
X017600Y118500
X017650Y117100
X016854Y116480
X015354Y116480
X017354Y116480
X016854Y115980
X015354Y115980
X015854Y115980
X017354Y115980
X016354Y115980
X016854Y115480
X017354Y115480
X015354Y115480
X015854Y115480
X016354Y115480
X015800Y113050
X016300Y112100
X016250Y110700
X017354Y109980
X015854Y109980
X015354Y109980
X016854Y109980
X016354Y109980
X016354Y109480
X015854Y109480
X015354Y109480
X016854Y109480
X017354Y109480
X017354Y108980
X015354Y108980
X016854Y108980
X017600Y108500
X017650Y107100
X017354Y106480
X016854Y106480
X015354Y106480
X016854Y105980
X016354Y105980
X015854Y105980
X015354Y105980
X017354Y105980
X016854Y105480
X016354Y105480
X015854Y105480
X015354Y105480
X017354Y105480
X015300Y104200
X016170Y104040
X015750Y103600
X015750Y103300
X015300Y103200
X017300Y103200
X015300Y102800
X015690Y102390
X015860Y100710
X017354Y099980
X016354Y099980
X016854Y099980
X015854Y099980
X015354Y099980
X016854Y099480
X016354Y099480
X015854Y099480
X017354Y099480
X015354Y099480
X017354Y098980
X016854Y098980
X015354Y098980
X017600Y098500
X017650Y097100
X016854Y096480
X017354Y096480
X015354Y096480
X015854Y095980
X016354Y095980
X016854Y095980
X017354Y095980
X015354Y095980
X016354Y095480
X016854Y095480
X017354Y095480
X015354Y095480
X015854Y095480
X015790Y095060
X015400Y094900
X015995Y094828
X016190Y094330
X016200Y093350
X015410Y092870
X015790Y092800
X017680Y092680
X016854Y089980
X016354Y089980
X015854Y089980
X017354Y089980
X015354Y089980
X016854Y089480
X016354Y089480
X015854Y089480
X017354Y089480
X015354Y089480
X015354Y088980
X016854Y088980
X017354Y088980
X017600Y088500
X017650Y087100
X015354Y086480
X016854Y086480
X017354Y086480
X015854Y085980
X015354Y085980
X016854Y085980
X017354Y085980
X016354Y085980
X016354Y085480
X015854Y085480
X015354Y085480
X016854Y085480
X017354Y085480
X015250Y084700
X016050Y083500
X016550Y083250
X016550Y082900
X016550Y082550
X016050Y082250
X016100Y081400
X016354Y079980
X016854Y079980
X015854Y079980
X015354Y079980
X017354Y079980
X016854Y079480
X016354Y079480
X015854Y079480
X015354Y079480
X017354Y079480
X016854Y078980
X015354Y078980
X017354Y078980
X017600Y078500
X017650Y077100
X017354Y076480
X016854Y076480
X015354Y076480
X015854Y075980
X015354Y075980
X016354Y075980
X016854Y075980
X017354Y075980
X015854Y075480
X016354Y075480
X016854Y075480
X017354Y075480
X015354Y075480
X016800Y073200
X015800Y073100
X016300Y072100
X016240Y071730
X016800Y071700
X015290Y070730
X017354Y069980
X016354Y069980
X015354Y069980
X016854Y069980
X015854Y069980
X015354Y069480
X016854Y069480
X016354Y069480
X015854Y069480
X017354Y069480
X016854Y068980
X017354Y068980
X015354Y068980
X017600Y068500
X017650Y067100
X017354Y066480
X016854Y066480
X015354Y066480
X015354Y065980
X016354Y065980
X017354Y065980
X015854Y065980
X016854Y065980
X017354Y065480
X016354Y065480
X015354Y065480
X015854Y065480
X016854Y065480
X015300Y064200
X016250Y064070
X015750Y063600
X017300Y063200
X015300Y063200
X015300Y062800
X015690Y062390
X015840Y060710
X017354Y059980
X015354Y059980
X016854Y059980
X015854Y059980
X016354Y059980
X016354Y059480
X015354Y059480
X016854Y059480
X015854Y059480
X017354Y059480
X015354Y058980
X016854Y058980
X017354Y058980
X017600Y058500
X017650Y057100
X017354Y056480
X015354Y056480
X016854Y056480
X016354Y055980
X015354Y055980
X015854Y055980
X017354Y055980
X016854Y055980
X015854Y055480
X016354Y055480
X017354Y055480
X015354Y055480
X016854Y055480
X015790Y055060
X015400Y054900
X016000Y054860
X016190Y054330
X016200Y053350
X015410Y052870
X015790Y052800
X017740Y052300
X017490Y051840
X016354Y049980
X016854Y049980
X017354Y049980
X015854Y049980
X015354Y049980
X015854Y049480
X017354Y049480
X016854Y049480
X016354Y049480
X015354Y049480
X017354Y048980
X015354Y048980
X016854Y048980
X017600Y048500
X017650Y047100
X017354Y046480
X015354Y046480
X016854Y046480
X015854Y045980
X016354Y045980
X017354Y045980
X016854Y045980
X015354Y045980
X016354Y045480
X015354Y045480
X016854Y045480
X015854Y045480
X017354Y045480
X015300Y044700
X016050Y043500
X016550Y043250
X016550Y042900
X016550Y042550
X016050Y042250
X016100Y041400
X015854Y039980
X016354Y039980
X015354Y039980
X017354Y039980
X016854Y039980
X017354Y039480
X015854Y039480
X016354Y039480
X016854Y039480
X015354Y039480
X017354Y038980
X016854Y038980
X015354Y038980
X017600Y038500
X017650Y037100
X017354Y036480
X015354Y036480
X016854Y036480
X016854Y035980
X015354Y035980
X017354Y035980
X015854Y035980
X016354Y035980
X015854Y035480
X015354Y035480
X017354Y035480
X016854Y035480
X016354Y035480
X016800Y033700
X016800Y033200
X015800Y033100
X016800Y032200
X016300Y032100
X016240Y031730
X016800Y031700
X016300Y031300
X016854Y029980
X017354Y029980
X015854Y029980
X016354Y029980
X015354Y029980
X016854Y029480
X017354Y029480
X015854Y029480
X016354Y029480
X015354Y029480
X015354Y028980
X017354Y028980
X016854Y028980
X017600Y028500
X017650Y027100
X017354Y026480
X016854Y026480
X015354Y026480
X016854Y025980
X017354Y025980
X016354Y025980
X015354Y025980
X015854Y025980
X017354Y025480
X015354Y025480
X015854Y025480
X016354Y025480
X016854Y025480
X015300Y024200
X015800Y023900
X015750Y023600
X015750Y023300
X017300Y023200
X015300Y023200
X015300Y022800
X015690Y022390
X015840Y020700
X016354Y019980
X016854Y019980
X015354Y019980
X017354Y019980
X015854Y019980
X016854Y019480
X016354Y019480
X015354Y019480
X015854Y019480
X017354Y019480
X017354Y018980
X015354Y018980
X016854Y018980
X017600Y018500
X017650Y017100
X015354Y016480
X016854Y016480
X017354Y016480
X017354Y015980
X016854Y015980
X015854Y015980
X015354Y015980
X016354Y015980
X015850Y015500
X016354Y015480
X015354Y015480
X016854Y015480
X017354Y015480
X015950Y015050
X015500Y014750
X016300Y014750
X016200Y014350
X016200Y013350
X015340Y012970
X015630Y012940
X016950Y012400
X016950Y012050
X017050Y011650
X016000Y011650
X019950Y011300
X018160Y011540
X019350Y011650
X019000Y011690
X019850Y011750
X019900Y012100
X019650Y013450
X019600Y015000
X019354Y015480
X018854Y015480
X018354Y015480
X017854Y015480
X019354Y015980
X018854Y015980
X018354Y015980
X017854Y015980
X018854Y016480
X018354Y016480
X017854Y016480
X018350Y017100
X019672Y017436
X019500Y017650
X019500Y018150
X018350Y018500
X020000Y018550
X019854Y018980
X019354Y018980
X018854Y018980
X018354Y018980
X017854Y018980
X019354Y019480
X019854Y019480
X018854Y019480
X018354Y019480
X017854Y019480
X018854Y019980
X019354Y019980
X019854Y019980
X018354Y019980
X017854Y019980
X018160Y021230
X019950Y021300
X019900Y022100
X019800Y023400
X019354Y025480
X018854Y025480
X018354Y025480
X017854Y025480
X018854Y025980
X018354Y025980
X019354Y025980
X017854Y025980
X018854Y026480
X018354Y026480
X017854Y026480
X018350Y027100
X019700Y027450
X019500Y027650
X019500Y028150
X018350Y028500
X020000Y028550
X018354Y028980
X017854Y028980
X019354Y028980
X019854Y028980
X018854Y028980
X018354Y029480
X019354Y029480
X019854Y029480
X018854Y029480
X017854Y029480
X017854Y029980
X018854Y029980
X018354Y029980
X019854Y029980
X019354Y029980
X019950Y031300
X020150Y032350
X018900Y032700
X020200Y033740
X018854Y035480
X018354Y035480
X019354Y035480
X017854Y035480
X017854Y035980
X019354Y035980
X018854Y035980
X018354Y035980
X017854Y036480
X018354Y036480
X018854Y036480
X018350Y037100
X019700Y037450
X019500Y037650
X019500Y038150
X018350Y038500
X020000Y038550
X018854Y038980
X018354Y038980
X017854Y038980
X019854Y038980
X019354Y038980
X018854Y039480
X019354Y039480
X019854Y039480
X017854Y039480
X018354Y039480
X017854Y039980
X019854Y039980
X019354Y039980
X018854Y039980
X018354Y039980
X019950Y041300
X018850Y041700
X019900Y042100
X019600Y043400
X019354Y045480
X018354Y045480
X018854Y045480
X017854Y045480
X018854Y045980
X018354Y045980
X017854Y045980
X019354Y045980
X018854Y046480
X017854Y046480
X018354Y046480
X018350Y047100
X019700Y047450
X019500Y047650
X019500Y048150
X018350Y048500
X020000Y048550
X018354Y048980
X019854Y048980
X017854Y048980
X018854Y048980
X019354Y048980
X018354Y049480
X017854Y049480
X018854Y049480
X019354Y049480
X019854Y049480
X019354Y049980
X018854Y049980
X018354Y049980
X019854Y049980
X017854Y049980
X019950Y051300
X018160Y051540
X019850Y051700
X019900Y052100
X018230Y052130
X018370Y052420
X019650Y053450
X019600Y055000
X018354Y055480
X019354Y055480
X018854Y055480
X017854Y055480
X018854Y055980
X019354Y055980
X018354Y055980
X017854Y055980
X017854Y056480
X018354Y056480
X018854Y056480
X018350Y057100
X019700Y057450
X019500Y057650
X019500Y058150
X018350Y058500
X020000Y058550
X018354Y058980
X019854Y058980
X018854Y058980
X019354Y058980
X017854Y058980
X019854Y059480
X018354Y059480
X019354Y059480
X017854Y059480
X018854Y059480
X019854Y059980
X019354Y059980
X017854Y059980
X018854Y059980
X018354Y059980
X018200Y061250
X019950Y061300
X019900Y062100
X019800Y063400
X019354Y065480
X017854Y065480
X018354Y065480
X018854Y065480
X018354Y065980
X019354Y065980
X018854Y065980
X017854Y065980
X018854Y066480
X018354Y066480
X017854Y066480
X018350Y067100
X019700Y067450
X019500Y067650
X019500Y068150
X018350Y068500
X020000Y068550
X019354Y068980
X017854Y068980
X018354Y068980
X018854Y068980
X019854Y068980
X018354Y069480
X019354Y069480
X017854Y069480
X019854Y069480
X018854Y069480
X019354Y069980
X018354Y069980
X017854Y069980
X018854Y069980
X019854Y069980
X019950Y071300
X020150Y072320
X018910Y072700
X020200Y073800
X018354Y075480
X019354Y075480
X017854Y075480
X018854Y075480
X017854Y075980
X018354Y075980
X019354Y075980
X018854Y075980
X017854Y076480
X018854Y076480
X018354Y076480
X018350Y077100
X019700Y077450
X019500Y077650
X019500Y078150
X018350Y078500
X020000Y078550
X018354Y078980
X018854Y078980
X019354Y078980
X019854Y078980
X017854Y078980
X018854Y079480
X017854Y079480
X019854Y079480
X018354Y079480
X019354Y079480
X017854Y079980
X018354Y079980
X019354Y079980
X018854Y079980
X019854Y079980
X019950Y081300
X018850Y081700
X019900Y082100
X019600Y083400
X018354Y085480
X018854Y085480
X017854Y085480
X019354Y085480
X019354Y085980
X017854Y085980
X018854Y085980
X018354Y085980
X018854Y086480
X018354Y086480
X017854Y086480
X018350Y087100
X019700Y087450
X019500Y087650
X019500Y088150
X018350Y088500
X020000Y088550
X018354Y088980
X017854Y088980
X019854Y088980
X019354Y088980
X018854Y088980
X019354Y089480
X018854Y089480
X018354Y089480
X017854Y089480
X019854Y089480
X018354Y089980
X017854Y089980
X018854Y089980
X019854Y089980
X019354Y089980
X019950Y091300
X018160Y091540
X019850Y091700
X019900Y092100
X017760Y092350
X018420Y092390
X018330Y092720
X019650Y093450
X019600Y095000
X018354Y095480
X018854Y095480
X019354Y095480
X017854Y095480
X018854Y095980
X019354Y095980
X017854Y095980
X018354Y095980
X018354Y096480
X017854Y096480
X018854Y096480
X018350Y097100
X019700Y097450
X019500Y097650
X019500Y098150
X018350Y098500
X020000Y098550
X018854Y098980
X018354Y098980
X017854Y098980
X019354Y098980
X019854Y098980
X018854Y099480
X018354Y099480
X019354Y099480
X017854Y099480
X019854Y099480
X019854Y099980
X018854Y099980
X017854Y099980
X018354Y099980
X019354Y099980
X018200Y101150
X019950Y101300
X019900Y102100
X019800Y103400
X019354Y105480
X018854Y105480
X017854Y105480
X018354Y105480
X018854Y105980
X017854Y105980
X018354Y105980
X019354Y105980
X018354Y106480
X017854Y106480
X018854Y106480
X018350Y107100
X019700Y107450
X019500Y107650
X019500Y108150
X018350Y108500
X020000Y108550
X019354Y108980
X018354Y108980
X019854Y108980
X017854Y108980
X018854Y108980
X017854Y109480
X019354Y109480
X019854Y109480
X018354Y109480
X018854Y109480
X019854Y109980
X018354Y109980
X018854Y109980
X019354Y109980
X017854Y109980
X020150Y111050
X020150Y112350
X020200Y113800
X019354Y115480
X017854Y115480
X018354Y115480
X018854Y115480
X018354Y115980
X017854Y115980
X018854Y115980
X019354Y115980
X018854Y116480
X018354Y116480
X017854Y116480
X018350Y117100
X019700Y117450
X019500Y117650
X019500Y118150
X018350Y118500
X020000Y118550
X019854Y118980
X018854Y118980
X018354Y118980
X017854Y118980
X019354Y118980
X018354Y119480
X018854Y119480
X019854Y119480
X019354Y119480
X017854Y119480
X018854Y119980
X019354Y119980
X019854Y119980
X018354Y119980
X017854Y119980
X019950Y121300
X018850Y121700
X019900Y122100
X019600Y123400
X017854Y125480
X019354Y125480
X018854Y125480
X018354Y125480
X019354Y125980
X017854Y125980
X018854Y125980
X018354Y125980
X017854Y126480
X018354Y126480
X018854Y126480
X018350Y127100
X019700Y127450
X019500Y127650
X019500Y128150
X018350Y128500
X020000Y128550
X018854Y128980
X019354Y128980
X019854Y128980
X018354Y128980
X017854Y128980
X019354Y129480
X019854Y129480
X018854Y129480
X018354Y129480
X017854Y129480
X018854Y129980
X019354Y129980
X019854Y129980
X017854Y129980
X018354Y129980
X020354Y129980
X021354Y129980
X020854Y129980
X022354Y129980
X021854Y129980
X020354Y129480
X020854Y129480
X021354Y129480
X022354Y129480
X021854Y129480
X021354Y128980
X020354Y128980
X020854Y128980
X022354Y128980
X021854Y128980
X020550Y128500
X020700Y128200
X020750Y127900
X020500Y127500
X020900Y126550
X021100Y125400
X022560Y125350
X022000Y125300
X020600Y125200
X022050Y125000
X021950Y124600
X020450Y124550
X020450Y124150
X021780Y123950
X020700Y123900
X021150Y123850
X021880Y123230
X021350Y121850
X021950Y121800
X020750Y121300
X021950Y121300
X020354Y119980
X020854Y119980
X021354Y119980
X021854Y119980
X022354Y119980
X020354Y119480
X020854Y119480
X021354Y119480
X021854Y119480
X022354Y119480
X020354Y118980
X021354Y118980
X020854Y118980
X021854Y118980
X022354Y118980
X020550Y118500
X020700Y118200
X020750Y117900
X020500Y117500
X020900Y116550
X021100Y115400
X022560Y115350
X021700Y115300
X022000Y115300
X020600Y115200
X022050Y115000
X021950Y114600
X020450Y114550
X020450Y114150
X021780Y113950
X020700Y113900
X021150Y113850
X021880Y113230
X021350Y111850
X021950Y111800
X020750Y111300
X021950Y111300
X020490Y110670
X020854Y109980
X021354Y109980
X020354Y109980
X021854Y109980
X022354Y109980
X021354Y109480
X020354Y109480
X020854Y109480
X021854Y109480
X022354Y109480
X020354Y108980
X020854Y108980
X021354Y108980
X022354Y108980
X021854Y108980
X020550Y108500
X020700Y108200
X020750Y107900
X020750Y107600
X020500Y107500
X020900Y106550
X021100Y105400
X021600Y105400
X022560Y105350
X022000Y105300
X020600Y105200
X022050Y105000
X021950Y104600
X020450Y104550
X020450Y104150
X021780Y103950
X020700Y103900
X021150Y103850
X021880Y103230
X021350Y101850
X021950Y101800
X020750Y101300
X021950Y101300
X020354Y099980
X021354Y099980
X020854Y099980
X022354Y099980
X021854Y099980
X020354Y099480
X021354Y099480
X020854Y099480
X022354Y099480
X021854Y099480
X020354Y098980
X021354Y098980
X020854Y098980
X022354Y098980
X021854Y098980
X020550Y098500
X020700Y098200
X020750Y097900
X020750Y097600
X020500Y097500
X020900Y096550
X021550Y095450
X021100Y095400
X022560Y095350
X022000Y095300
X020600Y095200
X022050Y095000
X021950Y094600
X020450Y094550
X020450Y094150
X021780Y093950
X020720Y093880
X021170Y093850
X021880Y093230
X021350Y091850
X021950Y091800
X020750Y091300
X021950Y091300
X021354Y089980
X020354Y089980
X020854Y089980
X021854Y089980
X022354Y089980
X021354Y089480
X020354Y089480
X020854Y089480
X021854Y089480
X022354Y089480
X021354Y088980
X020354Y088980
X020854Y088980
X021854Y088980
X022354Y088980
X020700Y088200
X020750Y087900
X020500Y087500
X020900Y086550
X021100Y085400
X022560Y085350
X022000Y085300
X020600Y085200
X022050Y085000
X021950Y084600
X020450Y084550
X020450Y084150
X021780Y083950
X020700Y083900
X021150Y083850
X021880Y083230
X021350Y081850
X021950Y081800
X020750Y081300
X021950Y081300
X020854Y079980
X021354Y079980
X020354Y079980
X022354Y079980
X021854Y079980
X020854Y079480
X021354Y079480
X020354Y079480
X022354Y079480
X021854Y079480
X020854Y078980
X020354Y078980
X022354Y078980
X021354Y078980
X021854Y078980
X020550Y078500
X020700Y078200
X020750Y077900
X020500Y077500
X020900Y076550
X021100Y075400
X022560Y075350
X022000Y075300
X021700Y075300
X020600Y075200
X022050Y075000
X021950Y074600
X020450Y074550
X020450Y074150
X021780Y073950
X020700Y073900
X021150Y073850
X021880Y073230
X021350Y071850
X021950Y071800
X021950Y071300
X020750Y071300
X020600Y070500
X020354Y069980
X021354Y069980
X021854Y069980
X022354Y069980
X021354Y069480
X021854Y069480
X020854Y069480
X022354Y069480
X020354Y069480
X020854Y068980
X022354Y068980
X020354Y068980
X021854Y068980
X021354Y068980
X020550Y068500
X020700Y068200
X020750Y067900
X020750Y067600
X020500Y067500
X020900Y066550
X021600Y065400
X021100Y065400
X022560Y065350
X022000Y065300
X020600Y065200
X022050Y065000
X021950Y064600
X020450Y064550
X020450Y064150
X021780Y063950
X020700Y063900
X021150Y063850
X021880Y063230
X021350Y061850
X021950Y061800
X020750Y061300
X021950Y061300
X021854Y059980
X022354Y059980
X020854Y059980
X021354Y059980
X020354Y059980
X022354Y059480
X021854Y059480
X020854Y059480
X021354Y059480
X020354Y059480
X020854Y058980
X022354Y058980
X021854Y058980
X020354Y058980
X021354Y058980
X020550Y058500
X020700Y058200
X020750Y057900
X020500Y057500
X020900Y056550
X021550Y055450
X021100Y055400
X022560Y055350
X022000Y055300
X020600Y055200
X022050Y055000
X021950Y054600
X020450Y054550
X020440Y054150
X021780Y053950
X020700Y053900
X021150Y053850
X021880Y053230
X021350Y051850
X021950Y051800
X020750Y051300
X021950Y051300
X020354Y049980
X022354Y049980
X021854Y049980
X020854Y049980
X021354Y049980
X021354Y049480
X021854Y049480
X022354Y049480
X020854Y049480
X020354Y049480
X021854Y048980
X021354Y048980
X020854Y048980
X022354Y048980
X020354Y048980
X020550Y048500
X020700Y048200
X020750Y047900
X020500Y047500
X021020Y046540
X021100Y045400
X022560Y045350
X022000Y045300
X020600Y045200
X022050Y045000
X021950Y044600
X020450Y044550
X020450Y044150
X021780Y043950
X020700Y043900
X021150Y043850
X021880Y043230
X021350Y041850
X021950Y041800
X021950Y041300
X020750Y041300
X021854Y039980
X022354Y039980
X021354Y039980
X020854Y039980
X020354Y039980
X020854Y039480
X021354Y039480
X022354Y039480
X021854Y039480
X020354Y039480
X020354Y038980
X021854Y038980
X022354Y038980
X020854Y038980
X021354Y038980
X020550Y038500
X020700Y038200
X020750Y037900
X020500Y037500
X020900Y036550
X021100Y035400
X022560Y035350
X022000Y035300
X021700Y035300
X020600Y035200
X022050Y035000
X021950Y034600
X020450Y034550
X020450Y034150
X021780Y033950
X020700Y033900
X021150Y033850
X021880Y033230
X021350Y031850
X021950Y031800
X020750Y031300
X021950Y031300
X020400Y030700
X022354Y029980
X020854Y029980
X021354Y029980
X020354Y029980
X021854Y029980
X021354Y029480
X021854Y029480
X022354Y029480
X020354Y029480
X020854Y029480
X021354Y028980
X020354Y028980
X022354Y028980
X020854Y028980
X021854Y028980
X020550Y028500
X020700Y028200
X020750Y027900
X020750Y027600
X020500Y027500
X020900Y026550
X021100Y025400
X021600Y025400
X022560Y025350
X022000Y025300
X020600Y025200
X022050Y025000
X021950Y024600
X020450Y024550
X020450Y024150
X021780Y023950
X020700Y023900
X021150Y023850
X021880Y023230
X021350Y021850
X021950Y021800
X020750Y021300
X021950Y021300
X021354Y019980
X021854Y019980
X020354Y019980
X020854Y019980
X022354Y019980
X021354Y019480
X020354Y019480
X020854Y019480
X022354Y019480
X021854Y019480
X020854Y018980
X020354Y018980
X021854Y018980
X022354Y018980
X021354Y018980
X020550Y018500
X020700Y018200
X020750Y017900
X020788Y017598
X020543Y017504
X020900Y016550
X021050Y015450
X021550Y015450
X022550Y015350
X022000Y015300
X020580Y015200
X022050Y015000
X021950Y014600
X020450Y014550
X020450Y014150
X021780Y013950
X020700Y013900
X021150Y013850
X021880Y013230
X021350Y011850
X021950Y011800
X021950Y011300
X020750Y011300
X024800Y012000
X025150Y012000
X023950Y013200
X024200Y013350
X024500Y013350
X022750Y013850
X024600Y014250
X024100Y014450
X024900Y014650
X023354Y015480
X024854Y015480
X023850Y017100
X024700Y017100
X024300Y018200
X024354Y018480
X023854Y018480
X023354Y018480
X024900Y018500
X024854Y018980
X024354Y018980
X023854Y018980
X023354Y018980
X022854Y018980
X024854Y019480
X024354Y019480
X023854Y019480
X023354Y019480
X022854Y019480
X024854Y019980
X024354Y019980
X023854Y019980
X023354Y019980
X022854Y019980
X024800Y022000
X025150Y022000
X023950Y023200
X024200Y023350
X024500Y023350
X022750Y023850
X024600Y024250
X024100Y024450
X024900Y024650
X023354Y025480
X024854Y025480
X023850Y027100
X024700Y027100
X024300Y028200
X024354Y028480
X023854Y028480
X023354Y028480
X024900Y028500
X024354Y028980
X023854Y028980
X023354Y028980
X022854Y028980
X024854Y028980
X024354Y029480
X023854Y029480
X023354Y029480
X022854Y029480
X024854Y029480
X023854Y029980
X023354Y029980
X022854Y029980
X024854Y029980
X024354Y029980
X024800Y032000
X025150Y032000
X023950Y033200
X024200Y033350
X024500Y033350
X022750Y033850
X024600Y034250
X024100Y034450
X024900Y034650
X023354Y035480
X024854Y035480
X023850Y037100
X024700Y037100
X024300Y038200
X023354Y038480
X023854Y038480
X024354Y038480
X024900Y038500
X023354Y038980
X023854Y038980
X022854Y038980
X024354Y038980
X024854Y038980
X022854Y039480
X023354Y039480
X023854Y039480
X024854Y039480
X024354Y039480
X022854Y039980
X023354Y039980
X023854Y039980
X024854Y039980
X024354Y039980
X025150Y042000
X024800Y042000
X023950Y043200
X024500Y043350
X024200Y043350
X022750Y043850
X024600Y044250
X024100Y044450
X024900Y044650
X023354Y045480
X024854Y045480
X023850Y047100
X024700Y047100
X024300Y048200
X023354Y048480
X024354Y048480
X023854Y048480
X024900Y048500
X023354Y048980
X022854Y048980
X024354Y048980
X023854Y048980
X024854Y048980
X022854Y049480
X024854Y049480
X024354Y049480
X023854Y049480
X023354Y049480
X023354Y049980
X024854Y049980
X023854Y049980
X022854Y049980
X024354Y049980
X025150Y052000
X024800Y052000
X023950Y053200
X024500Y053350
X024200Y053350
X022750Y053850
X024600Y054250
X024100Y054450
X024900Y054650
X023354Y055480
X024854Y055480
X023850Y057100
X024700Y057100
X024300Y058200
X023854Y058480
X024354Y058480
X023354Y058480
X024900Y058500
X024854Y058980
X023354Y058980
X023854Y058980
X022854Y058980
X024354Y058980
X023854Y059480
X024354Y059480
X022854Y059480
X024854Y059480
X023354Y059480
X023854Y059980
X024354Y059980
X023354Y059980
X022854Y059980
X024854Y059980
X024800Y062000
X025150Y062000
X023950Y063200
X024500Y063350
X024200Y063350
X022750Y063850
X024600Y064250
X024100Y064450
X024900Y064650
X023354Y065480
X024854Y065480
X024700Y067100
X023850Y067100
X024300Y068200
X024354Y068480
X023854Y068480
X023354Y068480
X024900Y068500
X023354Y068980
X022854Y068980
X024354Y068980
X024854Y068980
X023854Y068980
X024854Y069480
X024354Y069480
X023854Y069480
X022854Y069480
X023354Y069480
X022854Y069980
X023354Y069980
X024354Y069980
X023854Y069980
X024854Y069980
X025150Y072000
X024800Y072000
X023950Y073200
X024500Y073350
X024200Y073350
X022750Y073850
X024600Y074250
X024100Y074450
X024900Y074650
X024854Y075480
X023354Y075480
X023850Y077100
X024700Y077100
X024300Y078200
X024354Y078480
X023854Y078480
X023354Y078480
X024900Y078500
X024854Y078980
X024354Y078980
X022854Y078980
X023354Y078980
X023854Y078980
X023354Y079480
X023854Y079480
X024354Y079480
X022854Y079480
X024854Y079480
X023854Y079980
X024354Y079980
X023354Y079980
X022854Y079980
X024854Y079980
X024800Y082000
X025150Y082000
X023950Y083200
X024200Y083350
X024500Y083350
X022750Y083850
X024600Y084250
X024100Y084450
X024900Y084650
X024854Y085480
X023354Y085480
X023850Y087100
X024700Y087100
X024300Y088200
X023854Y088480
X023354Y088480
X024354Y088480
X024900Y088500
X023354Y088980
X022854Y088980
X023854Y088980
X024854Y088980
X024354Y088980
X023354Y089480
X024854Y089480
X023854Y089480
X022854Y089480
X024354Y089480
X024354Y089980
X022854Y089980
X023854Y089980
X023354Y089980
X024854Y089980
X024800Y092000
X025150Y092000
X023950Y093200
X024200Y093350
X024500Y093350
X022750Y093850
X024600Y094250
X024100Y094450
X024900Y094650
X024854Y095480
X023354Y095480
X023850Y097100
X024700Y097100
X024300Y098200
X024354Y098480
X023354Y098480
X023854Y098480
X024900Y098500
X023354Y098980
X024854Y098980
X024354Y098980
X022854Y098980
X023854Y098980
X022854Y099480
X023854Y099480
X024854Y099480
X023354Y099480
X024354Y099480
X023354Y099980
X024854Y099980
X022854Y099980
X024354Y099980
X023854Y099980
X025150Y102000
X024800Y102000
X023950Y103200
X024200Y103350
X024500Y103350
X022750Y103850
X024600Y104250
X024100Y104450
X024900Y104650
X023354Y105480
X024854Y105480
X023850Y107100
X024700Y107100
X024300Y108200
X023354Y108480
X023854Y108480
X024354Y108480
X024900Y108500
X023354Y108980
X024854Y108980
X023854Y108980
X022854Y108980
X024354Y108980
X022854Y109480
X023354Y109480
X024354Y109480
X023854Y109480
X024854Y109480
X022854Y109980
X023854Y109980
X023354Y109980
X024854Y109980
X024354Y109980
X025150Y112000
X024800Y112000
X023950Y113200
X024500Y113350
X024200Y113350
X022750Y113850
X024600Y114250
X024100Y114450
X024900Y114650
X024854Y115480
X023354Y115480
X023850Y117100
X024700Y117100
X024300Y118200
X023854Y118480
X024354Y118480
X023354Y118480
X024900Y118500
X024854Y118980
X023354Y118980
X024354Y118980
X022854Y118980
X023854Y118980
X022854Y119480
X024854Y119480
X023354Y119480
X023854Y119480
X024354Y119480
X023854Y119980
X022854Y119980
X024854Y119980
X023354Y119980
X024354Y119980
X025150Y122000
X024800Y122000
X023950Y123200
X024500Y123350
X024200Y123350
X022750Y123850
X024600Y124250
X024100Y124450
X024900Y124650
X024854Y125480
X023354Y125480
X024700Y127100
X023850Y127100
X024300Y128200
X023354Y128480
X023854Y128480
X024354Y128480
X024900Y128500
X024354Y128980
X023854Y128980
X024854Y128980
X022854Y128980
X023354Y128980
X023854Y129480
X023354Y129480
X022854Y129480
X024354Y129480
X024854Y129480
X024354Y129980
X023854Y129980
X024854Y129980
X022854Y129980
X023354Y129980
X027430Y131170
X025354Y129980
X025854Y129980
X026854Y129980
X026354Y129980
X027354Y129980
X025354Y129480
X026854Y129480
X026354Y129480
X027354Y129480
X025854Y129480
X025354Y128980
X027354Y128980
X026750Y128700
X026450Y128700
X025804Y128680
X026900Y128350
X025550Y128300
X027250Y128100
X025500Y127950
X027200Y127750
X025500Y127650
X026850Y127250
X026500Y126950
X026250Y126950
X026854Y126480
X026854Y125980
X027300Y125900
X026354Y125480
X025400Y124850
X027450Y124700
X025500Y121800
X025354Y119980
X026854Y119980
X026354Y119980
X027354Y119980
X025854Y119980
X025354Y119480
X026854Y119480
X027354Y119480
X026354Y119480
X025854Y119480
X025354Y118980
X027354Y118980
X026750Y118700
X026450Y118700
X026146Y118687
X025804Y118680
X026900Y118350
X025550Y118250
X027250Y118100
X025500Y117950
X027200Y117750
X025500Y117650
X026850Y117250
X026500Y116950
X026250Y116950
X026854Y116480
X026854Y115980
X027300Y115900
X026354Y115480
X025400Y114850
X027450Y114700
X025500Y111800
X025354Y109980
X026354Y109980
X026854Y109980
X025854Y109980
X027354Y109980
X025354Y109480
X026354Y109480
X026854Y109480
X025854Y109480
X027354Y109480
X025354Y108980
X027354Y108980
X026750Y108700
X026450Y108700
X026150Y108700
X025804Y108680
X026900Y108350
X025550Y108300
X027250Y108100
X025500Y107950
X027200Y107750
X025500Y107650
X026850Y107250
X026500Y106950
X026250Y106950
X026854Y106480
X026854Y105980
X027300Y105900
X026354Y105480
X025400Y104850
X027450Y104700
X025500Y101800
X026350Y100400
X025354Y099980
X025854Y099980
X026854Y099980
X026354Y099980
X027354Y099980
X025354Y099480
X025854Y099480
X026854Y099480
X026354Y099480
X027354Y099480
X025354Y098980
X027354Y098980
X026750Y098700
X026450Y098700
X025804Y098680
X026900Y098350
X025550Y098300
X027250Y098100
X025500Y097950
X027200Y097750
X025500Y097650
X026850Y097250
X026500Y096950
X026250Y096950
X026854Y096480
X026854Y095980
X027300Y095900
X026354Y095480
X025400Y094850
X027450Y094700
X025500Y091800
X025354Y089980
X027354Y089980
X025854Y089980
X026854Y089980
X026354Y089980
X025354Y089480
X027354Y089480
X026354Y089480
X025854Y089480
X026854Y089480
X025354Y088980
X027354Y088980
X026750Y088700
X026450Y088700
X025804Y088680
X026900Y088350
X025500Y088250
X027250Y088100
X025500Y087950
X027200Y087750
X025500Y087650
X026850Y087250
X026500Y086950
X026250Y086950
X026854Y086480
X026854Y085980
X027300Y085900
X026354Y085480
X025400Y084850
X027450Y084700
X025500Y081800
X026354Y079980
X025854Y079980
X026854Y079980
X027354Y079980
X025354Y079980
X025854Y079480
X026354Y079480
X027354Y079480
X025354Y079480
X026854Y079480
X027354Y078980
X025354Y078980
X026450Y078700
X026750Y078700
X026146Y078687
X025804Y078680
X026900Y078350
X025550Y078250
X027250Y078100
X025500Y077950
X027200Y077750
X025500Y077650
X026850Y077250
X026500Y076950
X026250Y076950
X026854Y076480
X026854Y075980
X027300Y075900
X026354Y075480
X025400Y074850
X027450Y074700
X025500Y071800
X026354Y069980
X027354Y069980
X026854Y069980
X025354Y069980
X025854Y069980
X027354Y069480
X026854Y069480
X025354Y069480
X025854Y069480
X026354Y069480
X025354Y068980
X027354Y068980
X026750Y068700
X026450Y068700
X025804Y068680
X026900Y068350
X025550Y068300
X027250Y068100
X025500Y067950
X027200Y067750
X025500Y067650
X026850Y067250
X026500Y066950
X026250Y066950
X026854Y066480
X026854Y065980
X027300Y065900
X026354Y065480
X025400Y064850
X027450Y064700
X025500Y061800
X026350Y060400
X025854Y059980
X026354Y059980
X027354Y059980
X026854Y059980
X025354Y059980
X026854Y059480
X026354Y059480
X027354Y059480
X025854Y059480
X025354Y059480
X027354Y058980
X025354Y058980
X026450Y058700
X026750Y058700
X025804Y058680
X026900Y058350
X025550Y058250
X027250Y058100
X025500Y057950
X027200Y057750
X025500Y057650
X026850Y057250
X026250Y056950
X026500Y056950
X026854Y056480
X026854Y055980
X027300Y055900
X026354Y055480
X025400Y054850
X027450Y054700
X025500Y051800
X026354Y049980
X025854Y049980
X027354Y049980
X026854Y049980
X025354Y049980
X027354Y049480
X026854Y049480
X026354Y049480
X025854Y049480
X025354Y049480
X027354Y048980
X025354Y048980
X026450Y048700
X026750Y048700
X025804Y048680
X026900Y048350
X025550Y048250
X027250Y048100
X025500Y047950
X027200Y047750
X025500Y047650
X026850Y047250
X026500Y046950
X026250Y046950
X026854Y046480
X026854Y045980
X027300Y045900
X026354Y045480
X025400Y044850
X027450Y044700
X025500Y041800
X027354Y039980
X025354Y039980
X026854Y039980
X025854Y039980
X026354Y039980
X025354Y039480
X026854Y039480
X027354Y039480
X026354Y039480
X025854Y039480
X025354Y038980
X027354Y038980
X026450Y038700
X026750Y038700
X026146Y038687
X025804Y038680
X026900Y038350
X025800Y038300
X027250Y038100
X025500Y037950
X027200Y037750
X025500Y037650
X026850Y037250
X026500Y036950
X026250Y036950
X026854Y036480
X026854Y035980
X027300Y035900
X026354Y035480
X025400Y034850
X027450Y034700
X025500Y031800
X025354Y029980
X026854Y029980
X027354Y029980
X026354Y029980
X025854Y029980
X025354Y029480
X025854Y029480
X027354Y029480
X026354Y029480
X026854Y029480
X025354Y028980
X027354Y028980
X026100Y028700
X026450Y028700
X026750Y028700
X025804Y028680
X026900Y028350
X025500Y028300
X027250Y028100
X025500Y027950
X027200Y027750
X025500Y027650
X026850Y027250
X026500Y026950
X026250Y026950
X026854Y026480
X026854Y025980
X027300Y025900
X026354Y025480
X025400Y024850
X027450Y024700
X025500Y021800
X026350Y020400
X026354Y019980
X025354Y019980
X025854Y019980
X026854Y019980
X027354Y019980
X026354Y019480
X027354Y019480
X025354Y019480
X025854Y019480
X026854Y019480
X027354Y018980
X025354Y018980
X026450Y018700
X026750Y018700
X025804Y018680
X026900Y018350
X025600Y018300
X027250Y018100
X025500Y017950
X027200Y017750
X025470Y017680
X026850Y017250
X026500Y016950
X026250Y016950
X026854Y016480
X026854Y015980
X027300Y015900
X026354Y015480
X025400Y014850
X027450Y014700
X025500Y011800
X027900Y011800
X028450Y012250
X027750Y013750
X028600Y014300
X028150Y014700
X027750Y014700
X027854Y015480
X029250Y015500
X028650Y015900
X029490Y016310
X028650Y016700
X027750Y016700
X029980Y017030
X028930Y017120
X029680Y017120
X027850Y017200
X027860Y018200
X028940Y018480
X029710Y018480
X028854Y018980
X029354Y018980
X028354Y018980
X027854Y018980
X029854Y018980
X029354Y019480
X028854Y019480
X028354Y019480
X027854Y019480
X029854Y019480
X029354Y019980
X028854Y019980
X028354Y019980
X027854Y019980
X029854Y019980
X028600Y020400
X027900Y021800
X028450Y022250
X027750Y023750
X028600Y024300
X027750Y024700
X028150Y024700
X027854Y025480
X029250Y025500
X028650Y025900
X030100Y026400
X028650Y026550
X027750Y026700
X029380Y026770
X028930Y027120
X027850Y027200
X027860Y028200
X028940Y028480
X029710Y028480
X028354Y028980
X027854Y028980
X028854Y028980
X029354Y028980
X029854Y028980
X027854Y029480
X029354Y029480
X028854Y029480
X028354Y029480
X029854Y029480
X027854Y029980
X029354Y029980
X028854Y029980
X028354Y029980
X029854Y029980
X029650Y030350
X027900Y031800
X028450Y032250
X027750Y033750
X028600Y034300
X028150Y034700
X027750Y034700
X027854Y035480
X029250Y035500
X028650Y035900
X027750Y036700
X028650Y036700
X029370Y036780
X029980Y037030
X028930Y037120
X027850Y037200
X027860Y038200
X028940Y038480
X029710Y038480
X028854Y038980
X029354Y038980
X028354Y038980
X027854Y038980
X029854Y038980
X028854Y039480
X029354Y039480
X028354Y039480
X027854Y039480
X029854Y039480
X029354Y039980
X028854Y039980
X028354Y039980
X027854Y039980
X029854Y039980
X029800Y040400
X027900Y041800
X028450Y042250
X027750Y043750
X028600Y044300
X028150Y044700
X027750Y044700
X027854Y045480
X029250Y045500
X028650Y045900
X028650Y046700
X027750Y046700
X029400Y046800
X029980Y047030
X028930Y047120
X029680Y047120
X027850Y047200
X027860Y048200
X029710Y048480
X028940Y048480
X027854Y048980
X029854Y048980
X028854Y048980
X028354Y048980
X029354Y048980
X029354Y049480
X029854Y049480
X028854Y049480
X028354Y049480
X027854Y049480
X027854Y049980
X028854Y049980
X029854Y049980
X029354Y049980
X028354Y049980
X027900Y051800
X028450Y052250
X027750Y053750
X028600Y054300
X028150Y054700
X027750Y054700
X027854Y055480
X029250Y055500
X028650Y055900
X027750Y056700
X028650Y056700
X029400Y056760
X029980Y057030
X028930Y057120
X029680Y057120
X027850Y057200
X027860Y058200
X028940Y058480
X029710Y058480
X029854Y058980
X029354Y058980
X028854Y058980
X028354Y058980
X027854Y058980
X028354Y059480
X029354Y059480
X028854Y059480
X029854Y059480
X027854Y059480
X028354Y059980
X029354Y059980
X028854Y059980
X029854Y059980
X027854Y059980
X028600Y060400
X030140Y060410
X027900Y061800
X028450Y062250
X027750Y063750
X028600Y064300
X028150Y064700
X027750Y064700
X027854Y065480
X029250Y065500
X028650Y065900
X030100Y066400
X028650Y066450
X027750Y066700
X029400Y066750
X029980Y067030
X028930Y067120
X027850Y067200
X027860Y068200
X029710Y068480
X028940Y068480
X028854Y068980
X029354Y068980
X029854Y068980
X027854Y068980
X028354Y068980
X029354Y069480
X028854Y069480
X027854Y069480
X029854Y069480
X028354Y069480
X028854Y069980
X027854Y069980
X029354Y069980
X029854Y069980
X028354Y069980
X029860Y070440
X027900Y071800
X028450Y072250
X027750Y073750
X028600Y074300
X028150Y074700
X027750Y074700
X027854Y075480
X029250Y075500
X028650Y075900
X030100Y076400
X027750Y076700
X028650Y076700
X029980Y077030
X029680Y077120
X028930Y077120
X027850Y077200
X027860Y078200
X029710Y078480
X028940Y078480
X028854Y078980
X029854Y078980
X029354Y078980
X028354Y078980
X027854Y078980
X029854Y079480
X028354Y079480
X029354Y079480
X028854Y079480
X027854Y079480
X028854Y079980
X029854Y079980
X029354Y079980
X028354Y079980
X027854Y079980
X029860Y080440
X027900Y081800
X028450Y082250
X027750Y083750
X028600Y084300
X028150Y084700
X027750Y084700
X027854Y085480
X029250Y085500
X028650Y085900
X030100Y086400
X027750Y086700
X028650Y086700
X029350Y086750
X029980Y087030
X029680Y087120
X028930Y087120
X027850Y087200
X027860Y088200
X029710Y088480
X028940Y088480
X028854Y088980
X029854Y088980
X027854Y088980
X028354Y088980
X029354Y088980
X027854Y089480
X029854Y089480
X028354Y089480
X029354Y089480
X028854Y089480
X028354Y089980
X029354Y089980
X027854Y089980
X028854Y089980
X029854Y089980
X029860Y090440
X027900Y091800
X028450Y092250
X027750Y093750
X028600Y094300
X028150Y094700
X027750Y094700
X027854Y095480
X029250Y095500
X028650Y095900
X027750Y096700
X028650Y096700
X029980Y097030
X028930Y097120
X029680Y097120
X027850Y097200
X027860Y098200
X028940Y098480
X029710Y098480
X028854Y098980
X028354Y098980
X029854Y098980
X029354Y098980
X027854Y098980
X028354Y099480
X028854Y099480
X029854Y099480
X027854Y099480
X029354Y099480
X028854Y099980
X027854Y099980
X029354Y099980
X029854Y099980
X028354Y099980
X028600Y100400
X029860Y100440
X027900Y101800
X028450Y102250
X027750Y103750
X028600Y104300
X027750Y104700
X028150Y104700
X027854Y105480
X029250Y105500
X028650Y105900
X030100Y106400
X028630Y106600
X027750Y106700
X029980Y107030
X029680Y107120
X028930Y107120
X027850Y107200
X027860Y108200
X028940Y108480
X029710Y108480
X028354Y108980
X027854Y108980
X029854Y108980
X029354Y108980
X028854Y108980
X028854Y109480
X027854Y109480
X029854Y109480
X028354Y109480
X029354Y109480
X027854Y109980
X028854Y109980
X029854Y109980
X028354Y109980
X029354Y109980
X029860Y110440
X027900Y111800
X028450Y112250
X027750Y113750
X028600Y114300
X028150Y114700
X027750Y114700
X027854Y115480
X029250Y115500
X028650Y115900
X030100Y116400
X027750Y116700
X028650Y116700
X029980Y117030
X029680Y117120
X028930Y117120
X027850Y117200
X027860Y118200
X029710Y118480
X028940Y118480
X029854Y118980
X028854Y118980
X028354Y118980
X029354Y118980
X027854Y118980
X029854Y119480
X028354Y119480
X027854Y119480
X029354Y119480
X028854Y119480
X029854Y119980
X028854Y119980
X027854Y119980
X029354Y119980
X028354Y119980
X029860Y120440
X027900Y121800
X028450Y122250
X027750Y123750
X028600Y124300
X027750Y124700
X028150Y124700
X027854Y125480
X029250Y125500
X028650Y125900
X030100Y126400
X028650Y126700
X027750Y126700
X029980Y127030
X028930Y127120
X029680Y127120
X027850Y127200
X027860Y128200
X028940Y128480
X029710Y128480
X029354Y128980
X028854Y128980
X027854Y128980
X028354Y128980
X029854Y128980
X028354Y129480
X028854Y129480
X029354Y129480
X027854Y129480
X029854Y129480
X028854Y129980
X029354Y129980
X029854Y129980
X027854Y129980
X028354Y129980
X028050Y130960
X031840Y131210
X030950Y131210
X031651Y130186
X032350Y130150
X031849Y129988
X030854Y129980
X030354Y129980
X031800Y129500
X030854Y129480
X030354Y129480
X032700Y129300
X031550Y129250
X032544Y129050
X030354Y128980
X030854Y128980
X031984Y128490
X031210Y128110
X031500Y128050
X032300Y127600
X031404Y127300
X030900Y127150
X031800Y126850
X031400Y126600
X030854Y126480
X031250Y126250
X032280Y126230
X032550Y126150
X030850Y126000
X032350Y125950
X032650Y125750
X030854Y125480
X032400Y124900
X030550Y124700
X032700Y123560
X031160Y123000
X032520Y123000
X030950Y122600
X032540Y122590
X030400Y121950
X031300Y121900
X031651Y120186
X032350Y120150
X031849Y119988
X030354Y119980
X030854Y119980
X031800Y119500
X030354Y119480
X030854Y119480
X032700Y119300
X031550Y119250
X032534Y119050
X030354Y118980
X030854Y118980
X031974Y118480
X031210Y118110
X031500Y118050
X032300Y117600
X031394Y117300
X030900Y117150
X031800Y116850
X031400Y116600
X030854Y116480
X031250Y116250
X032280Y116230
X032550Y116150
X030850Y116000
X032350Y115950
X032650Y115750
X030854Y115480
X032400Y114880
X030550Y114700
X032704Y113560
X031150Y113000
X032490Y113000
X030950Y112600
X032540Y112590
X032510Y112190
X031180Y111990
X030400Y111950
X031651Y110186
X032350Y110150
X031849Y109988
X030854Y109980
X030354Y109980
X031800Y109500
X030354Y109480
X030854Y109480
X032700Y109300
X031550Y109250
X032534Y109040
X030354Y108980
X030854Y108980
X031984Y108490
X031210Y108110
X031500Y108050
X032300Y107600
X031394Y107300
X030900Y107150
X031800Y106850
X031400Y106600
X030854Y106480
X031250Y106250
X032280Y106230
X032550Y106150
X030850Y106010
X032350Y105950
X032650Y105750
X030854Y105480
X032400Y104900
X030550Y104700
X032700Y103560
X031140Y103020
X032500Y103000
X030950Y102600
X032550Y102590
X032530Y102190
X030400Y101950
X031190Y101910
X031651Y100186
X032350Y100150
X031849Y099988
X030354Y099980
X030854Y099980
X031800Y099500
X030354Y099480
X030854Y099480
X032700Y099300
X031550Y099250
X032534Y099040
X030354Y098980
X030854Y098980
X031974Y098480
X031210Y098110
X031500Y098050
X032300Y097600
X031394Y097300
X030900Y097150
X031800Y096850
X031400Y096600
X030854Y096480
X032280Y096230
X031300Y096200
X032550Y096150
X030850Y096000
X032080Y095950
X031300Y095870
X032650Y095750
X030854Y095480
X032400Y094900
X030550Y094700
X032700Y093560
X032490Y093000
X031150Y092920
X030950Y092600
X032550Y092590
X031150Y092220
X032510Y092200
X030400Y091950
X031651Y090186
X032350Y090150
X031849Y089988
X030354Y089980
X030854Y089980
X031800Y089500
X030354Y089480
X030854Y089480
X032700Y089300
X031550Y089250
X032544Y089050
X030354Y088980
X030854Y088980
X031984Y088490
X031210Y088110
X031500Y088050
X032300Y087600
X031404Y087300
X030900Y087150
X031800Y086850
X031400Y086600
X030850Y086500
X031250Y086250
X032280Y086230
X032550Y086150
X030850Y085960
X032350Y085950
X032650Y085750
X030854Y085480
X032400Y084900
X030550Y084700
X032700Y083560
X032520Y083000
X031110Y082990
X030950Y082600
X032560Y082590
X032530Y082190
X030400Y081950
X031270Y081870
X031651Y080186
X032350Y080150
X031849Y079988
X030854Y079980
X030354Y079980
X031800Y079500
X030354Y079480
X030854Y079480
X032700Y079300
X031550Y079250
X032534Y079050
X030354Y078980
X030854Y078980
X031974Y078480
X031210Y078110
X031500Y078050
X032300Y077600
X031394Y077300
X030900Y077150
X031800Y076850
X031400Y076600
X030854Y076480
X031250Y076250
X032280Y076230
X032550Y076150
X030850Y076000
X032350Y075950
X032650Y075750
X030854Y075480
X032404Y074900
X030550Y074700
X032704Y073560
X031130Y072990
X032540Y072990
X030950Y072600
X032530Y072590
X032500Y072190
X030400Y071950
X031250Y071870
X031651Y070186
X032350Y070150
X031849Y069988
X030854Y069980
X030354Y069980
X031800Y069500
X030354Y069480
X030854Y069480
X032700Y069300
X031550Y069250
X032534Y069040
X030854Y068980
X030354Y068980
X031984Y068490
X031210Y068110
X031500Y068050
X032300Y067600
X031394Y067300
X030900Y067150
X031800Y066850
X030854Y066480
X031250Y066250
X032280Y066230
X032550Y066150
X030850Y066000
X032350Y065950
X032650Y065750
X030854Y065480
X032400Y064900
X030530Y064710
X032700Y063560
X031170Y063020
X032520Y062990
X030950Y062600
X032540Y062590
X031150Y062180
X032530Y062170
X030400Y061950
X031651Y060186
X031849Y059988
X030354Y059980
X031800Y059500
X030854Y059480
X030354Y059480
X032700Y059300
X031550Y059250
X032534Y059040
X030354Y058980
X030854Y058980
X031974Y058480
X031210Y058110
X031500Y058050
X032300Y057600
X031394Y057300
X030900Y057150
X031800Y056850
X031400Y056600
X030854Y056480
X030400Y056300
X032280Y056230
X031300Y056200
X032550Y056150
X030850Y056000
X032350Y055950
X031300Y055870
X032650Y055750
X030854Y055480
X032400Y054900
X030550Y054700
X032700Y053560
X030950Y052600
X032560Y052590
X030400Y051950
X031651Y050186
X032350Y050150
X031849Y049988
X030854Y049980
X030354Y049980
X031800Y049500
X030354Y049480
X030854Y049480
X032700Y049300
X031550Y049250
X032544Y049050
X030854Y048980
X030354Y048980
X030450Y048650
X031984Y048490
X031210Y048110
X031500Y048050
X032300Y047600
X031404Y047300
X030900Y047150
X031800Y046850
X031400Y046600
X030854Y046480
X031250Y046250
X032280Y046230
X032550Y046150
X030850Y046000
X032350Y045950
X032650Y045750
X030854Y045480
X032400Y044900
X030550Y044700
X032700Y043560
X032600Y042600
X030950Y042600
X030400Y041950
X031651Y040186
X032350Y040150
X031849Y039988
X030354Y039980
X030854Y039980
X031800Y039500
X030854Y039480
X030354Y039480
X032700Y039300
X031550Y039250
X032534Y039050
X030854Y038980
X030354Y038980
X031974Y038480
X031210Y038110
X031500Y038050
X032300Y037600
X031394Y037300
X030900Y037150
X031800Y036850
X030854Y036480
X031250Y036250
X030850Y036000
X032650Y035750
X030854Y035480
X032404Y034900
X030550Y034700
X032704Y033560
X032550Y032600
X030950Y032600
X030400Y031950
X031651Y030186
X032350Y030150
X031849Y029988
X030854Y029980
X030354Y029980
X031800Y029500
X030354Y029480
X030854Y029480
X031550Y029350
X032700Y029300
X032534Y029040
X030354Y028980
X030854Y028980
X031984Y028490
X031210Y028110
X031500Y028050
X032300Y027600
X031394Y027300
X030900Y027150
X031800Y026850
X031400Y026600
X031250Y026250
X032280Y026230
X032550Y026150
X030850Y026000
X032350Y025950
X032650Y025750
X030854Y025480
X032400Y024900
X030550Y024700
X032700Y023560
X032550Y022600
X030950Y022600
X030400Y021950
X031651Y020186
X032350Y020150
X031849Y019988
X030354Y019980
X030854Y019980
X030854Y019480
X030354Y019480
X031750Y019450
X032700Y019300
X031550Y019250
X032534Y019040
X030854Y018980
X030354Y018980
X031974Y018480
X031210Y018110
X031500Y018050
X032300Y017600
X031394Y017300
X030900Y017150
X031800Y016850
X031300Y016200
X030850Y016000
X031300Y015870
X030854Y015480
X032400Y014900
X030550Y014700
X032700Y013560
X030950Y012600
X030400Y011950
X034100Y013100
X035100Y013480
X034520Y013480
X034060Y013800
X032940Y014030
X034090Y014160
X032920Y014400
X034090Y014440
X034020Y014760
X033600Y015570
X032954Y015710
X033300Y016600
X035194Y017280
X034300Y017600
X035200Y017890
X033300Y018600
X034314Y018800
X035050Y018800
X034000Y019200
X034430Y019340
X032850Y019550
X033114Y019650
X033800Y020450
X033100Y020800
X034100Y023100
X035100Y023480
X034060Y023800
X033710Y023980
X032940Y024030
X034090Y024160
X034920Y024200
X032920Y024400
X034090Y024440
X034020Y024760
X033600Y025570
X032964Y025730
X033800Y025850
X034180Y026286
X033300Y026600
X035126Y026699
X034750Y026850
X035184Y027280
X034300Y027600
X035200Y027890
X033300Y028600
X033774Y029360
X033350Y029500
X032850Y029550
X035000Y029550
X033104Y029670
X033800Y030450
X033100Y030800
X034100Y033100
X034520Y033480
X034064Y033800
X032944Y034030
X034094Y034160
X032924Y034400
X034094Y034440
X034024Y034760
X033600Y035570
X032964Y035730
X033790Y035850
X034184Y036290
X033300Y036600
X035126Y036699
X034750Y036850
X035204Y037320
X034300Y037600
X035200Y037890
X033300Y038600
X034314Y038800
X035050Y038800
X033784Y039350
X033350Y039500
X032850Y039550
X035000Y039550
X033800Y040450
X033100Y040800
X034100Y043100
X034060Y043800
X033710Y043980
X032940Y044030
X034090Y044160
X034920Y044200
X032920Y044400
X034090Y044440
X034020Y044760
X032954Y045750
X033800Y045850
X033300Y046600
X035126Y046699
X035194Y047290
X034300Y047600
X035200Y047890
X033300Y048600
X035050Y048800
X034314Y048800
X033784Y049330
X032850Y049550
X035000Y049550
X033114Y049650
X033800Y050450
X033095Y050786
X034100Y053100
X034520Y053480
X035100Y053480
X034060Y053800
X033710Y053980
X032940Y054030
X034090Y054160
X034920Y054200
X032920Y054400
X034090Y054440
X034020Y054760
X033600Y055570
X032954Y055710
X033800Y055850
X033300Y056600
X035126Y056699
X035194Y057280
X034300Y057600
X035200Y057890
X034500Y058600
X033300Y058600
X035050Y058800
X034000Y059200
X034430Y059340
X033350Y059500
X032850Y059550
X032750Y060150
X033800Y060450
X033400Y060500
X034100Y063100
X034520Y063480
X034060Y063800
X032940Y064030
X034090Y064160
X034920Y064200
X032920Y064400
X034090Y064440
X034020Y064760
X033600Y065570
X032964Y065730
X033800Y065850
X034180Y066286
X033300Y066600
X034750Y066850
X035184Y067280
X034300Y067600
X035200Y067890
X033300Y068600
X035050Y068800
X033774Y069360
X033350Y069500
X035000Y069550
X032850Y069550
X033104Y069670
X033800Y070450
X033100Y070800
X034100Y073100
X034520Y073480
X035100Y073480
X034064Y073800
X033714Y073980
X032944Y074030
X034094Y074160
X034924Y074200
X032924Y074400
X034094Y074440
X034024Y074760
X035110Y075445
X033600Y075570
X032964Y075730
X033800Y075850
X034184Y076290
X033300Y076600
X034750Y076850
X035204Y077320
X034300Y077600
X035200Y077890
X033300Y078600
X034314Y078800
X035050Y078800
X033784Y079350
X035000Y079550
X032850Y079550
X033114Y079650
X033800Y080450
X033100Y080800
X034100Y083100
X035100Y083480
X034060Y083800
X033710Y083980
X032940Y084030
X034090Y084160
X034920Y084200
X032920Y084400
X034090Y084440
X034020Y084760
X035110Y085445
X033600Y085570
X032954Y085750
X033800Y085850
X034190Y086290
X033300Y086600
X034750Y086850
X035194Y087290
X034300Y087600
X035200Y087890
X033300Y088600
X035050Y088800
X034314Y088800
X033784Y089330
X035000Y089550
X032850Y089550
X033114Y089650
X033800Y090450
X033400Y090500
X034100Y093100
X035100Y093480
X034520Y093480
X034060Y093800
X033710Y093980
X032940Y094030
X034090Y094160
X034920Y094200
X032920Y094400
X034090Y094440
X034043Y094790
X035110Y095445
X033600Y095570
X032954Y095710
X033800Y095850
X034180Y096280
X033300Y096600
X035194Y097280
X034300Y097600
X035200Y097890
X033300Y098600
X035050Y098800
X034314Y098800
X034430Y099340
X033764Y099350
X032850Y099550
X033114Y099650
X033500Y100150
X032800Y100350
X034100Y103100
X034520Y103480
X035100Y103480
X034050Y103810
X033710Y103980
X032940Y104030
X034090Y104160
X034920Y104200
X032920Y104400
X034090Y104440
X034020Y104760
X033600Y105570
X032964Y105730
X033800Y105850
X034180Y106286
X033300Y106600
X034750Y106850
X035184Y107280
X034300Y107600
X035200Y107890
X033300Y108600
X035050Y108800
X034314Y108800
X033774Y109360
X033350Y109500
X032850Y109550
X035000Y109550
X033104Y109670
X033500Y110150
X032800Y110350
X034100Y113100
X034520Y113480
X035100Y113480
X034064Y113800
X033714Y113980
X032944Y114030
X034094Y114160
X034924Y114200
X032924Y114400
X034094Y114440
X034024Y114760
X035110Y115445
X033600Y115570
X032964Y115730
X033800Y115850
X034184Y116290
X033300Y116600
X034750Y116850
X035204Y117320
X034300Y117600
X035200Y117890
X033300Y118600
X035050Y118800
X034314Y118800
X033784Y119350
X032850Y119550
X035000Y119550
X033114Y119650
X033500Y120150
X032800Y120500
X034100Y123100
X035100Y123480
X034060Y123800
X033710Y123980
X032940Y124030
X034090Y124160
X034920Y124200
X032920Y124400
X034090Y124440
X034020Y124760
X033600Y125570
X032954Y125750
X033800Y125850
X034190Y126290
X033300Y126600
X034750Y126850
X035194Y127290
X034300Y127600
X035200Y127890
X033300Y128600
X034314Y128800
X035050Y128800
X033784Y129330
X035000Y129550
X032850Y129550
X033114Y129650
X033800Y130450
X033400Y130490
X035650Y129450
X037400Y128500
X035900Y128450
X037400Y128200
X035500Y128050
X036350Y128050
X036000Y127090
X036000Y126810
X035994Y126530
X036650Y124700
X035650Y124700
X036005Y124690
X035320Y123930
X037383Y123490
X037530Y123240
X035560Y123160
X035650Y119450
X037400Y118500
X035900Y118450
X037400Y118200
X035500Y118050
X036350Y118050
X036000Y117090
X036000Y116810
X035766Y116343
X036650Y114700
X035650Y114700
X035985Y114670
X035320Y113930
X037363Y113510
X037580Y113310
X035560Y113160
X035654Y109450
X037400Y108500
X035900Y108450
X037400Y108200
X035500Y108050
X036350Y108050
X036000Y107090
X036000Y106810
X035850Y106340
X036650Y104700
X035650Y104700
X036015Y104670
X035320Y103930
X037373Y103490
X037520Y103250
X035560Y103160
X035650Y099450
X037400Y098500
X035900Y098450
X037400Y098200
X035500Y098050
X036350Y098050
X036000Y097090
X036000Y096810
X035766Y096343
X036910Y094750
X036055Y094670
X035700Y094650
X035320Y093930
X037363Y093480
X037700Y093100
X035690Y093090
X035650Y089450
X037400Y088500
X035900Y088450
X037400Y088200
X035500Y088050
X036350Y088050
X036000Y087090
X036000Y086810
X035994Y086530
X035650Y084700
X036650Y084700
X036015Y084690
X035320Y083930
X037393Y083490
X037530Y083240
X035560Y083160
X035650Y079450
X037400Y078500
X035900Y078450
X037400Y078200
X036350Y078050
X035500Y078050
X036000Y077090
X036000Y076810
X035766Y076343
X036650Y074700
X035650Y074700
X036005Y074690
X035320Y073930
X037383Y073510
X037580Y073310
X035560Y073160
X035654Y069450
X037400Y068500
X035900Y068450
X037400Y068200
X036350Y068050
X035500Y068050
X036000Y067090
X036000Y066810
X035766Y066343
X036650Y064700
X035650Y064700
X035995Y064670
X035320Y063930
X037413Y063510
X037520Y063250
X035560Y063160
X035650Y059450
X037400Y058500
X035900Y058450
X037400Y058200
X036350Y058050
X035500Y058050
X036000Y057090
X036000Y056810
X035766Y056343
X036910Y054750
X036005Y054680
X035700Y054650
X035320Y053930
X037423Y053490
X037700Y053100
X035690Y053090
X035650Y049450
X037400Y048500
X035900Y048450
X037400Y048200
X035500Y048050
X036350Y048050
X036000Y047090
X036000Y046810
X035994Y046530
X036650Y044700
X035650Y044700
X035950Y044650
X035320Y043930
X037413Y043500
X037530Y043240
X035560Y043160
X035650Y039450
X037400Y038500
X035900Y038450
X037400Y038200
X035500Y038050
X036350Y038050
X036000Y037090
X036000Y036810
X035766Y036343
X036650Y034700
X035650Y034700
X035950Y034650
X035300Y033930
X037373Y033520
X037580Y033310
X035560Y033160
X037400Y028500
X035900Y028450
X037400Y028200
X036350Y028050
X035500Y028050
X036000Y027090
X036000Y026810
X035766Y026343
X035650Y024700
X036650Y024700
X035320Y023930
X037070Y023290
X037090Y018950
X037090Y018670
X035900Y018450
X035500Y018050
X036350Y018050
X036000Y017090
X036000Y016810
X035766Y016343
X036910Y014750
X035700Y014650
X037590Y013610
X037400Y013300
X037070Y013290
X037700Y013100
X035690Y013090
X039770Y012390
X038250Y023050
X038790Y024040
X038240Y024190
X037960Y024250
X037950Y024540
X038800Y034040
X038520Y034110
X038240Y034190
X037960Y034250
X037950Y034540
X038240Y043110
X038790Y044040
X038240Y044190
X037960Y044250
X037950Y044540
X038197Y053310
X038790Y054040
X038240Y054190
X037960Y054250
X037950Y054540
X038240Y063110
X038520Y064110
X038240Y064190
X037960Y064250
X037950Y064540
X038240Y073110
X038520Y074110
X038240Y074190
X037960Y074250
X037950Y074540
X038240Y083110
X038520Y084110
X038240Y084190
X037960Y084250
X037950Y084540
X038240Y093110
X038520Y094110
X038240Y094190
X037960Y094250
X037950Y094540
X038240Y103110
X038520Y104110
X038240Y104190
X037960Y104250
X037950Y104540
X038240Y113110
X038520Y114110
X038240Y114190
X037960Y114250
X037950Y114540
X038240Y123110
X038520Y124110
X038240Y124190
X037960Y124250
X037950Y124540
X039500Y130400
X045500Y130500
X044800Y129700
X045500Y129600
X041500Y129470
X045000Y129400
X046900Y128800
X045600Y128100
X044500Y127900
X045000Y126600
X045500Y126600
X046500Y126600
X040450Y085330
X040450Y085050
X047718Y083430
X047520Y083232
X047485Y082337
X047485Y082057
X047266Y081352
X047464Y081154
X047236Y079998
X047434Y079800
X040740Y075330
X040740Y075050
X041530Y065340
X041530Y065060
X040900Y055260
X040900Y054980
X045300Y022600
X049550Y032600
X049300Y042600
X050100Y046560
X049900Y046760
X049660Y051480
X049460Y051680
X049810Y055030
X049610Y055230
X049600Y058670
X049400Y058870
X049500Y069100
X049808Y077976
X049610Y078174
X049669Y078617
X048933Y078705
X049471Y078815
X048735Y078903
X048593Y079374
X048395Y079572
X049050Y080500
X048450Y080750
X048500Y081050
X048500Y082950
X048400Y083250
X049000Y083450
X048740Y084090
X048940Y084290
X048860Y084760
X049700Y084810
X049060Y084960
X049900Y085010
X049780Y085560
X049980Y085760
X049600Y117000
X048900Y117400
X048900Y118400
X048900Y119400
X048900Y120400
X048900Y121400
X048900Y122400
X048900Y123400
X049600Y125000
X048900Y125400
X048900Y126400
X048900Y127400
X048900Y128400
X048000Y128600
X048900Y129400
X048900Y130400
X048900Y131400
X050750Y131000
X051250Y131000
X051750Y131000
X052250Y131000
X052250Y130500
X051750Y130000
X051250Y130000
X051250Y129250
X051500Y129000
X051250Y128750
X051500Y128500
X051250Y128250
X051500Y128000
X051250Y127750
X050500Y126500
X050750Y126250
X051250Y126250
X051750Y126250
X052250Y126250
X052600Y125000
X051600Y125000
X050600Y125000
X052600Y117000
X051600Y117000
X050600Y117000
X051720Y099520
X051520Y099320
X051460Y094660
X051260Y094460
X051800Y085700
X052500Y085450
X051100Y085450
X052500Y084650
X051100Y084650
X051800Y084400
X052550Y084000
X051350Y084000
X052550Y083600
X051100Y083400
X052550Y083200
X052550Y082800
X052550Y082400
X051650Y082300
X052550Y082000
X051650Y082000
X051680Y081600
X051680Y081240
X051100Y080600
X051400Y080050
X051140Y071590
X051140Y071310
X051130Y070870
X051130Y070590
X051630Y070250
X050400Y069900
X050900Y069900
X050400Y069400
X050900Y069400
X052100Y067100
X052040Y066200
X055770Y065350
X055820Y065640
X055600Y066610
X054720Y066930
X052890Y066970
X054960Y067080
X053071Y067209
X053520Y068350
X054570Y070120
X054370Y070320
X053940Y070430
X053740Y070630
X054540Y075080
X054380Y075340
X054900Y075350
X054640Y075470
X054380Y075710
X053990Y075760
X055510Y076860
X055610Y077150
X054250Y077350
X056710Y078380
X057078Y079231
X053410Y084820
X053130Y084820
X057070Y100470
X056760Y102990
X053150Y103820
X052870Y103820
X055130Y106200
X055410Y106200
X053600Y117000
X054600Y117000
X057600Y117000
X056600Y117000
X055600Y117000
X057700Y121250
X055900Y121450
X053600Y125000
X054600Y125000
X057600Y125000
X056600Y125000
X055600Y125000
X053750Y126250
X052750Y126250
X054250Y126250
X053250Y126250
X054750Y126250
X056250Y126250
X055750Y126250
X056750Y126250
X055250Y126250
X054750Y127000
X055750Y127500
X056500Y127500
X055250Y127500
X056250Y127750
X057700Y129500
X055900Y129600
X055250Y130000
X055750Y130000
X056250Y130000
X054750Y130500
X054750Y131000
X054250Y131000
X052750Y131000
X057250Y131000
X055250Y131000
X055750Y131000
X056750Y131000
X056250Y131000
X053750Y131000
X053250Y131000
X058750Y131000
X059250Y131000
X058250Y131000
X057750Y131000
X058000Y130500
X058500Y130500
X060000Y130250
X058250Y130000
X057750Y130000
X060000Y129750
X058500Y129500
X058000Y129500
X058180Y129260
X060000Y129250
X058230Y128990
X060000Y128000
X057750Y127750
X059800Y127700
X058700Y127400
X060000Y127000
X059500Y127000
X059000Y127000
X058500Y127000
X058000Y127000
X057750Y126500
X058250Y126500
X058750Y126500
X059250Y126500
X059750Y126500
X059600Y125000
X058600Y125000
X058250Y121050
X058250Y120750
X059750Y119510
X058700Y119240
X059600Y117000
X058600Y117000
X060150Y114500
X060150Y113500
X058550Y112400
X059050Y112400
X059550Y112400
X060050Y112400
X059300Y112150
X059800Y112150
X058800Y112150
X059500Y109300
X059915Y101716
X059915Y101436
X060005Y099434
X060005Y099154
X060018Y098590
X060018Y098310
X060080Y097340
X060010Y093340
X059940Y090730
X059900Y090250
X060020Y088540
X058450Y079850
X059980Y069210
X057890Y020180
X058200Y020060
X058160Y019530
X057870Y019270
X062500Y021850
X062500Y022800
X063570Y023180
X063490Y023530
X064900Y023750
X063730Y024270
X064900Y024600
X063590Y024760
X063450Y025250
X063000Y025700
X065100Y059750
X060710Y060320
X060940Y063530
X061330Y063590
X062170Y068530
X062170Y068840
X064150Y069650
X064150Y070950
X061550Y072990
X062170Y074400
X063370Y074540
X063370Y075040
X063810Y075170
X063600Y075450
X062260Y075770
X060270Y076210
X060780Y077040
X062960Y078400
X065000Y089710
X060350Y090250
X060579Y101932
X060579Y102212
X061454Y102422
X061652Y102620
X061330Y103636
X061528Y103834
X061000Y107700
X062800Y107700
X062850Y109300
X061150Y111700
X062050Y111700
X062200Y112150
X061950Y112400
X062200Y112650
X061950Y112900
X061050Y113050
X060505Y113070
X061850Y113750
X062200Y113750
X061500Y113750
X061850Y114050
X061500Y114050
X062200Y114050
X061200Y114550
X061900Y114800
X062200Y114800
X061900Y115150
X062200Y115150
X061300Y115200
X060600Y117000
X060600Y125000
X064890Y125360
X065080Y126670
X061400Y127400
X064740Y127650
X061400Y128400
X062840Y130430
X063120Y130430
X064250Y131100
X061950Y131150
X062300Y131200
X068550Y132100
X070100Y131500
X069790Y130520
X068550Y130400
X069260Y130240
X065690Y128640
X069160Y128640
X068210Y128640
X070100Y128640
X066630Y128630
X066900Y127600
X067200Y127600
X067580Y127580
X067900Y127580
X067800Y126700
X065360Y126670
X066305Y126670
X066025Y126670
X068545Y126670
X068825Y126670
X069489Y126670
X069769Y126670
X068000Y126400
X068300Y126400
X067160Y126370
X065770Y126360
X069270Y126340
X066920Y125360
X067400Y125300
X067760Y119480
X067480Y119480
X068270Y117160
X068550Y117160
X065950Y117150
X066250Y117150
X067790Y116150
X067510Y116150
X069220Y111440
X070000Y111200
X069610Y110390
X069290Y110340
X069700Y109250
X070100Y108550
X069700Y108250
X069900Y108000
X070225Y108000
X069500Y107700
X069800Y107320
X069800Y107040
X069120Y101980
X069400Y101980
X068580Y101250
X068860Y101250
X067270Y101250
X067550Y101250
X066840Y100000
X067120Y100000
X068010Y099980
X068290Y099980
X065350Y089940
X065610Y075750
X065810Y075550
X068010Y061270
X068210Y061070
X066360Y060330
X066560Y060130
X065400Y059750
X069900Y055330
X070100Y055130
X069000Y033800
X069000Y032600
X070000Y032000
X069800Y031500
X068850Y031240
X068040Y031000
X069600Y030200
X069000Y029800
X069000Y029400
X069450Y029150
X069700Y029000
X070140Y028700
X069250Y028250
X068250Y028250
X067750Y027750
X070100Y027300
X068750Y026950
X067750Y026750
X067750Y025750
X066300Y025300
X065300Y025100
X068600Y024950
X067750Y024750
X067750Y023750
X067750Y022750
X066300Y022700
X068850Y022650
X067750Y021750
X068250Y021250
X069250Y021250
X069760Y019610
X070000Y013000
X072100Y015050
X070700Y015050
X070700Y015750
X072100Y015750
X072100Y017550
X070700Y017550
X072100Y018250
X070700Y018250
X072170Y019150
X070450Y019220
X072500Y021250
X070250Y021250
X071200Y023300
X071500Y023350
X072350Y024250
X071350Y024250
X072710Y024750
X071000Y025000
X072350Y025270
X071100Y028150
X070700Y028180
X072500Y028200
X070250Y028250
X072490Y029050
X070680Y029370
X072600Y029600
X070810Y029600
X070460Y030190
X070840Y031670
X070980Y032510
X072100Y032550
X072450Y032800
X071900Y032800
X071110Y032950
X070600Y033200
X071890Y033470
X071660Y101330
X071380Y101330
X070850Y101330
X070570Y101330
X071500Y106000
X071780Y106000
X071300Y106450
X070900Y106500
X072000Y107600
X070370Y107630
X072270Y108000
X072300Y108800
X070475Y109080
X070400Y109400
X070700Y109700
X071800Y111550
X071300Y112250
X072120Y113380
X071970Y113620
X072510Y113700
X072380Y114340
X071300Y114400
X072660Y114500
X071200Y114700
X070800Y115420
X070940Y115730
X072250Y116200
X072270Y116700
X071500Y117620
X072700Y118250
X070500Y122200
X070500Y122500
X070500Y122900
X070600Y123300
X070900Y123500
X070250Y125360
X071900Y129350
X071800Y130270
X072350Y130400
X070700Y130500
X072350Y132100
X073620Y127300
X073370Y124580
X074900Y124320
X073380Y124190
X073370Y123790
X073370Y123380
X073350Y123000
X073360Y122600
X074300Y122600
X073350Y122350
X074600Y122250
X074900Y122200
X075130Y121420
X073970Y120460
X074600Y119900
X074300Y119800
X074000Y119800
X074000Y119520
X073800Y119300
X074100Y118900
X073800Y118900
X073000Y118350
X074080Y118350
X073700Y117600
X073900Y117400
X074670Y117170
X074150Y117170
X073380Y116470
X072930Y115900
X073380Y115830
X073120Y115040
X074900Y115000
X075200Y115000
X074010Y114910
X074280Y114770
X075000Y114000
X074500Y114000
X073300Y113800
X073100Y113600
X073800Y113100
X073420Y113020
X073650Y112600
X074050Y112550
X074900Y112450
X074900Y111750
X073500Y111600
X073900Y111600
X074300Y111400
X074100Y111200
X073100Y108800
X073680Y108430
X073680Y108150
X073150Y107900
X072800Y033500
X073800Y031700
X073800Y031300
X073800Y030900
X073800Y030500
X072960Y030340
X073850Y030150
X073800Y029800
X072950Y029700
X073800Y029450
X074200Y028850
X073200Y028850
X072900Y028700
X074000Y028250
X073000Y028250
X074500Y027750
X074500Y026750
X074500Y025750
X073050Y025250
X074500Y024750
X073060Y024270
X074500Y023750
X074500Y022750
X074500Y021750
X073500Y021250
X073080Y013690
X073500Y013000
X079850Y033100
X080050Y039900
X080200Y049910
X078940Y058470
X078660Y058470
X076760Y059050
X076480Y059050
X077900Y059660
X078180Y059660
X080200Y059910
X078940Y061230
X079730Y061390
X079140Y061430
X079930Y061590
X079120Y062850
X079190Y064080
X079220Y065460
X079730Y066290
X077740Y066730
X077830Y068100
X078450Y069510
X076640Y070260
X076360Y070260
X078320Y070710
X078630Y070730
X080050Y073590
X079530Y075710
X079310Y079510
X077030Y080540
X076950Y083500
X077250Y083500
X075880Y083530
X075780Y084400
X076750Y084650
X077210Y087280
X077470Y087550
X076420Y098970
X076220Y099170
X076250Y099630
X076050Y099830
X076690Y109800
X076720Y110260
X076000Y111550
X077800Y111900
X078300Y111900
X078800Y111900
X079300Y111900
X079800Y111900
X076000Y112050
X077800Y112400
X078300Y112400
X079300Y112400
X078800Y112400
X079800Y112400
X076000Y112550
X077800Y112900
X076000Y113050
X075700Y113410
X079600Y113450
X078900Y113500
X076090Y113990
X076310Y114180
X076170Y114430
X079600Y114550
X076460Y114710
X075700Y114890
X079100Y115000
X078700Y115000
X080000Y115000
X077900Y115000
X078300Y115000
X076450Y115040
X076600Y115850
X075450Y115900
X076710Y116220
X075400Y116300
X075760Y116590
X076650Y117000
X076600Y117400
X076450Y117650
X076900Y117850
X076450Y117950
X076000Y118300
X075700Y118300
X075600Y118700
X075300Y118900
X080000Y120450
X076250Y124600
X080000Y128450
X076940Y130320
X077280Y130390
X077980Y130500
X077950Y130830
X077520Y131170
X077940Y131200
X082480Y130730
X081980Y130730
X082480Y130230
X081980Y130230
X082480Y129730
X081980Y129730
X082480Y129230
X081980Y129230
X081980Y127730
X082480Y127730
X080300Y127500
X081980Y127230
X082480Y127230
X080300Y127200
X081980Y126730
X082480Y126730
X082480Y126230
X081980Y126230
X082480Y122730
X081980Y122730
X082480Y122230
X081980Y122230
X081980Y121730
X082480Y121730
X082480Y121230
X081980Y121230
X082480Y119730
X081980Y119730
X080300Y119500
X082480Y119230
X081980Y119230
X080300Y119200
X082480Y118730
X081980Y118730
X082480Y118230
X081980Y118230
X080500Y115000
X081000Y115000
X082700Y114500
X081400Y114500
X081100Y114450
X080400Y113750
X081300Y113700
X080350Y113450
X081300Y112900
X080800Y112900
X080300Y112900
X080800Y112400
X081300Y112400
X080300Y112400
X080800Y111900
X080300Y111900
X081300Y111900
X082600Y111100
X082600Y110600
X082100Y110600
X082600Y110100
X082100Y110100
X082600Y109600
X082100Y109600
X082100Y109100
X081030Y106730
X081650Y101950
X081650Y101670
X081310Y101340
X081310Y101060
X081200Y100160
X081200Y099880
X080580Y099140
X080580Y098860
X082000Y095320
X082200Y095120
X081550Y062650
X082922Y063269
X082760Y064670
X084390Y065350
X084490Y065640
X085100Y067150
X082980Y075350
X085040Y075420
X083220Y075540
X083460Y075780
X084400Y075890
X083660Y076010
X084140Y090040
X083940Y090240
X083190Y092520
X082990Y092720
X083530Y104810
X083100Y110100
X085100Y110300
X083100Y110600
X083600Y110600
X084100Y111100
X083600Y111100
X083100Y111100
X084100Y111550
X084550Y111550
X084400Y114500
X083980Y118230
X084480Y118230
X082980Y118230
X083480Y118230
X084980Y118230
X082980Y118730
X083980Y118730
X083480Y118730
X084480Y118730
X083980Y119230
X084480Y119230
X083480Y119230
X082980Y119230
X082980Y119730
X084230Y121230
X083980Y121480
X084230Y121730
X083980Y121980
X084230Y122230
X083980Y122480
X084230Y122730
X084980Y122730
X083480Y126230
X083980Y126230
X084480Y126230
X084980Y126230
X082980Y126230
X082980Y126730
X084480Y126730
X083480Y126730
X083980Y126730
X084480Y127230
X083980Y127230
X083480Y127230
X082980Y127230
X082980Y127730
X084230Y129230
X083980Y129480
X084230Y129730
X083980Y129980
X084230Y130230
X083980Y130480
X084230Y130730
X084980Y130730
X085480Y130730
X085980Y130730
X087480Y130730
X086980Y130730
X086480Y130730
X085480Y126230
X086980Y126230
X087480Y126230
X085980Y126230
X086480Y126230
X085480Y122730
X087480Y122730
X086980Y122730
X086480Y122730
X085980Y122730
X085480Y118230
X085980Y118230
X086480Y118230
X086980Y118230
X087480Y118230
X085250Y116950
X087250Y116950
X086750Y116950
X086250Y116950
X085750Y116950
X085500Y116650
X086250Y116450
X086750Y116450
X087250Y116450
X085450Y115350
X085860Y088570
X086060Y088370
X086660Y083960
X086940Y083960
X087450Y082000
X087450Y081600
X087450Y081200
X087450Y080800
X087450Y080400
X087450Y080000
X087500Y079350
X086100Y075650
X085280Y075570
X087110Y075530
X086950Y075270
X086480Y074150
X086260Y073940
X085430Y072380
X085630Y072180
X086060Y072070
X086260Y071870
X085460Y067420
X085620Y067160
X085360Y067030
X085620Y066790
X086010Y066740
X085750Y065150
X087690Y027830
X087490Y027630
X090100Y021200
X089270Y036500
X089470Y036700
X090130Y045350
X090090Y055690
X088860Y070910
X088860Y071190
X088870Y071630
X088870Y071910
X089100Y072600
X089600Y072600
X090200Y072850
X089100Y073100
X089600Y073100
X087900Y075400
X087960Y076300
X090220Y078440
X087880Y078510
X088900Y078550
X090100Y078990
X088900Y079350
X088200Y079600
X088650Y080000
X088900Y080600
X088350Y081700
X088350Y082000
X088540Y082240
X088320Y082760
X088900Y084200
X090192Y086024
X088250Y116150
X088750Y116450
X088250Y116450
X087750Y116450
X088750Y116950
X088250Y116950
X087750Y116950
X087980Y118230
X089480Y118230
X088980Y118230
X088480Y118230
X088730Y120230
X089230Y120230
X089730Y120230
X088730Y120730
X089230Y120730
X089730Y120730
X088980Y122730
X088480Y122730
X087980Y122730
X089480Y122730
X087980Y126230
X088480Y126230
X089480Y126230
X088980Y126230
X088730Y128230
X089230Y128230
X089730Y128230
X088730Y128730
X089730Y128730
X089230Y128730
X088480Y130730
X087980Y130730
X089480Y130730
X088980Y130730
X091980Y130560
X091300Y130390
X091670Y130040
X092700Y129820
X091620Y129620
X092570Y129520
X092720Y129180
X090390Y085826
X090331Y085383
X091067Y085295
X090529Y085185
X091265Y085097
X091407Y084626
X091605Y084428
X093290Y083660
X093290Y083380
X091550Y083250
X091500Y082950
X093440Y082650
X093440Y082370
X092920Y081940
X092920Y081660
X091500Y081050
X092480Y080768
X091600Y080750
X092282Y080570
X091000Y080550
X091260Y079910
X091060Y079710
X091140Y079240
X090300Y079190
X090940Y079040
X090290Y055890
X090330Y045550
X102600Y014000
X102600Y014300
X102050Y017960
X102040Y018250
X101760Y018310
X101480Y018390
X102464Y018990
X102394Y019270
X101760Y019390
X102600Y024000
X102600Y024300
X102050Y027960
X102040Y028250
X101760Y028310
X101480Y028390
X101760Y029390
X102600Y034000
X102600Y034300
X102050Y037960
X102040Y038250
X101760Y038310
X101480Y038390
X102644Y039010
X102480Y039250
X101760Y039390
X102600Y044000
X102600Y044300
X102050Y047960
X102040Y048250
X101760Y048310
X101480Y048390
X102534Y048990
X102344Y049200
X101760Y049390
X102600Y054000
X102600Y054300
X099680Y057160
X099680Y057440
X102050Y057960
X102040Y058250
X101760Y058310
X101480Y058390
X102644Y059050
X102374Y059280
X101760Y059390
X102600Y064000
X102600Y064300
X098610Y067190
X098610Y067470
X102050Y067960
X102040Y068250
X101760Y068310
X101480Y068390
X102644Y068990
X102420Y069190
X101760Y069390
X102600Y074000
X102600Y074300
X098630Y077200
X098630Y077480
X102050Y077960
X102040Y078250
X101760Y078310
X101480Y078390
X102604Y078990
X102480Y079250
X101760Y079390
X102600Y084000
X102600Y084300
X098690Y087230
X098690Y087510
X102050Y087960
X102040Y088250
X101760Y088310
X101480Y088390
X102554Y089010
X102334Y089220
X101760Y089390
X102600Y094000
X102600Y094300
X102050Y097960
X102040Y098250
X101760Y098310
X101480Y098390
X102524Y099010
X102374Y099270
X101760Y099390
X102600Y104000
X102600Y104300
X102635Y105410
X102635Y105690
X102050Y107960
X102040Y108250
X101760Y108310
X101480Y108390
X102634Y109000
X102420Y109190
X101760Y109390
X102050Y117960
X102040Y118250
X101760Y118310
X101480Y118390
X102480Y119250
X101760Y119390
X102600Y124000
X102600Y124300
X102050Y127960
X102040Y128250
X101760Y128310
X101480Y128390
X102624Y129000
X102444Y129250
X101760Y129390
X104310Y129410
X104900Y129020
X104660Y128570
X105080Y128300
X104300Y127850
X104234Y126157
X104874Y125801
X104000Y125690
X104000Y125410
X104806Y125220
X104800Y124610
X104500Y124450
X103650Y124450
X104100Y124050
X104950Y123700
X104676Y123040
X104440Y119340
X104900Y119020
X104670Y118560
X105080Y118300
X104034Y117820
X103350Y117800
X104350Y117800
X104234Y116157
X103780Y115690
X103780Y115410
X104816Y115220
X104800Y114610
X104500Y114450
X103650Y114450
X104100Y114050
X103120Y113830
X104950Y113700
X103120Y113550
X104346Y113050
X105000Y112950
X104440Y109340
X104900Y109020
X104660Y108570
X105076Y108300
X104024Y107840
X103350Y107800
X104350Y107800
X104234Y106157
X104796Y105180
X104800Y104610
X104500Y104450
X103650Y104450
X104100Y104050
X104950Y103700
X104350Y103050
X105000Y102950
X104440Y099340
X104900Y099020
X104660Y098580
X105080Y098300
X104034Y097820
X104350Y097800
X103350Y097800
X104006Y095970
X104000Y095690
X104000Y095410
X104806Y095210
X104800Y094610
X104500Y094450
X103650Y094450
X104100Y094050
X104950Y093700
X104350Y093050
X105000Y092950
X104310Y089410
X104900Y089020
X104660Y088560
X105080Y088300
X103994Y087850
X104300Y087850
X103350Y087800
X104234Y086157
X104000Y085690
X104000Y085410
X104806Y085220
X104800Y084610
X104500Y084450
X103650Y084450
X104100Y084050
X104950Y083700
X104676Y083040
X105000Y082950
X104440Y079340
X104670Y078570
X105080Y078300
X104024Y077830
X103350Y077800
X104350Y077800
X104234Y076157
X104000Y075690
X104000Y075410
X104816Y075220
X104800Y074610
X104500Y074450
X103650Y074450
X105246Y074160
X104100Y074050
X104950Y073700
X104346Y073050
X105000Y072950
X104440Y069340
X104900Y069020
X104670Y068580
X105076Y068300
X104034Y067850
X104350Y067800
X103350Y067800
X104234Y066157
X104000Y065690
X104000Y065410
X104796Y065180
X104800Y064610
X104500Y064450
X103650Y064450
X104100Y064050
X104950Y063700
X104350Y063050
X105000Y062950
X104440Y059340
X104900Y059020
X104690Y058570
X105080Y058300
X104034Y057830
X103350Y057800
X104350Y057800
X104006Y055970
X104000Y055690
X104000Y055410
X104806Y055210
X104800Y054610
X104500Y054450
X103650Y054450
X104100Y054050
X104950Y053700
X104350Y053050
X105000Y052950
X104310Y049410
X104900Y049020
X104660Y048560
X105080Y048300
X104300Y047850
X103350Y047800
X104234Y046157
X104000Y045690
X104000Y045410
X104806Y045220
X104800Y044610
X103650Y044450
X104500Y044450
X104100Y044050
X104950Y043700
X104676Y043040
X105000Y042950
X104440Y039340
X104900Y039020
X104650Y038570
X105080Y038300
X104044Y037830
X104350Y037800
X103350Y037800
X104234Y036157
X104874Y035801
X104000Y035690
X104000Y035410
X104816Y035220
X104800Y034610
X104500Y034450
X103650Y034450
X104100Y034050
X104950Y033700
X104346Y033050
X105000Y032950
X104440Y029340
X104900Y029020
X104650Y028570
X105076Y028300
X104024Y027830
X104350Y027800
X103090Y027750
X104234Y026157
X104874Y025801
X104000Y025690
X104000Y025410
X104796Y025180
X104800Y024610
X103650Y024450
X104500Y024450
X104100Y024050
X104950Y023700
X104350Y023050
X104440Y019340
X104900Y019020
X104670Y018590
X105080Y018300
X104024Y017820
X103350Y017800
X104350Y017800
X104006Y015970
X104000Y015690
X104000Y015410
X104806Y015210
X104800Y014610
X103650Y014450
X104500Y014450
X104100Y014050
X104950Y013700
X104350Y013050
X105000Y012950
X106600Y012000
X106200Y012050
X107650Y012350
X106886Y012850
X107150Y012950
X106216Y013170
X107300Y013200
X107456Y013450
X105686Y013700
X106700Y013900
X105700Y014900
X107700Y014900
X105250Y015650
X106700Y015900
X105816Y016220
X107720Y016270
X107450Y016350
X107650Y016550
X106200Y016650
X107350Y016750
X107046Y016750
X106400Y016930
X106700Y017000
X107600Y017600
X105980Y017740
X105910Y018060
X107080Y018100
X105910Y018340
X107060Y018470
X106290Y018520
X105940Y018700
X107300Y018940
X105900Y019400
X107500Y019500
X107450Y019910
X107480Y020310
X105900Y022350
X107650Y022350
X106886Y022850
X107150Y022950
X106216Y023150
X105570Y023160
X107300Y023200
X107466Y023450
X105686Y023700
X106700Y023900
X107700Y024900
X105700Y024900
X105250Y025650
X106700Y025900
X107720Y026270
X107450Y026350
X106200Y026650
X107350Y026750
X107036Y026770
X106400Y026930
X106700Y027000
X107596Y027600
X105976Y027740
X105906Y028060
X107076Y028100
X105906Y028340
X107056Y028470
X106286Y028520
X105936Y028700
X107296Y028940
X105480Y029020
X105900Y029400
X107470Y029510
X107450Y029900
X107450Y030300
X106200Y032050
X107200Y032050
X107650Y032350
X106896Y032830
X107150Y032950
X106650Y033000
X106226Y033140
X107300Y033200
X107466Y033460
X105686Y033700
X106700Y033900
X107700Y034900
X105700Y034900
X106700Y035900
X107720Y036270
X107450Y036350
X107650Y036550
X106200Y036650
X107350Y036750
X107036Y036770
X106400Y036930
X106700Y037000
X107600Y037600
X105980Y037740
X105910Y038060
X107080Y038100
X105910Y038340
X107060Y038470
X106290Y038520
X105940Y038700
X107300Y038940
X105480Y039020
X105900Y039400
X107500Y039500
X107450Y039900
X107500Y040300
X106200Y042050
X107200Y042050
X107650Y042350
X106886Y042850
X107150Y042950
X106236Y043150
X107300Y043200
X107466Y043460
X105686Y043700
X106700Y043900
X107700Y044900
X105700Y044900
X106700Y045900
X107720Y046270
X107450Y046350
X107650Y046550
X106200Y046650
X107350Y046750
X107046Y046790
X106400Y046930
X106700Y047000
X107600Y047600
X105980Y047740
X105910Y048060
X107080Y048100
X105910Y048340
X107060Y048470
X106290Y048520
X105940Y048700
X107300Y048940
X105480Y049020
X105900Y049400
X107490Y049510
X107460Y049910
X107490Y050310
X107200Y052100
X105900Y052350
X107650Y052350
X106886Y052850
X107150Y052950
X106216Y053170
X107300Y053200
X107456Y053450
X105686Y053700
X106700Y053900
X105700Y054900
X107700Y054900
X105250Y055650
X106700Y055900
X105810Y056210
X107720Y056270
X107450Y056350
X106200Y056650
X107350Y056750
X107046Y056750
X106400Y056930
X106700Y057000
X107600Y057600
X105980Y057740
X105910Y058060
X107080Y058100
X105910Y058340
X107060Y058470
X106290Y058520
X105940Y058700
X107300Y058940
X105900Y059400
X107480Y059510
X107440Y059910
X107480Y060310
X107200Y062250
X105890Y062350
X107650Y062350
X106886Y062850
X107150Y062950
X106216Y063150
X107300Y063200
X107466Y063450
X105686Y063700
X106700Y063900
X107700Y064900
X105700Y064900
X105250Y065650
X106700Y065900
X105816Y066210
X107720Y066270
X107450Y066350
X106200Y066650
X107350Y066750
X107036Y066770
X106400Y066930
X106700Y067000
X107596Y067600
X105976Y067740
X105906Y068060
X107076Y068100
X105906Y068340
X107056Y068470
X106286Y068520
X105936Y068700
X107296Y068940
X105480Y069020
X107490Y069500
X105780Y069520
X107440Y069910
X107500Y070250
X106900Y071700
X105890Y072330
X107650Y072350
X106896Y072830
X107150Y072950
X106650Y073000
X106226Y073140
X107300Y073200
X107466Y073460
X105686Y073700
X106700Y073900
X107700Y074900
X105700Y074900
X105250Y075650
X106700Y075900
X105820Y076214
X107720Y076270
X107450Y076350
X106200Y076650
X107350Y076750
X107036Y076770
X106400Y076930
X106700Y077000
X107600Y077600
X105980Y077740
X105910Y078060
X107080Y078100
X105910Y078340
X107060Y078470
X106290Y078520
X105940Y078700
X107300Y078940
X105480Y079020
X105900Y079400
X107480Y079500
X107450Y079910
X107470Y080310
X107200Y081990
X106200Y082050
X107650Y082350
X106886Y082850
X107150Y082950
X106270Y083120
X107300Y083200
X106030Y083270
X107466Y083460
X105686Y083700
X106700Y083900
X105700Y084900
X107700Y084900
X106700Y085900
X107720Y086270
X107450Y086350
X106200Y086650
X107350Y086750
X107046Y086790
X106400Y086930
X106700Y087000
X107600Y087600
X105980Y087740
X105910Y088060
X107080Y088100
X105910Y088340
X107060Y088470
X106290Y088520
X105940Y088700
X107300Y088940
X105480Y089020
X105900Y089400
X107480Y089520
X107470Y089910
X107490Y090310
X106905Y091714
X106200Y092050
X107650Y092350
X106886Y092850
X107150Y092950
X106216Y093170
X107300Y093200
X107456Y093450
X105686Y093700
X106700Y093900
X107700Y094900
X105700Y094900
X105250Y095650
X106700Y095900
X105816Y096220
X107720Y096270
X107450Y096350
X106200Y096650
X107350Y096750
X107046Y096750
X106400Y096930
X107600Y097600
X105980Y097740
X105910Y098060
X107080Y098100
X105910Y098340
X107060Y098470
X106290Y098520
X105940Y098700
X107300Y098940
X105900Y099400
X107490Y099500
X107420Y099910
X107500Y100320
X107210Y101390
X106200Y102050
X107650Y102350
X106886Y102850
X107150Y102950
X106216Y103150
X107300Y103200
X107466Y103450
X105686Y103700
X106700Y103900
X107700Y104900
X105700Y104900
X105250Y105650
X106700Y105900
X105816Y106210
X107720Y106270
X107450Y106350
X106200Y106650
X107350Y106750
X107036Y106770
X106400Y106930
X107596Y107600
X105976Y107740
X105906Y108060
X107076Y108100
X105906Y108340
X107056Y108470
X106286Y108520
X105936Y108700
X107300Y108970
X105480Y109020
X105900Y109400
X107350Y109900
X106200Y112050
X107200Y112200
X107650Y112350
X106896Y112830
X107150Y112950
X106650Y113000
X106226Y113140
X107300Y113200
X107466Y113460
X105686Y113700
X106700Y113900
X105700Y114900
X107700Y114900
X105250Y115650
X106700Y115900
X105820Y116214
X107720Y116270
X107450Y116350
X106200Y116650
X107350Y116750
X107036Y116770
X106400Y116930
X107600Y117600
X105980Y117740
X105910Y118060
X107080Y118100
X105910Y118340
X107060Y118470
X106287Y118517
X105940Y118700
X107300Y118930
X105480Y119020
X105900Y119400
X107450Y119910
X107510Y120310
X106900Y121700
X105900Y122350
X107250Y122750
X106850Y122850
X107100Y123000
X106236Y123150
X105570Y123160
X107300Y123200
X107466Y123460
X105686Y123700
X106700Y123900
X107700Y124900
X105700Y124900
X106700Y125900
X107720Y126270
X107450Y126350
X107650Y126550
X106200Y126650
X107350Y126750
X107046Y126790
X106400Y126930
X107600Y127600
X105980Y127740
X105910Y128060
X107080Y128100
X105910Y128340
X107060Y128470
X106290Y128520
X105940Y128700
X107300Y128940
X105480Y129020
X105900Y129400
X107510Y129480
X107300Y129910
X107500Y130310
X109600Y130550
X108830Y130310
X109050Y129900
X108820Y129490
X109450Y127800
X109146Y127020
X108700Y126630
X109150Y126500
X108700Y126300
X109146Y126020
X108600Y125900
X108200Y125650
X110020Y125470
X109100Y125350
X108606Y125200
X108500Y124450
X108790Y124390
X108026Y124020
X109646Y123520
X109146Y123520
X110146Y123520
X108450Y123250
X109646Y123020
X109146Y123020
X110146Y123020
X108200Y123000
X109146Y122520
X109646Y122520
X110146Y122520
X108151Y122512
X108349Y122314
X109700Y122100
X109600Y120550
X108840Y120310
X109050Y119900
X108850Y119510
X109450Y117800
X109146Y117020
X107920Y116550
X109150Y116500
X108750Y116250
X109900Y116100
X109146Y116020
X108600Y115900
X108200Y115650
X110020Y115470
X109100Y115350
X108606Y115200
X108500Y114450
X108790Y114390
X108016Y114010
X109646Y113520
X109146Y113520
X110170Y113520
X108450Y113250
X110160Y113040
X109646Y113020
X109146Y113020
X108200Y113000
X109146Y112520
X109646Y112520
X110160Y112520
X108151Y112512
X108349Y112314
X110140Y112060
X109600Y110550
X108850Y110310
X109050Y109900
X108820Y109510
X109450Y107800
X109146Y107020
X107920Y106550
X109150Y106500
X108750Y106250
X109900Y106100
X109146Y106020
X108600Y105900
X108200Y105650
X110020Y105470
X109100Y105350
X108606Y105200
X108500Y104450
X108790Y104390
X108026Y104020
X109646Y103520
X109146Y103520
X110146Y103520
X108450Y103250
X109146Y103020
X110146Y103020
X109646Y103020
X108200Y103000
X110146Y102520
X109146Y102520
X109646Y102520
X108151Y102512
X108349Y102314
X110140Y102060
X109600Y100550
X108840Y100310
X109050Y099900
X108840Y099500
X109450Y097800
X109146Y097020
X107920Y096550
X109150Y096500
X108750Y096250
X109880Y096090
X109146Y096020
X108600Y095900
X108200Y095650
X110020Y095470
X109100Y095350
X108596Y095200
X108500Y094450
X108790Y094390
X108016Y094010
X109646Y093520
X110146Y093520
X109146Y093520
X108450Y093250
X109646Y093020
X109146Y093020
X110146Y093020
X108200Y093000
X109646Y092520
X110146Y092520
X109146Y092520
X108151Y092512
X108349Y092314
X110140Y092060
X109600Y090550
X109050Y089900
X109450Y087800
X109146Y087020
X108700Y086630
X109150Y086500
X108700Y086300
X109146Y086020
X108600Y085900
X108200Y085650
X110020Y085470
X109100Y085350
X108606Y085200
X108500Y084450
X108790Y084390
X108026Y084020
X110146Y083520
X109646Y083520
X109146Y083520
X108450Y083250
X110146Y083020
X109646Y083020
X109146Y083020
X108200Y083000
X108151Y082512
X109150Y082510
X109650Y082510
X110150Y082510
X108349Y082314
X110140Y082060
X109600Y080550
X108860Y080300
X109050Y079900
X108850Y079490
X109450Y077800
X109146Y077020
X107920Y076550
X109150Y076500
X108750Y076250
X109900Y076100
X109146Y076020
X108600Y075900
X108200Y075650
X110020Y075470
X109100Y075350
X108606Y075200
X108500Y074450
X108790Y074390
X108016Y074010
X109646Y073520
X110146Y073520
X109146Y073520
X108450Y073250
X110146Y073020
X109646Y073020
X109146Y073020
X108200Y073000
X109646Y072520
X109146Y072520
X110146Y072520
X108151Y072512
X108349Y072314
X110140Y072060
X109600Y070550
X108830Y070310
X109050Y069900
X108850Y069510
X109450Y067800
X109146Y067020
X107920Y066550
X109150Y066500
X108750Y066250
X109900Y066100
X109146Y066020
X108600Y065900
X108200Y065650
X110020Y065470
X109100Y065350
X108606Y065200
X108500Y064450
X108790Y064390
X108026Y064020
X110146Y063520
X109646Y063520
X109146Y063520
X108450Y063250
X109646Y063020
X109146Y063020
X110146Y063020
X108200Y063000
X109646Y062520
X109146Y062520
X110146Y062520
X108151Y062512
X108349Y062314
X110140Y062060
X109600Y060550
X108860Y060310
X109050Y059900
X108880Y059500
X109450Y057800
X109146Y057020
X107920Y056550
X109150Y056500
X108750Y056250
X109894Y056060
X109146Y056020
X108600Y055900
X108200Y055650
X110020Y055470
X109100Y055350
X108596Y055200
X108500Y054450
X108790Y054390
X108016Y054010
X109646Y053520
X109146Y053520
X110146Y053520
X108450Y053250
X110146Y053020
X109146Y053020
X109646Y053020
X108200Y053000
X109646Y052520
X109146Y052520
X110146Y052520
X108151Y052512
X108349Y052314
X110140Y052060
X109600Y050550
X108840Y050310
X109050Y049900
X108850Y049500
X109450Y047800
X109146Y047020
X108700Y046630
X109150Y046500
X108700Y046300
X109146Y046020
X108600Y045900
X108200Y045650
X110020Y045470
X109100Y045350
X108606Y045200
X108500Y044450
X108790Y044390
X108026Y044020
X110146Y043520
X109146Y043520
X109646Y043520
X108450Y043250
X110146Y043020
X109646Y043020
X109146Y043020
X108200Y043000
X110146Y042520
X109146Y042520
X109646Y042520
X108151Y042512
X108349Y042314
X110140Y042060
X109600Y040550
X108840Y040320
X109050Y039900
X108830Y039510
X109450Y037800
X109146Y037020
X109150Y036500
X108750Y036250
X109900Y036100
X109146Y036020
X108600Y035900
X108200Y035650
X110020Y035470
X109100Y035350
X108606Y035200
X108500Y034450
X108790Y034390
X108016Y034010
X109646Y033520
X110146Y033520
X109146Y033520
X108450Y033250
X110146Y033020
X109646Y033020
X109146Y033020
X108200Y033000
X109146Y032520
X110146Y032520
X109646Y032520
X108151Y032512
X108349Y032314
X110140Y032060
X109600Y030550
X108840Y030310
X109050Y029900
X108860Y029510
X109450Y027800
X109146Y027020
X107920Y026550
X109150Y026500
X108750Y026250
X109900Y026100
X109146Y026020
X108600Y025900
X108200Y025650
X110020Y025470
X109100Y025350
X108606Y025200
X108500Y024450
X108790Y024390
X108026Y024020
X109146Y023520
X109646Y023520
X110146Y023520
X108450Y023250
X110146Y023020
X109646Y023020
X109146Y023020
X108200Y023000
X110146Y022520
X109646Y022520
X109146Y022520
X108151Y022512
X108349Y022314
X110140Y022060
X109600Y020550
X108820Y020310
X109050Y019900
X108820Y019500
X109450Y017800
X109146Y017020
X109150Y016500
X108750Y016250
X109924Y016020
X108600Y015900
X108200Y015650
X110020Y015470
X109100Y015350
X108596Y015200
X108500Y014450
X108790Y014390
X108016Y014010
X110146Y013520
X109646Y013520
X109146Y013520
X108450Y013250
X110146Y013020
X109146Y013020
X109646Y013020
X108200Y013000
X109146Y012520
X109646Y012520
X110146Y012520
X108151Y012512
X108349Y012314
X112646Y012520
X112146Y012520
X110646Y012520
X111646Y012520
X111146Y012520
X111646Y013020
X111146Y013020
X110646Y013020
X112646Y013020
X112146Y013020
X111646Y013520
X112146Y013520
X112646Y013520
X111146Y013520
X110646Y013520
X110290Y014020
X111060Y014020
X112140Y014300
X112150Y015300
X111070Y015380
X111350Y015800
X112250Y015800
X111350Y016600
X112700Y016600
X110750Y017000
X112146Y017020
X112550Y017800
X112250Y017800
X111850Y017800
X111400Y018200
X112250Y018750
X111550Y020250
X112100Y020700
X112646Y022520
X112146Y022520
X111646Y022520
X111146Y022520
X110646Y022520
X112646Y023020
X112146Y023020
X111646Y023020
X111146Y023020
X110646Y023020
X112646Y023520
X110646Y023520
X111146Y023520
X111646Y023520
X112146Y023520
X110290Y024020
X111060Y024020
X112140Y024300
X112150Y025300
X111070Y025380
X110320Y025380
X112250Y025800
X111350Y025800
X112700Y026600
X111350Y026600
X110750Y027000
X112146Y027020
X112250Y027800
X112550Y027800
X111850Y027800
X111400Y028200
X112250Y028750
X111550Y030250
X112100Y030700
X112646Y032520
X112146Y032520
X111646Y032520
X111146Y032520
X110646Y032520
X110646Y033020
X112646Y033020
X111146Y033020
X111646Y033020
X112146Y033020
X110646Y033520
X111146Y033520
X111646Y033520
X112146Y033520
X112646Y033520
X110290Y034020
X111060Y034020
X112140Y034300
X112150Y035300
X110320Y035380
X111070Y035380
X112250Y035800
X111350Y035900
X111350Y036600
X112700Y036600
X110750Y037000
X112146Y037020
X111850Y037800
X112550Y037800
X112250Y037800
X111400Y038200
X112250Y038750
X111550Y040250
X112100Y040700
X111400Y042100
X112646Y042520
X112146Y042520
X111646Y042520
X111146Y042520
X110646Y042520
X112646Y043020
X112146Y043020
X111646Y043020
X111146Y043020
X110646Y043020
X110646Y043520
X111646Y043520
X111146Y043520
X112146Y043520
X112646Y043520
X111060Y044020
X110290Y044020
X112140Y044300
X112150Y045300
X111070Y045380
X110320Y045380
X112250Y045800
X111350Y045800
X110500Y046210
X112700Y046600
X111350Y046600
X110750Y047000
X112146Y047020
X111850Y047800
X112550Y047800
X112250Y047800
X111400Y048200
X112250Y048750
X111550Y050250
X112100Y050700
X112646Y052520
X112146Y052520
X111646Y052520
X111146Y052520
X110646Y052520
X112646Y053020
X112146Y053020
X111646Y053020
X111146Y053020
X110646Y053020
X112646Y053520
X110646Y053520
X111146Y053520
X111646Y053520
X112146Y053520
X111060Y054020
X110290Y054020
X112140Y054300
X112150Y055300
X111070Y055380
X110320Y055380
X110640Y055770
X111350Y055800
X112250Y055800
X112700Y056600
X111350Y056600
X110750Y057000
X112146Y057020
X112250Y057800
X111850Y057800
X112550Y057800
X111400Y058200
X112250Y058750
X111550Y060250
X112100Y060700
X112646Y062520
X112146Y062520
X111646Y062520
X111146Y062520
X110646Y062520
X112646Y063020
X112146Y063020
X111146Y063020
X110646Y063020
X111646Y063020
X111646Y063520
X112146Y063520
X111146Y063520
X112646Y063520
X110646Y063520
X110290Y064020
X111060Y064020
X112140Y064300
X112150Y065300
X111070Y065380
X110320Y065380
X110640Y065760
X111350Y065800
X112250Y065800
X111350Y066600
X112700Y066600
X110750Y067000
X112146Y067020
X111850Y067800
X112550Y067800
X112250Y067800
X111400Y068200
X112250Y068750
X111550Y070250
X112100Y070700
X112646Y072520
X112146Y072520
X111646Y072520
X111146Y072520
X110646Y072520
X112146Y073020
X110646Y073020
X112646Y073020
X111646Y073020
X111146Y073020
X112646Y073520
X111146Y073520
X110646Y073520
X112146Y073520
X111646Y073520
X110290Y074020
X111060Y074020
X112140Y074300
X112150Y075300
X110320Y075380
X111070Y075380
X110640Y075790
X112250Y075800
X111360Y075950
X111350Y076600
X112700Y076600
X110750Y077000
X112146Y077020
X111850Y077800
X112550Y077800
X112250Y077800
X111400Y078200
X112250Y078750
X111550Y080250
X112100Y080700
X111400Y082100
X111150Y082510
X111650Y082510
X112150Y082510
X112650Y082510
X110650Y082510
X110646Y083020
X111146Y083020
X112146Y083020
X111646Y083020
X112646Y083020
X111646Y083520
X111146Y083520
X112146Y083520
X110646Y083520
X112646Y083520
X111060Y084020
X110290Y084020
X112140Y084300
X112150Y085300
X111070Y085380
X110320Y085380
X111350Y085800
X112250Y085800
X110540Y086190
X111350Y086600
X112700Y086600
X110750Y087000
X112146Y087020
X111850Y087800
X112550Y087800
X112250Y087800
X111400Y088200
X112250Y088750
X111550Y090250
X112100Y090700
X110646Y092520
X111146Y092520
X112146Y092520
X111646Y092520
X112646Y092520
X111646Y093020
X110646Y093020
X111146Y093020
X112646Y093020
X112146Y093020
X111146Y093520
X112146Y093520
X110646Y093520
X112646Y093520
X111646Y093520
X110290Y094020
X111060Y094020
X112140Y094300
X112150Y095300
X111070Y095380
X110320Y095380
X110640Y095760
X112250Y095800
X111350Y095800
X111350Y096600
X112700Y096600
X110750Y097000
X112146Y097020
X111850Y097800
X112550Y097800
X112250Y097800
X111400Y098200
X112250Y098750
X111550Y100250
X112100Y100700
X112146Y102520
X111146Y102520
X111646Y102520
X110646Y102520
X112646Y102520
X111146Y103020
X110646Y103020
X112146Y103020
X112646Y103020
X111646Y103020
X111646Y103520
X110646Y103520
X112146Y103520
X112646Y103520
X111146Y103520
X110290Y104020
X111060Y104020
X112140Y104300
X112150Y105300
X111070Y105380
X110320Y105380
X110630Y105750
X111350Y105800
X112250Y105800
X112700Y106600
X111350Y106600
X110750Y107000
X112146Y107020
X112250Y107800
X112550Y107800
X111850Y107800
X111400Y108200
X112250Y108750
X111550Y110250
X112100Y110700
X111646Y112520
X111146Y112520
X112146Y112520
X110646Y112520
X112646Y112520
X112646Y113020
X111646Y113020
X111146Y113020
X110646Y113020
X112146Y113020
X111646Y113520
X112146Y113520
X112646Y113520
X111146Y113520
X110646Y113520
X110290Y114020
X111060Y114020
X112140Y114300
X112150Y115300
X110320Y115380
X111070Y115380
X110640Y115780
X112250Y115800
X111360Y115860
X111350Y116600
X112700Y116600
X110750Y117000
X112146Y117020
X112550Y117800
X112250Y117800
X111850Y117800
X111400Y118200
X112250Y118750
X111550Y120250
X112100Y120700
X111400Y122100
X112146Y122520
X112646Y122520
X111646Y122520
X111146Y122520
X110646Y122520
X111646Y123020
X112146Y123020
X110646Y123020
X111146Y123020
X112646Y123020
X111646Y123520
X112646Y123520
X112146Y123520
X111146Y123520
X110646Y123520
X110290Y124020
X111060Y124020
X112140Y124300
X112150Y125300
X111070Y125380
X110320Y125380
X111350Y125800
X112250Y125800
X110490Y126220
X112700Y126600
X111350Y126600
X110750Y127000
X112146Y127020
X111850Y127800
X112550Y127800
X112250Y127800
X111400Y128200
X112250Y128750
X111550Y130250
X112100Y130700
X114500Y130700
X115200Y130500
X114850Y130500
X115100Y127850
X114600Y127650
X113646Y127020
X115146Y127020
X113146Y126520
X113146Y126020
X113500Y125550
X113750Y125550
X113150Y125250
X114500Y124850
X112800Y124750
X114500Y124550
X112750Y124400
X114400Y124200
X113100Y124150
X115100Y124000
X114196Y123820
X113250Y123800
X113550Y123800
X115146Y123520
X114646Y123520
X113646Y123020
X113146Y123020
X115146Y123020
X114646Y123020
X114146Y123020
X113146Y122520
X113646Y122520
X115146Y122520
X114646Y122520
X114146Y122520
X113650Y122100
X114500Y120700
X115200Y120500
X114850Y120500
X115100Y117850
X114600Y117650
X113646Y117020
X115146Y117020
X113146Y116520
X113146Y116020
X113500Y115550
X113750Y115550
X113150Y115250
X114500Y114850
X112800Y114750
X114500Y114550
X112750Y114400
X114400Y114200
X113100Y114150
X115100Y114000
X114196Y113820
X113250Y113800
X113550Y113800
X115146Y113520
X114646Y113520
X113646Y113020
X113146Y113020
X115146Y113020
X114646Y113020
X114146Y113020
X113146Y112520
X113646Y112520
X114146Y112520
X114646Y112520
X115146Y112520
X114500Y110700
X115200Y110500
X114850Y110500
X115100Y107850
X114600Y107650
X115146Y107020
X113646Y107020
X113146Y106520
X113146Y106020
X113750Y105550
X113500Y105550
X113150Y105250
X114500Y104850
X112800Y104750
X114500Y104550
X112750Y104400
X114400Y104200
X113100Y104150
X115100Y104000
X114196Y103820
X113854Y103813
X113550Y103800
X113250Y103800
X115146Y103520
X114646Y103520
X113646Y103020
X113146Y103020
X115146Y103020
X114646Y103020
X114146Y103020
X113146Y102520
X113646Y102520
X115146Y102520
X114646Y102520
X114146Y102520
X114500Y100700
X115200Y100500
X114850Y100500
X115100Y097850
X114600Y097650
X115146Y097020
X113646Y097020
X113146Y096520
X113146Y096020
X113750Y095550
X113500Y095550
X113150Y095250
X114500Y094850
X112800Y094750
X114500Y094550
X112750Y094400
X114400Y094200
X113100Y094150
X115100Y094000
X114196Y093820
X113250Y093800
X113550Y093800
X114646Y093520
X115146Y093520
X115146Y093020
X114646Y093020
X114146Y093020
X113646Y093020
X113146Y093020
X114146Y092520
X114646Y092520
X115146Y092520
X113146Y092520
X113646Y092520
X114500Y090700
X115200Y090500
X114850Y090500
X115100Y087850
X114600Y087650
X115146Y087020
X113646Y087020
X113146Y086520
X113146Y086020
X113750Y085550
X113500Y085550
X113150Y085250
X114500Y084850
X112800Y084750
X114500Y084550
X112750Y084400
X114400Y084200
X113100Y084150
X115100Y084000
X114196Y083820
X113250Y083800
X113550Y083800
X115146Y083520
X114646Y083520
X113146Y083020
X113646Y083020
X115146Y083020
X114646Y083020
X114146Y083020
X115150Y082510
X113150Y082510
X113650Y082510
X114650Y082510
X114150Y082510
X113650Y082100
X114500Y080700
X115200Y080500
X114850Y080500
X115100Y077850
X114600Y077650
X115146Y077020
X113646Y077020
X113146Y076520
X113146Y076020
X113750Y075550
X113500Y075550
X113150Y075250
X114500Y074850
X112800Y074750
X114500Y074550
X112750Y074400
X114400Y074200
X113100Y074150
X115100Y074000
X114196Y073820
X113250Y073800
X113550Y073800
X114646Y073520
X115146Y073520
X115146Y073020
X114646Y073020
X114146Y073020
X113646Y073020
X113146Y073020
X113646Y072520
X113146Y072520
X115146Y072520
X114646Y072520
X114146Y072520
X114500Y070700
X114850Y070500
X115200Y070500
X115100Y067850
X114600Y067650
X115146Y067020
X113646Y067020
X113146Y066520
X113146Y066020
X113750Y065550
X113500Y065550
X113150Y065250
X114500Y064850
X112800Y064750
X114500Y064550
X112750Y064400
X114400Y064200
X113100Y064150
X115100Y064000
X114196Y063820
X113854Y063813
X113250Y063800
X113550Y063800
X115146Y063520
X114646Y063520
X115146Y063020
X114146Y063020
X113646Y063020
X113146Y063020
X114646Y063020
X114646Y062520
X114146Y062520
X113646Y062520
X113146Y062520
X115146Y062520
X114500Y060700
X115200Y060500
X114850Y060500
X115100Y057850
X114600Y057650
X115146Y057020
X113646Y057020
X113146Y056520
X113146Y056020
X113500Y055550
X113750Y055550
X113150Y055250
X114500Y054850
X112800Y054750
X114500Y054550
X112750Y054400
X114400Y054200
X113100Y054150
X115100Y054000
X114196Y053820
X113550Y053800
X113250Y053800
X115146Y053520
X114646Y053520
X115146Y053020
X114646Y053020
X114146Y053020
X113646Y053020
X113146Y053020
X114146Y052520
X113646Y052520
X113146Y052520
X115146Y052520
X114646Y052520
X114500Y050700
X114850Y050500
X115200Y050500
X115100Y047850
X114600Y047650
X115146Y047020
X113646Y047020
X113146Y046520
X113146Y046020
X113750Y045550
X113500Y045550
X113150Y045250
X114500Y044850
X112800Y044750
X114500Y044550
X112750Y044400
X114400Y044200
X113100Y044150
X115100Y044000
X114196Y043820
X113250Y043800
X113550Y043800
X115146Y043520
X114646Y043520
X113646Y043020
X115146Y043020
X114646Y043020
X114146Y043020
X113146Y043020
X113146Y042520
X113646Y042520
X115146Y042520
X114646Y042520
X114146Y042520
X113650Y042100
X114500Y040700
X115200Y040500
X114850Y040500
X115100Y037850
X114600Y037650
X113646Y037020
X115146Y037020
X113146Y036520
X113146Y036020
X113500Y035550
X113750Y035550
X113150Y035250
X114500Y034850
X112800Y034750
X114500Y034550
X112750Y034400
X114400Y034200
X113100Y034150
X115100Y034000
X114196Y033820
X113550Y033800
X113250Y033800
X114646Y033520
X115146Y033520
X115146Y033020
X113146Y033020
X114146Y033020
X114646Y033020
X113646Y033020
X115146Y032520
X113646Y032520
X114146Y032520
X114646Y032520
X113146Y032520
X114500Y030700
X115200Y030500
X114850Y030500
X115100Y027850
X114600Y027650
X115146Y027020
X113646Y027020
X113146Y026520
X113146Y026020
X113500Y025550
X113750Y025550
X113150Y025250
X114500Y024850
X112800Y024750
X114500Y024550
X112750Y024400
X114400Y024200
X113100Y024150
X115100Y024000
X114196Y023820
X113854Y023813
X113550Y023800
X113250Y023800
X115146Y023520
X114646Y023520
X113646Y023020
X114646Y023020
X115146Y023020
X113146Y023020
X114146Y023020
X113646Y022520
X113146Y022520
X114646Y022520
X115146Y022520
X114146Y022520
X114500Y020700
X114850Y020500
X115200Y020500
X115100Y017850
X114600Y017650
X113646Y017020
X115146Y017020
X113146Y016520
X113146Y016020
X113750Y015550
X113500Y015550
X113150Y015250
X114500Y014850
X112800Y014750
X114500Y014550
X112750Y014400
X114400Y014200
X113100Y014150
X115100Y014000
X114196Y013820
X113250Y013800
X113550Y013800
X115146Y013520
X114646Y013520
X114146Y013020
X115146Y013020
X113146Y013020
X114646Y013020
X113646Y013020
X113146Y012520
X114646Y012520
X114146Y012520
X113646Y012520
X115146Y012520
X117646Y012520
X117146Y012520
X116646Y012520
X116146Y012520
X115646Y012520
X116146Y013020
X115646Y013020
X117146Y013020
X117646Y013020
X116646Y013020
X116146Y013520
X117646Y013520
X117146Y013520
X116646Y013520
X115646Y013520
X116646Y014020
X116146Y014020
X115646Y014020
X115700Y014300
X116150Y015400
X115300Y015400
X116646Y017020
X117440Y017150
X115900Y018050
X115400Y018250
X117250Y018650
X115800Y019150
X115500Y019150
X116050Y019300
X116146Y022520
X116646Y022520
X115646Y022520
X117646Y022520
X117146Y022520
X117646Y023020
X117146Y023020
X116646Y023020
X116146Y023020
X115646Y023020
X116646Y023520
X116146Y023520
X115646Y023520
X117646Y023520
X117146Y023520
X115646Y024020
X116646Y024020
X116146Y024020
X115700Y024300
X115300Y025400
X116150Y025400
X116646Y027020
X117440Y027150
X115900Y028050
X115400Y028250
X117250Y028650
X115800Y029150
X115500Y029150
X116050Y029300
X117646Y032520
X117146Y032520
X116646Y032520
X116146Y032520
X115646Y032520
X116146Y033020
X115646Y033020
X116646Y033020
X117646Y033020
X117146Y033020
X115646Y033520
X116146Y033520
X116646Y033520
X117146Y033520
X117646Y033520
X116646Y034020
X116146Y034020
X115646Y034020
X115700Y034300
X115300Y035400
X116150Y035400
X116646Y037020
X117440Y037150
X115900Y038050
X115400Y038250
X117250Y038650
X115800Y039150
X115500Y039150
X116050Y039300
X117646Y042520
X117146Y042520
X116646Y042520
X116146Y042520
X115646Y042520
X117646Y043020
X117146Y043020
X116646Y043020
X116146Y043020
X115646Y043020
X117146Y043520
X116646Y043520
X117646Y043520
X116146Y043520
X115646Y043520
X116146Y044020
X115646Y044020
X116646Y044020
X115700Y044300
X115300Y045400
X116150Y045400
X116646Y047020
X117440Y047150
X115900Y048050
X115400Y048250
X117250Y048650
X115800Y049150
X115500Y049150
X116050Y049300
X116146Y052520
X117146Y052520
X117646Y052520
X115646Y052520
X116646Y052520
X117646Y053020
X117146Y053020
X116646Y053020
X116146Y053020
X115646Y053020
X117646Y053520
X117146Y053520
X116646Y053520
X116146Y053520
X115646Y053520
X116646Y054020
X116146Y054020
X115646Y054020
X115700Y054300
X116150Y055400
X115300Y055400
X116646Y057020
X117440Y057150
X115900Y058050
X115400Y058250
X117250Y058650
X115500Y059150
X115800Y059150
X116050Y059300
X117646Y062520
X117146Y062520
X116646Y062520
X116146Y062520
X115646Y062520
X116646Y063020
X117146Y063020
X115646Y063020
X116146Y063020
X117646Y063020
X115646Y063520
X116646Y063520
X117146Y063520
X116146Y063520
X117646Y063520
X116646Y064020
X116146Y064020
X115646Y064020
X115700Y064300
X116150Y065400
X115300Y065400
X116646Y067020
X117440Y067150
X115900Y068050
X115400Y068250
X117250Y068650
X115800Y069150
X115500Y069150
X116050Y069300
X117646Y072520
X117146Y072520
X116646Y072520
X116146Y072520
X115646Y072520
X116146Y073020
X116646Y073020
X117646Y073020
X115646Y073020
X117146Y073020
X115646Y073520
X117146Y073520
X116646Y073520
X116146Y073520
X117646Y073520
X116646Y074020
X116146Y074020
X115646Y074020
X115700Y074300
X115300Y075400
X116150Y075400
X116646Y077020
X117440Y077150
X115900Y078050
X115400Y078250
X117250Y078650
X115800Y079150
X115500Y079150
X116050Y079300
X116150Y082510
X116650Y082510
X115650Y082510
X117150Y082510
X117650Y082510
X117646Y083020
X117146Y083020
X116646Y083020
X116146Y083020
X115646Y083020
X117646Y083520
X117146Y083520
X116646Y083520
X116146Y083520
X115646Y083520
X116646Y084020
X116146Y084020
X115646Y084020
X115700Y084300
X115300Y085400
X116150Y085400
X116646Y087020
X117440Y087150
X115900Y088050
X115400Y088250
X117250Y088650
X115800Y089150
X115500Y089150
X116050Y089300
X115646Y092520
X117646Y092520
X116146Y092520
X116646Y092520
X117146Y092520
X117646Y093020
X117146Y093020
X116646Y093020
X116146Y093020
X115646Y093020
X115646Y093520
X117146Y093520
X117646Y093520
X116646Y093520
X116146Y093520
X115646Y094020
X116646Y094020
X116146Y094020
X115700Y094300
X115300Y095400
X116150Y095400
X116646Y097020
X117440Y097150
X115900Y098050
X115400Y098250
X117250Y098650
X115500Y099150
X115800Y099150
X116050Y099300
X116146Y102520
X117646Y102520
X115646Y102520
X117146Y102520
X116646Y102520
X117146Y103020
X116146Y103020
X115646Y103020
X117646Y103020
X116646Y103020
X116646Y103520
X115646Y103520
X116146Y103520
X117646Y103520
X117146Y103520
X115646Y104020
X116146Y104020
X116646Y104020
X115700Y104300
X115300Y105400
X116150Y105400
X116646Y107020
X117440Y107150
X115900Y108050
X115400Y108250
X117250Y108650
X115800Y109150
X115500Y109150
X116050Y109300
X116146Y112520
X116646Y112520
X117646Y112520
X115646Y112520
X117146Y112520
X116646Y113020
X116146Y113020
X115646Y113020
X117646Y113020
X117146Y113020
X115646Y113520
X117646Y113520
X117146Y113520
X116646Y113520
X116146Y113520
X115646Y114020
X116146Y114020
X116646Y114020
X115700Y114300
X116150Y115400
X115300Y115400
X116646Y117020
X117440Y117150
X115900Y118050
X115400Y118250
X117250Y118650
X115500Y119150
X115800Y119150
X116050Y119300
X116646Y122520
X117146Y122520
X116146Y122520
X117646Y122520
X115646Y122520
X117646Y123020
X115646Y123020
X117146Y123020
X116146Y123020
X116646Y123020
X117646Y123520
X115646Y123520
X116646Y123520
X116146Y123520
X117146Y123520
X116146Y124020
X116646Y124020
X115646Y124020
X115700Y124300
X115300Y125400
X116150Y125400
X116646Y127020
X117440Y127150
X115900Y128050
X115400Y128250
X117250Y128650
X115800Y129150
X115500Y129150
X116050Y129300
X117400Y131520
X118050Y131200
X119250Y131200
X120050Y131200
X120150Y130800
X118050Y130700
X118650Y130650
X120100Y130400
X118120Y129270
X118850Y128650
X119300Y128600
X118220Y128550
X119550Y128350
X119550Y127950
X118050Y127900
X117950Y127500
X119400Y127300
X118000Y127200
X118950Y127050
X118450Y127050
X119100Y125950
X119500Y125000
X119250Y124600
X119500Y124200
X119650Y123920
X120000Y123900
X120146Y123520
X119646Y123520
X119146Y123520
X118646Y123520
X118146Y123520
X120146Y123020
X119646Y123020
X119146Y123020
X118646Y123020
X118146Y123020
X120146Y122520
X119646Y122520
X119146Y122520
X118646Y122520
X118146Y122520
X118050Y121200
X119250Y121200
X120050Y121200
X118050Y120700
X118650Y120650
X120100Y120400
X118120Y119270
X120200Y119100
X118850Y118650
X119300Y118600
X118220Y118550
X119550Y118350
X119550Y117950
X118050Y117900
X117950Y117500
X119400Y117300
X118000Y117200
X118440Y117100
X118950Y117050
X119100Y115950
X119500Y115000
X119250Y114600
X119500Y114200
X119550Y113900
X120000Y113900
X119146Y113520
X119646Y113520
X118146Y113520
X118646Y113520
X120146Y113520
X118646Y113020
X118146Y113020
X119646Y113020
X119146Y113020
X120146Y113020
X118646Y112520
X119646Y112520
X120146Y112520
X118146Y112520
X119146Y112520
X119900Y111970
X118050Y111200
X119250Y111200
X120050Y111200
X118050Y110700
X118650Y110650
X119850Y110150
X118120Y109270
X119800Y108700
X118850Y108650
X119300Y108600
X118220Y108550
X119550Y108350
X119550Y107950
X118050Y107900
X117950Y107500
X119400Y107300
X118000Y107200
X118370Y107100
X118950Y107050
X119100Y105950
X119500Y105000
X119250Y104600
X119500Y104200
X119550Y103900
X120000Y103900
X120146Y103520
X119646Y103520
X119146Y103520
X118646Y103520
X118146Y103520
X120146Y103020
X119646Y103020
X119146Y103020
X118646Y103020
X118146Y103020
X120146Y102520
X119646Y102520
X119146Y102520
X118646Y102520
X118146Y102520
X118050Y101200
X119250Y101200
X120050Y101200
X118050Y100700
X118650Y100650
X120100Y100400
X118120Y099270
X118850Y098650
X119300Y098600
X118220Y098550
X119550Y098350
X119550Y097950
X118050Y097900
X117950Y097500
X119400Y097300
X118000Y097200
X118950Y097050
X119100Y095950
X119500Y095000
X119250Y094600
X119500Y094200
X119600Y093900
X120000Y093900
X118646Y093520
X120146Y093520
X119146Y093520
X119646Y093520
X118146Y093520
X120146Y093020
X119646Y093020
X119146Y093020
X118646Y093020
X118146Y093020
X118146Y092520
X120146Y092520
X119646Y092520
X119146Y092520
X118646Y092520
X118050Y091200
X119250Y091200
X120050Y091200
X120150Y090800
X118050Y090700
X118650Y090650
X120100Y090400
X118120Y089270
X118850Y088650
X119300Y088610
X118220Y088550
X119550Y088350
X119550Y087950
X118050Y087900
X117950Y087500
X119400Y087300
X118000Y087200
X118453Y087053
X118950Y087050
X119100Y085950
X119500Y085000
X119250Y084600
X119500Y084200
X120000Y083900
X120146Y083520
X119646Y083520
X119146Y083520
X118646Y083520
X118146Y083520
X120146Y083020
X119646Y083020
X119146Y083020
X118646Y083020
X118146Y083020
X119650Y082510
X120150Y082510
X119150Y082510
X118650Y082510
X118150Y082510
X119250Y081200
X118050Y081200
X118050Y080700
X118650Y080650
X120100Y080400
X118120Y079270
X120200Y079100
X118850Y078650
X119300Y078600
X118220Y078550
X119550Y078350
X119550Y077950
X118050Y077900
X117950Y077500
X119400Y077300
X118000Y077200
X118440Y077100
X118950Y077050
X119100Y075950
X119500Y075000
X119250Y074600
X119500Y074200
X120000Y073900
X119550Y073900
X118646Y073520
X118146Y073520
X119146Y073520
X120146Y073520
X119646Y073520
X120146Y073020
X119646Y073020
X119146Y073020
X118646Y073020
X118146Y073020
X118146Y072520
X118646Y072520
X119146Y072520
X119646Y072520
X120146Y072520
X119870Y072060
X119860Y071450
X118050Y071200
X119250Y071200
X118050Y070700
X118650Y070650
X119840Y070180
X118120Y069270
X119800Y068720
X118850Y068650
X119300Y068600
X118220Y068550
X119550Y068350
X119550Y067950
X118050Y067900
X117950Y067500
X119400Y067300
X118000Y067200
X118350Y067130
X118950Y067050
X119100Y065950
X119500Y065000
X119250Y064600
X119500Y064200
X120000Y063900
X119550Y063900
X118146Y063520
X119646Y063520
X119146Y063520
X118646Y063520
X120146Y063520
X120146Y063020
X119646Y063020
X118146Y063020
X118646Y063020
X119146Y063020
X118646Y062520
X118146Y062520
X120146Y062520
X119146Y062520
X119646Y062520
X120050Y061200
X118050Y061200
X119250Y061200
X118050Y060700
X118650Y060650
X120100Y060400
X118120Y059270
X118850Y058650
X119300Y058600
X118220Y058550
X119550Y058350
X119550Y057950
X118050Y057900
X117950Y057500
X119400Y057300
X118000Y057200
X118950Y057050
X119100Y055950
X119500Y055000
X119250Y054600
X119500Y054200
X119600Y053900
X120000Y053900
X120146Y053520
X119646Y053520
X119146Y053520
X118646Y053520
X118146Y053520
X120146Y053020
X119646Y053020
X119146Y053020
X118646Y053020
X118146Y053020
X120146Y052520
X119646Y052520
X119146Y052520
X118646Y052520
X118146Y052520
X118050Y051200
X119250Y051200
X120050Y051200
X120150Y050800
X118050Y050700
X118650Y050650
X120100Y050400
X118120Y049270
X118850Y048650
X119300Y048600
X118220Y048550
X119550Y048350
X118050Y047900
X117950Y047500
X119400Y047300
X118000Y047200
X118950Y047050
X118460Y047050
X119100Y045950
X119500Y045000
X119250Y044600
X119500Y044200
X119660Y043920
X120000Y043900
X120146Y043520
X119646Y043520
X119146Y043520
X118646Y043520
X118146Y043520
X119146Y043020
X120146Y043020
X119646Y043020
X118646Y043020
X118146Y043020
X118646Y042520
X120146Y042520
X118146Y042520
X119646Y042520
X119146Y042520
X118050Y041200
X119250Y041200
X120050Y041200
X118050Y040700
X118650Y040650
X120100Y040400
X118120Y039270
X120200Y039100
X118850Y038650
X119300Y038600
X118220Y038550
X119550Y038350
X119550Y037950
X118050Y037900
X117950Y037500
X119400Y037300
X118000Y037200
X118420Y037110
X118950Y037050
X119100Y035950
X119500Y035000
X119250Y034600
X119500Y034200
X120000Y033900
X119550Y033900
X120146Y033520
X118646Y033520
X119646Y033520
X118146Y033520
X119146Y033520
X118646Y033020
X119646Y033020
X119146Y033020
X118146Y033020
X120146Y033020
X119146Y032520
X120146Y032520
X119646Y032520
X118146Y032520
X118646Y032520
X120070Y032010
X119860Y031460
X119250Y031200
X118050Y031200
X118050Y030700
X118650Y030650
X119850Y030180
X118120Y029270
X119800Y028700
X118850Y028650
X119300Y028600
X118220Y028550
X119550Y028350
X119550Y027950
X118050Y027900
X117950Y027500
X119400Y027300
X118000Y027200
X118300Y027140
X118950Y027050
X119100Y025950
X119500Y025000
X119250Y024600
X119500Y024200
X119550Y023900
X120000Y023900
X118646Y023520
X119146Y023520
X118146Y023520
X119646Y023520
X120146Y023520
X120146Y023020
X119146Y023020
X119646Y023020
X118146Y023020
X118646Y023020
X118646Y022520
X119646Y022520
X118146Y022520
X120146Y022520
X119146Y022520
X120050Y021200
X119250Y021200
X118050Y021200
X118050Y020700
X118650Y020650
X120100Y020400
X118120Y019270
X118850Y018650
X119300Y018600
X118220Y018550
X119550Y018350
X119550Y017950
X118050Y017900
X117950Y017500
X119400Y017300
X118000Y017200
X118950Y017050
X119100Y015950
X119500Y015000
X119250Y014600
X119500Y014200
X119600Y013900
X120000Y013900
X119646Y013520
X119146Y013520
X120146Y013520
X118146Y013520
X118646Y013520
X119646Y013020
X118646Y013020
X118146Y013020
X120146Y013020
X119146Y013020
X119146Y012520
X119646Y012520
X120146Y012520
X118146Y012520
X118646Y012520
X121646Y012520
X121146Y012520
X120646Y012520
X122646Y012520
X122146Y012520
X121146Y013020
X121646Y013020
X122146Y013020
X122646Y013020
X120646Y013020
X122646Y013520
X122146Y013520
X121646Y013520
X121146Y013520
X120646Y013520
X121650Y014000
X122400Y014000
X120300Y014200
X120300Y015000
X121650Y015400
X122350Y015400
X122646Y016020
X122146Y016020
X121646Y016020
X121146Y016020
X120646Y016520
X121146Y016520
X121646Y016520
X122146Y016520
X122646Y016520
X120646Y017020
X121646Y017020
X121146Y017020
X122646Y017020
X122146Y017020
X120400Y019100
X121150Y020800
X122646Y022520
X122146Y022520
X121646Y022520
X121146Y022520
X120646Y022520
X121646Y023020
X121146Y023020
X120646Y023020
X122646Y023020
X122146Y023020
X121646Y023520
X121146Y023520
X120646Y023520
X122646Y023520
X122146Y023520
X121650Y024000
X122400Y024000
X120300Y024200
X120300Y025000
X122350Y025400
X121650Y025400
X121646Y026020
X121146Y026020
X122646Y026020
X122146Y026020
X122146Y026520
X122646Y026520
X120646Y026520
X121146Y026520
X121646Y026520
X121646Y027020
X122646Y027020
X122146Y027020
X121146Y027020
X120646Y027020
X121090Y029800
X120570Y032100
X121646Y032520
X121146Y032520
X120646Y032520
X122146Y032520
X122646Y032520
X121146Y033020
X120646Y033020
X122646Y033020
X122146Y033020
X121646Y033020
X122646Y033520
X122146Y033520
X121146Y033520
X121646Y033520
X120646Y033520
X122400Y034000
X121650Y034000
X120300Y034200
X120300Y035000
X122350Y035400
X121650Y035400
X122646Y036020
X122146Y036020
X121646Y036020
X121146Y036020
X120646Y036520
X121146Y036520
X121646Y036520
X122146Y036520
X122646Y036520
X122646Y037020
X122146Y037020
X121146Y037020
X120646Y037020
X121646Y037020
X122700Y039300
X121820Y041280
X121646Y042520
X121146Y042520
X120646Y042520
X122646Y042520
X122146Y042520
X122146Y043020
X121646Y043020
X121146Y043020
X120646Y043020
X122646Y043020
X122146Y043520
X121646Y043520
X121146Y043520
X120646Y043520
X122646Y043520
X121650Y044000
X122400Y044000
X120300Y044200
X120300Y045000
X122350Y045400
X121650Y045400
X122646Y046020
X122146Y046020
X121646Y046020
X121146Y046020
X122146Y046520
X122646Y046520
X120646Y046520
X121146Y046520
X121646Y046520
X121646Y047020
X121146Y047020
X120646Y047020
X122146Y047020
X122646Y047020
X120400Y047500
X120350Y049050
X121840Y050220
X121770Y050600
X121320Y051750
X121646Y052520
X121146Y052520
X120646Y052520
X122146Y052520
X122646Y052520
X122146Y053020
X121646Y053020
X121146Y053020
X120646Y053020
X122646Y053020
X122646Y053520
X122146Y053520
X121646Y053520
X121146Y053520
X120646Y053520
X121650Y054000
X122400Y054000
X120300Y054200
X120300Y055000
X121650Y055400
X122350Y055400
X122146Y056020
X121646Y056020
X121146Y056020
X122646Y056020
X122646Y056520
X120646Y056520
X122146Y056520
X121146Y056520
X121646Y056520
X122646Y057020
X122146Y057020
X121646Y057020
X121146Y057020
X120646Y057020
X120400Y059100
X121150Y060800
X120646Y062520
X121646Y062520
X122646Y062520
X121146Y062520
X122146Y062520
X120646Y063020
X122146Y063020
X121646Y063020
X121146Y063020
X122646Y063020
X122146Y063520
X121646Y063520
X121146Y063520
X120646Y063520
X122646Y063520
X122400Y064000
X121650Y064000
X120300Y064200
X120300Y065000
X122350Y065400
X121650Y065400
X122646Y066020
X121646Y066020
X122146Y066020
X121146Y066020
X121146Y066520
X122646Y066520
X120646Y066520
X122146Y066520
X121646Y066520
X122146Y067020
X121646Y067020
X121146Y067020
X120646Y067020
X122646Y067020
X121090Y069800
X122646Y072520
X122146Y072520
X121646Y072520
X121146Y072520
X120646Y072520
X121646Y073020
X120646Y073020
X121146Y073020
X122646Y073020
X122146Y073020
X121646Y073520
X120646Y073520
X122646Y073520
X122146Y073520
X121146Y073520
X121650Y074000
X122400Y074000
X120300Y074200
X120300Y075000
X122350Y075400
X121650Y075400
X121646Y076020
X121146Y076020
X122146Y076020
X122646Y076020
X122146Y076520
X120646Y076520
X121146Y076520
X121646Y076520
X122646Y076520
X122646Y077020
X121646Y077020
X121146Y077020
X120646Y077020
X122146Y077020
X122700Y079300
X121850Y081270
X122650Y082510
X121650Y082510
X121150Y082510
X120650Y082510
X122150Y082510
X122650Y082970
X122150Y082970
X121146Y083020
X120646Y083020
X121646Y083020
X121146Y083520
X121646Y083520
X122646Y083520
X122146Y083520
X120646Y083520
X122400Y084000
X121650Y084000
X120300Y084200
X120300Y085000
X121650Y085400
X122350Y085400
X121146Y086020
X122646Y086020
X122146Y086020
X121646Y086020
X121146Y086520
X122146Y086520
X121646Y086520
X120646Y086520
X122646Y086520
X122146Y087020
X122646Y087020
X120646Y087020
X121146Y087020
X121646Y087020
X120350Y089050
X121950Y090750
X121646Y092520
X121146Y092520
X120646Y092520
X122146Y092520
X122646Y092520
X120646Y093020
X122646Y093020
X122146Y093020
X121146Y093020
X121646Y093020
X120646Y093520
X121646Y093520
X122646Y093520
X121146Y093520
X122146Y093520
X122400Y094000
X121650Y094000
X120300Y094200
X120300Y095000
X121650Y095400
X122350Y095400
X121146Y096020
X121646Y096020
X122146Y096020
X122646Y096020
X122646Y096520
X122146Y096520
X120646Y096520
X121146Y096520
X121646Y096520
X120646Y097020
X121646Y097020
X121146Y097020
X122646Y097020
X122146Y097020
X120400Y099100
X121150Y100800
X121646Y102520
X122646Y102520
X122146Y102520
X121146Y102520
X120646Y102520
X121646Y103020
X121146Y103020
X120646Y103020
X122646Y103020
X122146Y103020
X122146Y103520
X121146Y103520
X122646Y103520
X120646Y103520
X121646Y103520
X121650Y104000
X122400Y104000
X120300Y104200
X120300Y105000
X122350Y105400
X121650Y105400
X122646Y106020
X122146Y106020
X121646Y106020
X121146Y106020
X122646Y106520
X121646Y106520
X121146Y106520
X120646Y106520
X122146Y106520
X121146Y107020
X120646Y107020
X122646Y107020
X122146Y107020
X121646Y107020
X121150Y109750
X121146Y112520
X120646Y112520
X121646Y112520
X122146Y112520
X122646Y112520
X122146Y113020
X122646Y113020
X121646Y113020
X121146Y113020
X120646Y113020
X121646Y113520
X121146Y113520
X122646Y113520
X122146Y113520
X120646Y113520
X121650Y114000
X122400Y114000
X120300Y114200
X120300Y115000
X122350Y115400
X121650Y115400
X122646Y116020
X121146Y116020
X122146Y116020
X121646Y116020
X122646Y116520
X121646Y116520
X122146Y116520
X120646Y116520
X121146Y116520
X121146Y117020
X121646Y117020
X122646Y117020
X120646Y117020
X122146Y117020
X122700Y119300
X121790Y121270
X120646Y122520
X122146Y122520
X121646Y122520
X121146Y122520
X122646Y122520
X122646Y123020
X121646Y123020
X122146Y123020
X121146Y123020
X120646Y123020
X122646Y123520
X121646Y123520
X121146Y123520
X122146Y123520
X120646Y123520
X121650Y124000
X122400Y124000
X120300Y124200
X120300Y125000
X121650Y125400
X122350Y125400
X121646Y126020
X122146Y126020
X122646Y126020
X121146Y126020
X122646Y126520
X121646Y126520
X122146Y126520
X121146Y126520
X120646Y126520
X120646Y127020
X121646Y127020
X122146Y127020
X122646Y127020
X121146Y127020
X120400Y127500
X120720Y127540
X120350Y129050
X122520Y129070
X121510Y129170
X121780Y130480
X122480Y130890
X121840Y130960
X120510Y130980
X122210Y131230
X123170Y130560
X123220Y129630
X123130Y129160
X122800Y129050
X125146Y127020
X124646Y127020
X124146Y127020
X123646Y127020
X123146Y127020
X123146Y126520
X123646Y126520
X124146Y126520
X124646Y126520
X125146Y126520
X125146Y126020
X124646Y126020
X123146Y126020
X125146Y123520
X124646Y123520
X123146Y123520
X125146Y123020
X124646Y123020
X124146Y123020
X123646Y123020
X123146Y123020
X125146Y122520
X124646Y122520
X124146Y122520
X123646Y122520
X123146Y122520
X124200Y121790
X124800Y120300
X124310Y120110
X124700Y119700
X124700Y119300
X123800Y118400
X124700Y118300
X125146Y117020
X124646Y117020
X124146Y117020
X123646Y117020
X123146Y117020
X124646Y116520
X125146Y116520
X123146Y116520
X123646Y116520
X124146Y116520
X125146Y116020
X124646Y116020
X123146Y116020
X125146Y113520
X124646Y113520
X123146Y113520
X125146Y113020
X124646Y113020
X124146Y113020
X123646Y113020
X123146Y113020
X125146Y112520
X124646Y112520
X124146Y112520
X123646Y112520
X123146Y112520
X123490Y112100
X125230Y111500
X123200Y110800
X123700Y110370
X123200Y110300
X124200Y109470
X123250Y109300
X123200Y108800
X125146Y107020
X124646Y107020
X124146Y107020
X123646Y107020
X123146Y107020
X123146Y106520
X123646Y106520
X124146Y106520
X124646Y106520
X125146Y106520
X123146Y106020
X125146Y106020
X124646Y106020
X123146Y103520
X125146Y103520
X124646Y103520
X125146Y103020
X124646Y103020
X124146Y103020
X123646Y103020
X123146Y103020
X125146Y102520
X124646Y102520
X124146Y102520
X123646Y102520
X123146Y102520
X123900Y101100
X123950Y100250
X123450Y099950
X123450Y099600
X123450Y099250
X123950Y099000
X125150Y098900
X125146Y097020
X124646Y097020
X124146Y097020
X123646Y097020
X123146Y097020
X125146Y096520
X124146Y096520
X124646Y096520
X123146Y096520
X123646Y096520
X124646Y096020
X125146Y096020
X123146Y096020
X125146Y093520
X124646Y093520
X123146Y093520
X124646Y093020
X124146Y093020
X123146Y093020
X123646Y093020
X125146Y093020
X124646Y092520
X123646Y092520
X125146Y092520
X123146Y092520
X124146Y092520
X122750Y090750
X124350Y090750
X123550Y090750
X125100Y090750
X123100Y090350
X123100Y089650
X123646Y087020
X124646Y087020
X123146Y087020
X124146Y087020
X125140Y086990
X123146Y086520
X123646Y086520
X124146Y086520
X124646Y086520
X125146Y086520
X125146Y086020
X124646Y086020
X123146Y086020
X123146Y083520
X124646Y083520
X125146Y083520
X125150Y082970
X124650Y082970
X124150Y082970
X123650Y082970
X123150Y082970
X125150Y082510
X124650Y082510
X123150Y082510
X124150Y082510
X123650Y082510
X125200Y082100
X124310Y080110
X124260Y079740
X124700Y079700
X124250Y079200
X123800Y078400
X124700Y078240
X125146Y077020
X124646Y077020
X124146Y077020
X123646Y077020
X123146Y077020
X124646Y076520
X125146Y076520
X123146Y076520
X123646Y076520
X124146Y076520
X124646Y076020
X123146Y076020
X125146Y076020
X123146Y073520
X125146Y073520
X124646Y073520
X125146Y073020
X124646Y073020
X124146Y073020
X123646Y073020
X123146Y073020
X124146Y072520
X123146Y072520
X125146Y072520
X124646Y072520
X123646Y072520
X125080Y071500
X123700Y071200
X123770Y070670
X123200Y070300
X124200Y069430
X123200Y068800
X124800Y068160
X124646Y067020
X124146Y067020
X125146Y067020
X123646Y067020
X123146Y067020
X123146Y066520
X123646Y066520
X124146Y066520
X124646Y066520
X125146Y066520
X125146Y066020
X124646Y066020
X123146Y066020
X124646Y063520
X123146Y063520
X125146Y063520
X125146Y063020
X124646Y063020
X124146Y063020
X123646Y063020
X123146Y063020
X124646Y062520
X124146Y062520
X123646Y062520
X123146Y062520
X125146Y062520
X123900Y061100
X123950Y060250
X123450Y059950
X123450Y059600
X123450Y059250
X123950Y059000
X125150Y058900
X124700Y057800
X125146Y057020
X123146Y057020
X124646Y057020
X123646Y057020
X124146Y057020
X123146Y056520
X123646Y056520
X124146Y056520
X125146Y056520
X124646Y056520
X125146Y056020
X124646Y056020
X123146Y056020
X123146Y053520
X124646Y053520
X125146Y053520
X125146Y053020
X124646Y053020
X124146Y053020
X123646Y053020
X123146Y053020
X124146Y052520
X123646Y052520
X123146Y052520
X125146Y052520
X124646Y052520
X124590Y049550
X123900Y049050
X123800Y048360
X124580Y047780
X124900Y047750
X125180Y047750
X125146Y047020
X124646Y047020
X124146Y047020
X123646Y047020
X123146Y047020
X124646Y046520
X125146Y046520
X124146Y046520
X123146Y046520
X123646Y046520
X125146Y046020
X124646Y046020
X123146Y046020
X125146Y043520
X124646Y043520
X123146Y043520
X124646Y043020
X123646Y043020
X124146Y043020
X123146Y043020
X125146Y043020
X125146Y042520
X123646Y042520
X123146Y042520
X124146Y042520
X124646Y042520
X124920Y041840
X124850Y041500
X123820Y041480
X124308Y040110
X124700Y039700
X124700Y039300
X124250Y038900
X124580Y038830
X123800Y038400
X124700Y038300
X123146Y037020
X124646Y037020
X124146Y037020
X123646Y037020
X125146Y037020
X123146Y036520
X125146Y036520
X123646Y036520
X124146Y036520
X124646Y036520
X123146Y036020
X124646Y036020
X125146Y036020
X124646Y033520
X123146Y033520
X125146Y033520
X125146Y033020
X123646Y033020
X123146Y033020
X124146Y033020
X124646Y033020
X125146Y032520
X124646Y032520
X124146Y032520
X123646Y032520
X123146Y032520
X123750Y031800
X125090Y031500
X123700Y031200
X123700Y030700
X123700Y030400
X123200Y030300
X124190Y029460
X123200Y028800
X123646Y027020
X123146Y027020
X125146Y027020
X124146Y027020
X124646Y027020
X123146Y026520
X123646Y026520
X125146Y026520
X124646Y026520
X124146Y026520
X125146Y026020
X123146Y026020
X124646Y026020
X125146Y023520
X123146Y023520
X124646Y023520
X125146Y023020
X123646Y023020
X124646Y023020
X124146Y023020
X123146Y023020
X125146Y022520
X123146Y022520
X123646Y022520
X124646Y022520
X124146Y022520
X123900Y021100
X123950Y020250
X123450Y019950
X123450Y019600
X123450Y019250
X123950Y019000
X125150Y018900
X124380Y018100
X125146Y017020
X123646Y017020
X124646Y017020
X123146Y017020
X124146Y017020
X123146Y016520
X125146Y016520
X124146Y016520
X124646Y016520
X123646Y016520
X123146Y016020
X125146Y016020
X124646Y016020
X125146Y013520
X123146Y013520
X124646Y013520
X123646Y013020
X125146Y013020
X124146Y013020
X124646Y013020
X123146Y013020
X123646Y012520
X123146Y012520
X124146Y012520
X124646Y012520
X125146Y012520
X126646Y012520
X126146Y012520
X125646Y012520
X125646Y013020
X126646Y013020
X126146Y013020
X126646Y013520
X126646Y014020
X126146Y014520
X126646Y014520
X126146Y015020
X126646Y015020
X126646Y015520
X126646Y016020
X125646Y016520
X126146Y016520
X126646Y016520
X126646Y017020
X126146Y017020
X125646Y017020
X125550Y019000
X127300Y021900
X125646Y022520
X126646Y022520
X126146Y022520
X125646Y023020
X126146Y023020
X126646Y023020
X126646Y023520
X126646Y024020
X126146Y024520
X126646Y024520
X126646Y025020
X126146Y025020
X126646Y025520
X126646Y026020
X125646Y026520
X126146Y026520
X126646Y026520
X126646Y027020
X125646Y027020
X126146Y027020
X126700Y030150
X126000Y030150
X125600Y030300
X125720Y030900
X126700Y031350
X126000Y031350
X126350Y031450
X125700Y031500
X125400Y031500
X126080Y031800
X126646Y032520
X126146Y032520
X125646Y032520
X125646Y033020
X126646Y033020
X126146Y033020
X126646Y033520
X126646Y034020
X126146Y034520
X126646Y034520
X126146Y035020
X126646Y035020
X126646Y035520
X126646Y036020
X126646Y036520
X126146Y036520
X125646Y036520
X125646Y037020
X126646Y037020
X126146Y037020
X127350Y038600
X127350Y039000
X127350Y039400
X127350Y039800
X127350Y040200
X127350Y040600
X126100Y040800
X126390Y040810
X126800Y040890
X126950Y042050
X126146Y042520
X126646Y042520
X125646Y042520
X126646Y043020
X125646Y043020
X126146Y043020
X126646Y043520
X126646Y044020
X126146Y044520
X126646Y044520
X126146Y045020
X126646Y045020
X126646Y045520
X126646Y046020
X126646Y046520
X126146Y046520
X125646Y046520
X125646Y047020
X126146Y047020
X126646Y047020
X125330Y048360
X125320Y049270
X126646Y052520
X126146Y052520
X125646Y052520
X126646Y053020
X126146Y053020
X125646Y053020
X126646Y053520
X126646Y054020
X126146Y054520
X126646Y054520
X126646Y055020
X126146Y055020
X126646Y055520
X126646Y056020
X125646Y056520
X126146Y056520
X126646Y056520
X125646Y057020
X126646Y057020
X126146Y057020
X126860Y057280
X126950Y057590
X125550Y059000
X126646Y062520
X126146Y062520
X125646Y062520
X126646Y063020
X126146Y063020
X125646Y063020
X126646Y063520
X126646Y064020
X126646Y064520
X126146Y064520
X126646Y065020
X126146Y065020
X126646Y065520
X126646Y066020
X125646Y066520
X126646Y066520
X126146Y066520
X126646Y067020
X126146Y067020
X125646Y067020
X126700Y070150
X126000Y070150
X127610Y070370
X125780Y070400
X126900Y070400
X125630Y070650
X125720Y070940
X126900Y071100
X126700Y071350
X126000Y071350
X125430Y071500
X125730Y071500
X126430Y071550
X126646Y072520
X126146Y072520
X125646Y072520
X125646Y073020
X126146Y073020
X126646Y073020
X126646Y073520
X126646Y074020
X126646Y074520
X126146Y074520
X126646Y075020
X126146Y075020
X126646Y075520
X126646Y076020
X125646Y076520
X126146Y076520
X126646Y076520
X125646Y077020
X126146Y077020
X126646Y077020
X127340Y078610
X127340Y079010
X127340Y079410
X125630Y079430
X125630Y079740
X127340Y079810
X125620Y080020
X127340Y080210
X127340Y080610
X126150Y082510
X126650Y082510
X125650Y082510
X126150Y082970
X125650Y082970
X126646Y083020
X126646Y083520
X126646Y084020
X126146Y084520
X126646Y084520
X126146Y085020
X126646Y085020
X126646Y085520
X126646Y086020
X126646Y086520
X125646Y086520
X126146Y086520
X125650Y086990
X126646Y087020
X126146Y087020
X127000Y088000
X125850Y090750
X126646Y092520
X126146Y092520
X125646Y092520
X126146Y093020
X126646Y093020
X125646Y093020
X126646Y093520
X126646Y094020
X126146Y094520
X126646Y094520
X126146Y095020
X126646Y095020
X126646Y095520
X126646Y096020
X126146Y096520
X126646Y096520
X125646Y096520
X126146Y097020
X126646Y097020
X125646Y097020
X125550Y099000
X127300Y101900
X125646Y102520
X126146Y102520
X126646Y102520
X126146Y103020
X126646Y103020
X125646Y103020
X126646Y103520
X126646Y104020
X126646Y104520
X126146Y104520
X126646Y105020
X126146Y105020
X126646Y105520
X126646Y106020
X126146Y106520
X125646Y106520
X126646Y106520
X125646Y107020
X126646Y107020
X126146Y107020
X126700Y110150
X126000Y110150
X127680Y110370
X126900Y110400
X125740Y110490
X125730Y110800
X125720Y111100
X126900Y111100
X126700Y111350
X126000Y111350
X126350Y111390
X125580Y111500
X126040Y111810
X125646Y112520
X126646Y112520
X126146Y112520
X126146Y113020
X125646Y113020
X126646Y113020
X126646Y113520
X126646Y114020
X126646Y114520
X126146Y114520
X126646Y115020
X126146Y115020
X126646Y115520
X126646Y116020
X125646Y116520
X126646Y116520
X126146Y116520
X126646Y117020
X125646Y117020
X126146Y117020
X125460Y117720
X126570Y117950
X127350Y118600
X127350Y119000
X127350Y119400
X127350Y119800
X127350Y120200
X127350Y120600
X126380Y120790
X125530Y121810
X127100Y122100
X126646Y122520
X125646Y122520
X126146Y122520
X126646Y123020
X125646Y123020
X126146Y123020
X126646Y123520
X126646Y124020
X126646Y124520
X126146Y124520
X126146Y125020
X126646Y125020
X126646Y125520
X126646Y126020
X125646Y126520
X126146Y126520
X126646Y126520
X126646Y127020
X126146Y127020
X125646Y127020
X126400Y130750
X125600Y130950
X125600Y132050
X128000Y030000
T3C.01969F095S300
X078210Y081445G85X078210Y081602
X078210Y084398G85X078210Y084555
T4C.02362F197S550
X077364Y081701G85X077364Y081858
X079056Y081701G85X079056Y081858
X077364Y084142G85X077364Y084299
X079056Y084142G85X079056Y084299
T5C.0315F197S550
X063996Y124543
X063996Y126213
X063996Y127787
X063996Y128587
X071004Y128587
X071004Y127787
X071004Y126213
X071004Y124937
T6C.035F197S550
X014550Y040950
X016550Y040950
X015550Y041050
X013550Y041050
X016550Y080950
X014550Y080950
X015550Y081050
X013550Y081050
X014550Y120950
X016550Y120950
X015550Y121050
X013550Y121050
X062500Y126050
X062500Y124950
X062500Y123100
X062500Y122100
X124450Y021450
X123450Y021550
X124450Y061450
X123450Y061550
X124450Y101450
X123450Y101550
X125450Y101550
X126450Y101450
X125450Y061550
X126450Y061450
X125450Y021550
X126450Y021450
T7C.03543F197S550
X079343Y115900G85X079657Y115900
X079343Y110900G85X079657Y110900
X060143Y115900G85X060457Y115900
X060143Y110900G85X060457Y110900
T8C.037F197S550
X076900Y125400
X076900Y127400
T9C.039F197S550
X062330Y074040
X063130Y074040
X062730Y076040
X076870Y068460
X077670Y068460
X077270Y066460
T10C.03937F197S550
X122331Y090600
X126269Y090600
T11C.046F139S550
X015000Y017800
X015000Y027800
X015000Y037800
X015000Y047800
X015000Y057800
X015000Y067800
X015000Y077800
X015000Y087800
X015000Y097800
X015000Y107800
X015000Y117800
X015000Y127800
X125000Y124700
X125000Y114700
X125000Y104700
X125000Y094700
X125000Y084700
X125000Y074700
X125000Y064700
X125000Y054700
X125000Y044700
X125000Y034700
X125000Y024700
X125000Y014700
T12C.055F107S550
X074350Y129400
X074350Y131570
X076000Y131570
X076000Y129400
T13C.06F089S550
X014000Y016800
X016000Y016800
X014000Y018800
X016000Y018800
X016000Y026800
X014000Y026800
X014000Y028800
X016000Y028800
X014000Y036800
X016000Y036800
X014000Y038800
X016000Y038800
X016000Y046800
X014000Y046800
X014000Y048800
X016000Y048800
X016000Y056800
X014000Y056800
X014000Y058800
X016000Y058800
X014000Y066800
X016000Y066800
X014000Y068800
X016000Y068800
X016000Y076800
X014000Y076800
X014000Y078800
X016000Y078800
X014000Y086800
X016000Y086800
X016000Y088800
X014000Y088800
X016000Y096800
X014000Y096800
X014000Y098800
X016000Y098800
X014000Y106800
X016000Y106800
X016000Y108800
X014000Y108800
X016000Y116800
X014000Y116800
X014000Y118800
X016000Y118800
X014000Y126800
X016000Y126800
X014000Y128800
X016000Y128800
X124000Y125700
X124000Y123700
X124000Y115700
X124000Y113700
X124000Y105700
X124000Y103700
X124000Y095700
X124000Y093700
X124000Y085700
X124000Y083700
X124000Y075700
X124000Y073700
X124000Y065700
X124000Y063700
X124000Y055700
X124000Y053700
X124000Y045700
X124000Y043700
X124000Y035700
X124000Y033700
X124000Y025700
X124000Y023700
X124000Y015700
X124000Y013700
X126000Y013700
X126000Y015700
X126000Y023700
X126000Y025700
X126000Y033700
X126000Y035700
X126000Y043700
X126000Y045700
X126000Y053700
X126000Y055700
X126000Y063700
X126000Y065700
X126000Y073700
X126000Y075700
X126000Y083700
X126000Y085700
X126000Y093700
X126000Y095700
X126000Y103700
X126000Y105700
X126000Y113700
X126000Y115700
X126000Y123700
X126000Y125700
T14C.06102F089S550
X064350Y127000
X070650Y127000
T15C.09843F066S550
X013543Y011181
X041102Y030866
X041102Y101732
X045039Y125354
X096220Y125354
X096220Y101732
X096220Y030866
X084409Y011181
X056850Y011181
X123780Y011181
T16C.1285F035S794
X011500Y011500
X011500Y052800
X011500Y092800
X011500Y131000
X047500Y131000
X070000Y062500
X051500Y052500
X051500Y021500
X051500Y011500
X088000Y011500
X088000Y021500
X088000Y052500
X075000Y105000
X094500Y131000
X128500Y131000
X128500Y089700
X128500Y049700
X128500Y011500
M30
