M48
;FILE_FORMAT=2:4
INCH,LZ
FMAT,2
ICI,OFF
;TYPE=PLATED
T1C.008
T2C.012
T3C.01969
T4C.02362
T5C.0315
T6C.035
T7C.03543
T8C.037
T11C.046
T12C.055
T13C.06
T16C.1285
;TYPE=NON_PLATED
T9C.039
T10C.03937
T14C.06102
T15C.09843
%
M72
G90
G93X0Y0
T1C.008F0S0
X01025Y01025
X01025Y01125
X01025Y01225
X01025Y01325
X01025Y01425
X01025Y01525
X01025Y01625
X01025Y01725
X01025Y01825
X01025Y01925
X01025Y02025
X01025Y02125
X01025Y02225
X01025Y02325
X01025Y02425
X01025Y02525
X01025Y02625
X01025Y02725
X01025Y02825
X01025Y02925
X01025Y03025
X01025Y03125
X01025Y03225
X01025Y03325
X01025Y03425
X01025Y03525
X01025Y03625
X01025Y03725
X01025Y03825
X01025Y03925
X01025Y04025
X01025Y04125
X01025Y04225
X01025Y04325
X01025Y04425
X01025Y04525
X01025Y04625
X01025Y04725
X01025Y04825
X01025Y04925
X01025Y05025
X01025Y05125
X01025Y05225
X01025Y05325
X01025Y05425
X01025Y05525
X01025Y05625
X01025Y05725
X01025Y05825
X01025Y05925
X01025Y06025
X01025Y06125
X01025Y06225
X01025Y06325
X01025Y06425
X01025Y06525
X01025Y06625
X01025Y06725
X01025Y06825
X01025Y06925
X01025Y07025
X01025Y07125
X01025Y07225
X01025Y07325
X01025Y07425
X01025Y07525
X01025Y07625
X01025Y07725
X01025Y07825
X01025Y07925
X01025Y08025
X01025Y08125
X01025Y08225
X01025Y08325
X01025Y08425
X01025Y08525
X01025Y08625
X01025Y08725
X01025Y08825
X01025Y08925
X01025Y09025
X01025Y09125
X01025Y09225
X01025Y09325
X01025Y09425
X01025Y09525
X01025Y09625
X01025Y09725
X01025Y09825
X01025Y09925
X01025Y10025
X01025Y10125
X01025Y10225
X01025Y10325
X01025Y10425
X01025Y10525
X01025Y10625
X01025Y10725
X01025Y10825
X01025Y10925
X01025Y11025
X01025Y11125
X01025Y11225
X01025Y11325
X01025Y11425
X01025Y11525
X01025Y11625
X01025Y11725
X01025Y11825
X01025Y11925
X01025Y12025
X01025Y12125
X01025Y12225
X01025Y12325
X01025Y12425
X01025Y12525
X01025Y12625
X01025Y12725
X01025Y12825
X01025Y12925
X01025Y13025
X01025Y13125
X01025Y13225
X0168Y1137
X01885Y1137
X0168Y1132
X01885Y1132
X0189Y1127
X0168Y1122
X0189Y1122
X0168Y1117
X01885Y1117
X01627Y11156
X0163Y11129
X01437Y10283
X01405Y07385
X01885Y0737
X01789Y0737
X01885Y0732
X0189Y0722
X01789Y0722
X01885Y0717
X0163Y0713
X01625Y0707
X01575Y0633
X01437Y06312
X01524Y0624
X01493Y06195
X01316Y06112
X0152Y061
X01321Y06052
X01885Y0337
X01885Y0332
X0189Y0322
X01885Y0317
X01625Y0307
X01306Y03066
X01437Y02312
X01489Y01296
X0159Y0129
X02485Y0133
X02195Y01415
X02485Y0233
X02195Y02415
X02485Y0333
X02195Y03415
X02485Y0433
X02195Y04415
X02485Y0533
X02195Y05415
X02485Y0633
X02195Y06415
X02485Y0733
X02195Y07415
X02485Y0833
X02195Y08415
X02055Y0885
X02485Y0933
X02195Y09415
X02485Y1033
X02195Y10415
X02485Y1133
X02195Y11415
X02485Y1233
X02195Y12415
X02942Y12676
X02776Y12614
X02943Y11676
X02776Y11615
X02942Y10676
X02776Y10614
X02943Y09676
X0301Y0965
X02776Y09614
X02776Y08614
X02943Y07676
X02776Y07614
X02968Y06712
X02776Y06614
X0301Y0565
X02776Y05615
X0301Y0464
X02776Y04615
X02968Y03712
X0301Y0364
X02776Y03614
X02968Y02712
X02998Y02703
X02776Y02615
X0301Y0165
X02776Y01615
X03247Y01219
X03117Y01219
X03118Y013
X03248Y01301
X03265Y01575
X03235Y01595
X03208Y01595
X03255Y01615
X03228Y01623
X03086Y01648
X03205Y01655
X0314Y0166
X0312Y02217
X03249Y0222
X0325Y02297
X03119Y023
X03208Y02595
X030854Y02648
X03205Y02655
X03118Y032
X03249Y0322
X0325Y03298
X0312Y033
X032363Y03595
X032073Y03596
X03255Y03615
X03228Y03623
X032107Y036579
X0314Y0366
X03249Y04221
X03116Y04225
X0325Y04298
X03121Y04299
X03208Y04595
X03205Y04655
X03025Y05045
X03252Y05219
X03119Y05219
X0312Y05293
X03251Y05296
X03208Y05595
X03205Y05655
X03208Y06595
X03205Y06655
X0314Y0666
X03208Y07595
X03205Y07655
X03208Y08595
X03205Y08655
X03235Y09595
X03205Y09655
X03208Y10595
X03205Y10655
X03208Y11595
X03205Y11655
X0322Y1219
X03208Y12595
X03205Y12655
X03335Y1295
X03405Y12915
X0345Y1286
X034764Y12835
X035143Y1267
X034492Y126092
X03511Y12545
X03335Y1195
X03405Y11915
X0345Y1186
X034754Y11834
X035126Y116699
X034491Y116092
X03405Y10915
X0345Y1086
X034754Y10834
X035126Y106699
X034491Y106092
X03511Y105445
X03335Y0995
X034Y0992
X0345Y0986
X034754Y09834
X034891Y09685
X035126Y096699
X034492Y096092
X03335Y0895
X03405Y08915
X0345Y0886
X034764Y08835
X035126Y086699
X034491Y086092
X03335Y0795
X03405Y07915
X0345Y0786
X034754Y07834
X035126Y076699
X034491Y076092
X03405Y06915
X034314Y0688
X0345Y0686
X034754Y06834
X035126Y066699
X034491Y066092
X03511Y065445
X03371Y06398
X0351Y06348
X033114Y05965
X033764Y05935
X034314Y0588
X034754Y05834
X034891Y05685
X034194Y05628
X034491Y056092
X03511Y055445
X03335Y0495
X03405Y04915
X0345Y0486
X034764Y04835
X0349Y04685
X034184Y04628
X034491Y046092
X0336Y04557
X03511Y045445
X0351Y04348
X033114Y03965
X03405Y03915
X0345Y0386
X034754Y03834
X034491Y036092
X03511Y035445
X034924Y0342
X033714Y03398
X0351Y03348
X03405Y02915
X034314Y0288
X03505Y0288
X0345Y0286
X034754Y02834
X034491Y026092
X03511Y025445
X03452Y02348
X03335Y0195
X033764Y01935
X0345Y0186
X034754Y01834
X034891Y01685
X035126Y016699
X034194Y01628
X034491Y016092
X0338Y01585
X03511Y015445
X03492Y0142
X03371Y01398
X03537Y0139
X03879Y01404
X03852Y01411
X03824Y01419
X03796Y01425
X03795Y01454
X03598Y01464
X0363Y01541
X03566Y01945
X03556Y02316
X03752Y02325
X037353Y02347
X03852Y02411
X03595Y02465
X0363Y02541
X035654Y02945
X03822Y03312
X0363Y03541
X03852Y04411
X0363Y04541
X03852Y05411
X0363Y05541
X03879Y06404
X0363Y06543
X03879Y07404
X0363Y07541
X03879Y08404
X0363Y08541
X03879Y09404
X0363Y09541
X03879Y10404
X0363Y10541
X03879Y11404
X0363Y11541
X03879Y12404
X0363Y12542
X04675Y1257
X0499Y08605
X04949Y08565
X04891Y08525
X0502Y08494
X04857Y08493
X04974Y08451
X04924Y08423
X04875Y08381
X047925Y083613
X047309Y083045
X04748Y082616
X049409Y082591
X050197Y082591
X049803Y082591
X049409Y082197
X050197Y082197
X049803Y082197
X049409Y081803
X050197Y081803
X049803Y081803
X047502Y081776
X049409Y081409
X050197Y081409
X049803Y081409
X046978Y081314
X047413Y08086
X04698Y07998
X04734Y07952
X04811Y07943
X049492Y079092
X04843Y07909
X04847Y07889
X049972Y078731
X04888Y07843
X049298Y078025
X04966Y077668
X05189Y06658
X05199Y06684
X0539Y06685
X05374Y06856
X05498Y07008
X05471Y07074
X0547Y07415
X05498Y074175
X05498Y07512
X05421Y07592
X05189Y08084
X050591Y081409
X05146Y08176
X050591Y081803
X050591Y082197
X050591Y082591
X05355Y08508
X05297Y08509
X05115Y1165
X052Y11825
X0525Y11825
X0515Y11825
X0505Y11825
X051Y11825
X053Y11825
X0535Y11825
X054Y11825
X0545Y11825
X055Y11825
X0515Y11875
X0525Y11875
X052Y11875
X053Y11875
X0535Y11875
X054Y11875
X0545Y11875
X055Y11875
X05125Y1195
X05175Y11975
X05125Y12
X05175Y12025
X05125Y1205
X05175Y12075
X05125Y121
X05175Y12125
X0515Y12225
X0525Y12225
X052Y12225
X0535Y12225
X053Y12225
X0545Y12225
X054Y12225
X055Y12225
X052Y12275
X0505Y12275
X053Y12275
X0535Y12275
X051Y12275
X0515Y12275
X0525Y12275
X054Y12275
X0545Y12275
X055Y12275
X0565Y12275
X0555Y12275
X056Y12275
X057Y12275
X0575Y12275
X0555Y12225
X056Y12225
X05692Y1216
X05691Y11929
X056Y11925
X0565Y11925
X0565Y11875
X0555Y11875
X05668Y11875
X0555Y11825
X0565Y11825
X056Y11825
X05582Y09533
X05577Y09497
X057438Y080038
X057596Y079815
X05533Y07481
X0575Y074805
X05562Y07452
X0575Y07449
X056555Y07449
X056555Y074175
X05624Y074175
X055925Y074175
X0575Y074175
X057185Y074175
X055295Y074175
X05689Y07386
X055925Y07386
X05561Y07386
X056555Y07386
X05624Y07386
X056555Y073545
X05687Y073545
X05624Y073545
X055925Y073545
X05719Y07354
X05719Y07323
X05687Y07323
X05624Y07323
X055925Y07323
X056555Y07323
X056555Y072915
X057185Y072915
X05687Y072915
X05717Y0726
X055925Y0726
X05624Y0726
X05687Y0726
X056555Y0726
X05561Y072285
X057185Y072285
X05687Y072285
X055925Y072285
X056555Y072285
X05624Y072285
X05624Y07197
X05687Y07197
X057185Y07197
X056555Y07197
X05719Y07167
X05624Y071655
X05687Y07162
X056555Y07134
X05624Y07134
X057185Y07134
X05561Y07134
X05687Y07134
X057185Y071025
X055925Y071025
X056555Y071025
X05624Y071025
X0575Y071025
X05561Y071025
X05561Y07071
X057185Y07071
X05687Y07071
X055295Y070395
X05687Y070395
X05608Y06617
X05594Y0659
X05995Y06891
X05829Y07007
X06002Y07008
X05813Y070395
X058445Y070395
X059705Y070395
X05813Y07071
X058445Y07071
X057815Y071025
X05813Y071025
X058445Y071025
X05876Y071025
X059075Y071025
X06006Y07118
X05876Y07134
X059075Y07134
X05813Y07134
X057815Y07134
X058445Y07134
X059075Y071655
X058445Y071655
X05813Y071655
X05782Y07167
X05876Y07194
X05905Y07195
X058445Y07197
X057815Y07197
X05813Y07197
X057815Y072285
X059075Y072285
X05813Y072285
X05876Y072285
X05844Y07229
X05939Y07229
X05935Y07291
X05813Y072915
X057815Y072915
X059075Y072915
X05876Y072915
X057815Y07323
X05813Y07323
X05781Y07354
X058445Y073545
X059075Y073545
X059075Y07386
X05876Y07386
X05876Y074175
X059075Y074175
X059705Y07449
X05845Y0745
X06002Y07512
X05996Y08732
X06009Y08752
X05987Y08758
X05988Y08779
X0601Y088
X0599Y088
X05975Y11825
X05925Y11825
X05875Y11825
X05825Y11825
X05775Y11825
X05975Y11875
X05775Y11875
X05825Y11875
X05875Y11875
X05925Y11875
X05775Y11925
X05925Y11925
X05975Y11925
X05825Y11925
X06Y1195
X0591Y1195
X05775Y1195
X06Y12
X0591Y12068
X06003Y12126
X05775Y1215
X05825Y1215
X06Y12175
X0585Y122
X058Y122
X06Y12225
X05775Y1225
X05825Y1225
X059Y12275
X0585Y12275
X0595Y12275
X058Y12275
X06Y12275
X0639Y1312
X0612Y1135
X06047Y09125
X06043Y09104
X06041Y08909
X06026Y08894
X06505Y08815
X06465Y0879
X06465Y0876
X06505Y08735
X064882Y087118
X06405Y08615
X0634Y086
X063Y086
X06405Y0858
X0634Y0855
X063Y0855
X064882Y08515
X06239Y0849
X064882Y084362
X06322Y08418
X0628Y08415
X062463Y084094
X064655Y083895
X0628Y08369
X064882Y083575
X0628Y0833
X06322Y08291
X06245Y0829
X064882Y082787
X06324Y08263
X06293Y08254
X06344Y08251
X064855Y082025
X06344Y08174
X0642Y08165
X06233Y08146
X06256Y08127
X06289Y08123
X06397Y08027
X06355Y08018
X06378Y08018
X06315Y07898
X064882Y07885
X06275Y07873
X06435Y07835
X0638Y0779
X06425Y07785
X06455Y07775
X06493Y077675
X06375Y0776
X06373Y07709
X06375Y07682
X06447Y07633
X06462Y07618
X0605Y0751
X0628Y07281
X0623Y0728
X06207Y07279
X06179Y07279
X06253Y07277
X06049Y07185
X06032Y07008
X06349Y06987
X06069Y06311
X06074Y06178
X06092Y06164
X0649Y0243
X06578Y05893
X067504Y074753
X067704Y074753
X06682Y07497
X06647Y07503
X06632Y07518
X06687Y0752
X06658Y0756
X067037Y0756
X06745Y07613
X06639Y07614
X06583Y07619
X06551Y07635
X06587Y07659
X06748Y07677
X06705Y07686
X066063Y077276
X065276Y077669
X06679Y07767
X066396Y07767
X06725Y07767
X066063Y078063
X067244Y078063
X066457Y078063
X067638Y078063
X06679Y07807
X06527Y07837
X067638Y078457
X067244Y078457
X06691Y07885
X067244Y07885
X067638Y07885
X067638Y079244
X066063Y079638
X067244Y079638
X067638Y079638
X06653Y079645
X067638Y080425
X06606Y08122
X06646Y08122
X06724Y08122
X065275Y08122
X06685Y082
X067244Y082
X066457Y082
X067244Y082394
X065669Y082394
X067638Y082394
X06764Y08274
X066457Y082787
X067244Y082787
X06609Y08279
X06765Y08316
X06724Y08316
X065669Y083181
X06645Y0832
X0653Y0832
X06725Y08355
X06761Y08357
X066457Y083575
X067638Y083969
X067244Y083969
X065669Y083969
X066457Y083969
X06685Y083969
X0661Y084
X066063Y084362
X066457Y084362
X06763Y08437
X06686Y08438
X06725Y0844
X06565Y0844
X06685Y08475
X066457Y084756
X06764Y08482
X065276Y08515
X065669Y08515
X06685Y08515
X06645Y08515
X06645Y08592
X065276Y085937
X066457Y086331
X0676Y0867
X0669Y0867
X0668Y08722
X06763Y08722
X0657Y08735
X06677Y08752
X06615Y0876
X06756Y08771
X06615Y08795
X06677Y08801
X06762Y0881
X0657Y08815
X06677Y0885
X06762Y08855
X06605Y08855
X0655Y0886
X06605Y0889
X0655Y08895
X06677Y10031
X06719Y10031
X06703Y10125
X06944Y13179
X06985Y13176
X0698Y1024
X07Y1024
X06779Y10126
X06843Y10106
X06901Y10106
X06845Y09979
X06786Y09979
X06937Y0884
X06895Y0884
X06778Y0884
X06976Y08792
X0682Y0879
X06863Y0879
X0702Y0879
X07Y0874
X0682Y08725
X06886Y0872
X07001Y08636
X06805Y08635
X068819Y086331
X068819Y085937
X069606Y0859
X07Y0859
X06804Y08587
X068425Y085543
X068031Y085543
X07Y085543
X06882Y08554
X06972Y08554
X06924Y08552
X06881Y0852
X068425Y08515
X069213Y08515
X07Y08515
X069213Y084756
X07Y084756
X06883Y084754
X069664Y084749
X0684Y0844
X069606Y084362
X069213Y084362
X07Y084362
X06883Y08436
X068425Y083969
X06961Y08394
X06882Y08394
X06922Y08394
X068025Y083585
X06882Y08358
X069213Y083575
X068425Y083575
X069606Y083575
X069606Y083181
X07Y083181
X068819Y083181
X069213Y083181
X068031Y083181
X068425Y083181
X068425Y082787
X069213Y082787
X069606Y082787
X07Y082787
X068819Y082787
X06803Y08274
X07002Y08241
X069606Y082394
X068819Y082394
X069213Y082394
X068425Y082394
X068031Y082394
X06881Y082034
X068Y08203
X068394Y08203
X0696Y08202
X07001Y08201
X0692Y08201
X069213Y081606
X07Y08159
X070005Y081275
X06804Y08123
X0684Y081225
X06877Y08122
X06911Y08118
X06923Y08082
X07Y080819
X069606Y080819
X06803Y0808
X068424Y0808
X06876Y08078
X068Y080425
X068425Y080425
X07Y080425
X06956Y080405
X068816Y08039
X06921Y08039
X069606Y079638
X068425Y079638
X069213Y079638
X07Y079638
X068031Y079638
X068819Y079638
X07Y079244
X068425Y079244
X068819Y079244
X068031Y079244
X069213Y079244
X069606Y079244
X06887Y0789
X068031Y07885
X069606Y07885
X068425Y07885
X069213Y07885
X07003Y07882
X068031Y078457
X068425Y078457
X068819Y078457
X069213Y078457
X06995Y07845
X06836Y07807
X068031Y078063
X068819Y078063
X06963Y07806
X069964Y078057
X06963Y07767
X06994Y07767
X068819Y077669
X068031Y077669
X06801Y07728
X069213Y076882
X0696Y076875
X06923Y07667
X068042Y0766
X06782Y07613
X06905Y07612
X06945Y07612
X06873Y0756
X06983Y0756
X06825Y0756
X068994Y075122
X068852Y07498
X07023Y06761
X069665Y067265
X06828Y06632
X06825Y06611
X06833Y06035
X06814Y0602
X07002Y05562
X06915Y0307
X0697Y0306
X07159Y02169
X072Y02169
X07139Y0217
X07091Y02239
X0725Y0224
X0709Y02284
X07182Y0233
X07204Y02333
X0716Y0266
X0714Y0266
X0718Y0266
X072Y0266
X07225Y0269
X07256Y02746
X0709Y0275
X0722Y028
X0714Y0282
X07185Y0282
X07037Y0285
X07128Y02912
X07141Y02931
X072Y0317
X0722Y0317
X0718Y0317
X0712Y0317
X07135Y03188
X07255Y0323
X0704Y05528
X07233Y06578
X07255Y06579
X07259Y07337
X07223Y07376
X07252Y07384
X07258Y07404
X07218Y07463
X07203Y07478
X07259Y07505
X07192Y07515
X07259Y07534
X07108Y07559
X07185Y0756
X07025Y0756
X07265Y0761
X07145Y0761
X07221Y0761
X07065Y0761
X07245Y07658
X07081Y07669
X07164Y07671
X07101Y07689
X0724Y0769
X07039Y07727
X07239Y07728
X070825Y07766
X07039Y07767
X072395Y07767
X071955Y07768
X07039Y07805
X07194Y07806
X07088Y07806
X071181Y078063
X07079Y07844
X07194Y078454
X071181Y078457
X072362Y078457
X070394Y078457
X07194Y07882
X072362Y07885
X070787Y07885
X071181Y07885
X070394Y07885
X07113Y0792
X070424Y079214
X072362Y079244
X070787Y079244
X071575Y079244
X071969Y079244
X071969Y079638
X072362Y079638
X071575Y079638
X071181Y079638
X07078Y07964
X070394Y07965
X072362Y080031
X071969Y080031
X0716Y08006
X07039Y08008
X071175Y08009
X072362Y080425
X071575Y080425
X071969Y080425
X071181Y080425
X07039Y08053
X072362Y080819
X070394Y080819
X071181Y080819
X070787Y080819
X071181Y081213
X072362Y081213
X070787Y081213
X07039Y08126
X070385Y08159
X070787Y081606
X071181Y081606
X071575Y081606
X072362Y081606
X070787Y082
X071181Y082
X07159Y082
X07041Y08202
X071575Y082394
X070787Y082394
X071181Y082394
X071969Y082394
X070394Y082394
X071181Y082787
X071575Y082787
X070787Y082787
X071969Y082787
X072362Y082787
X07041Y08281
X07156Y08318
X071969Y083181
X071181Y083181
X072362Y083181
X070787Y083181
X070394Y083181
X070394Y083575
X071181Y083575
X072362Y083575
X070787Y083575
X07156Y08358
X07204Y08358
X070787Y083969
X071181Y083969
X072362Y083969
X071575Y083969
X070394Y083969
X07036Y08436
X071181Y084362
X071575Y084362
X071969Y084362
X072362Y084362
X070787Y084362
X07189Y08475
X070394Y084756
X070787Y084756
X071575Y084756
X072362Y084756
X07124Y08476
X07236Y0851
X071969Y08515
X071181Y08515
X071575Y08515
X070394Y08515
X07044Y08554
X072362Y085543
X071969Y085543
X071575Y085543
X071181Y085543
X07044Y08592
X070787Y085937
X071969Y085937
X072362Y085937
X071181Y085937
X07165Y08594
X07238Y08631
X07161Y08633
X07114Y08633
X07268Y08633
X07039Y08638
X07114Y086724
X07162Y08673
X07039Y086774
X071Y08712
X0714Y08728
X072Y08748
X0722Y0879
X0714Y0879
X0706Y0884
X07105Y0884
X07179Y0884
X07262Y0884
X07241Y09083
X0724Y09116
X07156Y09372
X07149Y09423
X07133Y10729
X07108Y10729
X071Y10805
X0715Y10805
X07125Y1083
X0723Y10855
X071Y10855
X0715Y10855
X0711Y1094
X0718Y1129
X0713Y1161
X0713Y1164
X07153Y13068
X07087Y1307
X07198Y13157
X07157Y13173
X07029Y13173
X0706Y13175
X07375Y11478
X07348Y11476
X07321Y09101
X07341Y09088
X07514Y08923
X07487Y08848
X0742Y08845
X0734Y0884
X07486Y08815
X073Y0879
X0746Y0879
X0738Y0879
X074795Y087525
X0736Y08742
X0752Y08738
X07299Y08722
X07435Y08712
X073937Y086724
X07472Y0867
X073543Y086331
X07315Y086331
X073937Y086331
X074331Y086331
X07472Y08633
X07315Y085937
X072756Y085937
X07351Y08593
X07315Y085543
X072756Y085543
X073543Y085543
X073937Y085543
X072756Y08515
X073543Y08515
X07315Y08515
X074331Y08515
X074724Y08515
X07394Y08508
X072756Y084756
X07315Y084756
X073543Y084756
X073937Y084756
X074331Y084756
X072756Y084362
X07315Y084362
X073543Y084362
X074331Y084362
X074724Y084362
X07508Y08432
X07276Y08397
X07315Y083969
X073543Y083969
X074331Y083969
X072756Y083575
X073543Y083575
X073937Y083575
X07471Y08319
X074331Y083181
X07315Y083181
X075118Y083181
X073937Y083181
X072756Y083181
X074724Y082787
X075118Y082787
X074331Y082787
X073543Y082787
X07315Y082787
X072756Y082787
X074724Y082394
X07315Y082394
X073937Y082394
X072756Y082394
X073543Y082394
X07394Y082
X075118Y081606
X074331Y081606
X074724Y081606
X072756Y081606
X07315Y081606
X073543Y081606
X07515Y0814
X072756Y081213
X073937Y081213
X07315Y081213
X073543Y081213
X07472Y0812
X073543Y080819
X073937Y080819
X074724Y080819
X075118Y080819
X072756Y080819
X074331Y080819
X07315Y080819
X073937Y080425
X072756Y080425
X074331Y080425
X07315Y080425
X073543Y080425
X07472Y08042
X073937Y080031
X07315Y080031
X073543Y080031
X074331Y080031
X072756Y080031
X073937Y079638
X074331Y079638
X07315Y079638
X072756Y079638
X073543Y079638
X074331Y079244
X074724Y079244
X072756Y079244
X073543Y079244
X073937Y079244
X07315Y079244
X07512Y07905
X072756Y07885
X073937Y07885
X074331Y07885
X073543Y07885
X07321Y07849
X07361Y07849
X073937Y078457
X074724Y078457
X072756Y078457
X074331Y078457
X072756Y078063
X073543Y078063
X074331Y078063
X073937Y078063
X07356Y07768
X07283Y07767
X073937Y077669
X07315Y07737
X07398Y07734
X07512Y07732
X07391Y07694
X075118Y076882
X07315Y07685
X07362Y07678
X07405Y07657
X07493Y07611
X07425Y0761
X07385Y0761
X07523Y07583
X07301Y0756
X0747Y0756
X07345Y0756
X073495Y075225
X07359Y0742
X07359Y074
X07359Y0738
X07359Y07359
X074Y07307
X074Y0728
X0729Y0308
X0729Y0306
X0729Y03
X07743Y06937
X07663Y07517
X07648Y07532
X07651Y07582
X07636Y07597
X07538Y07612
X07642Y0775
X07529Y07785
X0759Y0779
X07532Y07846
X07657Y079
X0758Y07908
X07759Y08021
X0754Y0808
X07573Y08103
X07648Y08104
X07621Y08106
X07757Y08118
X07678Y08136
X07685Y08175
X0756Y08183
X07543Y08195
X07688Y08215
X07543Y08215
X07688Y08235
X07709Y08256
X07709Y08276
X07613Y08299
X07613Y08319
X07762Y08331
X07645Y08455
X07744Y085
X07655Y08537
X0759Y08537
X0764Y08579
X0765Y08621
X0759Y08621
X07638Y0866
X07528Y08697
X07589Y087
X07641Y0874
X0755Y0878
X07625Y0878
X07602Y08788
X07593Y08811
X07545Y08845
X075945Y08846
X0757Y08905
X07534Y08941
X07633Y11283
X07621Y11372
X07645Y11534
X07645Y11561
X0764Y11635
X0765Y1166
X07575Y12225
X0755Y12225
X07625Y12225
X076Y1225
X07625Y12275
X07625Y123
X07625Y12325
X07625Y1235
X07625Y12375
X076Y124
X07625Y124
X07855Y1303
X07855Y1293
X07855Y1283
X07855Y1273
X07855Y1263
X07925Y1251
X07925Y1244
X07855Y1213
X07855Y1203
X07855Y1193
X07925Y117
X07893Y11409
X07894Y11388
X07874Y08962
X07795Y08845
X07895Y08729
X07787Y0852
X077885Y084265
X078535Y08426
X07828Y08391
X07828Y08366
X07827Y0833
X0788Y0827
X07815Y0827
X07827Y08231
X07827Y08211
X07816Y08192
X07935Y08158
X07927Y08138
X07907Y08125
X07801Y08119
X07924Y08109
X07915Y08083
X07919Y08061
X07809Y08025
X07898Y08004
X0788Y07969
X07905Y07968
X07998Y07884
X07935Y07883
X07881Y07851
X07976Y07591
X08002Y07329
X07963Y07242
X07998Y07242
X07996Y07132
X07998Y0699
X07993Y06928
X07936Y06906
X0795Y0674
X07998Y06738
X07891Y06307
X082562Y062463
X082404Y062685
X0825Y067695
X08155Y068
X080295Y06801
X0825Y06801
X08124Y068325
X080925Y068325
X0825Y068325
X08124Y06864
X080925Y06864
X080925Y068955
X081555Y068955
X08219Y06896
X08187Y06927
X080925Y06927
X082185Y06927
X082185Y069585
X08187Y069585
X080295Y069585
X080925Y069585
X08124Y069585
X08065Y06959
X080295Y0699
X08158Y07019
X08124Y070215
X08187Y070215
X08061Y070215
X082185Y070215
X080925Y070215
X08124Y07053
X081555Y07053
X082185Y07053
X08187Y07053
X08095Y07055
X08094Y07083
X08218Y07083
X081555Y070845
X08187Y070845
X08124Y07116
X080925Y07116
X081555Y07116
X08187Y07116
X082185Y07116
X0825Y071475
X08124Y071475
X081555Y071475
X08187Y071475
X082185Y071475
X080925Y071475
X08187Y07179
X081555Y07179
X08188Y0721
X080295Y072105
X081555Y072105
X08171Y07244
X0806Y07303
X0806Y0739
X08198Y09801
X08025Y117
X08225Y117
X08125Y117
X08125Y1244
X08125Y1251
X08325Y1251
X08325Y1244
X08425Y117
X08325Y117
X08422Y10178
X08502Y07242
X08313Y072105
X084705Y072105
X082815Y07179
X08439Y07179
X08313Y07179
X084075Y071475
X083445Y071475
X08376Y071475
X08439Y071475
X082815Y071475
X08439Y07116
X08376Y07116
X083445Y07116
X08313Y07116
X082815Y07116
X08313Y07089
X08376Y070845
X08281Y07083
X083445Y07053
X08376Y07053
X08313Y07053
X082815Y07053
X082815Y070215
X08376Y070215
X084075Y070215
X08439Y070215
X08313Y070215
X083445Y070215
X084075Y0699
X08376Y0699
X083445Y0699
X08313Y0699
X082825Y069897
X083445Y069585
X082815Y069585
X08313Y069585
X084075Y06927
X08376Y06927
X083445Y06927
X08313Y06927
X08281Y06927
X08281Y06896
X083445Y068955
X08313Y068955
X084075Y068955
X08376Y068955
X083445Y06864
X08439Y06864
X084075Y06864
X08376Y06864
X08311Y06864
X083445Y068325
X084705Y068325
X082815Y068325
X08502Y068325
X08376Y068325
X084075Y068325
X083445Y06801
X08438Y06798
X08467Y06769
X08502Y06738
X08579Y06658
X0853Y06835
X08529Y07176
X08911Y07213
X08801Y07566
X08811Y07592
X09002Y07824
X0875Y07855
X0898Y07906
X08672Y08123
X089409Y081409
X089803Y081409
X090197Y081409
X08671Y08143
X08669Y08168
X089409Y081803
X090197Y081803
X089803Y081803
X08669Y08198
X089409Y082197
X090197Y082197
X089803Y082197
X08832Y0824
X089409Y082591
X090197Y082591
X089803Y082591
X0889Y0834
X08811Y08431
X090028Y085269
X08925Y117
X08525Y1244
X08725Y1244
X08925Y1244
X08725Y1251
X08925Y1251
X08525Y1251
X09025Y117
X09034Y086332
X090702Y085975
X091209Y085601
X091574Y085247
X09156Y08493
X090508Y084908
X09191Y08458
X09353Y08381
X09095Y0835
X09353Y08322
X09369Y08265
X090591Y082591
X09292Y08221
X090591Y082197
X09344Y0821
X090591Y081803
X090591Y081409
X09292Y08138
X092691Y080955
X092075Y080387
X09125Y08019
X09076Y07977
X09026Y07949
X105236Y01415
X104874Y015801
X10489Y017055
X1037Y01709
X10121Y01846
X105246Y02416
X10489Y027055
X1037Y02709
X10121Y02846
X102654Y02901
X10242Y02919
X105246Y03416
X10489Y037055
X1037Y037068
X10121Y03846
X105246Y04416
X105109Y04565
X104874Y045801
X10489Y047055
X1037Y04709
X104014Y04786
X10121Y04846
X105236Y05415
X104874Y055801
X10489Y057055
X1037Y05709
X10121Y05846
X105246Y06416
X104874Y065801
X10489Y067055
X1037Y06709
X10121Y06846
X104874Y075801
X10489Y077055
X1037Y07709
X10121Y07846
X1049Y07902
X105246Y08416
X105109Y08565
X104874Y085801
X10489Y087055
X1037Y08709
X10121Y08846
X105236Y09415
X104874Y095801
X10489Y097055
X1037Y09709
X10121Y09846
X105246Y10416
X104874Y105801
X10489Y107055
X1037Y10709
X10121Y10846
X105246Y11416
X104874Y115801
X10489Y117055
X103701Y117068
X10121Y11846
X102654Y119
X105246Y12416
X105109Y12565
X10489Y127055
X1037Y12709
X10309Y12775
X104014Y12786
X10121Y12846
X105509Y126408
X105806Y12622
X1055Y1239
X106Y1233
X10665Y123
X1075Y1195
X10765Y11655
X105509Y116408
X1055Y1139
X10595Y11335
X10755Y11031
X10754Y10951
X10765Y10655
X10549Y1064
X1055Y1039
X10595Y10335
X10665Y103
X10765Y09655
X105509Y096408
X1055Y0939
X10595Y09335
X10665Y093
X10765Y08655
X105509Y086408
X105806Y08622
X1055Y0839
X10666Y0831
X10654Y0828
X10765Y07655
X105509Y076408
X1055Y0739
X10595Y07335
X10765Y06655
X105509Y066408
X1055Y0639
X10595Y06335
X10665Y063
X10765Y05655
X105509Y056408
X1055Y0539
X10595Y05335
X10665Y053
X105509Y046408
X105806Y04622
X1055Y0439
X106Y0433
X10665Y043
X105509Y036408
X10582Y036214
X10525Y03565
X1055Y0339
X10595Y03335
X10765Y02655
X105509Y026408
X105816Y02621
X1055Y0239
X10595Y02335
X10665Y023
X10715Y0222
X105509Y016408
X1055Y0139
X10595Y01335
X10665Y013
X11032Y01538
X11061Y01574
X10795Y01595
X109146Y01602
X11224Y01636
X10792Y01655
X11062Y02576
X10795Y02595
X11224Y02635
X11061Y03574
X10795Y03595
X11224Y03635
X10792Y03655
X10795Y04595
X1099Y046
X11224Y04635
X10792Y04653
X10795Y05595
X11224Y05636
X10795Y06595
X11224Y06636
X10795Y07595
X11224Y07635
X10795Y08595
X1099Y086
X11224Y08635
X10792Y08655
X10881Y08952
X1088Y09031
X10795Y09595
X11224Y09635
X10795Y10595
X11224Y10635
X10795Y11595
X11224Y11636
X10795Y12595
X1099Y126
X11224Y12635
X10792Y12655
X11515Y1292
X11805Y12835
X11515Y1192
X11805Y11835
X11515Y1092
X11805Y10835
X11515Y0992
X11805Y09835
X11515Y0892
X11805Y08835
X1197Y08402
X12005Y0812
X11515Y0792
X11805Y07835
X11515Y0692
X11805Y06835
X11515Y0592
X11805Y05835
X11515Y0492
X11805Y04835
X11955Y04795
X11515Y0392
X11805Y03835
X11515Y0292
X11805Y02835
X11515Y0192
X11805Y01835
X1212Y0193
X12215Y0195
X12215Y0199
X12115Y0288
X12115Y0293
X12211Y0293
X12481Y03022
X1211Y0303
X12211Y0308
X12115Y0308
X12501Y03795
X12475Y04009
X12321Y04777
X12184Y05096
X12115Y0688
X12211Y0693
X12115Y0693
X12505Y0702
X1211Y0703
X1237Y0704
X12211Y0708
X12115Y0708
X12375Y0718
X1242Y07202
X12425Y0789
X12181Y07916
X12246Y07962
X12476Y08004
X12461Y08079
X12379Y08151
X12487Y08152
X12444Y08778
X12412Y08813
X12412Y08837
X12418Y08856
X1244Y08862
X12221Y08865
X12337Y08879
X12312Y0888
X12289Y0888
X12266Y08881
X12511Y08899
X12122Y09015
X121Y0905
X12467Y0978
X12115Y1088
X12115Y1093
X12505Y1102
X1211Y1103
X12376Y11064
X12115Y1108
X1237Y1112
X12375Y1118
X12493Y11202
X12425Y1189
X12425Y1192
X12975Y13225
X12975Y13125
X12975Y13025
X12975Y12925
X12975Y12825
X12975Y12725
X12975Y12625
X12975Y12525
X12975Y12425
X12975Y12325
X12975Y12225
X1274Y1221
X12975Y12125
X1261Y1208
X12975Y12025
X12562Y1201
X12563Y11974
X12563Y11938
X12975Y11925
X12975Y11825
X12975Y11725
X12975Y11625
X12975Y11525
X12975Y11425
X12975Y11325
X12975Y11225
X12975Y11125
X12555Y11025
X12975Y11025
X12975Y10925
X12975Y10825
X12975Y10725
X12975Y10625
X12975Y10525
X12975Y10425
X12975Y10325
X12975Y10225
X12975Y10125
X12703Y10081
X12691Y10058
X12975Y10025
X12975Y09925
X12975Y09825
X12975Y09725
X12975Y09625
X12975Y09525
X12975Y09425
X12975Y09325
X12975Y09225
X12975Y09125
X12658Y09077
X12975Y09025
X12975Y08925
X12578Y08902
X12576Y08872
X12583Y08844
X12975Y08825
X12582Y08792
X12709Y08732
X12975Y08725
X12975Y08625
X12975Y08525
X12975Y08425
X12975Y08325
X12975Y08225
X12568Y082
X12675Y0819
X12975Y08125
X12718Y08114
X1265Y08092
X12714Y0809
X12606Y0808
X12635Y08072
X12975Y08025
X12975Y07925
X12779Y07875
X12975Y07825
X12586Y078
X12696Y07799
X12975Y07725
X12975Y07625
X12975Y07525
X12975Y07425
X12975Y07325
X12975Y07225
X12681Y07209
X12975Y07125
X12555Y07025
X12975Y07025
X12975Y06925
X12975Y06825
X12975Y06725
X12975Y06625
X12975Y06525
X12975Y06425
X12975Y06325
X12975Y06225
X1273Y0619
X12975Y06125
X12975Y06025
X12975Y05925
X12975Y05825
X12975Y05725
X12975Y05625
X12975Y05525
X12975Y05425
X12975Y05325
X12975Y05225
X12975Y05125
X12643Y0507
X12656Y05045
X12975Y05025
X12975Y04925
X12975Y04825
X12662Y04809
X12672Y04788
X12975Y04725
X12975Y04625
X12975Y04525
X12975Y04425
X12975Y04325
X12975Y04225
X12665Y04205
X12975Y04125
X12975Y04025
X12562Y0401
X12563Y03974
X12563Y03938
X12975Y03925
X12975Y03825
X12975Y03725
X12975Y03625
X12975Y03525
X12975Y03425
X12975Y03325
X12975Y03225
X12975Y03125
X1269Y0311
X12558Y03065
X12578Y03055
X1269Y0304
X12975Y03025
X12975Y02925
X12975Y02825
X12975Y02725
X12975Y02625
X12975Y02525
X12975Y02425
X12975Y02325
X12975Y02225
X12975Y02125
X12975Y02025
X12975Y01925
X12975Y01825
X12975Y01725
X12975Y01625
X12975Y01525
X12975Y01425
X12975Y01325
X12975Y01225
X12975Y01125
X12975Y01025
T2C.012F095S3
X01437Y01369
X0147Y01415
X0148Y0147
X0151Y01475
X013354Y01548
X014354Y01548
X013854Y01548
X014854Y01548
X013354Y01598
X014854Y01598
X014354Y01598
X013854Y01598
X013354Y01648
X014854Y01648
X013354Y01698
X013354Y01748
X013854Y01748
X013354Y01798
X013854Y01798
X013354Y01848
X013354Y01898
X014854Y01898
X013354Y01948
X014854Y01948
X014354Y01948
X013854Y01948
X01485Y01995
X013354Y01998
X014354Y01998
X013854Y01998
X0148Y0204
X0139Y0205
X0139Y0217
X01265Y0219
X01494Y02196
X0152Y02222
X01265Y0223
X01438Y02248
X01265Y0227
X01437Y02276
X01265Y0231
X01265Y0235
X01265Y0239
X013354Y02548
X014854Y02548
X014354Y02548
X013854Y02548
X013354Y02598
X014354Y02598
X014854Y02598
X013854Y02598
X013354Y02648
X014854Y02648
X013354Y02698
X013354Y02748
X013854Y02748
X013354Y02798
X013854Y02798
X013354Y02848
X013354Y02898
X014854Y02898
X013354Y02948
X013854Y02948
X014354Y02948
X014854Y02948
X01242Y0296
X013354Y02998
X013854Y02998
X014354Y02998
X014854Y02998
X01442Y03073
X0127Y0313
X01355Y0313
X0136Y0317
X01368Y0321
X0125Y0332
X0131Y03325
X0138Y03325
X0129Y0335
X01404Y03355
X01405Y03385
X0129Y0342
X014Y0342
X0152Y0344
X0131Y03445
X0138Y03445
X01345Y0346
X013354Y03548
X014854Y03548
X014354Y03548
X013854Y03548
X013354Y03598
X014854Y03598
X013854Y03598
X014354Y03598
X013354Y03648
X014854Y03648
X013354Y03698
X013354Y03748
X013854Y03748
X013354Y03798
X013854Y03798
X013354Y03848
X013354Y03898
X014854Y03898
X013354Y03948
X014854Y03948
X014354Y03948
X013854Y03948
X013354Y03998
X014854Y03998
X013854Y03998
X014354Y03998
X0127Y0406
X01445Y0435
X01485Y0436
X013354Y04548
X014354Y04548
X013854Y04548
X014854Y04548
X013354Y04598
X014854Y04598
X014354Y04598
X013854Y04598
X013354Y04648
X014854Y04648
X013354Y04698
X013354Y04748
X013854Y04748
X013354Y04798
X013854Y04798
X013354Y04848
X013354Y04898
X014854Y04898
X013354Y04948
X014854Y04948
X014354Y04948
X013854Y04948
X013354Y04998
X014354Y04998
X014854Y04998
X013854Y04998
X0135Y0515
X01467Y05314
X01437Y05369
X0147Y05415
X01459Y05446
X01362Y05463
X01507Y05472
X013354Y05548
X013854Y05548
X014854Y05548
X014354Y05548
X013354Y05598
X013854Y05598
X014854Y05598
X014354Y05598
X013354Y05648
X014854Y05648
X013354Y05698
X013354Y05748
X013854Y05748
X013354Y05798
X013854Y05798
X013354Y05848
X013354Y05898
X014854Y05898
X013354Y05948
X014354Y05948
X014854Y05948
X013854Y05948
X013354Y05998
X014354Y05998
X014854Y05998
X013854Y05998
X0148Y0604
X01347Y06143
X0139Y0617
X01357Y06172
X01265Y0619
X01265Y0623
X01437Y06247
X01265Y0627
X01437Y06284
X01265Y0631
X01265Y0635
X01265Y0639
X01415Y06465
X01485Y0647
X01336Y06548
X014854Y06548
X014354Y06548
X013854Y06548
X01336Y06598
X014854Y06598
X014354Y06598
X013854Y06598
X01336Y06648
X014854Y06648
X01336Y06698
X01336Y06748
X013854Y06748
X01336Y06798
X013854Y06798
X01336Y06848
X01336Y06898
X014854Y06898
X01336Y06948
X014854Y06948
X013854Y06948
X014354Y06948
X01259Y0695
X013354Y06998
X014854Y06998
X014354Y06998
X013854Y06998
X0136Y07025
X01442Y07073
X0127Y0713
X01355Y0713
X0136Y0717
X01368Y0721
X01255Y07325
X0131Y07325
X0138Y07325
X0129Y0735
X01404Y07355
X0129Y0742
X0152Y0744
X0131Y07445
X0138Y07445
X01345Y07455
X013354Y07548
X014354Y07548
X014854Y07548
X013854Y07548
X013354Y07598
X014854Y07598
X014354Y07598
X013854Y07598
X013354Y07648
X014854Y07648
X013354Y07698
X013354Y07748
X013854Y07748
X013854Y07798
X013354Y07798
X013354Y07848
X014854Y07898
X013354Y07898
X013354Y07948
X014854Y07948
X013854Y07948
X014354Y07948
X013354Y07998
X014854Y07998
X014354Y07998
X013854Y07998
X0127Y0806
X01445Y0835
X01485Y0836
X013354Y08548
X013854Y08548
X014354Y08548
X014854Y08548
X013354Y08598
X014854Y08598
X014354Y08598
X013854Y08598
X013354Y08648
X014854Y08648
X013354Y08698
X013354Y08748
X013854Y08748
X013354Y08798
X013854Y08798
X013354Y08848
X013354Y08898
X014854Y08898
X013354Y08948
X014854Y08948
X014354Y08948
X013854Y08948
X013354Y08998
X014354Y08998
X014854Y08998
X013854Y08998
X01365Y0931
X01467Y09314
X01437Y09369
X014711Y09415
X01459Y09446
X01507Y09472
X01457Y09483
X013354Y09548
X014854Y09548
X013854Y09548
X014354Y09548
X013354Y09598
X014854Y09598
X014354Y09598
X013854Y09598
X013354Y09648
X014854Y09648
X013354Y09698
X013354Y09748
X013854Y09748
X013354Y09798
X013854Y09798
X013354Y09848
X014854Y09898
X013354Y09898
X013354Y09948
X013854Y09948
X014354Y09948
X014854Y09948
X013354Y09998
X013854Y09998
X014354Y09998
X014854Y09998
X0148Y1004
X01305Y10048
X01319Y1011
X01347Y10143
X0139Y1017
X01357Y10172
X01265Y1019
X01265Y1023
X01524Y10241
X01437Y10247
X01265Y1027
X01265Y1031
X01437Y1031
X01265Y1035
X01265Y1039
X01407Y10462
X013354Y10548
X013854Y10548
X014854Y10548
X014354Y10548
X013354Y10598
X013854Y10598
X014854Y10598
X014354Y10598
X013354Y10648
X014854Y10648
X013354Y10698
X013354Y10748
X013854Y10748
X013354Y10798
X013854Y10798
X013354Y10848
X013354Y10898
X014854Y10898
X013354Y10948
X014354Y10948
X014854Y10948
X013854Y10948
X013354Y10998
X014854Y10998
X013854Y10998
X014354Y10998
X0135Y11035
X0144Y11075
X01271Y1113
X01356Y1113
X01358Y1117
X01367Y11211
X01255Y11315
X01325Y11325
X01395Y11325
X01305Y1135
X01422Y11366
X01305Y1142
X01424Y11424
X0152Y1144
X01395Y11445
X01325Y11445
X0136Y1145
X013354Y11548
X014854Y11548
X014354Y11548
X013854Y11548
X013354Y11598
X014854Y11598
X014354Y11598
X013854Y11598
X013354Y11648
X014854Y11648
X013354Y11698
X013354Y11748
X013854Y11748
X013854Y11798
X013354Y11798
X013354Y11848
X013354Y11898
X014854Y11898
X013354Y11948
X014354Y11948
X014854Y11948
X013854Y11948
X013354Y11998
X013854Y11998
X014854Y11998
X014354Y11998
X0127Y1206
X01445Y1235
X01485Y1236
X0129Y1248
X0128Y1251
X013354Y12548
X013854Y12548
X014354Y12548
X014854Y12548
X014354Y12598
X013354Y12598
X014854Y12598
X013854Y12598
X013354Y12648
X014854Y12648
X013354Y12698
X013354Y12748
X013854Y12748
X013354Y12798
X013854Y12798
X013354Y12848
X014854Y12898
X013354Y12898
X014354Y12948
X013354Y12948
X013854Y12948
X014854Y12948
X013354Y12998
X013854Y12998
X014854Y12998
X014354Y12998
X0144Y13095
X014Y1315
X0144Y13205
X016854Y12998
X017354Y12998
X016354Y12998
X015854Y12998
X015354Y12998
X016854Y12948
X017354Y12948
X016354Y12948
X015854Y12948
X015354Y12948
X015354Y12898
X017354Y12898
X016854Y12898
X0176Y1285
X01765Y1271
X015354Y12648
X017354Y12648
X016854Y12648
X017354Y12598
X016854Y12598
X016354Y12598
X015854Y12598
X015354Y12598
X017354Y12548
X016854Y12548
X016354Y12548
X015854Y12548
X015354Y12548
X01529Y12471
X01605Y1235
X01655Y12325
X01655Y1229
X01655Y12255
X01605Y12225
X0161Y1214
X016354Y11998
X017354Y11998
X015854Y11998
X016854Y11998
X015354Y11998
X016854Y11948
X016354Y11948
X015854Y11948
X015354Y11948
X017354Y11948
X016854Y11898
X017354Y11898
X015354Y11898
X0176Y1185
X01765Y1171
X016854Y11648
X015354Y11648
X017354Y11648
X016854Y11598
X015354Y11598
X015854Y11598
X017354Y11598
X016354Y11598
X016854Y11548
X017354Y11548
X015354Y11548
X015854Y11548
X016354Y11548
X0158Y11305
X0163Y1121
X01625Y1107
X017354Y10998
X015854Y10998
X015354Y10998
X016854Y10998
X016354Y10998
X016354Y10948
X015854Y10948
X015354Y10948
X016854Y10948
X017354Y10948
X017354Y10898
X015354Y10898
X016854Y10898
X0176Y1085
X01765Y1071
X017354Y10648
X016854Y10648
X015354Y10648
X016854Y10598
X016354Y10598
X015854Y10598
X015354Y10598
X017354Y10598
X016854Y10548
X016354Y10548
X015854Y10548
X015354Y10548
X017354Y10548
X0153Y1042
X01617Y10404
X01575Y1036
X01575Y1033
X0153Y1032
X0173Y1032
X0153Y1028
X01569Y10239
X01586Y10071
X017354Y09998
X016354Y09998
X016854Y09998
X015854Y09998
X015354Y09998
X016854Y09948
X016354Y09948
X015854Y09948
X017354Y09948
X015354Y09948
X017354Y09898
X016854Y09898
X015354Y09898
X0176Y0985
X01765Y0971
X016854Y09648
X017354Y09648
X015354Y09648
X015854Y09598
X016354Y09598
X016854Y09598
X017354Y09598
X015354Y09598
X016354Y09548
X016854Y09548
X017354Y09548
X015354Y09548
X015854Y09548
X01579Y09506
X0154Y0949
X015995Y094828
X01619Y09433
X0162Y09335
X01541Y09287
X01579Y0928
X01768Y09268
X016854Y08998
X016354Y08998
X015854Y08998
X017354Y08998
X015354Y08998
X016854Y08948
X016354Y08948
X015854Y08948
X017354Y08948
X015354Y08948
X015354Y08898
X016854Y08898
X017354Y08898
X0176Y0885
X01765Y0871
X015354Y08648
X016854Y08648
X017354Y08648
X015854Y08598
X015354Y08598
X016854Y08598
X017354Y08598
X016354Y08598
X016354Y08548
X015854Y08548
X015354Y08548
X016854Y08548
X017354Y08548
X01525Y0847
X01605Y0835
X01655Y08325
X01655Y0829
X01655Y08255
X01605Y08225
X0161Y0814
X016354Y07998
X016854Y07998
X015854Y07998
X015354Y07998
X017354Y07998
X016854Y07948
X016354Y07948
X015854Y07948
X015354Y07948
X017354Y07948
X016854Y07898
X015354Y07898
X017354Y07898
X0176Y0785
X01765Y0771
X017354Y07648
X016854Y07648
X015354Y07648
X015854Y07598
X015354Y07598
X016354Y07598
X016854Y07598
X017354Y07598
X015854Y07548
X016354Y07548
X016854Y07548
X017354Y07548
X015354Y07548
X0168Y0732
X0158Y0731
X0163Y0721
X01624Y07173
X0168Y0717
X01529Y07073
X017354Y06998
X016354Y06998
X015354Y06998
X016854Y06998
X015854Y06998
X015354Y06948
X016854Y06948
X016354Y06948
X015854Y06948
X017354Y06948
X016854Y06898
X017354Y06898
X015354Y06898
X0176Y0685
X01765Y0671
X017354Y06648
X016854Y06648
X015354Y06648
X015354Y06598
X016354Y06598
X017354Y06598
X015854Y06598
X016854Y06598
X017354Y06548
X016354Y06548
X015354Y06548
X015854Y06548
X016854Y06548
X0153Y0642
X01625Y06407
X01575Y0636
X0173Y0632
X0153Y0632
X0153Y0628
X01569Y06239
X01584Y06071
X017354Y05998
X015354Y05998
X016854Y05998
X015854Y05998
X016354Y05998
X016354Y05948
X015354Y05948
X016854Y05948
X015854Y05948
X017354Y05948
X015354Y05898
X016854Y05898
X017354Y05898
X0176Y0585
X01765Y0571
X017354Y05648
X015354Y05648
X016854Y05648
X016354Y05598
X015354Y05598
X015854Y05598
X017354Y05598
X016854Y05598
X015854Y05548
X016354Y05548
X017354Y05548
X015354Y05548
X016854Y05548
X01579Y05506
X0154Y0549
X016Y05486
X01619Y05433
X0162Y05335
X01541Y05287
X01579Y0528
X01774Y0523
X01749Y05184
X016354Y04998
X016854Y04998
X017354Y04998
X015854Y04998
X015354Y04998
X015854Y04948
X017354Y04948
X016854Y04948
X016354Y04948
X015354Y04948
X017354Y04898
X015354Y04898
X016854Y04898
X0176Y0485
X01765Y0471
X017354Y04648
X015354Y04648
X016854Y04648
X015854Y04598
X016354Y04598
X017354Y04598
X016854Y04598
X015354Y04598
X016354Y04548
X015354Y04548
X016854Y04548
X015854Y04548
X017354Y04548
X0153Y0447
X01605Y0435
X01655Y04325
X01655Y0429
X01655Y04255
X01605Y04225
X0161Y0414
X015854Y03998
X016354Y03998
X015354Y03998
X017354Y03998
X016854Y03998
X017354Y03948
X015854Y03948
X016354Y03948
X016854Y03948
X015354Y03948
X017354Y03898
X016854Y03898
X015354Y03898
X0176Y0385
X01765Y0371
X017354Y03648
X015354Y03648
X016854Y03648
X016854Y03598
X015354Y03598
X017354Y03598
X015854Y03598
X016354Y03598
X015854Y03548
X015354Y03548
X017354Y03548
X016854Y03548
X016354Y03548
X0168Y0337
X0168Y0332
X0158Y0331
X0168Y0322
X0163Y0321
X01624Y03173
X0168Y0317
X0163Y0313
X016854Y02998
X017354Y02998
X015854Y02998
X016354Y02998
X015354Y02998
X016854Y02948
X017354Y02948
X015854Y02948
X016354Y02948
X015354Y02948
X015354Y02898
X017354Y02898
X016854Y02898
X0176Y0285
X01765Y0271
X016854Y02648
X017354Y02648
X015354Y02648
X017354Y02598
X015854Y02598
X015354Y02598
X016354Y02598
X016854Y02598
X017354Y02548
X015354Y02548
X016854Y02548
X015854Y02548
X016354Y02548
X0153Y0242
X0158Y0239
X01575Y0236
X01575Y0233
X0173Y0232
X0153Y0232
X0153Y0228
X01569Y02239
X01584Y0207
X016354Y01998
X016854Y01998
X015354Y01998
X017354Y01998
X015854Y01998
X016854Y01948
X016354Y01948
X015354Y01948
X015854Y01948
X017354Y01948
X016854Y01898
X017354Y01898
X015354Y01898
X0176Y0185
X01765Y0171
X016854Y01648
X017354Y01648
X015354Y01648
X015854Y01598
X017354Y01598
X016854Y01598
X016354Y01598
X015354Y01598
X01585Y0155
X016354Y01548
X016854Y01548
X017354Y01548
X015354Y01548
X01595Y01505
X0155Y01475
X0163Y01475
X0162Y01435
X0162Y01335
X01534Y01297
X01563Y01294
X01695Y0124
X01695Y01205
X01705Y01165
X016Y01165
X01995Y0113
X01816Y01154
X01935Y01165
X019Y01169
X01985Y01175
X0199Y0121
X01965Y01345
X0196Y015
X018854Y01548
X018354Y01548
X017854Y01548
X017854Y01598
X017854Y01648
X01835Y0171
X019672Y017436
X0195Y01765
X0195Y01815
X01835Y0185
X02Y01855
X019854Y01898
X019354Y01898
X018854Y01898
X018354Y01898
X017854Y01898
X019354Y01948
X019854Y01948
X018854Y01948
X018354Y01948
X017854Y01948
X018854Y01998
X019354Y01998
X019854Y01998
X018354Y01998
X017854Y01998
X01816Y02123
X01995Y0213
X0199Y0221
X0198Y0234
X018854Y02548
X018354Y02548
X017854Y02548
X017854Y02598
X017854Y02648
X01835Y0271
X0197Y02745
X0195Y02765
X0195Y02815
X01835Y0285
X02Y02855
X018354Y02898
X017854Y02898
X019354Y02898
X019854Y02898
X018854Y02898
X019854Y02948
X018354Y02948
X018854Y02948
X019354Y02948
X017854Y02948
X017854Y02998
X019354Y02998
X018354Y02998
X018854Y02998
X019854Y02998
X01995Y0313
X02015Y03235
X0189Y0327
X0202Y03374
X018354Y03548
X018854Y03548
X017854Y03548
X017854Y03598
X017854Y03648
X01835Y0371
X0197Y03745
X0195Y03765
X0195Y03815
X01835Y0385
X02Y03855
X019354Y03898
X018854Y03898
X018354Y03898
X017854Y03898
X019854Y03898
X019854Y03948
X018854Y03948
X017854Y03948
X018354Y03948
X019354Y03948
X018354Y03998
X017854Y03998
X019854Y03998
X018854Y03998
X019354Y03998
X01995Y0413
X01885Y0417
X0199Y0421
X0196Y0434
X018854Y04548
X018354Y04548
X017854Y04548
X017854Y04598
X017854Y04648
X01835Y0471
X0197Y04745
X0195Y04765
X0195Y04815
X01835Y0485
X02Y04855
X017854Y04898
X019854Y04898
X018854Y04898
X018354Y04898
X019354Y04898
X018854Y04948
X019354Y04948
X017854Y04948
X018354Y04948
X019854Y04948
X019854Y04998
X019354Y04998
X018854Y04998
X018354Y04998
X017854Y04998
X01995Y0513
X01816Y05154
X01985Y0517
X0199Y0521
X01823Y05213
X01837Y05242
X01965Y05345
X0196Y055
X018854Y05548
X018354Y05548
X017854Y05548
X017854Y05598
X017854Y05648
X01835Y0571
X0197Y05745
X0195Y05765
X0195Y05815
X01835Y0585
X02Y05855
X019354Y05898
X018854Y05898
X017854Y05898
X019854Y05898
X018354Y05898
X018354Y05948
X019854Y05948
X019354Y05948
X017854Y05948
X018854Y05948
X018354Y05998
X017854Y05998
X018854Y05998
X019854Y05998
X019354Y05998
X0182Y06125
X01995Y0613
X0199Y0621
X0198Y0634
X018854Y06548
X018354Y06548
X017854Y06548
X017854Y06598
X017854Y06648
X01835Y0671
X0197Y06745
X0195Y06765
X0195Y06815
X01835Y0685
X02Y06855
X018854Y06898
X019854Y06898
X019354Y06898
X017854Y06898
X018354Y06898
X019354Y06948
X019854Y06948
X018854Y06948
X018354Y06948
X017854Y06948
X018354Y06998
X017854Y06998
X019354Y06998
X018854Y06998
X019854Y06998
X01995Y0713
X02015Y07232
X01891Y0727
X0202Y0738
X018854Y07548
X017854Y07548
X018354Y07548
X017854Y07598
X017854Y07648
X01835Y0771
X0197Y07745
X0195Y07765
X0195Y07815
X01835Y0785
X02Y07855
X018354Y07898
X018854Y07898
X019354Y07898
X017854Y07898
X019854Y07898
X019854Y07948
X017854Y07948
X018854Y07948
X019354Y07948
X018354Y07948
X019354Y07998
X017854Y07998
X018854Y07998
X018354Y07998
X019854Y07998
X01995Y0813
X01885Y0817
X0199Y0821
X0196Y0834
X018854Y08548
X018354Y08548
X017854Y08548
X017854Y08598
X017854Y08648
X01835Y0871
X0197Y08745
X0195Y08765
X0195Y08815
X01835Y0885
X02Y08855
X018354Y08898
X018854Y08898
X019354Y08898
X017854Y08898
X019854Y08898
X019354Y08948
X018354Y08948
X018854Y08948
X017854Y08948
X019854Y08948
X019854Y08998
X018854Y08998
X019354Y08998
X017854Y08998
X018354Y08998
X01995Y0913
X01816Y09154
X01985Y0917
X0199Y0921
X01776Y09235
X01842Y09239
X01833Y09272
X01965Y09345
X0196Y095
X018354Y09548
X018854Y09548
X017854Y09548
X017854Y09598
X017854Y09648
X01835Y0971
X0197Y09745
X0195Y09765
X0195Y09815
X01835Y0985
X02Y09855
X019854Y09898
X017854Y09898
X019354Y09898
X018354Y09898
X018854Y09898
X018354Y09948
X019854Y09948
X019354Y09948
X017854Y09948
X018854Y09948
X017854Y09998
X018854Y09998
X019354Y09998
X019854Y09998
X018354Y09998
X0182Y10115
X01995Y1013
X0199Y1021
X0198Y1034
X018354Y10548
X018854Y10548
X017854Y10548
X017854Y10598
X017854Y10648
X01835Y1071
X0197Y10745
X0195Y10765
X0195Y10815
X01835Y1085
X02Y10855
X019854Y10898
X018354Y10898
X019354Y10898
X017854Y10898
X018854Y10898
X018854Y10948
X019354Y10948
X018354Y10948
X019854Y10948
X017854Y10948
X018854Y10998
X017854Y10998
X019854Y10998
X018354Y10998
X019354Y10998
X02015Y11105
X02015Y11235
X0202Y1138
X018354Y11548
X018854Y11548
X017854Y11548
X017854Y11598
X017854Y11648
X01835Y1171
X0197Y11745
X0195Y11765
X0195Y11815
X01835Y1185
X02Y11855
X019854Y11898
X018354Y11898
X018854Y11898
X017854Y11898
X019354Y11898
X017854Y11948
X018354Y11948
X018854Y11948
X019854Y11948
X019354Y11948
X018854Y11998
X017854Y11998
X018354Y11998
X019354Y11998
X019854Y11998
X01995Y1213
X01885Y1217
X0199Y1221
X0196Y1234
X017854Y12548
X018854Y12548
X018354Y12548
X017854Y12598
X017854Y12648
X01835Y1271
X0197Y12745
X0195Y12765
X0195Y12815
X01835Y1285
X02Y12855
X018854Y12898
X019354Y12898
X019854Y12898
X018354Y12898
X017854Y12898
X019354Y12948
X019854Y12948
X018854Y12948
X018354Y12948
X017854Y12948
X018854Y12998
X019354Y12998
X019854Y12998
X017854Y12998
X018354Y12998
X020354Y12998
X021354Y12998
X020854Y12998
X022354Y12998
X021854Y12998
X020354Y12948
X020854Y12948
X021354Y12948
X022354Y12948
X021854Y12948
X021354Y12898
X020354Y12898
X020854Y12898
X022354Y12898
X021854Y12898
X02055Y1285
X0207Y1282
X02075Y1279
X0205Y1275
X0209Y12655
X0211Y1254
X02256Y12535
X022Y1253
X0206Y1252
X02205Y125
X02195Y1246
X02045Y12455
X02045Y12415
X02178Y12395
X0207Y1239
X02115Y12385
X02188Y12323
X02135Y12185
X02195Y1218
X02075Y1213
X02195Y1213
X020354Y11998
X020854Y11998
X021354Y11998
X021854Y11998
X022354Y11998
X020354Y11948
X020854Y11948
X021354Y11948
X021854Y11948
X022354Y11948
X020354Y11898
X021354Y11898
X020854Y11898
X021854Y11898
X022354Y11898
X02055Y1185
X0207Y1182
X02075Y1179
X0205Y1175
X0209Y11655
X0211Y1154
X02256Y11535
X0217Y1153
X022Y1153
X0206Y1152
X02205Y115
X02195Y1146
X02045Y11455
X02045Y11415
X02178Y11395
X0207Y1139
X02115Y11385
X02188Y11323
X02135Y11185
X02195Y1118
X02075Y1113
X02195Y1113
X02049Y11067
X020854Y10998
X021354Y10998
X020354Y10998
X021854Y10998
X022354Y10998
X021354Y10948
X020354Y10948
X020854Y10948
X021854Y10948
X022354Y10948
X020354Y10898
X020854Y10898
X021354Y10898
X022354Y10898
X021854Y10898
X02055Y1085
X0207Y1082
X02075Y1079
X02075Y1076
X0205Y1075
X0209Y10655
X0211Y1054
X0216Y1054
X02256Y10535
X022Y1053
X0206Y1052
X02205Y105
X02195Y1046
X02045Y10455
X02045Y10415
X02178Y10395
X0207Y1039
X02115Y10385
X02188Y10323
X02135Y10185
X02195Y1018
X02075Y1013
X02195Y1013
X020354Y09998
X021354Y09998
X020854Y09998
X022354Y09998
X021854Y09998
X020354Y09948
X021354Y09948
X020854Y09948
X022354Y09948
X021854Y09948
X020354Y09898
X021354Y09898
X020854Y09898
X022354Y09898
X021854Y09898
X02055Y0985
X0207Y0982
X02075Y0979
X02075Y0976
X0205Y0975
X0209Y09655
X02155Y09545
X0211Y0954
X02256Y09535
X022Y0953
X0206Y0952
X02205Y095
X02195Y0946
X02045Y09455
X02045Y09415
X02178Y09395
X02072Y09388
X02117Y09385
X02188Y09323
X02135Y09185
X02195Y0918
X02075Y0913
X02195Y0913
X021354Y08998
X020354Y08998
X020854Y08998
X021854Y08998
X022354Y08998
X021354Y08948
X020354Y08948
X020854Y08948
X021854Y08948
X022354Y08948
X021354Y08898
X020354Y08898
X020854Y08898
X021854Y08898
X022354Y08898
X0207Y0882
X02075Y0879
X0205Y0875
X0209Y08655
X0211Y0854
X02256Y08535
X022Y0853
X0206Y0852
X02205Y085
X02195Y0846
X02045Y08455
X02045Y08415
X02178Y08395
X0207Y0839
X02115Y08385
X02188Y08323
X02135Y08185
X02195Y0818
X02075Y0813
X02195Y0813
X020854Y07998
X021354Y07998
X020354Y07998
X022354Y07998
X021854Y07998
X020854Y07948
X021354Y07948
X020354Y07948
X022354Y07948
X021854Y07948
X020854Y07898
X020354Y07898
X022354Y07898
X021354Y07898
X021854Y07898
X02055Y0785
X0207Y0782
X02075Y0779
X0205Y0775
X0209Y07655
X0211Y0754
X02256Y07535
X022Y0753
X0217Y0753
X0206Y0752
X02205Y075
X02195Y0746
X02045Y07455
X02045Y07415
X02178Y07395
X0207Y0739
X02115Y07385
X02188Y07323
X02135Y07185
X02195Y0718
X02195Y0713
X02075Y0713
X0206Y0705
X020354Y06998
X021354Y06998
X021854Y06998
X022354Y06998
X021354Y06948
X021854Y06948
X020854Y06948
X022354Y06948
X020354Y06948
X020854Y06898
X022354Y06898
X020354Y06898
X021854Y06898
X021354Y06898
X02055Y0685
X0207Y0682
X02075Y0679
X02075Y0676
X0205Y0675
X0209Y06655
X0216Y0654
X0211Y0654
X02256Y06535
X022Y0653
X0206Y0652
X02205Y065
X02195Y0646
X02045Y06455
X02045Y06415
X02178Y06395
X0207Y0639
X02115Y06385
X02188Y06323
X02135Y06185
X02195Y0618
X02195Y0613
X02075Y0613
X021854Y05998
X021354Y05998
X022354Y05998
X020354Y05998
X020854Y05998
X022354Y05948
X021854Y05948
X020354Y05948
X020854Y05948
X021354Y05948
X022354Y05898
X021854Y05898
X020854Y05898
X021354Y05898
X020354Y05898
X02055Y0585
X0207Y0582
X02075Y0579
X0205Y0575
X0209Y05655
X02155Y05545
X0211Y0554
X02256Y05535
X022Y0553
X0206Y0552
X02205Y055
X02195Y0546
X02045Y05455
X02044Y05415
X02178Y05395
X0207Y0539
X02115Y05385
X02188Y05323
X02135Y05185
X02195Y0518
X02075Y0513
X02195Y0513
X021854Y04998
X020854Y04998
X021354Y04998
X020354Y04998
X022354Y04998
X022354Y04948
X021354Y04948
X020854Y04948
X021854Y04948
X020354Y04948
X021854Y04898
X022354Y04898
X020354Y04898
X020854Y04898
X021354Y04898
X02055Y0485
X0207Y0482
X02075Y0479
X0205Y0475
X02102Y04654
X0211Y0454
X02256Y04535
X022Y0453
X0206Y0452
X02205Y045
X02195Y0446
X02045Y04455
X02045Y04415
X02178Y04395
X0207Y0439
X02115Y04385
X02188Y04323
X02135Y04185
X02195Y0418
X02195Y0413
X02075Y0413
X021854Y03998
X022354Y03998
X021354Y03998
X020854Y03998
X020354Y03998
X020854Y03948
X021354Y03948
X022354Y03948
X021854Y03948
X020354Y03948
X020354Y03898
X021854Y03898
X022354Y03898
X020854Y03898
X021354Y03898
X02055Y0385
X0207Y0382
X02075Y0379
X0205Y0375
X0209Y03655
X0211Y0354
X02256Y03535
X022Y0353
X0217Y0353
X0206Y0352
X02205Y035
X02195Y0346
X02045Y03455
X02045Y03415
X02178Y03395
X0207Y0339
X02115Y03385
X02188Y03323
X02135Y03185
X02195Y0318
X02075Y0313
X02195Y0313
X0204Y0307
X021854Y02998
X020354Y02998
X022354Y02998
X020854Y02998
X021354Y02998
X020354Y02948
X021854Y02948
X022354Y02948
X021354Y02948
X020854Y02948
X020854Y02898
X021854Y02898
X020354Y02898
X021354Y02898
X022354Y02898
X02055Y0285
X0207Y0282
X02075Y0279
X02075Y0276
X0205Y0275
X0209Y02655
X0216Y0254
X0211Y0254
X02256Y02535
X022Y0253
X0206Y0252
X02205Y025
X02195Y0246
X02045Y02455
X02045Y02415
X02178Y02395
X0207Y0239
X02115Y02385
X02188Y02323
X02135Y02185
X02195Y0218
X02075Y0213
X02195Y0213
X020854Y01998
X021854Y01998
X021354Y01998
X022354Y01998
X020354Y01998
X021354Y01948
X021854Y01948
X020854Y01948
X022354Y01948
X020354Y01948
X021854Y01898
X022354Y01898
X021354Y01898
X020854Y01898
X020354Y01898
X02055Y0185
X0207Y0182
X02075Y0179
X020788Y017598
X020543Y017504
X0209Y01655
X02155Y01545
X02105Y01545
X02255Y01535
X022Y0153
X02058Y0152
X02205Y015
X02195Y0146
X02045Y01455
X02045Y01415
X02178Y01395
X0207Y0139
X02115Y01385
X02188Y01323
X02135Y01185
X02195Y0118
X02195Y0113
X02075Y0113
X0248Y012
X02515Y012
X02395Y0132
X0242Y01335
X0245Y01335
X02275Y01385
X0246Y01425
X0241Y01445
X0249Y01465
X023354Y01548
X024854Y01548
X02385Y0171
X0247Y0171
X0243Y0182
X024354Y01848
X023854Y01848
X023354Y01848
X0249Y0185
X024854Y01898
X024354Y01898
X023854Y01898
X023354Y01898
X022854Y01898
X024854Y01948
X024354Y01948
X023854Y01948
X023354Y01948
X022854Y01948
X024854Y01998
X024354Y01998
X023854Y01998
X023354Y01998
X022854Y01998
X0248Y022
X02515Y022
X02395Y0232
X0242Y02335
X0245Y02335
X02275Y02385
X0246Y02425
X0241Y02445
X0249Y02465
X023354Y02548
X024854Y02548
X02385Y0271
X0247Y0271
X0243Y0282
X024354Y02848
X023854Y02848
X023354Y02848
X0249Y0285
X024354Y02898
X023854Y02898
X023354Y02898
X022854Y02898
X024854Y02898
X024354Y02948
X023854Y02948
X023354Y02948
X022854Y02948
X024854Y02948
X023854Y02998
X023354Y02998
X022854Y02998
X024854Y02998
X024354Y02998
X0248Y032
X02515Y032
X02395Y0332
X0242Y03335
X0245Y03335
X02275Y03385
X0246Y03425
X0241Y03445
X0249Y03465
X023354Y03548
X024854Y03548
X02385Y0371
X0247Y0371
X0243Y0382
X023354Y03848
X023854Y03848
X024354Y03848
X0249Y0385
X023354Y03898
X023854Y03898
X022854Y03898
X024354Y03898
X024854Y03898
X024354Y03948
X023354Y03948
X023854Y03948
X024854Y03948
X022854Y03948
X024354Y03998
X022854Y03998
X024854Y03998
X023354Y03998
X023854Y03998
X0248Y042
X02515Y042
X02395Y0432
X0245Y04335
X0242Y04335
X02275Y04385
X0246Y04425
X0241Y04445
X0249Y04465
X023354Y04548
X024854Y04548
X0247Y0471
X02385Y0471
X0243Y0482
X023354Y04848
X023854Y04848
X024354Y04848
X0249Y0485
X022854Y04898
X024354Y04898
X023854Y04898
X023354Y04898
X024854Y04898
X022854Y04948
X024354Y04948
X023854Y04948
X024854Y04948
X023354Y04948
X024354Y04998
X023854Y04998
X024854Y04998
X022854Y04998
X023354Y04998
X02515Y052
X0248Y052
X02395Y0532
X0242Y05335
X0245Y05335
X02275Y05385
X0246Y05425
X0241Y05445
X0249Y05465
X024854Y05548
X023354Y05548
X0247Y0571
X02385Y0571
X0243Y0582
X023354Y05848
X024354Y05848
X023854Y05848
X0249Y0585
X023354Y05898
X024354Y05898
X024854Y05898
X023854Y05898
X022854Y05898
X024354Y05948
X023854Y05948
X022854Y05948
X024854Y05948
X023354Y05948
X023354Y05998
X024854Y05998
X022854Y05998
X023854Y05998
X024354Y05998
X0248Y062
X02515Y062
X02395Y0632
X0245Y06335
X0242Y06335
X02275Y06385
X0246Y06425
X0241Y06445
X0249Y06465
X023354Y06548
X024854Y06548
X0247Y0671
X02385Y0671
X0243Y0682
X024354Y06848
X023354Y06848
X023854Y06848
X0249Y0685
X024854Y06898
X022854Y06898
X024354Y06898
X023354Y06898
X023854Y06898
X024854Y06948
X023354Y06948
X024354Y06948
X023854Y06948
X022854Y06948
X023354Y06998
X024354Y06998
X024854Y06998
X022854Y06998
X023854Y06998
X02515Y072
X0248Y072
X02395Y0732
X0245Y07335
X0242Y07335
X02275Y07385
X0246Y07425
X0241Y07445
X0249Y07465
X024854Y07548
X023354Y07548
X02385Y0771
X0247Y0771
X0243Y0782
X023354Y07848
X024354Y07848
X023854Y07848
X0249Y0785
X023354Y07898
X024854Y07898
X024354Y07898
X022854Y07898
X023854Y07898
X023354Y07948
X024354Y07948
X024854Y07948
X022854Y07948
X023854Y07948
X022854Y07998
X024854Y07998
X024354Y07998
X023854Y07998
X023354Y07998
X02515Y082
X0248Y082
X02395Y0832
X0242Y08335
X0245Y08335
X02275Y08385
X0246Y08425
X0241Y08445
X0249Y08465
X024854Y08548
X023354Y08548
X02385Y0871
X0247Y0871
X0243Y0882
X023354Y08848
X023854Y08848
X024354Y08848
X0249Y0885
X023354Y08898
X024854Y08898
X022854Y08898
X023854Y08898
X024354Y08898
X023354Y08948
X023854Y08948
X024354Y08948
X024854Y08948
X022854Y08948
X024854Y08998
X023854Y08998
X024354Y08998
X022854Y08998
X023354Y08998
X0248Y092
X02515Y092
X02395Y0932
X0245Y09335
X0242Y09335
X02275Y09385
X0246Y09425
X0241Y09445
X0249Y09465
X023354Y09548
X024854Y09548
X0247Y0971
X02385Y0971
X0243Y0982
X023854Y09848
X024354Y09848
X023354Y09848
X0249Y0985
X023354Y09898
X023854Y09898
X024854Y09898
X022854Y09898
X024354Y09898
X024854Y09948
X023854Y09948
X022854Y09948
X023354Y09948
X024354Y09948
X023854Y09998
X024354Y09998
X023354Y09998
X022854Y09998
X024854Y09998
X02515Y102
X0248Y102
X02395Y1032
X0242Y10335
X0245Y10335
X02275Y10385
X0246Y10425
X0241Y10445
X0249Y10465
X023354Y10548
X024854Y10548
X02385Y1071
X0247Y1071
X0243Y1082
X024354Y10848
X023354Y10848
X023854Y10848
X0249Y1085
X024854Y10898
X023354Y10898
X022854Y10898
X024354Y10898
X023854Y10898
X024854Y10948
X022854Y10948
X023854Y10948
X023354Y10948
X024354Y10948
X023354Y10998
X022854Y10998
X024354Y10998
X024854Y10998
X023854Y10998
X0248Y112
X02515Y112
X02395Y1132
X0245Y11335
X0242Y11335
X02275Y11385
X0246Y11425
X0241Y11445
X0249Y11465
X023354Y11548
X024854Y11548
X02385Y1171
X0247Y1171
X0243Y1182
X024354Y11848
X023354Y11848
X023854Y11848
X0249Y1185
X024354Y11898
X023854Y11898
X022854Y11898
X023354Y11898
X024854Y11898
X023354Y11948
X023854Y11948
X024354Y11948
X024854Y11948
X022854Y11948
X024354Y11998
X023854Y11998
X024854Y11998
X023354Y11998
X022854Y11998
X0248Y122
X02515Y122
X02395Y1232
X0242Y12335
X0245Y12335
X02275Y12385
X0246Y12425
X0241Y12445
X0249Y12465
X023354Y12548
X024854Y12548
X02385Y1271
X0247Y1271
X0243Y1282
X023354Y12848
X023854Y12848
X024354Y12848
X0249Y1285
X024354Y12898
X024854Y12898
X022854Y12898
X023354Y12898
X023854Y12898
X023854Y12948
X023354Y12948
X022854Y12948
X024854Y12948
X024354Y12948
X022854Y12998
X024354Y12998
X024854Y12998
X023854Y12998
X023354Y12998
X02743Y13117
X025354Y12998
X025854Y12998
X026854Y12998
X026354Y12998
X027354Y12998
X025354Y12948
X026854Y12948
X026354Y12948
X027354Y12948
X025854Y12948
X025354Y12898
X027354Y12898
X02675Y1287
X02645Y1287
X025804Y12868
X0269Y12835
X02555Y1283
X02725Y1281
X0255Y12795
X0272Y12775
X0255Y12765
X02685Y12725
X0265Y12695
X02625Y12695
X026854Y12648
X026854Y12598
X0273Y1259
X026354Y12548
X0254Y12485
X02745Y1247
X0255Y1218
X025354Y11998
X026854Y11998
X026354Y11998
X027354Y11998
X025854Y11998
X025354Y11948
X026854Y11948
X027354Y11948
X026354Y11948
X025854Y11948
X025354Y11898
X027354Y11898
X02675Y1187
X02645Y1187
X026146Y118687
X025804Y11868
X0269Y11835
X02555Y11825
X02725Y1181
X0255Y11795
X0272Y11775
X0255Y11765
X02685Y11725
X0265Y11695
X02625Y11695
X026854Y11648
X026854Y11598
X0273Y1159
X026354Y11548
X0254Y11485
X02745Y1147
X0255Y1118
X025354Y10998
X026354Y10998
X026854Y10998
X025854Y10998
X027354Y10998
X025354Y10948
X026354Y10948
X026854Y10948
X025854Y10948
X027354Y10948
X025354Y10898
X027354Y10898
X02675Y1087
X02645Y1087
X02615Y1087
X025804Y10868
X0269Y10835
X02555Y1083
X02725Y1081
X0255Y10795
X0272Y10775
X0255Y10765
X02685Y10725
X0265Y10695
X02625Y10695
X026854Y10648
X026854Y10598
X0273Y1059
X026354Y10548
X0254Y10485
X02745Y1047
X0255Y1018
X02635Y1004
X025354Y09998
X025854Y09998
X026854Y09998
X026354Y09998
X027354Y09998
X025354Y09948
X025854Y09948
X026854Y09948
X026354Y09948
X027354Y09948
X025354Y09898
X027354Y09898
X02675Y0987
X02645Y0987
X025804Y09868
X0269Y09835
X02555Y0983
X02725Y0981
X0255Y09795
X0272Y09775
X0255Y09765
X02685Y09725
X0265Y09695
X02625Y09695
X026854Y09648
X026854Y09598
X0273Y0959
X026354Y09548
X0254Y09485
X02745Y0947
X0255Y0918
X025354Y08998
X027354Y08998
X025854Y08998
X026854Y08998
X026354Y08998
X025354Y08948
X027354Y08948
X026354Y08948
X025854Y08948
X026854Y08948
X025354Y08898
X027354Y08898
X02675Y0887
X02645Y0887
X025804Y08868
X0269Y08835
X0255Y08825
X02725Y0881
X0255Y08795
X0272Y08775
X0255Y08765
X02685Y08725
X0265Y08695
X02625Y08695
X026854Y08648
X026854Y08598
X0273Y0859
X026354Y08548
X0254Y08485
X02745Y0847
X0255Y0818
X025354Y07998
X026854Y07998
X027354Y07998
X025854Y07998
X026354Y07998
X026854Y07948
X027354Y07948
X025854Y07948
X025354Y07948
X026354Y07948
X027354Y07898
X025354Y07898
X02675Y0787
X02645Y0787
X026146Y078687
X025804Y07868
X0269Y07835
X02555Y07825
X02725Y0781
X0255Y07795
X0272Y07775
X0255Y07765
X02685Y07725
X0265Y07695
X02625Y07695
X026854Y07648
X026854Y07598
X0273Y0759
X026354Y07548
X0254Y07485
X02745Y0747
X0255Y0718
X027354Y06998
X025854Y06998
X026854Y06998
X026354Y06998
X025354Y06998
X025854Y06948
X027354Y06948
X026854Y06948
X026354Y06948
X025354Y06948
X027354Y06898
X025354Y06898
X02645Y0687
X02675Y0687
X025804Y06868
X0269Y06835
X02555Y0683
X02725Y0681
X0255Y06795
X0272Y06775
X0255Y06765
X02685Y06725
X0265Y06695
X02625Y06695
X026854Y06648
X026854Y06598
X0273Y0659
X026354Y06548
X0254Y06485
X02745Y0647
X0255Y0618
X02635Y0604
X026354Y05998
X025354Y05998
X027354Y05998
X025854Y05998
X026854Y05998
X026854Y05948
X026354Y05948
X025854Y05948
X025354Y05948
X027354Y05948
X027354Y05898
X025354Y05898
X02645Y0587
X02675Y0587
X025804Y05868
X0269Y05835
X02555Y05825
X02725Y0581
X0255Y05795
X0272Y05775
X0255Y05765
X02685Y05725
X02625Y05695
X0265Y05695
X026854Y05648
X026854Y05598
X0273Y0559
X026354Y05548
X0254Y05485
X02745Y0547
X0255Y0518
X026854Y04998
X026354Y04998
X025854Y04998
X027354Y04998
X025354Y04998
X026854Y04948
X025854Y04948
X026354Y04948
X027354Y04948
X025354Y04948
X027354Y04898
X025354Y04898
X02675Y0487
X02645Y0487
X025804Y04868
X0269Y04835
X02555Y04825
X02725Y0481
X0255Y04795
X0272Y04775
X0255Y04765
X02685Y04725
X0265Y04695
X02625Y04695
X026854Y04648
X026854Y04598
X0273Y0459
X026354Y04548
X0254Y04485
X02745Y0447
X0255Y0418
X025854Y03998
X026354Y03998
X027354Y03998
X025354Y03998
X026854Y03998
X027354Y03948
X026354Y03948
X025854Y03948
X026854Y03948
X025354Y03948
X025354Y03898
X027354Y03898
X02645Y0387
X02675Y0387
X026146Y038687
X025804Y03868
X0269Y03835
X0258Y0383
X02725Y0381
X0255Y03795
X0272Y03775
X0255Y03765
X02685Y03725
X0265Y03695
X02625Y03695
X026854Y03648
X026854Y03598
X0273Y0359
X026354Y03548
X0254Y03485
X02745Y0347
X0255Y0318
X027354Y02998
X026854Y02998
X026354Y02998
X025354Y02998
X025854Y02998
X027354Y02948
X026354Y02948
X026854Y02948
X025854Y02948
X025354Y02948
X025354Y02898
X027354Y02898
X02675Y0287
X02645Y0287
X0261Y0287
X025804Y02868
X0269Y02835
X0255Y0283
X02725Y0281
X0255Y02795
X0272Y02775
X0255Y02765
X02685Y02725
X0265Y02695
X02625Y02695
X026854Y02648
X026854Y02598
X0273Y0259
X026354Y02548
X0254Y02485
X02745Y0247
X0255Y0218
X02635Y0204
X025854Y01998
X026854Y01998
X025354Y01998
X027354Y01998
X026354Y01998
X027354Y01948
X025854Y01948
X025354Y01948
X026854Y01948
X026354Y01948
X027354Y01898
X025354Y01898
X02675Y0187
X02645Y0187
X025804Y01868
X0269Y01835
X0256Y0183
X02725Y0181
X0255Y01795
X0272Y01775
X02547Y01768
X02685Y01725
X0265Y01695
X02625Y01695
X026854Y01648
X026854Y01598
X0273Y0159
X026354Y01548
X0254Y01485
X02745Y0147
X0255Y0118
X0279Y0118
X02845Y01225
X02775Y01375
X0286Y0143
X02775Y0147
X02815Y0147
X027854Y01548
X02925Y0155
X02865Y0159
X02949Y01631
X02865Y0167
X02775Y0167
X02998Y01703
X02893Y01712
X02968Y01712
X02785Y0172
X02786Y0182
X02894Y01848
X02971Y01848
X028854Y01898
X029354Y01898
X028354Y01898
X027854Y01898
X029854Y01898
X029354Y01948
X028854Y01948
X028354Y01948
X027854Y01948
X029854Y01948
X029354Y01998
X028854Y01998
X028354Y01998
X027854Y01998
X029854Y01998
X0286Y0204
X0279Y0218
X02845Y02225
X02775Y02375
X0286Y0243
X02815Y0247
X02775Y0247
X027854Y02548
X02925Y0255
X02865Y0259
X0301Y0264
X02865Y02655
X02775Y0267
X02938Y02677
X02893Y02712
X02785Y0272
X02786Y0282
X02894Y02848
X02971Y02848
X028354Y02898
X027854Y02898
X028854Y02898
X029354Y02898
X029854Y02898
X027854Y02948
X029354Y02948
X028854Y02948
X028354Y02948
X029854Y02948
X027854Y02998
X029354Y02998
X028854Y02998
X028354Y02998
X029854Y02998
X02965Y03035
X0279Y0318
X02845Y03225
X02775Y03375
X0286Y0343
X02815Y0347
X02775Y0347
X027854Y03548
X02925Y0355
X02865Y0359
X02775Y0367
X02865Y0367
X02937Y03678
X02998Y03703
X02893Y03712
X02785Y0372
X02786Y0382
X02971Y03848
X02894Y03848
X028354Y03898
X028854Y03898
X027854Y03898
X029354Y03898
X029854Y03898
X028854Y03948
X029354Y03948
X028354Y03948
X027854Y03948
X029854Y03948
X029354Y03998
X028854Y03998
X028354Y03998
X027854Y03998
X029854Y03998
X0298Y0404
X0279Y0418
X02845Y04225
X02775Y04375
X0286Y0443
X02815Y0447
X02775Y0447
X027854Y04548
X02925Y0455
X02865Y0459
X02865Y0467
X02775Y0467
X0294Y0468
X02998Y04703
X02893Y04712
X02968Y04712
X02785Y0472
X02786Y0482
X02971Y04848
X02894Y04848
X027854Y04898
X029854Y04898
X028854Y04898
X028354Y04898
X029354Y04898
X029354Y04948
X029854Y04948
X028854Y04948
X028354Y04948
X027854Y04948
X027854Y04998
X028854Y04998
X029854Y04998
X029354Y04998
X028354Y04998
X0279Y0518
X02845Y05225
X02775Y05375
X0286Y0543
X02815Y0547
X02775Y0547
X027854Y05548
X02925Y0555
X02865Y0559
X02865Y0567
X02775Y0567
X0294Y05676
X02998Y05703
X02893Y05712
X02968Y05712
X02785Y0572
X02786Y0582
X02894Y05848
X02971Y05848
X028854Y05898
X029854Y05898
X028354Y05898
X029354Y05898
X027854Y05898
X029354Y05948
X027854Y05948
X028854Y05948
X029854Y05948
X028354Y05948
X029354Y05998
X028854Y05998
X027854Y05998
X029854Y05998
X028354Y05998
X0286Y0604
X03014Y06041
X0279Y0618
X02845Y06225
X02775Y06375
X0286Y0643
X02815Y0647
X02775Y0647
X027854Y06548
X02925Y0655
X02865Y0659
X0301Y0664
X02865Y06645
X02775Y0667
X0294Y06675
X02998Y06703
X02893Y06712
X02785Y0672
X02786Y0682
X02971Y06848
X02894Y06848
X029854Y06898
X028354Y06898
X029354Y06898
X028854Y06898
X027854Y06898
X028854Y06948
X029354Y06948
X028354Y06948
X029854Y06948
X027854Y06948
X029854Y06998
X029354Y06998
X028854Y06998
X027854Y06998
X028354Y06998
X02986Y07044
X0279Y0718
X02845Y07225
X02775Y07375
X0286Y0743
X02815Y0747
X02775Y0747
X027854Y07548
X02925Y0755
X02865Y0759
X0301Y0764
X02865Y0767
X02775Y0767
X02998Y07703
X02968Y07712
X02893Y07712
X02785Y0772
X02786Y0782
X02894Y07848
X02971Y07848
X028354Y07898
X029354Y07898
X028854Y07898
X027854Y07898
X029854Y07898
X029854Y07948
X028354Y07948
X029354Y07948
X027854Y07948
X028854Y07948
X028354Y07998
X029354Y07998
X027854Y07998
X029854Y07998
X028854Y07998
X02986Y08044
X0279Y0818
X02845Y08225
X02775Y08375
X0286Y0843
X02775Y0847
X02815Y0847
X027854Y08548
X02925Y0855
X02865Y0859
X0301Y0864
X02775Y0867
X02865Y0867
X02935Y08675
X02998Y08703
X02893Y08712
X02968Y08712
X02785Y0872
X02786Y0882
X02894Y08848
X02971Y08848
X028354Y08898
X029854Y08898
X027854Y08898
X028854Y08898
X029354Y08898
X027854Y08948
X029854Y08948
X029354Y08948
X028854Y08948
X028354Y08948
X028354Y08998
X027854Y08998
X029854Y08998
X029354Y08998
X028854Y08998
X02986Y09044
X0279Y0918
X02845Y09225
X02775Y09375
X0286Y0943
X02775Y0947
X02815Y0947
X027854Y09548
X02925Y0955
X02865Y0959
X02865Y0967
X02775Y0967
X02998Y09703
X02893Y09712
X02968Y09712
X02785Y0972
X02786Y0982
X02971Y09848
X02894Y09848
X029854Y09898
X028854Y09898
X027854Y09898
X029354Y09898
X028354Y09898
X027854Y09948
X028354Y09948
X028854Y09948
X029354Y09948
X029854Y09948
X027854Y09998
X029354Y09998
X028354Y09998
X028854Y09998
X029854Y09998
X0286Y1004
X02986Y10044
X0279Y1018
X02845Y10225
X02775Y10375
X0286Y1043
X02775Y1047
X02815Y1047
X027854Y10548
X02925Y1055
X02865Y1059
X0301Y1064
X02863Y1066
X02775Y1067
X02998Y10703
X02968Y10712
X02893Y10712
X02785Y1072
X02786Y1082
X02894Y10848
X02971Y10848
X029854Y10898
X029354Y10898
X028854Y10898
X027854Y10898
X028354Y10898
X027854Y10948
X029854Y10948
X029354Y10948
X028354Y10948
X028854Y10948
X028854Y10998
X029354Y10998
X027854Y10998
X029854Y10998
X028354Y10998
X02986Y11044
X0279Y1118
X02845Y11225
X02775Y11375
X0286Y1143
X02815Y1147
X02775Y1147
X027854Y11548
X02925Y1155
X02865Y1159
X0301Y1164
X02865Y1167
X02775Y1167
X02998Y11703
X02968Y11712
X02893Y11712
X02785Y1172
X02786Y1182
X02971Y11848
X02894Y11848
X028354Y11898
X029354Y11898
X029854Y11898
X028854Y11898
X027854Y11898
X029354Y11948
X029854Y11948
X027854Y11948
X028354Y11948
X028854Y11948
X029354Y11998
X028354Y11998
X029854Y11998
X028854Y11998
X027854Y11998
X02986Y12044
X0279Y1218
X02845Y12225
X02775Y12375
X0286Y1243
X02815Y1247
X02775Y1247
X027854Y12548
X02925Y1255
X02865Y1259
X0301Y1264
X02775Y1267
X02865Y1267
X02998Y12703
X02893Y12712
X02968Y12712
X02785Y1272
X02786Y1282
X02894Y12848
X02971Y12848
X029354Y12898
X028854Y12898
X027854Y12898
X028354Y12898
X029854Y12898
X028354Y12948
X028854Y12948
X029354Y12948
X027854Y12948
X029854Y12948
X028854Y12998
X029354Y12998
X029854Y12998
X027854Y12998
X028354Y12998
X02805Y13096
X03184Y13121
X03095Y13121
X031651Y130186
X03235Y13015
X031849Y129988
X030854Y12998
X030354Y12998
X0318Y1295
X030854Y12948
X030354Y12948
X0327Y1293
X03155Y12925
X032544Y12905
X030354Y12898
X030854Y12898
X031984Y12849
X03121Y12811
X0315Y12805
X0323Y1276
X031404Y1273
X0309Y12715
X0318Y12685
X0314Y1266
X030854Y12648
X03125Y12625
X03228Y12623
X03255Y12615
X03085Y126
X03235Y12595
X03265Y12575
X030854Y12548
X0324Y1249
X03055Y1247
X0327Y12356
X03116Y123
X03252Y123
X03095Y1226
X03254Y12259
X0304Y12195
X0313Y1219
X031651Y120186
X03235Y12015
X031849Y119988
X030354Y11998
X030854Y11998
X0318Y1195
X030354Y11948
X030854Y11948
X0327Y1193
X03155Y11925
X032534Y11905
X030354Y11898
X030854Y11898
X031974Y11848
X03121Y11811
X0315Y11805
X0323Y1176
X031394Y1173
X0309Y11715
X0318Y11685
X0314Y1166
X030854Y11648
X03125Y11625
X03228Y11623
X03255Y11615
X03085Y116
X03235Y11595
X03265Y11575
X030854Y11548
X0324Y11488
X03055Y1147
X032704Y11356
X03115Y113
X03249Y113
X03095Y1126
X03254Y11259
X03251Y11219
X03118Y11199
X0304Y11195
X031651Y110186
X03235Y11015
X031849Y109988
X030854Y10998
X030354Y10998
X0318Y1095
X030354Y10948
X030854Y10948
X0327Y1093
X03155Y10925
X032534Y10904
X030354Y10898
X030854Y10898
X031984Y10849
X03121Y10811
X0315Y10805
X0323Y1076
X031394Y1073
X0309Y10715
X0318Y10685
X0314Y1066
X030854Y10648
X03125Y10625
X03228Y10623
X03255Y10615
X03085Y10601
X03235Y10595
X03265Y10575
X030854Y10548
X0324Y1049
X03055Y1047
X0327Y10356
X03114Y10302
X0325Y103
X03095Y1026
X03255Y10259
X03253Y10219
X0304Y10195
X03119Y10191
X031651Y100186
X03235Y10015
X031849Y099988
X030354Y09998
X030854Y09998
X0318Y0995
X030354Y09948
X030854Y09948
X0327Y0993
X03155Y09925
X032534Y09904
X030354Y09898
X030854Y09898
X031974Y09848
X03121Y09811
X0315Y09805
X0323Y0976
X031394Y0973
X0309Y09715
X0318Y09685
X0314Y0966
X030854Y09648
X03228Y09623
X0313Y0962
X03255Y09615
X03085Y096
X03208Y09595
X0313Y09587
X03265Y09575
X030854Y09548
X0324Y0949
X03055Y0947
X0327Y09356
X03249Y093
X03115Y09292
X03095Y0926
X03255Y09259
X03115Y09222
X03251Y0922
X0304Y09195
X031651Y090186
X03235Y09015
X031849Y089988
X030354Y08998
X030854Y08998
X0318Y0895
X030354Y08948
X030854Y08948
X0327Y0893
X03155Y08925
X032544Y08905
X030354Y08898
X030854Y08898
X031984Y08849
X03121Y08811
X0315Y08805
X0323Y0876
X031404Y0873
X0309Y08715
X0318Y08685
X0314Y0866
X03085Y0865
X03125Y08625
X03228Y08623
X03255Y08615
X03085Y08596
X03235Y08595
X03265Y08575
X030854Y08548
X0324Y0849
X03055Y0847
X0327Y08356
X03252Y083
X03111Y08299
X03095Y0826
X03256Y08259
X03253Y08219
X0304Y08195
X03127Y08187
X031651Y080186
X03235Y08015
X031849Y079988
X030354Y07998
X030854Y07998
X0318Y0795
X030354Y07948
X030854Y07948
X0327Y0793
X03155Y07925
X032534Y07905
X030354Y07898
X030854Y07898
X031974Y07848
X03121Y07811
X0315Y07805
X0323Y0776
X031394Y0773
X0309Y07715
X0318Y07685
X0314Y0766
X030854Y07648
X03125Y07625
X03228Y07623
X03255Y07615
X03085Y076
X03235Y07595
X03265Y07575
X030854Y07548
X032404Y0749
X03055Y0747
X032704Y07356
X03254Y07299
X03113Y07299
X03095Y0726
X03253Y07259
X0325Y07219
X0304Y07195
X03125Y07187
X031651Y070186
X03235Y07015
X031849Y069988
X030854Y06998
X030354Y06998
X0318Y0695
X030854Y06948
X030354Y06948
X0327Y0693
X03155Y06925
X032534Y06904
X030854Y06898
X030354Y06898
X031984Y06849
X03121Y06811
X0315Y06805
X0323Y0676
X031394Y0673
X0309Y06715
X0318Y06685
X030854Y06648
X03125Y06625
X03228Y06623
X03255Y06615
X03085Y066
X03235Y06595
X03265Y06575
X030854Y06548
X0324Y0649
X03053Y06471
X0327Y06356
X03117Y06302
X03252Y06299
X03095Y0626
X03254Y06259
X03115Y06218
X03253Y06217
X0304Y06195
X031651Y060186
X031849Y059988
X030354Y05998
X0318Y0595
X030854Y05948
X030354Y05948
X0327Y0593
X03155Y05925
X032534Y05904
X030354Y05898
X030854Y05898
X031974Y05848
X03121Y05811
X0315Y05805
X0323Y0576
X031394Y0573
X0309Y05715
X0318Y05685
X0314Y0566
X030854Y05648
X0304Y0563
X03228Y05623
X0313Y0562
X03255Y05615
X03085Y056
X03235Y05595
X0313Y05587
X03265Y05575
X030854Y05548
X0324Y0549
X03055Y0547
X0327Y05356
X03095Y0526
X03256Y05259
X0304Y05195
X031651Y050186
X03235Y05015
X031849Y049988
X030354Y04998
X030854Y04998
X0318Y0495
X030854Y04948
X030354Y04948
X0327Y0493
X03155Y04925
X032544Y04905
X030354Y04898
X030854Y04898
X03045Y04865
X031984Y04849
X03121Y04811
X0315Y04805
X0323Y0476
X031404Y0473
X0309Y04715
X0318Y04685
X0314Y0466
X030854Y04648
X03125Y04625
X03228Y04623
X03255Y04615
X03085Y046
X03235Y04595
X03265Y04575
X030854Y04548
X0324Y0449
X03055Y0447
X0327Y04356
X0326Y0426
X03095Y0426
X0304Y04195
X031651Y040186
X03235Y04015
X031849Y039988
X030354Y03998
X030854Y03998
X0318Y0395
X030854Y03948
X030354Y03948
X0327Y0393
X03155Y03925
X032534Y03905
X030354Y03898
X030854Y03898
X031974Y03848
X03121Y03811
X0315Y03805
X0323Y0376
X031394Y0373
X0309Y03715
X0318Y03685
X030854Y03648
X03125Y03625
X03085Y036
X03265Y03575
X030854Y03548
X032404Y0349
X03055Y0347
X032704Y03356
X03255Y0326
X03095Y0326
X0304Y03195
X031651Y030186
X03235Y03015
X031849Y029988
X030854Y02998
X030354Y02998
X0318Y0295
X030854Y02948
X030354Y02948
X03155Y02935
X0327Y0293
X032534Y02904
X030354Y02898
X030854Y02898
X031984Y02849
X03121Y02811
X0315Y02805
X0323Y0276
X031394Y0273
X0309Y02715
X0318Y02685
X0314Y0266
X03125Y02625
X03228Y02623
X03255Y02615
X03085Y026
X03235Y02595
X03265Y02575
X030854Y02548
X0324Y0249
X03055Y0247
X0327Y02356
X03255Y0226
X03095Y0226
X0304Y02195
X031651Y020186
X03235Y02015
X031849Y019988
X030854Y01998
X030354Y01998
X030854Y01948
X030354Y01948
X03175Y01945
X0327Y0193
X03155Y01925
X032534Y01904
X030854Y01898
X030354Y01898
X031974Y01848
X03121Y01811
X0315Y01805
X0323Y0176
X031394Y0173
X0309Y01715
X0318Y01685
X0313Y0162
X03085Y016
X0313Y01587
X030854Y01548
X0324Y0149
X03055Y0147
X0327Y01356
X03095Y0126
X0304Y01195
X0341Y0131
X0351Y01348
X03452Y01348
X03406Y0138
X03294Y01403
X03409Y01416
X03292Y0144
X03409Y01444
X03402Y01476
X0336Y01557
X032954Y01571
X0333Y0166
X035194Y01728
X0343Y0176
X0352Y01789
X0333Y0186
X034314Y0188
X03505Y0188
X034Y0192
X03443Y01934
X03285Y01955
X033114Y01965
X0338Y02045
X0331Y0208
X0341Y0231
X0351Y02348
X03406Y0238
X03371Y02398
X03294Y02403
X03409Y02416
X03492Y0242
X03292Y0244
X03409Y02444
X03402Y02476
X0336Y02557
X032964Y02573
X0338Y02585
X03418Y026286
X0333Y0266
X035126Y026699
X03475Y02685
X035184Y02728
X0343Y0276
X0352Y02789
X0333Y0286
X033774Y02936
X03335Y0295
X035Y02955
X03285Y02955
X033104Y02967
X0338Y03045
X0331Y0308
X0341Y0331
X03452Y03348
X034064Y0338
X032944Y03403
X034094Y03416
X032924Y0344
X034094Y03444
X034024Y03476
X0336Y03557
X032964Y03573
X03379Y03585
X034184Y03629
X0333Y0366
X035126Y036699
X03475Y03685
X035204Y03732
X0343Y0376
X0352Y03789
X0333Y0386
X034314Y0388
X03505Y0388
X033784Y03935
X03335Y0395
X03285Y03955
X035Y03955
X0338Y04045
X0331Y0408
X0341Y0431
X03406Y0438
X03371Y04398
X03294Y04403
X03409Y04416
X03492Y0442
X03292Y0444
X03409Y04444
X03402Y04476
X032954Y04575
X0338Y04585
X0333Y0466
X035126Y046699
X035194Y04729
X0343Y0476
X0352Y04789
X0333Y0486
X034314Y0488
X03505Y0488
X033784Y04933
X035Y04955
X03285Y04955
X033114Y04965
X0338Y05045
X033095Y050786
X0341Y0531
X03452Y05348
X0351Y05348
X03406Y0538
X03371Y05398
X03294Y05403
X03409Y05416
X03492Y0542
X03292Y0544
X03409Y05444
X03402Y05476
X0336Y05557
X032954Y05571
X0338Y05585
X0333Y0566
X035126Y056699
X035194Y05728
X0343Y0576
X0352Y05789
X0345Y0586
X0333Y0586
X03505Y0588
X034Y0592
X03443Y05934
X03335Y0595
X03285Y05955
X03275Y06015
X0338Y06045
X0334Y0605
X0341Y0631
X03452Y06348
X03406Y0638
X03294Y06403
X03409Y06416
X03492Y0642
X03292Y0644
X03409Y06444
X03402Y06476
X0336Y06557
X032964Y06573
X0338Y06585
X03418Y066286
X0333Y0666
X03475Y06685
X035184Y06728
X0343Y0676
X0352Y06789
X0333Y0686
X03505Y0688
X033774Y06936
X03335Y0695
X035Y06955
X03285Y06955
X033104Y06967
X0338Y07045
X0331Y0708
X0341Y0731
X03452Y07348
X0351Y07348
X034064Y0738
X033714Y07398
X032944Y07403
X034094Y07416
X034924Y0742
X032924Y0744
X034094Y07444
X034024Y07476
X03511Y075445
X0336Y07557
X032964Y07573
X0338Y07585
X034184Y07629
X0333Y0766
X03475Y07685
X035204Y07732
X0343Y0776
X0352Y07789
X0333Y0786
X034314Y0788
X03505Y0788
X033784Y07935
X03285Y07955
X035Y07955
X033114Y07965
X0338Y08045
X0331Y0808
X0341Y0831
X0351Y08348
X03406Y0838
X03371Y08398
X03294Y08403
X03409Y08416
X03492Y0842
X03292Y0844
X03409Y08444
X03402Y08476
X03511Y085445
X0336Y08557
X032954Y08575
X0338Y08585
X03419Y08629
X0333Y0866
X03475Y08685
X035194Y08729
X0343Y0876
X0352Y08789
X0333Y0886
X034314Y0888
X03505Y0888
X033784Y08933
X035Y08955
X03285Y08955
X033114Y08965
X0338Y09045
X0334Y0905
X0341Y0931
X03452Y09348
X0351Y09348
X03406Y0938
X03371Y09398
X03294Y09403
X03409Y09416
X03492Y0942
X03292Y0944
X03409Y09444
X034043Y09479
X03511Y095445
X0336Y09557
X032954Y09571
X0338Y09585
X03418Y09628
X0333Y0966
X035194Y09728
X0343Y0976
X0352Y09789
X0333Y0986
X03505Y0988
X034314Y0988
X03443Y09934
X033764Y09935
X03285Y09955
X033114Y09965
X0335Y10015
X0328Y10035
X0341Y1031
X03452Y10348
X0351Y10348
X03405Y10381
X03371Y10398
X03294Y10403
X03409Y10416
X03492Y1042
X03292Y1044
X03409Y10444
X03402Y10476
X0336Y10557
X032964Y10573
X0338Y10585
X03418Y106286
X0333Y1066
X03475Y10685
X035184Y10728
X0343Y1076
X0352Y10789
X0333Y1086
X03505Y1088
X034314Y1088
X033774Y10936
X03335Y1095
X03285Y10955
X035Y10955
X033104Y10967
X0335Y11015
X0328Y11035
X0341Y1131
X0351Y11348
X03452Y11348
X034064Y1138
X033714Y11398
X032944Y11403
X034094Y11416
X034924Y1142
X032924Y1144
X034094Y11444
X034024Y11476
X03511Y115445
X0336Y11557
X032964Y11573
X0338Y11585
X034184Y11629
X0333Y1166
X03475Y11685
X035204Y11732
X0343Y1176
X0352Y11789
X0333Y1186
X03505Y1188
X034314Y1188
X033784Y11935
X03285Y11955
X035Y11955
X033114Y11965
X0335Y12015
X0328Y1205
X0341Y1231
X0351Y12348
X03406Y1238
X03371Y12398
X03294Y12403
X03409Y12416
X03492Y1242
X03292Y1244
X03409Y12444
X03402Y12476
X0336Y12557
X032954Y12575
X0338Y12585
X03419Y12629
X0333Y1266
X03475Y12685
X035194Y12729
X0343Y1276
X0352Y12789
X0333Y1286
X034314Y1288
X03505Y1288
X033784Y12933
X035Y12955
X03285Y12955
X033114Y12965
X0338Y13045
X0334Y13049
X03565Y12945
X0374Y1285
X0359Y12845
X0374Y1282
X0355Y12805
X03635Y12805
X036Y12709
X036Y12681
X035994Y12653
X03665Y1247
X03565Y1247
X036005Y12469
X03532Y12393
X037383Y12349
X03753Y12324
X03556Y12316
X03565Y11945
X0374Y1185
X0359Y11845
X0374Y1182
X0355Y11805
X03635Y11805
X036Y11709
X036Y11681
X035766Y116343
X03665Y1147
X03565Y1147
X035985Y11467
X03532Y11393
X037363Y11351
X03758Y11331
X03556Y11316
X035654Y10945
X0374Y1085
X0359Y10845
X0374Y1082
X0355Y10805
X03635Y10805
X036Y10709
X036Y10681
X03585Y10634
X03665Y1047
X03565Y1047
X036015Y10467
X03532Y10393
X037373Y10349
X03752Y10325
X03556Y10316
X03565Y09945
X0374Y0985
X0359Y09845
X0374Y0982
X0355Y09805
X03635Y09805
X036Y09709
X036Y09681
X035766Y096343
X03691Y09475
X036055Y09467
X0357Y09465
X03532Y09393
X037363Y09348
X0377Y0931
X03569Y09309
X03565Y08945
X0374Y0885
X0359Y08845
X0374Y0882
X0355Y08805
X03635Y08805
X036Y08709
X036Y08681
X035994Y08653
X03665Y0847
X03565Y0847
X036015Y08469
X03532Y08393
X037393Y08349
X03753Y08324
X03556Y08316
X03565Y07945
X0374Y0785
X0359Y07845
X0374Y0782
X0355Y07805
X03635Y07805
X036Y07709
X036Y07681
X035766Y076343
X03665Y0747
X03565Y0747
X036005Y07469
X03532Y07393
X037383Y07351
X03758Y07331
X03556Y07316
X035654Y06945
X0374Y0685
X0359Y06845
X0374Y0682
X0355Y06805
X03635Y06805
X036Y06709
X036Y06681
X035766Y066343
X03665Y0647
X03565Y0647
X035995Y06467
X03532Y06393
X037413Y06351
X03752Y06325
X03556Y06316
X03565Y05945
X0374Y0585
X0359Y05845
X0374Y0582
X03635Y05805
X0355Y05805
X036Y05709
X036Y05681
X035766Y056343
X03691Y05475
X036005Y05468
X0357Y05465
X03532Y05393
X037423Y05349
X0377Y0531
X03569Y05309
X03565Y04945
X0374Y0485
X0359Y04845
X0374Y0482
X03635Y04805
X0355Y04805
X036Y04709
X036Y04681
X035994Y04653
X03665Y0447
X03565Y0447
X03595Y04465
X03532Y04393
X037413Y0435
X03753Y04324
X03556Y04316
X03565Y03945
X0374Y0385
X0359Y03845
X0374Y0382
X0355Y03805
X03635Y03805
X036Y03709
X036Y03681
X035766Y036343
X03565Y0347
X03665Y0347
X03595Y03465
X0353Y03393
X037373Y03352
X03758Y03331
X03556Y03316
X0374Y0285
X0359Y02845
X0374Y0282
X0355Y02805
X03635Y02805
X036Y02709
X036Y02681
X035766Y026343
X03665Y0247
X03565Y0247
X03532Y02393
X03707Y02329
X03709Y01895
X03709Y01867
X0359Y01845
X03635Y01805
X0355Y01805
X036Y01709
X036Y01681
X035766Y016343
X03691Y01475
X0357Y01465
X03759Y01361
X0374Y0133
X03707Y01329
X0377Y0131
X03569Y01309
X03977Y01239
X03825Y02305
X03879Y02404
X03824Y02419
X03796Y02425
X03795Y02454
X0388Y03404
X03852Y03411
X03824Y03419
X03796Y03425
X03795Y03454
X03824Y04311
X03879Y04404
X03824Y04419
X03796Y04425
X03795Y04454
X038197Y05331
X03879Y05404
X03824Y05419
X03796Y05425
X03795Y05454
X03824Y06311
X03852Y06411
X03824Y06419
X03796Y06425
X03795Y06454
X03824Y07311
X03852Y07411
X03824Y07419
X03796Y07425
X03795Y07454
X03824Y08311
X03852Y08411
X03824Y08419
X03796Y08425
X03795Y08454
X03824Y09311
X03852Y09411
X03824Y09419
X03796Y09425
X03795Y09454
X03824Y10311
X03852Y10411
X03824Y10419
X03796Y10425
X03795Y10454
X03824Y11311
X03852Y11411
X03824Y11419
X03796Y11425
X03795Y11454
X03824Y12311
X03852Y12411
X03824Y12419
X03796Y12425
X03795Y12454
X0395Y1304
X0455Y1305
X0448Y1297
X0455Y1296
X0415Y12947
X045Y1294
X0469Y1288
X0456Y1281
X0445Y1279
X045Y1266
X0455Y1266
X0465Y1266
X04045Y08533
X04045Y08505
X047718Y08343
X04752Y083232
X047485Y082337
X047485Y082057
X047266Y081352
X047464Y081154
X047236Y079998
X047434Y0798
X04074Y07533
X04074Y07505
X04153Y06534
X04153Y06506
X0409Y05526
X0409Y05498
X0453Y0226
X04955Y0326
X0493Y0426
X0501Y04656
X0499Y04676
X04966Y05148
X04946Y05168
X04981Y05503
X04961Y05523
X0496Y05867
X0494Y05887
X0495Y0691
X049808Y077976
X04961Y078174
X049669Y078617
X048933Y078705
X049471Y078815
X048735Y078903
X048593Y079374
X048395Y079572
X04905Y0805
X04845Y08075
X0485Y08105
X0485Y08295
X0484Y08325
X049Y08345
X04874Y08409
X04894Y08429
X04886Y08476
X0497Y08481
X04906Y08496
X0499Y08501
X04978Y08556
X04998Y08576
X0496Y117
X0489Y1174
X0489Y1184
X0489Y1194
X0489Y1204
X0489Y1214
X0489Y1224
X0489Y1234
X0496Y125
X0489Y1254
X0489Y1264
X0489Y1274
X0489Y1284
X048Y1286
X0489Y1294
X0489Y1304
X0489Y1314
X05075Y131
X05125Y131
X05175Y131
X05225Y131
X05225Y1305
X05175Y13
X05125Y13
X05125Y12925
X0515Y129
X05125Y12875
X0515Y1285
X05125Y12825
X0515Y128
X05125Y12775
X0505Y1265
X05075Y12625
X05125Y12625
X05175Y12625
X05225Y12625
X0526Y125
X0516Y125
X0506Y125
X0526Y117
X0516Y117
X0506Y117
X05172Y09952
X05152Y09932
X05146Y09466
X05126Y09446
X0518Y0857
X0525Y08545
X0511Y08545
X0525Y08465
X0511Y08465
X0518Y0844
X05255Y084
X05135Y084
X05255Y0836
X0511Y0834
X05255Y0832
X05255Y0828
X05255Y0824
X05165Y0823
X05255Y082
X05165Y082
X05168Y0816
X05168Y08124
X0511Y0806
X0514Y08005
X05114Y07159
X05114Y07131
X05113Y07087
X05113Y07059
X05163Y07025
X0504Y0699
X0509Y0699
X0504Y0694
X0509Y0694
X0521Y0671
X05204Y0662
X05577Y06535
X05582Y06564
X0556Y06661
X05472Y06693
X05289Y06697
X05496Y06708
X053071Y067209
X05352Y06835
X05457Y07012
X05437Y07032
X05394Y07043
X05374Y07063
X05454Y07508
X05438Y07534
X0549Y07535
X05464Y07547
X05438Y07571
X05399Y07576
X05551Y07686
X05561Y07715
X05425Y07735
X05671Y07838
X057078Y079231
X05341Y08482
X05313Y08482
X05707Y10047
X05676Y10299
X05315Y10382
X05287Y10382
X05513Y1062
X05541Y1062
X0536Y117
X0546Y117
X0576Y117
X0566Y117
X0556Y117
X0577Y12125
X0559Y12145
X0536Y125
X0546Y125
X0576Y125
X0566Y125
X0556Y125
X05375Y12625
X05275Y12625
X05425Y12625
X05325Y12625
X05475Y12625
X05625Y12625
X05575Y12625
X05675Y12625
X05525Y12625
X05475Y127
X05575Y1275
X0565Y1275
X05525Y1275
X05625Y12775
X0577Y1295
X0559Y1296
X05525Y13
X05575Y13
X05625Y13
X05475Y1305
X05325Y131
X05375Y131
X05425Y131
X05725Y131
X05525Y131
X05575Y131
X05675Y131
X05625Y131
X05475Y131
X05275Y131
X05875Y131
X05925Y131
X05825Y131
X05775Y131
X058Y1305
X0585Y1305
X06Y13025
X05825Y13
X05775Y13
X06Y12975
X0585Y1295
X058Y1295
X05818Y12926
X06Y12925
X05823Y12899
X06Y128
X05775Y12775
X0598Y1277
X0587Y1274
X06Y127
X0595Y127
X059Y127
X0585Y127
X058Y127
X05775Y1265
X05825Y1265
X05875Y1265
X05925Y1265
X05975Y1265
X0596Y125
X0586Y125
X05825Y12105
X05825Y12075
X05975Y11951
X0587Y11924
X0596Y117
X0586Y117
X06015Y1145
X06015Y1135
X05905Y1124
X05955Y1124
X05855Y1124
X06005Y1124
X0588Y11215
X0593Y11215
X0598Y11215
X0595Y1093
X059915Y101716
X059915Y101436
X060005Y099434
X060005Y099154
X060018Y09859
X060018Y09831
X06008Y09734
X06001Y09334
X05994Y09073
X0599Y09025
X06002Y08854
X05845Y07985
X05998Y06921
X05789Y02018
X0582Y02006
X05816Y01953
X05787Y01927
X0625Y02185
X0625Y0228
X06357Y02318
X06349Y02353
X0649Y02375
X06373Y02427
X0649Y0246
X06359Y02476
X06345Y02525
X063Y0257
X0651Y05975
X06071Y06032
X06094Y06353
X06133Y06359
X06217Y06853
X06217Y06884
X06415Y06965
X06415Y07095
X06155Y07299
X06217Y0744
X06337Y07454
X06337Y07504
X06381Y07517
X0636Y07545
X06226Y07577
X06027Y07621
X06078Y07704
X06296Y0784
X065Y08971
X06035Y09025
X060579Y101932
X060579Y102212
X061454Y102422
X061652Y10262
X06133Y103636
X061528Y103834
X061Y1077
X0628Y1077
X06285Y1093
X06115Y1117
X06205Y1117
X0622Y11215
X06195Y1124
X0622Y11265
X06195Y1129
X06105Y11305
X060505Y11307
X06185Y11375
X0622Y11375
X0615Y11375
X0622Y11405
X06185Y11405
X0615Y11405
X0612Y11455
X0619Y1148
X0622Y1148
X0622Y11515
X0619Y11515
X0613Y1152
X0606Y117
X0606Y125
X06489Y12536
X06508Y12667
X0614Y1274
X06474Y12765
X0614Y1284
X06284Y13043
X06312Y13043
X06425Y1311
X06195Y13115
X0623Y1312
X06827Y13187
X0679Y12977
X06569Y12864
X06755Y12864
X06916Y12864
X06821Y12864
X0701Y12864
X067Y12863
X06663Y12863
X06789Y12766
X06726Y12765
X06536Y12667
X066305Y12667
X066025Y12667
X068545Y12667
X068825Y12667
X069489Y12667
X069769Y12667
X06788Y12641
X0683Y1264
X06577Y12636
X06711Y12636
X06927Y12634
X06692Y12536
X06776Y12534
X06743Y12532
X06776Y11948
X06748Y11948
X06827Y11716
X06855Y11716
X06625Y11715
X06595Y11715
X06779Y11615
X06751Y11615
X06922Y11144
X07Y1112
X06961Y11039
X06929Y11034
X0697Y10925
X0701Y10855
X0697Y10825
X0699Y108
X070225Y108
X0695Y1077
X0698Y10732
X0698Y10704
X06912Y10198
X0694Y10198
X06858Y10125
X06886Y10125
X06755Y10125
X06727Y10125
X06684Y1
X06712Y1
X06801Y09998
X06829Y09998
X06535Y08994
X06561Y07575
X06581Y07555
X06801Y06127
X06821Y06107
X06636Y06033
X06656Y06013
X0654Y05975
X0699Y05533
X0701Y05513
X069Y0338
X069Y0326
X07Y032
X0698Y0315
X06885Y03124
X06804Y031
X0696Y0302
X069Y0298
X069Y0294
X06945Y02915
X0697Y029
X07014Y0287
X06925Y02825
X06825Y02825
X06775Y02775
X0701Y0273
X06875Y02695
X06775Y02675
X06775Y02575
X0663Y0253
X0653Y0251
X0686Y02495
X06775Y02475
X06775Y02375
X06775Y02275
X0663Y0227
X06885Y02265
X06775Y02175
X06925Y02125
X06825Y02125
X06976Y01961
X07Y013
X0721Y01505
X0707Y01505
X0707Y01575
X0721Y01575
X0721Y01755
X0707Y01755
X0721Y01825
X0707Y01825
X07217Y01915
X07045Y01922
X0725Y02125
X07025Y02125
X0712Y0233
X0715Y02335
X07135Y02425
X07235Y02425
X07271Y02475
X071Y025
X07235Y02527
X0711Y02815
X0707Y02818
X0725Y0282
X07025Y02825
X07249Y02905
X07068Y02937
X07081Y0296
X0726Y0296
X07046Y03019
X07084Y03167
X07098Y03251
X0721Y03255
X07245Y0328
X0719Y0328
X07111Y03295
X0706Y0332
X07189Y03347
X07085Y10133
X07057Y10133
X07166Y10133
X07138Y10133
X0715Y106
X07178Y106
X0713Y10645
X0709Y1065
X072Y1076
X07037Y10763
X07227Y108
X0723Y1088
X070475Y10908
X0704Y1094
X0707Y1097
X0718Y11155
X0713Y11225
X07212Y11338
X07197Y11362
X07251Y1137
X07238Y11434
X0713Y1144
X07266Y1145
X0712Y1147
X0708Y11542
X07094Y11573
X07225Y1162
X07227Y1167
X0715Y11762
X0727Y11825
X0705Y1222
X07042Y1229
X0706Y12338
X07108Y12342
X07057Y12394
X07036Y12431
X07025Y12536
X07276Y13189
X07281Y13013
X07362Y1273
X07337Y12458
X0749Y12432
X07338Y12419
X07337Y12379
X07337Y12338
X07335Y123
X07336Y1226
X0743Y1226
X07335Y12235
X0746Y12225
X0749Y1222
X07513Y12142
X07397Y12046
X0746Y1199
X0743Y1198
X074Y1198
X074Y11952
X0738Y1193
X0741Y1189
X0738Y1189
X073Y11835
X07408Y11835
X0737Y1176
X0739Y1174
X07467Y11717
X07415Y11717
X07338Y11647
X07293Y1159
X07338Y11583
X07312Y11504
X0749Y115
X0752Y115
X07401Y11491
X07428Y11477
X0745Y114
X075Y114
X0733Y1138
X0731Y1136
X0738Y1131
X07342Y11302
X07365Y1126
X07405Y11255
X0749Y11245
X0749Y11175
X0735Y1116
X0739Y1116
X0743Y1114
X0741Y1112
X0731Y1088
X07368Y10843
X07368Y10815
X07315Y1079
X0728Y0335
X0738Y0317
X0738Y0313
X0738Y0309
X0738Y0305
X07296Y03034
X07385Y03015
X0738Y0298
X07295Y0297
X0738Y02945
X0742Y02885
X0732Y02885
X0729Y0287
X073Y02825
X074Y02825
X0745Y02775
X0745Y02675
X0745Y02575
X07305Y02525
X0745Y02475
X07306Y02427
X0745Y02375
X0745Y02275
X0745Y02175
X0735Y02125
X07308Y01369
X0735Y013
X07985Y0331
X08005Y0399
X0802Y04991
X07894Y05847
X07866Y05847
X07676Y05905
X07648Y05905
X07818Y05966
X0779Y05966
X0802Y05991
X07894Y06123
X07973Y06139
X07914Y06143
X07993Y06159
X07912Y06285
X07919Y06408
X07922Y06546
X07973Y06629
X07774Y06673
X07783Y0681
X07845Y06951
X07664Y07026
X07636Y07026
X07832Y07071
X07863Y07073
X08005Y07359
X07953Y07571
X07931Y07951
X07703Y08054
X07695Y0835
X07725Y0835
X07588Y08353
X07578Y0844
X07675Y08465
X07721Y08728
X07747Y08755
X07642Y09897
X07622Y09917
X07625Y09963
X07605Y09983
X07669Y1098
X07672Y11026
X076Y11155
X0778Y1119
X0783Y1119
X0788Y1119
X0793Y1119
X0798Y1119
X076Y11205
X0778Y1124
X0783Y1124
X0793Y1124
X0788Y1124
X0798Y1124
X076Y11255
X076Y11305
X0757Y11341
X0796Y11345
X0789Y1135
X07609Y11399
X07631Y11418
X07617Y11443
X0796Y11455
X07646Y11471
X0757Y11489
X0787Y115
X0779Y115
X08Y115
X0791Y115
X0783Y115
X07645Y11504
X0766Y11585
X07545Y1159
X07671Y11622
X07576Y11659
X07665Y117
X0766Y1174
X07645Y11765
X0769Y11785
X07645Y11795
X0757Y1183
X076Y1183
X0756Y1187
X0753Y1189
X08Y12045
X07625Y1246
X08Y12845
X07694Y13032
X07728Y13039
X07798Y1305
X07795Y13083
X07752Y13117
X07794Y1312
X08248Y13073
X08198Y13073
X08248Y13023
X08198Y13023
X08248Y12973
X08198Y12973
X08248Y12923
X08198Y12923
X08198Y12773
X08248Y12773
X0803Y1275
X08198Y12723
X08248Y12723
X0803Y1272
X08198Y12673
X08248Y12673
X08248Y12623
X08198Y12623
X08248Y12273
X08198Y12273
X08248Y12223
X08198Y12223
X08198Y12173
X08248Y12173
X08248Y12123
X08198Y12123
X08248Y11973
X08198Y11973
X0803Y1195
X08248Y11923
X08198Y11923
X0803Y1192
X08248Y11873
X08198Y11873
X08248Y11823
X08198Y11823
X081Y115
X0805Y115
X0827Y1145
X0814Y1145
X0811Y11445
X0804Y11375
X0813Y1137
X08035Y11345
X0803Y1129
X0808Y1129
X0813Y1129
X0803Y1124
X0813Y1124
X0808Y1124
X0808Y1119
X0813Y1119
X0803Y1119
X0826Y1111
X0821Y1106
X0826Y1106
X0821Y1101
X0826Y1101
X0821Y1096
X0826Y1096
X0821Y1091
X08103Y10673
X08165Y10195
X08165Y10167
X08131Y10134
X08131Y10106
X0812Y10016
X0812Y09988
X08058Y09914
X08058Y09886
X082Y09532
X0822Y09512
X08155Y06265
X082922Y063269
X08276Y06467
X08439Y06535
X08449Y06564
X0851Y06715
X08298Y07535
X08504Y07542
X08322Y07554
X08346Y07578
X0844Y07589
X08366Y07601
X08414Y09004
X08394Y09024
X08319Y09252
X08299Y09272
X08353Y10481
X0831Y1101
X0851Y1103
X0836Y1106
X0831Y1106
X0841Y1111
X0836Y1111
X0831Y1111
X0841Y11155
X08455Y11155
X0844Y1145
X08398Y11823
X08448Y11823
X08298Y11823
X08348Y11823
X08498Y11823
X08298Y11873
X08448Y11873
X08348Y11873
X08398Y11873
X08348Y11923
X08398Y11923
X08298Y11923
X08448Y11923
X08298Y11973
X08423Y12123
X08398Y12148
X08423Y12173
X08398Y12198
X08423Y12223
X08398Y12248
X08423Y12273
X08498Y12273
X08348Y12623
X08398Y12623
X08448Y12623
X08498Y12623
X08298Y12623
X08398Y12673
X08348Y12673
X08298Y12673
X08448Y12673
X08398Y12723
X08348Y12723
X08448Y12723
X08298Y12723
X08298Y12773
X08423Y12923
X08398Y12948
X08423Y12973
X08398Y12998
X08423Y13023
X08398Y13048
X08423Y13073
X08498Y13073
X08548Y13073
X08598Y13073
X08748Y13073
X08698Y13073
X08648Y13073
X08548Y12623
X08698Y12623
X08748Y12623
X08598Y12623
X08648Y12623
X08548Y12273
X08748Y12273
X08698Y12273
X08648Y12273
X08598Y12273
X08548Y11823
X08598Y11823
X08648Y11823
X08698Y11823
X08748Y11823
X08525Y11695
X08725Y11695
X08675Y11695
X08625Y11695
X08575Y11695
X0855Y11665
X08725Y11645
X08675Y11645
X08625Y11645
X08545Y11535
X08586Y08857
X08606Y08837
X08666Y08396
X08694Y08396
X08745Y082
X08745Y0816
X08745Y0812
X08745Y0808
X08745Y0804
X08745Y08
X0875Y07935
X0861Y07565
X08528Y07557
X08711Y07553
X08695Y07527
X08648Y07415
X08626Y07394
X08543Y07238
X08563Y07218
X08606Y07207
X08626Y07187
X08546Y06742
X08562Y06716
X08536Y06703
X08562Y06679
X08601Y06674
X08575Y06515
X08769Y02783
X08749Y02763
X0901Y0212
X08927Y0365
X08947Y0367
X09013Y04535
X09009Y05569
X08886Y07091
X08886Y07119
X08887Y07163
X08887Y07191
X0891Y0726
X0896Y0726
X0902Y07285
X0896Y0731
X0891Y0731
X0879Y0754
X08796Y0763
X09022Y07844
X08788Y07851
X0889Y07855
X0901Y07899
X0889Y07935
X0882Y0796
X08865Y08
X0889Y0806
X08835Y0817
X08835Y082
X08854Y08224
X08832Y08276
X0889Y0842
X090192Y086024
X08825Y11615
X08825Y11645
X08875Y11645
X08775Y11645
X08825Y11695
X08775Y11695
X08875Y11695
X08898Y11823
X08848Y11823
X08798Y11823
X08948Y11823
X08873Y12023
X08923Y12023
X08973Y12023
X08873Y12073
X08923Y12073
X08973Y12073
X08898Y12273
X08848Y12273
X08798Y12273
X08948Y12273
X08798Y12623
X08848Y12623
X08948Y12623
X08898Y12623
X08873Y12823
X08923Y12823
X08973Y12823
X08873Y12873
X08973Y12873
X08923Y12873
X08848Y13073
X08798Y13073
X08948Y13073
X08898Y13073
X09198Y13056
X0913Y13039
X09167Y13004
X0927Y12982
X09162Y12962
X09257Y12952
X09272Y12918
X09039Y085826
X090331Y085383
X091067Y085295
X090529Y085185
X091265Y085097
X091407Y084626
X091605Y084428
X09329Y08366
X09329Y08338
X09155Y08325
X0915Y08295
X09344Y08265
X09344Y08237
X09292Y08194
X09292Y08166
X0915Y08105
X09248Y080768
X0916Y08075
X092282Y08057
X091Y08055
X09126Y07991
X09106Y07971
X09114Y07924
X0903Y07919
X09094Y07904
X09029Y05589
X09033Y04555
X1026Y014
X1026Y0143
X10205Y01796
X10204Y01825
X10176Y01831
X10148Y01839
X102464Y01899
X102394Y01927
X10176Y01939
X1026Y024
X1026Y0243
X10205Y02796
X10204Y02825
X10176Y02831
X10148Y02839
X10176Y02939
X1026Y034
X1026Y0343
X10205Y03796
X10204Y03825
X10176Y03831
X10148Y03839
X102644Y03901
X10248Y03925
X10176Y03939
X1026Y044
X1026Y0443
X10205Y04796
X10204Y04825
X10176Y04831
X10148Y04839
X102534Y04899
X102344Y0492
X10176Y04939
X1026Y054
X1026Y0543
X09968Y05716
X09968Y05744
X10205Y05796
X10204Y05825
X10176Y05831
X10148Y05839
X102644Y05905
X102374Y05928
X10176Y05939
X1026Y064
X1026Y0643
X09861Y06719
X09861Y06747
X10205Y06796
X10204Y06825
X10176Y06831
X10148Y06839
X102644Y06899
X10242Y06919
X10176Y06939
X1026Y074
X1026Y0743
X09863Y0772
X09863Y07748
X10205Y07796
X10204Y07825
X10176Y07831
X10148Y07839
X102604Y07899
X10248Y07925
X10176Y07939
X1026Y084
X1026Y0843
X09869Y08723
X09869Y08751
X10205Y08796
X10204Y08825
X10176Y08831
X10148Y08839
X102554Y08901
X102334Y08922
X10176Y08939
X1026Y094
X1026Y0943
X10205Y09796
X10204Y09825
X10176Y09831
X10148Y09839
X102524Y09901
X102374Y09927
X10176Y09939
X1026Y104
X1026Y1043
X102635Y10541
X102635Y10569
X10205Y10796
X10204Y10825
X10176Y10831
X10148Y10839
X102634Y109
X10242Y10919
X10176Y10939
X10205Y11796
X10204Y11825
X10176Y11831
X10148Y11839
X10248Y11925
X10176Y11939
X1026Y124
X1026Y1243
X10205Y12796
X10204Y12825
X10176Y12831
X10148Y12839
X102624Y129
X102444Y12925
X10176Y12939
X10431Y12941
X1049Y12902
X10466Y12857
X10508Y1283
X1043Y12785
X104234Y126157
X104874Y125801
X104Y12569
X104Y12541
X104806Y12522
X1048Y12461
X1045Y12445
X10365Y12445
X1041Y12405
X10495Y1237
X104676Y12304
X10444Y11934
X1049Y11902
X10467Y11856
X10508Y1183
X104034Y11782
X10335Y1178
X10435Y1178
X104234Y116157
X10378Y11569
X10378Y11541
X104816Y11522
X1048Y11461
X1045Y11445
X10365Y11445
X1041Y11405
X10312Y11383
X10495Y1137
X10312Y11355
X104346Y11305
X105Y11295
X10444Y10934
X1049Y10902
X10466Y10857
X105076Y1083
X104024Y10784
X10335Y1078
X10435Y1078
X104234Y106157
X104796Y10518
X1048Y10461
X1045Y10445
X10365Y10445
X1041Y10405
X10495Y1037
X10435Y10305
X105Y10295
X10444Y09934
X1049Y09902
X10466Y09858
X10508Y0983
X104034Y09782
X10435Y0978
X10335Y0978
X104006Y09597
X104Y09569
X104Y09541
X104806Y09521
X1048Y09461
X1045Y09445
X10365Y09445
X1041Y09405
X10495Y0937
X10435Y09305
X105Y09295
X10431Y08941
X1049Y08902
X10466Y08856
X10508Y0883
X1043Y08785
X103994Y08785
X10335Y0878
X104234Y086157
X104Y08569
X104Y08541
X104806Y08522
X1048Y08461
X1045Y08445
X10365Y08445
X1041Y08405
X10495Y0837
X104676Y08304
X105Y08295
X10444Y07934
X10467Y07857
X10508Y0783
X104024Y07783
X10335Y0778
X10435Y0778
X104234Y076157
X104Y07569
X104Y07541
X104816Y07522
X1048Y07461
X1045Y07445
X10365Y07445
X105246Y07416
X1041Y07405
X10495Y0737
X104346Y07305
X105Y07295
X10444Y06934
X1049Y06902
X10467Y06858
X105076Y0683
X104034Y06785
X10435Y0678
X10335Y0678
X104234Y066157
X104Y06569
X104Y06541
X104796Y06518
X1048Y06461
X1045Y06445
X10365Y06445
X1041Y06405
X10495Y0637
X10435Y06305
X105Y06295
X10444Y05934
X1049Y05902
X10469Y05857
X10508Y0583
X104034Y05783
X10435Y0578
X10335Y0578
X104006Y05597
X104Y05569
X104Y05541
X104806Y05521
X1048Y05461
X10365Y05445
X1045Y05445
X1041Y05405
X10495Y0537
X10435Y05305
X105Y05295
X10431Y04941
X1049Y04902
X10466Y04856
X10508Y0483
X1043Y04785
X10335Y0478
X104234Y046157
X104Y04569
X104Y04541
X104806Y04522
X1048Y04461
X10365Y04445
X1045Y04445
X1041Y04405
X10495Y0437
X104676Y04304
X105Y04295
X10444Y03934
X1049Y03902
X10465Y03857
X10508Y0383
X104044Y03783
X10435Y0378
X10335Y0378
X104234Y036157
X104874Y035801
X104Y03569
X104Y03541
X104816Y03522
X1048Y03461
X10365Y03445
X1045Y03445
X1041Y03405
X10495Y0337
X104346Y03305
X105Y03295
X10444Y02934
X1049Y02902
X10465Y02857
X105076Y0283
X104024Y02783
X10435Y0278
X10309Y02775
X104234Y026157
X104874Y025801
X104Y02569
X104Y02541
X104796Y02518
X1048Y02461
X1045Y02445
X10365Y02445
X1041Y02405
X10495Y0237
X10435Y02305
X10444Y01934
X1049Y01902
X10467Y01859
X10508Y0183
X104024Y01782
X10435Y0178
X10335Y0178
X104006Y01597
X104Y01569
X104Y01541
X104806Y01521
X1048Y01461
X10365Y01445
X1045Y01445
X1041Y01405
X10495Y0137
X10435Y01305
X105Y01295
X1066Y012
X1062Y01205
X10765Y01235
X106886Y01285
X10715Y01295
X106216Y01317
X1073Y0132
X107456Y01345
X105686Y0137
X1067Y0139
X1077Y0149
X1057Y0149
X10525Y01565
X1067Y0159
X105816Y01622
X10772Y01627
X10745Y01635
X10765Y01655
X1062Y01665
X10735Y01675
X107046Y01675
X1064Y01693
X1067Y017
X1076Y0176
X10598Y01774
X10591Y01806
X10708Y0181
X10591Y01834
X10706Y01847
X10629Y01852
X10594Y0187
X1073Y01894
X1059Y0194
X1075Y0195
X10745Y01991
X10748Y02031
X1059Y02235
X10765Y02235
X106886Y02285
X10715Y02295
X106216Y02315
X10557Y02316
X1073Y0232
X107466Y02345
X105686Y0237
X1067Y0239
X1057Y0249
X1077Y0249
X10525Y02565
X1067Y0259
X10772Y02627
X10745Y02635
X1062Y02665
X10735Y02675
X107036Y02677
X1064Y02693
X1067Y027
X107596Y0276
X105976Y02774
X105906Y02806
X107076Y0281
X105906Y02834
X107056Y02847
X106286Y02852
X105936Y0287
X107296Y02894
X10548Y02902
X1059Y0294
X10747Y02951
X10745Y0299
X10745Y0303
X1062Y03205
X1072Y03205
X10765Y03235
X106896Y03283
X10715Y03295
X10665Y033
X106226Y03314
X1073Y0332
X107466Y03346
X105686Y0337
X1067Y0339
X1077Y0349
X1057Y0349
X1067Y0359
X10772Y03627
X10745Y03635
X10765Y03655
X1062Y03665
X10735Y03675
X107036Y03677
X1064Y03693
X1067Y037
X1076Y0376
X10598Y03774
X10591Y03806
X10708Y0381
X10591Y03834
X10706Y03847
X10629Y03852
X10594Y0387
X1073Y03894
X10548Y03902
X1059Y0394
X1075Y0395
X10745Y0399
X1075Y0403
X1062Y04205
X1072Y04205
X10765Y04235
X106886Y04285
X10715Y04295
X106236Y04315
X1073Y0432
X107466Y04346
X105686Y0437
X1067Y0439
X1077Y0449
X1057Y0449
X1067Y0459
X10772Y04627
X10745Y04635
X10765Y04655
X1062Y04665
X10735Y04675
X107046Y04679
X1064Y04693
X1067Y047
X1076Y0476
X10598Y04774
X10591Y04806
X10708Y0481
X10591Y04834
X10706Y04847
X10629Y04852
X10594Y0487
X1073Y04894
X10548Y04902
X1059Y0494
X10749Y04951
X10746Y04991
X10749Y05031
X1072Y0521
X1059Y05235
X10765Y05235
X106886Y05285
X10715Y05295
X106216Y05317
X1073Y0532
X107456Y05345
X105686Y0537
X1067Y0539
X1057Y0549
X1077Y0549
X10525Y05565
X1067Y0559
X10581Y05621
X10772Y05627
X10745Y05635
X1062Y05665
X107046Y05675
X10735Y05675
X1064Y05693
X1067Y057
X1076Y0576
X10598Y05774
X10591Y05806
X10708Y0581
X10591Y05834
X10706Y05847
X10629Y05852
X10594Y0587
X1073Y05894
X1059Y0594
X10748Y05951
X10744Y05991
X10748Y06031
X1072Y06225
X10765Y06235
X10589Y06235
X106886Y06285
X10715Y06295
X106216Y06315
X1073Y0632
X107466Y06345
X105686Y0637
X1067Y0639
X1077Y0649
X1057Y0649
X10525Y06565
X1067Y0659
X105816Y06621
X10772Y06627
X10745Y06635
X1062Y06665
X10735Y06675
X107036Y06677
X1064Y06693
X1067Y067
X107596Y0676
X105976Y06774
X105906Y06806
X107076Y0681
X105906Y06834
X107056Y06847
X106286Y06852
X105936Y0687
X107296Y06894
X10548Y06902
X10749Y0695
X10578Y06952
X10744Y06991
X1075Y07025
X1069Y0717
X10589Y07233
X10765Y07235
X106896Y07283
X10715Y07295
X10665Y073
X106226Y07314
X1073Y0732
X107466Y07346
X105686Y0737
X1067Y0739
X1057Y0749
X1077Y0749
X10525Y07565
X1067Y0759
X10582Y076214
X10772Y07627
X10745Y07635
X1062Y07665
X10735Y07675
X107036Y07677
X1064Y07693
X1067Y077
X1076Y0776
X10598Y07774
X10591Y07806
X10708Y0781
X10591Y07834
X10706Y07847
X10629Y07852
X10594Y0787
X1073Y07894
X10548Y07902
X1059Y0794
X10748Y0795
X10745Y07991
X10747Y08031
X1072Y08199
X1062Y08205
X10765Y08235
X106886Y08285
X10715Y08295
X10627Y08312
X1073Y0832
X10603Y08327
X107466Y08346
X105686Y0837
X1067Y0839
X1077Y0849
X1057Y0849
X1067Y0859
X10772Y08627
X10745Y08635
X1062Y08665
X10735Y08675
X107046Y08679
X1064Y08693
X1067Y087
X1076Y0876
X10598Y08774
X10591Y08806
X10708Y0881
X10591Y08834
X10706Y08847
X10629Y08852
X10594Y0887
X1073Y08894
X10548Y08902
X1059Y0894
X10748Y08952
X10747Y08991
X10749Y09031
X106905Y091714
X1062Y09205
X10765Y09235
X106886Y09285
X10715Y09295
X106216Y09317
X1073Y0932
X107456Y09345
X105686Y0937
X1067Y0939
X1077Y0949
X1057Y0949
X10525Y09565
X1067Y0959
X105816Y09622
X10772Y09627
X10745Y09635
X1062Y09665
X10735Y09675
X107046Y09675
X1064Y09693
X1076Y0976
X10598Y09774
X10591Y09806
X10708Y0981
X10591Y09834
X10706Y09847
X10629Y09852
X10594Y0987
X1073Y09894
X1059Y0994
X10749Y0995
X10742Y09991
X1075Y10032
X10721Y10139
X1062Y10205
X10765Y10235
X106886Y10285
X10715Y10295
X106216Y10315
X1073Y1032
X107466Y10345
X105686Y1037
X1067Y1039
X1077Y1049
X1057Y1049
X10525Y10565
X1067Y1059
X105816Y10621
X10772Y10627
X10745Y10635
X1062Y10665
X10735Y10675
X107036Y10677
X1064Y10693
X107596Y1076
X105976Y10774
X105906Y10806
X107076Y1081
X105906Y10834
X107056Y10847
X106286Y10852
X105936Y1087
X1073Y10897
X10548Y10902
X1059Y1094
X10735Y1099
X1062Y11205
X1072Y1122
X10765Y11235
X106896Y11283
X10715Y11295
X10665Y113
X106226Y11314
X1073Y1132
X107466Y11346
X105686Y1137
X1067Y1139
X1057Y1149
X1077Y1149
X10525Y11565
X1067Y1159
X10582Y116214
X10772Y11627
X10745Y11635
X1062Y11665
X10735Y11675
X107036Y11677
X1064Y11693
X1076Y1176
X10598Y11774
X10591Y11806
X10708Y1181
X10591Y11834
X10706Y11847
X106287Y118517
X10594Y1187
X1073Y11893
X10548Y11902
X1059Y1194
X10745Y11991
X10751Y12031
X1069Y1217
X1059Y12235
X10725Y12275
X10685Y12285
X1071Y123
X106236Y12315
X10557Y12316
X1073Y1232
X107466Y12346
X105686Y1237
X1067Y1239
X1057Y1249
X1077Y1249
X1067Y1259
X10772Y12627
X10745Y12635
X10765Y12655
X1062Y12665
X10735Y12675
X107046Y12679
X1064Y12693
X1076Y1276
X10598Y12774
X10591Y12806
X10708Y1281
X10591Y12834
X10706Y12847
X10629Y12852
X10594Y1287
X1073Y12894
X10548Y12902
X1059Y1294
X10751Y12948
X1073Y12991
X1075Y13031
X1096Y13055
X10883Y13031
X10905Y1299
X10882Y12949
X10945Y1278
X109146Y12702
X1087Y12663
X10915Y1265
X1087Y1263
X109146Y12602
X1086Y1259
X1082Y12565
X11002Y12547
X1091Y12535
X108606Y1252
X1085Y12445
X10879Y12439
X108026Y12402
X109646Y12352
X109146Y12352
X110146Y12352
X10845Y12325
X109646Y12302
X109146Y12302
X110146Y12302
X1082Y123
X109146Y12252
X109646Y12252
X110146Y12252
X108151Y122512
X108349Y122314
X1097Y1221
X1096Y12055
X10884Y12031
X10905Y1199
X10885Y11951
X10945Y1178
X109146Y11702
X10792Y11655
X10915Y1165
X10875Y11625
X1099Y1161
X109146Y11602
X1086Y1159
X1082Y11565
X11002Y11547
X1091Y11535
X108606Y1152
X1085Y11445
X10879Y11439
X108016Y11401
X109646Y11352
X109146Y11352
X11017Y11352
X10845Y11325
X11016Y11304
X109646Y11302
X109146Y11302
X1082Y113
X109146Y11252
X109646Y11252
X11016Y11252
X108151Y112512
X108349Y112314
X11014Y11206
X1096Y11055
X10885Y11031
X10905Y1099
X10882Y10951
X10945Y1078
X109146Y10702
X10792Y10655
X10915Y1065
X10875Y10625
X1099Y1061
X109146Y10602
X1086Y1059
X1082Y10565
X11002Y10547
X1091Y10535
X108606Y1052
X1085Y10445
X10879Y10439
X108026Y10402
X109646Y10352
X109146Y10352
X110146Y10352
X10845Y10325
X109646Y10302
X109146Y10302
X110146Y10302
X1082Y103
X109146Y10252
X109646Y10252
X110146Y10252
X108151Y102512
X108349Y102314
X11014Y10206
X1096Y10055
X10884Y10031
X10905Y0999
X10884Y0995
X10945Y0978
X109146Y09702
X10792Y09655
X10915Y0965
X10875Y09625
X10988Y09609
X109146Y09602
X1086Y0959
X1082Y09565
X11002Y09547
X1091Y09535
X108596Y0952
X1085Y09445
X10879Y09439
X108016Y09401
X109146Y09352
X109646Y09352
X110146Y09352
X10845Y09325
X110146Y09302
X109646Y09302
X109146Y09302
X1082Y093
X109146Y09252
X109646Y09252
X110146Y09252
X108151Y092512
X108349Y092314
X11014Y09206
X1096Y09055
X10905Y0899
X10945Y0878
X109146Y08702
X1087Y08663
X10915Y0865
X1087Y0863
X109146Y08602
X1086Y0859
X1082Y08565
X11002Y08547
X1091Y08535
X108606Y0852
X1085Y08445
X10879Y08439
X108026Y08402
X110146Y08352
X109646Y08352
X109146Y08352
X10845Y08325
X109146Y08302
X110146Y08302
X109646Y08302
X1082Y083
X108151Y082512
X10915Y08251
X11015Y08251
X10965Y08251
X108349Y082314
X11014Y08206
X1096Y08055
X10886Y0803
X10905Y0799
X10885Y07949
X10945Y0778
X109146Y07702
X10792Y07655
X10915Y0765
X10875Y07625
X1099Y0761
X109146Y07602
X1086Y0759
X1082Y07565
X11002Y07547
X1091Y07535
X108606Y0752
X1085Y07445
X10879Y07439
X108016Y07401
X109646Y07352
X110146Y07352
X109146Y07352
X10845Y07325
X110146Y07302
X109646Y07302
X109146Y07302
X1082Y073
X109646Y07252
X109146Y07252
X110146Y07252
X108151Y072512
X108349Y072314
X11014Y07206
X1096Y07055
X10883Y07031
X10905Y0699
X10885Y06951
X10945Y0678
X109146Y06702
X10792Y06655
X10915Y0665
X10875Y06625
X1099Y0661
X109146Y06602
X1086Y0659
X1082Y06565
X11002Y06547
X1091Y06535
X108606Y0652
X1085Y06445
X10879Y06439
X108026Y06402
X110146Y06352
X109646Y06352
X109146Y06352
X10845Y06325
X109646Y06302
X109146Y06302
X110146Y06302
X1082Y063
X109646Y06252
X109146Y06252
X110146Y06252
X108151Y062512
X108349Y062314
X11014Y06206
X1096Y06055
X10886Y06031
X10905Y0599
X10888Y0595
X10945Y0578
X109146Y05702
X10792Y05655
X10915Y0565
X10875Y05625
X109894Y05606
X109146Y05602
X1086Y0559
X1082Y05565
X11002Y05547
X1091Y05535
X108596Y0552
X1085Y05445
X10879Y05439
X108016Y05401
X110146Y05352
X109146Y05352
X109646Y05352
X10845Y05325
X110146Y05302
X109646Y05302
X109146Y05302
X1082Y053
X109646Y05252
X109146Y05252
X110146Y05252
X108151Y052512
X108349Y052314
X11014Y05206
X1096Y05055
X10884Y05031
X10905Y0499
X10885Y0495
X10945Y0478
X109146Y04702
X1087Y04663
X10915Y0465
X1087Y0463
X109146Y04602
X1086Y0459
X1082Y04565
X11002Y04547
X1091Y04535
X108606Y0452
X1085Y04445
X10879Y04439
X108026Y04402
X109646Y04352
X109146Y04352
X110146Y04352
X10845Y04325
X109646Y04302
X109146Y04302
X110146Y04302
X1082Y043
X110146Y04252
X109646Y04252
X109146Y04252
X108151Y042512
X108349Y042314
X11014Y04206
X1096Y04055
X10884Y04032
X10905Y0399
X10883Y03951
X10945Y0378
X109146Y03702
X10915Y0365
X10875Y03625
X1099Y0361
X109146Y03602
X1086Y0359
X1082Y03565
X11002Y03547
X1091Y03535
X108606Y0352
X1085Y03445
X10879Y03439
X108016Y03401
X110146Y03352
X109146Y03352
X109646Y03352
X10845Y03325
X110146Y03302
X109646Y03302
X109146Y03302
X1082Y033
X109646Y03252
X109146Y03252
X110146Y03252
X108151Y032512
X108349Y032314
X11014Y03206
X1096Y03055
X10884Y03031
X10905Y0299
X10886Y02951
X10945Y0278
X109146Y02702
X10792Y02655
X10915Y0265
X10875Y02625
X1099Y0261
X109146Y02602
X1086Y0259
X1082Y02565
X11002Y02547
X1091Y02535
X108606Y0252
X1085Y02445
X10879Y02439
X108026Y02402
X109146Y02352
X109646Y02352
X110146Y02352
X10845Y02325
X109146Y02302
X109646Y02302
X110146Y02302
X1082Y023
X109646Y02252
X110146Y02252
X109146Y02252
X108151Y022512
X108349Y022314
X11014Y02206
X1096Y02055
X10882Y02031
X10905Y0199
X10882Y0195
X10945Y0178
X109146Y01702
X10915Y0165
X10875Y01625
X109924Y01602
X1086Y0159
X1082Y01565
X11002Y01547
X1091Y01535
X108596Y0152
X1085Y01445
X10879Y01439
X108016Y01401
X109646Y01352
X109146Y01352
X110146Y01352
X10845Y01325
X110146Y01302
X109646Y01302
X109146Y01302
X1082Y013
X109146Y01252
X109646Y01252
X110146Y01252
X108151Y012512
X108349Y012314
X110646Y01252
X112646Y01252
X112146Y01252
X111646Y01252
X111146Y01252
X112646Y01302
X112146Y01302
X111646Y01302
X111146Y01302
X110646Y01302
X112646Y01352
X111146Y01352
X111646Y01352
X112146Y01352
X110646Y01352
X11106Y01402
X11029Y01402
X11214Y0143
X11215Y0153
X11107Y01538
X11225Y0158
X11135Y0158
X1127Y0166
X11135Y0166
X11075Y017
X112146Y01702
X11185Y0178
X11255Y0178
X11225Y0178
X1114Y0182
X11225Y01875
X11155Y02025
X1121Y0207
X110646Y02252
X112646Y02252
X112146Y02252
X111646Y02252
X111146Y02252
X112646Y02302
X112146Y02302
X111646Y02302
X111146Y02302
X110646Y02302
X112646Y02352
X110646Y02352
X111146Y02352
X111646Y02352
X112146Y02352
X11029Y02402
X11106Y02402
X11214Y0243
X11215Y0253
X11107Y02538
X11032Y02538
X11225Y0258
X11135Y0258
X1127Y0266
X11135Y0266
X11075Y027
X112146Y02702
X11185Y0278
X11225Y0278
X11255Y0278
X1114Y0282
X11225Y02875
X11155Y03025
X1121Y0307
X112646Y03252
X112146Y03252
X111646Y03252
X111146Y03252
X110646Y03252
X112646Y03302
X112146Y03302
X111646Y03302
X111146Y03302
X110646Y03302
X112146Y03352
X112646Y03352
X110646Y03352
X111146Y03352
X111646Y03352
X11029Y03402
X11106Y03402
X11214Y0343
X11215Y0353
X11032Y03538
X11107Y03538
X11225Y0358
X11135Y0359
X11135Y0366
X1127Y0366
X11075Y037
X112146Y03702
X11185Y0378
X11255Y0378
X11225Y0378
X1114Y0382
X11225Y03875
X11155Y04025
X1121Y0407
X1114Y0421
X111646Y04252
X111146Y04252
X110646Y04252
X112646Y04252
X112146Y04252
X112646Y04302
X112146Y04302
X111646Y04302
X111146Y04302
X110646Y04302
X112646Y04352
X110646Y04352
X111146Y04352
X111646Y04352
X112146Y04352
X11106Y04402
X11029Y04402
X11214Y0443
X11215Y0453
X11107Y04538
X11032Y04538
X11225Y0458
X11135Y0458
X1105Y04621
X11135Y0466
X1127Y0466
X11075Y047
X112146Y04702
X11255Y0478
X11225Y0478
X11185Y0478
X1114Y0482
X11225Y04875
X11155Y05025
X1121Y0507
X112646Y05252
X112146Y05252
X111646Y05252
X111146Y05252
X110646Y05252
X112646Y05302
X112146Y05302
X111646Y05302
X111146Y05302
X110646Y05302
X112646Y05352
X110646Y05352
X111146Y05352
X111646Y05352
X112146Y05352
X11029Y05402
X11106Y05402
X11214Y0543
X11215Y0553
X11032Y05538
X11107Y05538
X11064Y05577
X11225Y0558
X11135Y0558
X1127Y0566
X11135Y0566
X11075Y057
X112146Y05702
X11255Y0578
X11185Y0578
X11225Y0578
X1114Y0582
X11225Y05875
X11155Y06025
X1121Y0607
X110646Y06252
X111146Y06252
X111646Y06252
X112146Y06252
X112646Y06252
X110646Y06302
X112146Y06302
X111646Y06302
X112646Y06302
X111146Y06302
X110646Y06352
X112146Y06352
X111646Y06352
X112646Y06352
X111146Y06352
X11106Y06402
X11029Y06402
X11214Y0643
X11215Y0653
X11107Y06538
X11032Y06538
X11064Y06576
X11135Y0658
X11225Y0658
X1127Y0666
X11135Y0666
X11075Y067
X112146Y06702
X11185Y0678
X11255Y0678
X11225Y0678
X1114Y0682
X11225Y06875
X11155Y07025
X1121Y0707
X112146Y07252
X111646Y07252
X112646Y07252
X111146Y07252
X110646Y07252
X112646Y07302
X112146Y07302
X111146Y07302
X110646Y07302
X111646Y07302
X110646Y07352
X111146Y07352
X112646Y07352
X112146Y07352
X111646Y07352
X11106Y07402
X11029Y07402
X11214Y0743
X11215Y0753
X11107Y07538
X11032Y07538
X11064Y07579
X11225Y0758
X11136Y07595
X11135Y0766
X1127Y0766
X11075Y077
X112146Y07702
X11185Y0778
X11255Y0778
X11225Y0778
X1114Y0782
X11225Y07875
X11155Y08025
X1121Y0807
X1114Y0821
X11165Y08251
X11115Y08251
X11265Y08251
X11065Y08251
X11215Y08251
X110646Y08302
X112146Y08302
X111646Y08302
X111146Y08302
X112646Y08302
X112646Y08352
X112146Y08352
X111646Y08352
X111146Y08352
X110646Y08352
X11106Y08402
X11029Y08402
X11214Y0843
X11215Y0853
X11032Y08538
X11107Y08538
X11135Y0858
X11225Y0858
X11054Y08619
X11135Y0866
X1127Y0866
X11075Y087
X112146Y08702
X11185Y0878
X11255Y0878
X11225Y0878
X1114Y0882
X11225Y08875
X11155Y09025
X1121Y0907
X110646Y09252
X111146Y09252
X112646Y09252
X111646Y09252
X112146Y09252
X112646Y09302
X112146Y09302
X111646Y09302
X111146Y09302
X110646Y09302
X110646Y09352
X111146Y09352
X111646Y09352
X112646Y09352
X112146Y09352
X11029Y09402
X11106Y09402
X11214Y0943
X11215Y0953
X11032Y09538
X11107Y09538
X11064Y09576
X11225Y0958
X11135Y0958
X11135Y0966
X1127Y0966
X11075Y097
X112146Y09702
X11255Y0978
X11225Y0978
X11185Y0978
X1114Y0982
X11225Y09875
X11155Y10025
X1121Y1007
X112146Y10252
X112646Y10252
X110646Y10252
X111646Y10252
X111146Y10252
X111146Y10302
X110646Y10302
X112646Y10302
X111646Y10302
X112146Y10302
X111146Y10352
X110646Y10352
X112146Y10352
X111646Y10352
X112646Y10352
X11106Y10402
X11029Y10402
X11214Y1043
X11215Y1053
X11032Y10538
X11107Y10538
X11063Y10575
X11135Y1058
X11225Y1058
X1127Y1066
X11135Y1066
X11075Y107
X112146Y10702
X11225Y1078
X11255Y1078
X11185Y1078
X1114Y1082
X11225Y10875
X11155Y11025
X1121Y1107
X112646Y11252
X110646Y11252
X111146Y11252
X111646Y11252
X112146Y11252
X112646Y11302
X112146Y11302
X110646Y11302
X111646Y11302
X111146Y11302
X111146Y11352
X110646Y11352
X112146Y11352
X111646Y11352
X112646Y11352
X11106Y11402
X11029Y11402
X11214Y1143
X11215Y1153
X11032Y11538
X11107Y11538
X11064Y11578
X11225Y1158
X11136Y11586
X11135Y1166
X1127Y1166
X11075Y117
X112146Y11702
X11255Y1178
X11185Y1178
X11225Y1178
X1114Y1182
X11225Y11875
X11155Y12025
X1121Y1207
X1114Y1221
X112646Y12252
X110646Y12252
X111146Y12252
X111646Y12252
X112146Y12252
X111146Y12302
X112646Y12302
X110646Y12302
X112146Y12302
X111646Y12302
X110646Y12352
X111646Y12352
X112646Y12352
X111146Y12352
X112146Y12352
X11106Y12402
X11029Y12402
X11214Y1243
X11215Y1253
X11107Y12538
X11032Y12538
X11135Y1258
X11225Y1258
X11049Y12622
X11135Y1266
X1127Y1266
X11075Y127
X112146Y12702
X11255Y1278
X11225Y1278
X11185Y1278
X1114Y1282
X11225Y12875
X11155Y13025
X1121Y1307
X1145Y1307
X1152Y1305
X11485Y1305
X1151Y12785
X1146Y12765
X113646Y12702
X115146Y12702
X113146Y12652
X113146Y12602
X1135Y12555
X11375Y12555
X11315Y12525
X1145Y12485
X1128Y12475
X1145Y12455
X11275Y1244
X1144Y1242
X1131Y12415
X1151Y124
X114196Y12382
X11325Y1238
X11355Y1238
X115146Y12352
X114646Y12352
X113646Y12302
X113146Y12302
X115146Y12302
X114646Y12302
X114146Y12302
X113146Y12252
X113646Y12252
X115146Y12252
X114646Y12252
X114146Y12252
X11365Y1221
X1145Y1207
X1152Y1205
X11485Y1205
X1151Y11785
X1146Y11765
X113646Y11702
X115146Y11702
X113146Y11652
X113146Y11602
X1135Y11555
X11375Y11555
X11315Y11525
X1145Y11485
X1128Y11475
X1145Y11455
X11275Y1144
X1144Y1142
X1131Y11415
X1151Y114
X114196Y11382
X11325Y1138
X11355Y1138
X115146Y11352
X114646Y11352
X113646Y11302
X113146Y11302
X115146Y11302
X114646Y11302
X114146Y11302
X113146Y11252
X113646Y11252
X114146Y11252
X114646Y11252
X115146Y11252
X1145Y1107
X1152Y1105
X11485Y1105
X1151Y10785
X1146Y10765
X115146Y10702
X113646Y10702
X113146Y10652
X113146Y10602
X11375Y10555
X1135Y10555
X11315Y10525
X1145Y10485
X1128Y10475
X1145Y10455
X11275Y1044
X1144Y1042
X1131Y10415
X1151Y104
X114196Y10382
X113854Y103813
X11325Y1038
X11355Y1038
X115146Y10352
X114646Y10352
X113646Y10302
X113146Y10302
X115146Y10302
X114646Y10302
X114146Y10302
X113146Y10252
X113646Y10252
X115146Y10252
X114646Y10252
X114146Y10252
X1145Y1007
X1152Y1005
X11485Y1005
X1151Y09785
X1146Y09765
X115146Y09702
X113646Y09702
X113146Y09652
X113146Y09602
X1135Y09555
X11375Y09555
X11315Y09525
X1145Y09485
X1128Y09475
X1145Y09455
X11275Y0944
X1144Y0942
X1131Y09415
X1151Y094
X114196Y09382
X11325Y0938
X11355Y0938
X115146Y09352
X114646Y09352
X113146Y09302
X114146Y09302
X115146Y09302
X114646Y09302
X113646Y09302
X113146Y09252
X113646Y09252
X115146Y09252
X114646Y09252
X114146Y09252
X1145Y0907
X1152Y0905
X11485Y0905
X1151Y08785
X1146Y08765
X115146Y08702
X113646Y08702
X113146Y08652
X113146Y08602
X11375Y08555
X1135Y08555
X11315Y08525
X1145Y08485
X1128Y08475
X1145Y08455
X11275Y0844
X1144Y0842
X1131Y08415
X1151Y084
X114196Y08382
X11325Y0838
X11355Y0838
X115146Y08352
X114646Y08352
X113646Y08302
X115146Y08302
X114646Y08302
X113146Y08302
X114146Y08302
X11315Y08251
X11365Y08251
X11515Y08251
X11465Y08251
X11415Y08251
X11365Y0821
X1145Y0807
X1152Y0805
X11485Y0805
X1151Y07785
X1146Y07765
X113646Y07702
X115146Y07702
X113146Y07652
X113146Y07602
X11375Y07555
X1135Y07555
X11315Y07525
X1145Y07485
X1128Y07475
X1145Y07455
X11275Y0744
X1144Y0742
X1131Y07415
X1151Y074
X114196Y07382
X11355Y0738
X11325Y0738
X114646Y07352
X115146Y07352
X115146Y07302
X113646Y07302
X114646Y07302
X114146Y07302
X113146Y07302
X113146Y07252
X113646Y07252
X115146Y07252
X114646Y07252
X114146Y07252
X1145Y0707
X1152Y0705
X11485Y0705
X1151Y06785
X1146Y06765
X113646Y06702
X115146Y06702
X113146Y06652
X113146Y06602
X11375Y06555
X1135Y06555
X11315Y06525
X1145Y06485
X1128Y06475
X1145Y06455
X11275Y0644
X1144Y0642
X1131Y06415
X1151Y064
X114196Y06382
X113854Y063813
X11325Y0638
X11355Y0638
X115146Y06352
X114646Y06352
X113646Y06302
X115146Y06302
X114646Y06302
X114146Y06302
X113146Y06302
X113646Y06252
X115146Y06252
X114646Y06252
X113146Y06252
X114146Y06252
X1145Y0607
X11485Y0605
X1152Y0605
X1151Y05785
X1146Y05765
X113646Y05702
X115146Y05702
X113146Y05652
X113146Y05602
X11375Y05555
X1135Y05555
X11315Y05525
X1145Y05485
X1128Y05475
X1145Y05455
X11275Y0544
X1144Y0542
X1131Y05415
X1151Y054
X114196Y05382
X11325Y0538
X11355Y0538
X115146Y05352
X114646Y05352
X113146Y05302
X115146Y05302
X114646Y05302
X114146Y05302
X113646Y05302
X115146Y05252
X114646Y05252
X114146Y05252
X113146Y05252
X113646Y05252
X1145Y0507
X11485Y0505
X1152Y0505
X1151Y04785
X1146Y04765
X115146Y04702
X113646Y04702
X113146Y04652
X113146Y04602
X1135Y04555
X11375Y04555
X11315Y04525
X1145Y04485
X1128Y04475
X1145Y04455
X11275Y0444
X1144Y0442
X1131Y04415
X1151Y044
X114196Y04382
X11355Y0438
X11325Y0438
X115146Y04352
X114646Y04352
X113646Y04302
X113146Y04302
X115146Y04302
X114646Y04302
X114146Y04302
X115146Y04252
X113646Y04252
X113146Y04252
X114646Y04252
X114146Y04252
X11365Y0421
X1145Y0407
X1152Y0405
X11485Y0405
X1151Y03785
X1146Y03765
X113646Y03702
X115146Y03702
X113146Y03652
X113146Y03602
X1135Y03555
X11375Y03555
X11315Y03525
X1145Y03485
X1128Y03475
X1145Y03455
X11275Y0344
X1144Y0342
X1131Y03415
X1151Y034
X114196Y03382
X11355Y0338
X11325Y0338
X114646Y03352
X115146Y03352
X113146Y03302
X113646Y03302
X115146Y03302
X114646Y03302
X114146Y03302
X113646Y03252
X115146Y03252
X114646Y03252
X114146Y03252
X113146Y03252
X1145Y0307
X1152Y0305
X11485Y0305
X1151Y02785
X1146Y02765
X113646Y02702
X115146Y02702
X113146Y02652
X113146Y02602
X11375Y02555
X1135Y02555
X11315Y02525
X1145Y02485
X1128Y02475
X1145Y02455
X11275Y0244
X1144Y0242
X1131Y02415
X1151Y024
X114196Y02382
X113854Y023813
X11325Y0238
X11355Y0238
X114646Y02352
X115146Y02352
X114646Y02302
X115146Y02302
X113146Y02302
X113646Y02302
X114146Y02302
X114146Y02252
X114646Y02252
X113646Y02252
X113146Y02252
X115146Y02252
X1145Y0207
X11485Y0205
X1152Y0205
X1151Y01785
X1146Y01765
X113646Y01702
X115146Y01702
X113146Y01652
X113146Y01602
X11375Y01555
X1135Y01555
X11315Y01525
X1145Y01485
X1128Y01475
X1145Y01455
X11275Y0144
X1144Y0142
X1131Y01415
X1151Y014
X114196Y01382
X11355Y0138
X11325Y0138
X115146Y01352
X114646Y01352
X114146Y01302
X113646Y01302
X114646Y01302
X115146Y01302
X113146Y01302
X113646Y01252
X114646Y01252
X113146Y01252
X115146Y01252
X114146Y01252
X117646Y01252
X117146Y01252
X116646Y01252
X116146Y01252
X115646Y01252
X117646Y01302
X117146Y01302
X116646Y01302
X116146Y01302
X115646Y01302
X116146Y01352
X115646Y01352
X117646Y01352
X117146Y01352
X116646Y01352
X116646Y01402
X116146Y01402
X115646Y01402
X1157Y0143
X11615Y0154
X1153Y0154
X116646Y01702
X11744Y01715
X1159Y01805
X1154Y01825
X11725Y01865
X1158Y01915
X1155Y01915
X11605Y0193
X117646Y02252
X116146Y02252
X117146Y02252
X116646Y02252
X115646Y02252
X116646Y02302
X116146Y02302
X115646Y02302
X117646Y02302
X117146Y02302
X116646Y02352
X116146Y02352
X115646Y02352
X117146Y02352
X117646Y02352
X116646Y02402
X116146Y02402
X115646Y02402
X1157Y0243
X11615Y0254
X1153Y0254
X116646Y02702
X11744Y02715
X1159Y02805
X1154Y02825
X11725Y02865
X1155Y02915
X1158Y02915
X11605Y0293
X117646Y03252
X117146Y03252
X116646Y03252
X116146Y03252
X115646Y03252
X117646Y03302
X117146Y03302
X116646Y03302
X116146Y03302
X115646Y03302
X115646Y03352
X116146Y03352
X116646Y03352
X117146Y03352
X117646Y03352
X116646Y03402
X116146Y03402
X115646Y03402
X1157Y0343
X11615Y0354
X1153Y0354
X116646Y03702
X11744Y03715
X1159Y03805
X1154Y03825
X11725Y03865
X1158Y03915
X1155Y03915
X11605Y0393
X116146Y04252
X117646Y04252
X117146Y04252
X115646Y04252
X116646Y04252
X115646Y04302
X117646Y04302
X117146Y04302
X116646Y04302
X116146Y04302
X116146Y04352
X115646Y04352
X117146Y04352
X116646Y04352
X117646Y04352
X116646Y04402
X116146Y04402
X115646Y04402
X1157Y0443
X11615Y0454
X1153Y0454
X116646Y04702
X11744Y04715
X1159Y04805
X1154Y04825
X11725Y04865
X1158Y04915
X1155Y04915
X11605Y0493
X117646Y05252
X117146Y05252
X116646Y05252
X116146Y05252
X115646Y05252
X117646Y05302
X117146Y05302
X116646Y05302
X116146Y05302
X115646Y05302
X117646Y05352
X117146Y05352
X116646Y05352
X116146Y05352
X115646Y05352
X116646Y05402
X116146Y05402
X115646Y05402
X1157Y0543
X11615Y0554
X1153Y0554
X116646Y05702
X11744Y05715
X1159Y05805
X1154Y05825
X11725Y05865
X1158Y05915
X1155Y05915
X11605Y0593
X115646Y06252
X116646Y06252
X117646Y06252
X117146Y06252
X116146Y06252
X116646Y06302
X116146Y06302
X117646Y06302
X115646Y06302
X117146Y06302
X117146Y06352
X116646Y06352
X117646Y06352
X116146Y06352
X115646Y06352
X116146Y06402
X115646Y06402
X116646Y06402
X1157Y0643
X11615Y0654
X1153Y0654
X116646Y06702
X11744Y06715
X1159Y06805
X1154Y06825
X11725Y06865
X1158Y06915
X1155Y06915
X11605Y0693
X117646Y07252
X117146Y07252
X116646Y07252
X116146Y07252
X115646Y07252
X117146Y07302
X115646Y07302
X116146Y07302
X116646Y07302
X117646Y07302
X117146Y07352
X117646Y07352
X116646Y07352
X116146Y07352
X115646Y07352
X116646Y07402
X116146Y07402
X115646Y07402
X1157Y0743
X11615Y0754
X1153Y0754
X116646Y07702
X11744Y07715
X1159Y07805
X1154Y07825
X11725Y07865
X1155Y07915
X1158Y07915
X11605Y0793
X11565Y08251
X11715Y08251
X11765Y08251
X11665Y08251
X11615Y08251
X115646Y08302
X117646Y08302
X117146Y08302
X116646Y08302
X116146Y08302
X116646Y08352
X116146Y08352
X117646Y08352
X117146Y08352
X115646Y08352
X116646Y08402
X116146Y08402
X115646Y08402
X1157Y0843
X1153Y0854
X11615Y0854
X116646Y08702
X11744Y08715
X1159Y08805
X1154Y08825
X11725Y08865
X1158Y08915
X1155Y08915
X11605Y0893
X116146Y09252
X117646Y09252
X117146Y09252
X116646Y09252
X115646Y09252
X116146Y09302
X115646Y09302
X117646Y09302
X117146Y09302
X116646Y09302
X115646Y09352
X116646Y09352
X116146Y09352
X117646Y09352
X117146Y09352
X116646Y09402
X116146Y09402
X115646Y09402
X1157Y0943
X11615Y0954
X1153Y0954
X116646Y09702
X11744Y09715
X1159Y09805
X1154Y09825
X11725Y09865
X1158Y09915
X1155Y09915
X11605Y0993
X116146Y10252
X115646Y10252
X117146Y10252
X117646Y10252
X116646Y10252
X116146Y10302
X115646Y10302
X117646Y10302
X117146Y10302
X116646Y10302
X115646Y10352
X117646Y10352
X117146Y10352
X116146Y10352
X116646Y10352
X116646Y10402
X116146Y10402
X115646Y10402
X1157Y1043
X11615Y1054
X1153Y1054
X116646Y10702
X11744Y10715
X1159Y10805
X1154Y10825
X11725Y10865
X1158Y10915
X1155Y10915
X11605Y1093
X115646Y11252
X116146Y11252
X117646Y11252
X117146Y11252
X116646Y11252
X115646Y11302
X117146Y11302
X116646Y11302
X116146Y11302
X117646Y11302
X117646Y11352
X117146Y11352
X116646Y11352
X116146Y11352
X115646Y11352
X115646Y11402
X116146Y11402
X116646Y11402
X1157Y1143
X11615Y1154
X1153Y1154
X116646Y11702
X11744Y11715
X1159Y11805
X1154Y11825
X11725Y11865
X1155Y11915
X1158Y11915
X11605Y1193
X116646Y12252
X117646Y12252
X116146Y12252
X115646Y12252
X117146Y12252
X117146Y12302
X116146Y12302
X116646Y12302
X115646Y12302
X117646Y12302
X117646Y12352
X117146Y12352
X115646Y12352
X116146Y12352
X116646Y12352
X116146Y12402
X116646Y12402
X115646Y12402
X1157Y1243
X11615Y1254
X1153Y1254
X116646Y12702
X11744Y12715
X1159Y12805
X1154Y12825
X11725Y12865
X1158Y12915
X1155Y12915
X11605Y1293
X1174Y13152
X11805Y1312
X11925Y1312
X12005Y1312
X12015Y1308
X11805Y1307
X11865Y13065
X1201Y1304
X11812Y12927
X11885Y12865
X1193Y1286
X11822Y12855
X11955Y12835
X11955Y12795
X11805Y1279
X11795Y1275
X1194Y1273
X118Y1272
X11895Y12705
X11845Y12705
X1191Y12595
X1195Y125
X11925Y1246
X1195Y1242
X11965Y12392
X12Y1239
X120146Y12352
X119646Y12352
X119146Y12352
X118646Y12352
X118146Y12352
X120146Y12302
X119646Y12302
X119146Y12302
X118646Y12302
X118146Y12302
X120146Y12252
X119646Y12252
X119146Y12252
X118646Y12252
X118146Y12252
X11805Y1212
X11925Y1212
X12005Y1212
X11805Y1207
X11865Y12065
X1201Y1204
X11812Y11927
X1202Y1191
X11885Y11865
X1193Y1186
X11822Y11855
X11955Y11835
X11955Y11795
X11805Y1179
X11795Y1175
X1194Y1173
X118Y1172
X11844Y1171
X11895Y11705
X1191Y11595
X1195Y115
X11925Y1146
X1195Y1142
X11955Y1139
X12Y1139
X120146Y11352
X119646Y11352
X119146Y11352
X118646Y11352
X118146Y11352
X119646Y11302
X119146Y11302
X118646Y11302
X118146Y11302
X120146Y11302
X118146Y11252
X118646Y11252
X119146Y11252
X119646Y11252
X120146Y11252
X1199Y11197
X12005Y1112
X11925Y1112
X11805Y1112
X11805Y1107
X11865Y11065
X11985Y11015
X11812Y10927
X1198Y1087
X11885Y10865
X1193Y1086
X11822Y10855
X11955Y10835
X11955Y10795
X11805Y1079
X11795Y1075
X1194Y1073
X118Y1072
X11837Y1071
X11895Y10705
X1191Y10595
X1195Y105
X11925Y1046
X1195Y1042
X12Y1039
X11955Y1039
X119646Y10352
X119146Y10352
X120146Y10352
X118646Y10352
X118146Y10352
X120146Y10302
X119646Y10302
X119146Y10302
X118646Y10302
X118146Y10302
X120146Y10252
X119646Y10252
X119146Y10252
X118646Y10252
X118146Y10252
X11805Y1012
X11925Y1012
X12005Y1012
X11805Y1007
X11865Y10065
X1201Y1004
X11812Y09927
X11885Y09865
X1193Y0986
X11822Y09855
X11955Y09835
X11955Y09795
X11805Y0979
X11795Y0975
X1194Y0973
X118Y0972
X11895Y09705
X1191Y09595
X1195Y095
X11925Y0946
X1195Y0942
X1196Y0939
X12Y0939
X120146Y09352
X119646Y09352
X119146Y09352
X118646Y09352
X118146Y09352
X119146Y09302
X118646Y09302
X120146Y09302
X118146Y09302
X119646Y09302
X119146Y09252
X118646Y09252
X118146Y09252
X119646Y09252
X120146Y09252
X11805Y0912
X11925Y0912
X12005Y0912
X12015Y0908
X11805Y0907
X11865Y09065
X1201Y0904
X11812Y08927
X11885Y08865
X1193Y08861
X11822Y08855
X11955Y08835
X11955Y08795
X11805Y0879
X11795Y0875
X1194Y0873
X118Y0872
X118453Y087053
X11895Y08705
X1191Y08595
X1195Y085
X11925Y0846
X1195Y0842
X12Y0839
X119146Y08352
X118646Y08352
X118146Y08352
X119646Y08352
X120146Y08352
X120146Y08302
X119646Y08302
X119146Y08302
X118646Y08302
X118146Y08302
X11865Y08251
X11815Y08251
X11915Y08251
X12015Y08251
X11965Y08251
X11805Y0812
X11925Y0812
X11805Y0807
X11865Y08065
X1201Y0804
X11812Y07927
X1202Y0791
X11885Y07865
X1193Y0786
X11822Y07855
X11955Y07835
X11955Y07795
X11805Y0779
X11795Y0775
X1194Y0773
X118Y0772
X11844Y0771
X11895Y07705
X1191Y07595
X1195Y075
X11925Y0746
X1195Y0742
X11955Y0739
X12Y0739
X120146Y07352
X119646Y07352
X119146Y07352
X118646Y07352
X118146Y07352
X119146Y07302
X120146Y07302
X118146Y07302
X118646Y07302
X119646Y07302
X118146Y07252
X120146Y07252
X119646Y07252
X119146Y07252
X118646Y07252
X11987Y07206
X11986Y07145
X11805Y0712
X11925Y0712
X11805Y0707
X11865Y07065
X11984Y07018
X11812Y06927
X1198Y06872
X11885Y06865
X1193Y0686
X11822Y06855
X11955Y06835
X11955Y06795
X11805Y0679
X11795Y0675
X1194Y0673
X118Y0672
X11835Y06713
X11895Y06705
X1191Y06595
X1195Y065
X11925Y0646
X1195Y0642
X11955Y0639
X12Y0639
X120146Y06352
X119646Y06352
X119146Y06352
X118646Y06352
X118146Y06352
X119646Y06302
X118146Y06302
X118646Y06302
X120146Y06302
X119146Y06302
X119646Y06252
X119146Y06252
X118646Y06252
X118146Y06252
X120146Y06252
X11805Y0612
X11925Y0612
X12005Y0612
X11805Y0607
X11865Y06065
X1201Y0604
X11812Y05927
X11885Y05865
X1193Y0586
X11822Y05855
X11955Y05835
X11955Y05795
X11805Y0579
X11795Y0575
X1194Y0573
X118Y0572
X11895Y05705
X1191Y05595
X1195Y055
X11925Y0546
X1195Y0542
X1196Y0539
X12Y0539
X119146Y05352
X120146Y05352
X118146Y05352
X119646Y05352
X118646Y05352
X118146Y05302
X120146Y05302
X119646Y05302
X119146Y05302
X118646Y05302
X120146Y05252
X118646Y05252
X118146Y05252
X119146Y05252
X119646Y05252
X11925Y0512
X12005Y0512
X11805Y0512
X12015Y0508
X11805Y0507
X11865Y05065
X1201Y0504
X11812Y04927
X11885Y04865
X1193Y0486
X11822Y04855
X11955Y04835
X11805Y0479
X11795Y0475
X1194Y0473
X118Y0472
X11846Y04705
X11895Y04705
X1191Y04595
X1195Y045
X11925Y0446
X1195Y0442
X11966Y04392
X12Y0439
X119146Y04352
X118646Y04352
X119646Y04352
X120146Y04352
X118146Y04352
X120146Y04302
X119646Y04302
X119146Y04302
X118146Y04302
X118646Y04302
X119146Y04252
X118646Y04252
X118146Y04252
X119646Y04252
X120146Y04252
X12005Y0412
X11805Y0412
X11925Y0412
X11805Y0407
X11865Y04065
X1201Y0404
X11812Y03927
X1202Y0391
X11885Y03865
X1193Y0386
X11822Y03855
X11955Y03835
X11955Y03795
X11805Y0379
X11795Y0375
X1194Y0373
X118Y0372
X11842Y03711
X11895Y03705
X1191Y03595
X1195Y035
X11925Y0346
X1195Y0342
X11955Y0339
X12Y0339
X118646Y03352
X119146Y03352
X118146Y03352
X119646Y03352
X120146Y03352
X119646Y03302
X119146Y03302
X118146Y03302
X118646Y03302
X120146Y03302
X118646Y03252
X119146Y03252
X120146Y03252
X119646Y03252
X118146Y03252
X12007Y03201
X11986Y03146
X11925Y0312
X11805Y0312
X11805Y0307
X11865Y03065
X11985Y03018
X11812Y02927
X1198Y0287
X11885Y02865
X1193Y0286
X11822Y02855
X11955Y02835
X11955Y02795
X11805Y0279
X11795Y0275
X1194Y0273
X118Y0272
X1183Y02714
X11895Y02705
X1191Y02595
X1195Y025
X11925Y0246
X1195Y0242
X11955Y0239
X12Y0239
X118646Y02352
X119646Y02352
X119146Y02352
X120146Y02352
X118146Y02352
X118146Y02302
X120146Y02302
X119146Y02302
X119646Y02302
X118646Y02302
X119146Y02252
X118646Y02252
X120146Y02252
X118146Y02252
X119646Y02252
X11925Y0212
X12005Y0212
X11805Y0212
X11805Y0207
X11865Y02065
X1201Y0204
X11812Y01927
X11885Y01865
X1193Y0186
X11822Y01855
X11955Y01835
X11955Y01795
X11805Y0179
X11795Y0175
X1194Y0173
X118Y0172
X11895Y01705
X1191Y01595
X1195Y015
X11925Y0146
X1195Y0142
X12Y0139
X1196Y0139
X118146Y01352
X119146Y01352
X120146Y01352
X119646Y01352
X118646Y01352
X119146Y01302
X118146Y01302
X119646Y01302
X118646Y01302
X120146Y01302
X119146Y01252
X119646Y01252
X118146Y01252
X120146Y01252
X118646Y01252
X121646Y01252
X121146Y01252
X120646Y01252
X122646Y01252
X122146Y01252
X122146Y01302
X121646Y01302
X121146Y01302
X120646Y01302
X122646Y01302
X121646Y01352
X121146Y01352
X120646Y01352
X122646Y01352
X122146Y01352
X12165Y014
X1224Y014
X1203Y0142
X1203Y015
X12235Y0154
X12165Y0154
X122146Y01602
X122646Y01602
X122146Y01652
X122646Y01652
X122646Y01702
X122146Y01702
X121646Y01702
X121146Y01702
X1204Y0191
X12115Y0208
X120646Y02252
X121646Y02252
X122646Y02252
X122146Y02252
X121146Y02252
X121646Y02302
X121146Y02302
X120646Y02302
X122646Y02302
X122146Y02302
X121646Y02352
X121146Y02352
X120646Y02352
X122646Y02352
X122146Y02352
X12165Y024
X1224Y024
X1203Y0242
X1203Y025
X12235Y0254
X12165Y0254
X122146Y02602
X122646Y02602
X122646Y02652
X122146Y02652
X121646Y02702
X122646Y02702
X122146Y02702
X121146Y02702
X12109Y0298
X12057Y0321
X121646Y03252
X121146Y03252
X120646Y03252
X122146Y03252
X122646Y03252
X122646Y03302
X122146Y03302
X121646Y03302
X121146Y03302
X120646Y03302
X122646Y03352
X120646Y03352
X121146Y03352
X121646Y03352
X122146Y03352
X1224Y034
X12165Y034
X1203Y0342
X1203Y035
X12165Y0354
X12235Y0354
X122646Y03602
X122146Y03602
X122146Y03652
X122646Y03652
X121646Y03702
X122646Y03702
X121146Y03702
X122146Y03702
X1227Y0393
X12182Y04128
X122646Y04252
X122146Y04252
X120646Y04252
X121646Y04252
X121146Y04252
X121146Y04302
X120646Y04302
X122646Y04302
X121646Y04302
X122146Y04302
X121646Y04352
X121146Y04352
X120646Y04352
X122146Y04352
X122646Y04352
X12165Y044
X1224Y044
X1203Y0442
X1203Y045
X12165Y0454
X12235Y0454
X122146Y04602
X122646Y04602
X122146Y04652
X122646Y04652
X121146Y04702
X122146Y04702
X121646Y04702
X122646Y04702
X1204Y0475
X12035Y04905
X12184Y05022
X12177Y0506
X12132Y05175
X122646Y05252
X122146Y05252
X120646Y05252
X121646Y05252
X121146Y05252
X121646Y05302
X122646Y05302
X122146Y05302
X121146Y05302
X120646Y05302
X121646Y05352
X121146Y05352
X122646Y05352
X120646Y05352
X122146Y05352
X12165Y054
X1224Y054
X1203Y0542
X1203Y055
X12235Y0554
X12165Y0554
X122646Y05602
X122146Y05602
X122146Y05652
X122646Y05652
X122646Y05702
X122146Y05702
X121646Y05702
X121146Y05702
X1204Y0591
X12115Y0608
X121646Y06252
X120646Y06252
X122646Y06252
X122146Y06252
X121146Y06252
X121646Y06302
X122146Y06302
X121146Y06302
X120646Y06302
X122646Y06302
X120646Y06352
X121146Y06352
X122646Y06352
X122146Y06352
X121646Y06352
X12165Y064
X1224Y064
X1203Y0642
X1203Y065
X12165Y0654
X12235Y0654
X122646Y06602
X122146Y06602
X122146Y06652
X122646Y06652
X121646Y06702
X122146Y06702
X121146Y06702
X122646Y06702
X12109Y0698
X122646Y07252
X122146Y07252
X121646Y07252
X121146Y07252
X120646Y07252
X120646Y07302
X122646Y07302
X121146Y07302
X122146Y07302
X121646Y07302
X122646Y07352
X121646Y07352
X122146Y07352
X121146Y07352
X120646Y07352
X12165Y074
X1224Y074
X1203Y0742
X1203Y075
X12165Y0754
X12235Y0754
X122646Y07602
X122146Y07602
X122146Y07652
X122646Y07652
X122646Y07702
X122146Y07702
X121646Y07702
X121146Y07702
X1227Y0793
X12185Y08127
X12115Y08251
X12265Y08251
X12065Y08251
X12215Y08251
X12165Y08251
X12215Y08297
X12265Y08297
X121646Y08302
X121146Y08302
X120646Y08302
X121646Y08352
X121146Y08352
X122646Y08352
X120646Y08352
X122146Y08352
X12165Y084
X1224Y084
X1203Y0842
X1203Y085
X12165Y0854
X12235Y0854
X122146Y08602
X122646Y08602
X122146Y08652
X122646Y08652
X121646Y08702
X122646Y08702
X121146Y08702
X122146Y08702
X12035Y08905
X12195Y09075
X121646Y09252
X121146Y09252
X122146Y09252
X122646Y09252
X120646Y09252
X122646Y09302
X122146Y09302
X121646Y09302
X121146Y09302
X120646Y09302
X120646Y09352
X121646Y09352
X121146Y09352
X122146Y09352
X122646Y09352
X1224Y094
X12165Y094
X1203Y0942
X1203Y095
X12235Y0954
X12165Y0954
X122646Y09602
X122146Y09602
X122146Y09652
X122646Y09652
X122646Y09702
X122146Y09702
X121646Y09702
X121146Y09702
X1204Y0991
X12115Y1008
X122646Y10252
X121646Y10252
X121146Y10252
X122146Y10252
X120646Y10252
X121146Y10302
X120646Y10302
X121646Y10302
X122146Y10302
X122646Y10302
X122646Y10352
X122146Y10352
X121146Y10352
X120646Y10352
X121646Y10352
X1224Y104
X12165Y104
X1203Y1042
X1203Y105
X12165Y1054
X12235Y1054
X122146Y10602
X122646Y10602
X122146Y10652
X122646Y10652
X122146Y10702
X122646Y10702
X121146Y10702
X121646Y10702
X12115Y10975
X120646Y11252
X122146Y11252
X121646Y11252
X121146Y11252
X122646Y11252
X122146Y11302
X121146Y11302
X122646Y11302
X121646Y11302
X120646Y11302
X122646Y11352
X120646Y11352
X122146Y11352
X121646Y11352
X121146Y11352
X1224Y114
X12165Y114
X1203Y1142
X1203Y115
X12235Y1154
X12165Y1154
X122146Y11602
X122646Y11602
X122646Y11652
X122146Y11652
X122146Y11702
X122646Y11702
X121646Y11702
X121146Y11702
X1227Y1193
X12179Y12127
X122646Y12252
X121646Y12252
X122146Y12252
X121146Y12252
X120646Y12252
X121146Y12302
X120646Y12302
X121646Y12302
X122646Y12302
X122146Y12302
X122146Y12352
X121146Y12352
X121646Y12352
X120646Y12352
X122646Y12352
X1224Y124
X12165Y124
X1203Y1242
X1203Y125
X12235Y1254
X12165Y1254
X122146Y12602
X122646Y12602
X122146Y12652
X122646Y12652
X122646Y12702
X121646Y12702
X122146Y12702
X121146Y12702
X1204Y1275
X12072Y12754
X12035Y12905
X12252Y12907
X12151Y12917
X12178Y13048
X12248Y13089
X12184Y13096
X12051Y13098
X12221Y13123
X12317Y13056
X12322Y12963
X12313Y12916
X1228Y12905
X125146Y12702
X124646Y12702
X124146Y12702
X123646Y12702
X123146Y12702
X123146Y12652
X123646Y12652
X124146Y12652
X124646Y12652
X125146Y12652
X125146Y12602
X124646Y12602
X123146Y12602
X125146Y12352
X124646Y12352
X123146Y12352
X125146Y12302
X124646Y12302
X124146Y12302
X123646Y12302
X123146Y12302
X125146Y12252
X124646Y12252
X124146Y12252
X123646Y12252
X123146Y12252
X1242Y12179
X1248Y1203
X12431Y12011
X1247Y1197
X1247Y1193
X1238Y1184
X1247Y1183
X124646Y11702
X124146Y11702
X123646Y11702
X123146Y11702
X125146Y11702
X123146Y11652
X123646Y11652
X124146Y11652
X124646Y11652
X125146Y11652
X123146Y11602
X125146Y11602
X124646Y11602
X123146Y11352
X124646Y11352
X125146Y11352
X125146Y11302
X124646Y11302
X124146Y11302
X123646Y11302
X123146Y11302
X125146Y11252
X124646Y11252
X124146Y11252
X123646Y11252
X123146Y11252
X12349Y1121
X12523Y1115
X1232Y1108
X1237Y11037
X1232Y1103
X1242Y10947
X12325Y1093
X1232Y1088
X125146Y10702
X124646Y10702
X124146Y10702
X123646Y10702
X123146Y10702
X125146Y10652
X124646Y10652
X123146Y10652
X123646Y10652
X124146Y10652
X125146Y10602
X124646Y10602
X123146Y10602
X125146Y10352
X124646Y10352
X123146Y10352
X125146Y10302
X124646Y10302
X124146Y10302
X123646Y10302
X123146Y10302
X125146Y10252
X124646Y10252
X124146Y10252
X123646Y10252
X123146Y10252
X1239Y1011
X12395Y10025
X12345Y09995
X12345Y0996
X12345Y09925
X12395Y099
X12515Y0989
X124646Y09702
X125146Y09702
X124146Y09702
X123646Y09702
X123146Y09702
X123146Y09652
X123646Y09652
X124146Y09652
X124646Y09652
X125146Y09652
X125146Y09602
X124646Y09602
X123146Y09602
X124646Y09352
X123146Y09352
X125146Y09352
X124646Y09302
X124146Y09302
X123646Y09302
X123146Y09302
X125146Y09302
X124646Y09252
X123146Y09252
X124146Y09252
X123646Y09252
X125146Y09252
X12435Y09075
X12275Y09075
X1251Y09075
X12355Y09075
X1231Y09035
X1231Y08965
X123146Y08702
X124646Y08702
X124146Y08702
X123646Y08702
X12514Y08699
X123146Y08652
X123646Y08652
X124146Y08652
X124646Y08652
X125146Y08652
X123146Y08602
X124646Y08602
X125146Y08602
X125146Y08352
X124646Y08352
X123146Y08352
X12415Y08297
X12515Y08297
X12465Y08297
X12315Y08297
X12365Y08297
X12315Y08251
X12515Y08251
X12465Y08251
X12365Y08251
X12415Y08251
X1252Y0821
X12431Y08011
X12426Y07974
X1247Y0797
X12425Y0792
X1238Y0784
X1247Y07824
X124146Y07702
X123646Y07702
X123146Y07702
X125146Y07702
X124646Y07702
X124646Y07652
X125146Y07652
X123146Y07652
X123646Y07652
X124146Y07652
X123146Y07602
X125146Y07602
X124646Y07602
X125146Y07352
X123146Y07352
X124646Y07352
X123146Y07302
X125146Y07302
X124646Y07302
X124146Y07302
X123646Y07302
X125146Y07252
X123646Y07252
X124146Y07252
X124646Y07252
X123146Y07252
X12508Y0715
X1237Y0712
X12377Y07067
X1232Y0703
X1242Y06943
X1232Y0688
X1248Y06816
X123146Y06702
X124646Y06702
X125146Y06702
X123646Y06702
X124146Y06702
X123646Y06652
X124146Y06652
X125146Y06652
X123146Y06652
X124646Y06652
X125146Y06602
X124646Y06602
X123146Y06602
X125146Y06352
X124646Y06352
X123146Y06352
X125146Y06302
X124646Y06302
X124146Y06302
X123646Y06302
X123146Y06302
X125146Y06252
X123646Y06252
X123146Y06252
X124146Y06252
X124646Y06252
X1239Y0611
X12395Y06025
X12345Y05995
X12345Y0596
X12345Y05925
X12395Y059
X12515Y0589
X1247Y0578
X125146Y05702
X123646Y05702
X124646Y05702
X123146Y05702
X124146Y05702
X123646Y05652
X124146Y05652
X124646Y05652
X125146Y05652
X123146Y05652
X125146Y05602
X124646Y05602
X123146Y05602
X124646Y05352
X123146Y05352
X125146Y05352
X123646Y05302
X123146Y05302
X125146Y05302
X124146Y05302
X124646Y05302
X124646Y05252
X123646Y05252
X125146Y05252
X124146Y05252
X123146Y05252
X12459Y04955
X1239Y04905
X1238Y04836
X12458Y04778
X1249Y04775
X12518Y04775
X123646Y04702
X124646Y04702
X124146Y04702
X123146Y04702
X125146Y04702
X123146Y04652
X123646Y04652
X124146Y04652
X124646Y04652
X125146Y04652
X123146Y04602
X124646Y04602
X125146Y04602
X125146Y04352
X124646Y04352
X123146Y04352
X123646Y04302
X123146Y04302
X125146Y04302
X124646Y04302
X124146Y04302
X125146Y04252
X124646Y04252
X123646Y04252
X124146Y04252
X123146Y04252
X12492Y04184
X12485Y0415
X12382Y04148
X124308Y04011
X1247Y0397
X1247Y0393
X12425Y0389
X12458Y03883
X1238Y0384
X1247Y0383
X125146Y03702
X124646Y03702
X123146Y03702
X123646Y03702
X124146Y03702
X123146Y03652
X123646Y03652
X124146Y03652
X124646Y03652
X125146Y03652
X125146Y03602
X124646Y03602
X123146Y03602
X125146Y03352
X124646Y03352
X123146Y03352
X124646Y03302
X124146Y03302
X125146Y03302
X123646Y03302
X123146Y03302
X125146Y03252
X124146Y03252
X123646Y03252
X123146Y03252
X124646Y03252
X12375Y0318
X12509Y0315
X1237Y0312
X1237Y0307
X1237Y0304
X1232Y0303
X12419Y02946
X1232Y0288
X123646Y02702
X125146Y02702
X124646Y02702
X123146Y02702
X124146Y02702
X125146Y02652
X124146Y02652
X124646Y02652
X123146Y02652
X123646Y02652
X123146Y02602
X125146Y02602
X124646Y02602
X124646Y02352
X125146Y02352
X123146Y02352
X125146Y02302
X123146Y02302
X124646Y02302
X124146Y02302
X123646Y02302
X125146Y02252
X123646Y02252
X123146Y02252
X124146Y02252
X124646Y02252
X1239Y0211
X12395Y02025
X12345Y01995
X12345Y0196
X12345Y01925
X12395Y019
X12515Y0189
X12438Y0181
X125146Y01702
X124646Y01702
X124146Y01702
X123646Y01702
X123146Y01702
X124146Y01652
X124646Y01652
X123146Y01652
X125146Y01652
X123646Y01652
X124646Y01602
X123146Y01602
X125146Y01602
X125146Y01352
X123146Y01352
X124646Y01352
X123646Y01302
X124146Y01302
X124646Y01302
X125146Y01302
X123146Y01302
X123646Y01252
X124146Y01252
X125146Y01252
X124646Y01252
X123146Y01252
X125646Y01252
X126646Y01252
X126146Y01252
X126646Y01302
X126146Y01302
X125646Y01302
X126646Y01352
X126646Y01402
X126646Y01452
X126146Y01452
X126146Y01502
X126646Y01502
X126646Y01552
X126646Y01602
X126646Y01652
X126146Y01652
X125646Y01652
X126146Y01702
X125646Y01702
X126646Y01702
X12555Y019
X1273Y0219
X126646Y02252
X126146Y02252
X125646Y02252
X125646Y02302
X126646Y02302
X126146Y02302
X126646Y02352
X126646Y02402
X126146Y02452
X126646Y02452
X126646Y02502
X126146Y02502
X126646Y02552
X126646Y02602
X125646Y02652
X126146Y02652
X126646Y02652
X126146Y02702
X126646Y02702
X125646Y02702
X1267Y03015
X126Y03015
X1256Y0303
X12572Y0309
X1267Y03135
X126Y03135
X12635Y03145
X1254Y0315
X1257Y0315
X12608Y0318
X126146Y03252
X126646Y03252
X125646Y03252
X126646Y03302
X126146Y03302
X125646Y03302
X126646Y03352
X126646Y03402
X126646Y03452
X126146Y03452
X126646Y03502
X126146Y03502
X126646Y03552
X126646Y03602
X126646Y03652
X125646Y03652
X126146Y03652
X126646Y03702
X125646Y03702
X126146Y03702
X12735Y0386
X12735Y039
X12735Y0394
X12735Y0398
X12735Y0402
X12735Y0406
X1261Y0408
X12639Y04081
X1268Y04089
X12695Y04205
X126646Y04252
X126146Y04252
X125646Y04252
X126146Y04302
X126646Y04302
X125646Y04302
X126646Y04352
X126646Y04402
X126146Y04452
X126646Y04452
X126646Y04502
X126146Y04502
X126646Y04552
X126646Y04602
X126646Y04652
X125646Y04652
X126146Y04652
X125646Y04702
X126646Y04702
X126146Y04702
X12533Y04836
X12532Y04927
X126146Y05252
X125646Y05252
X126646Y05252
X126146Y05302
X126646Y05302
X125646Y05302
X126646Y05352
X126646Y05402
X126646Y05452
X126146Y05452
X126146Y05502
X126646Y05502
X126646Y05552
X126646Y05602
X126146Y05652
X126646Y05652
X125646Y05652
X126646Y05702
X126146Y05702
X125646Y05702
X12686Y05728
X12695Y05759
X12555Y059
X126646Y06252
X125646Y06252
X126146Y06252
X126646Y06302
X126146Y06302
X125646Y06302
X126646Y06352
X126646Y06402
X126146Y06452
X126646Y06452
X126646Y06502
X126146Y06502
X126646Y06552
X126646Y06602
X125646Y06652
X126146Y06652
X126646Y06652
X126646Y06702
X125646Y06702
X126146Y06702
X1267Y07015
X126Y07015
X12761Y07037
X12578Y0704
X1269Y0704
X12563Y07065
X12572Y07094
X1269Y0711
X1267Y07135
X126Y07135
X12543Y0715
X12573Y0715
X12643Y07155
X126646Y07252
X125646Y07252
X126146Y07252
X125646Y07302
X126646Y07302
X126146Y07302
X126646Y07352
X126646Y07402
X126646Y07452
X126146Y07452
X126146Y07502
X126646Y07502
X126646Y07552
X126646Y07602
X125646Y07652
X126146Y07652
X126646Y07652
X126646Y07702
X125646Y07702
X126146Y07702
X12734Y07861
X12734Y07901
X12734Y07941
X12563Y07943
X12563Y07974
X12734Y07981
X12562Y08002
X12734Y08021
X12734Y08061
X12615Y08251
X12665Y08251
X12565Y08251
X12565Y08297
X12615Y08297
X126646Y08302
X126646Y08352
X126646Y08402
X126646Y08452
X126146Y08452
X126646Y08502
X126146Y08502
X126646Y08552
X126646Y08602
X126146Y08652
X125646Y08652
X126646Y08652
X12565Y08699
X126646Y08702
X126146Y08702
X127Y088
X12585Y09075
X126646Y09252
X125646Y09252
X126146Y09252
X125646Y09302
X126146Y09302
X126646Y09302
X126646Y09352
X126646Y09402
X126146Y09452
X126646Y09452
X126646Y09502
X126146Y09502
X126646Y09552
X126646Y09602
X125646Y09652
X126146Y09652
X126646Y09652
X125646Y09702
X126646Y09702
X126146Y09702
X12555Y099
X1273Y1019
X125646Y10252
X126646Y10252
X126146Y10252
X126146Y10302
X125646Y10302
X126646Y10302
X126646Y10352
X126646Y10402
X126646Y10452
X126146Y10452
X126646Y10502
X126146Y10502
X126646Y10552
X126646Y10602
X126646Y10652
X125646Y10652
X126146Y10652
X125646Y10702
X126646Y10702
X126146Y10702
X1267Y11015
X126Y11015
X12768Y11037
X1269Y1104
X12574Y11049
X12573Y1108
X12572Y1111
X1269Y1111
X126Y11135
X1267Y11135
X12635Y11139
X12558Y1115
X12604Y11181
X126646Y11252
X126146Y11252
X125646Y11252
X126646Y11302
X125646Y11302
X126146Y11302
X126646Y11352
X126646Y11402
X126646Y11452
X126146Y11452
X126146Y11502
X126646Y11502
X126646Y11552
X126646Y11602
X126146Y11652
X126646Y11652
X125646Y11652
X126146Y11702
X125646Y11702
X126646Y11702
X12546Y11772
X12657Y11795
X12735Y1186
X12735Y119
X12735Y1194
X12735Y1198
X12735Y1202
X12735Y1206
X12638Y12079
X12553Y12181
X1271Y1221
X126646Y12252
X126146Y12252
X125646Y12252
X126146Y12302
X126646Y12302
X125646Y12302
X126646Y12352
X126646Y12402
X126146Y12452
X126646Y12452
X126146Y12502
X126646Y12502
X126646Y12552
X126646Y12602
X126146Y12652
X126646Y12652
X125646Y12652
X126146Y12702
X126646Y12702
X125646Y12702
X1264Y13075
X1256Y13095
X1256Y13205
X128Y03
T3C.01969F095S3
X07821Y081445G85X07821Y081602
X07821Y084398G85X07821Y084555
T4C.02362F197S55
X077364Y081701G85X077364Y081858
X079056Y081701G85X079056Y081858
X077364Y084142G85X077364Y084299
X079056Y084142G85X079056Y084299
T5C.0315F197S55
X063996Y124543
X063996Y126213
X063996Y127787
X063996Y128587
X071004Y128587
X071004Y127787
X071004Y126213
X071004Y124937
T6C.035F197S55
X01455Y04095
X01655Y04095
X01555Y04105
X01355Y04105
X01655Y08095
X01455Y08095
X01555Y08105
X01355Y08105
X01455Y12095
X01655Y12095
X01555Y12105
X01355Y12105
X0625Y12605
X0625Y12495
X0625Y1231
X0625Y1221
X12445Y02145
X12345Y02155
X12445Y06145
X12345Y06155
X12445Y10145
X12345Y10155
X12545Y10155
X12645Y10145
X12545Y06155
X12645Y06145
X12545Y02155
X12645Y02145
T7C.03543F197S55
X079343Y1159G85X079657Y1159
X079343Y1109G85X079657Y1109
X060143Y1159G85X060457Y1159
X060143Y1109G85X060457Y1109
T8C.037F197S55
X0769Y1254
X0769Y1274
T9C.039F197S55
X06233Y07404
X06313Y07404
X06273Y07604
X07687Y06846
X07767Y06846
X07727Y06646
T10C.03937F197S55
X122331Y0906
X126269Y0906
T11C.046F139S55
X015Y0178
X015Y0278
X015Y0378
X015Y0478
X015Y0578
X015Y0678
X015Y0778
X015Y0878
X015Y0978
X015Y1078
X015Y1178
X015Y1278
X125Y1247
X125Y1147
X125Y1047
X125Y0947
X125Y0847
X125Y0747
X125Y0647
X125Y0547
X125Y0447
X125Y0347
X125Y0247
X125Y0147
T12C.055F107S55
X07435Y1294
X07435Y13157
X076Y13157
X076Y1294
T13C.06F089S55
X014Y0168
X016Y0168
X014Y0188
X016Y0188
X016Y0268
X014Y0268
X014Y0288
X016Y0288
X014Y0368
X016Y0368
X014Y0388
X016Y0388
X016Y0468
X014Y0468
X014Y0488
X016Y0488
X016Y0568
X014Y0568
X014Y0588
X016Y0588
X014Y0668
X016Y0668
X014Y0688
X016Y0688
X016Y0768
X014Y0768
X014Y0788
X016Y0788
X014Y0868
X016Y0868
X016Y0888
X014Y0888
X016Y0968
X014Y0968
X014Y0988
X016Y0988
X014Y1068
X016Y1068
X016Y1088
X014Y1088
X016Y1168
X014Y1168
X014Y1188
X016Y1188
X014Y1268
X016Y1268
X014Y1288
X016Y1288
X124Y1257
X124Y1237
X124Y1157
X124Y1137
X124Y1057
X124Y1037
X124Y0957
X124Y0937
X124Y0857
X124Y0837
X124Y0757
X124Y0737
X124Y0657
X124Y0637
X124Y0557
X124Y0537
X124Y0457
X124Y0437
X124Y0357
X124Y0337
X124Y0257
X124Y0237
X124Y0157
X124Y0137
X126Y0137
X126Y0157
X126Y0237
X126Y0257
X126Y0337
X126Y0357
X126Y0437
X126Y0457
X126Y0537
X126Y0557
X126Y0637
X126Y0657
X126Y0737
X126Y0757
X126Y0837
X126Y0857
X126Y0937
X126Y0957
X126Y1037
X126Y1057
X126Y1137
X126Y1157
X126Y1237
X126Y1257
T14C.06102F089S55
X06435Y127
X07065Y127
T15C.09843F066S55
X013543Y011181
X041102Y030866
X041102Y101732
X045039Y125354
X09622Y125354
X09622Y101732
X09622Y030866
X084409Y011181
X05685Y011181
X12378Y011181
T16C.1285F035S794
X0115Y0115
X0115Y0528
X0115Y0928
X0115Y131
X0475Y131
X07Y0625
X0515Y0525
X0515Y0215
X0515Y0115
X0875Y0115
X0875Y0215
X0875Y0525
X075Y105
X0945Y131
X1285Y131
X1285Y0897
X1285Y0497
X1285Y0115
M30
